<svg xmlns="http://www.w3.org/2000/svg" width="237.2" height="540.9" viewBox="0 0 237.2 540.9">
  <g id="Symbol_248_1" data-name="Symbol 248 – 1" transform="translate(237.2 0) rotate(90)">
    <path id="Path_1040" data-name="Path 1040" d="M520.4,22c-7-7.2-22.8-9.5-22.9-9.5S483.7,8.8,477,8c-5.3-.7-22.6-1.4-38.8-1.4-3.2,0-6.1,0-8.7.1-15.7.4-23.8,4.3-24.6,4.7l-210.6.3L195.7,0h-.5a14.482,14.482,0,0,0-4.4.6c-1.5.7-2.9,3.3-3.2,6.2-.1.7-.2,1.6-.4,2.5-.1.7-.2,1.5-.3,2.3H154.6a171.272,171.272,0,0,0-41.3-5C88.5,6.6,71.5,7.7,63,9.9c-.2,0-20.4.4-31.9,7.4C18.9,24.7,12.8,32.2,8.3,44.9,3.7,58,.8,71.2.4,80,0,88.7,0,118.4,0,118.6c0,.3,0,29.9.4,38.7s3.3,21.9,8,35.1c4.5,12.7,10.6,20.2,22.7,27.5,11.5,7,31.5,7.4,31.9,7.4h0c8.6,2.2,25.5,3.3,50.4,3.3a172.275,172.275,0,0,0,41.3-5h32.2c.1.8.2,1.5.3,2.3.1.9.3,1.8.4,2.5.3,3,1.6,5.5,3.2,6.2a14.482,14.482,0,0,0,4.4.6h.5l-1.4-11.6,210.6.3c.7.4,8.9,4.4,24.6,4.7,2.6.1,5.6.1,8.8.1h0c14.6,0,32.7-.7,38.8-1.4,6.7-.8,20.3-4.5,20.4-4.5.2,0,15.9-2.3,23-9.5,6-6.2,20.1-27.9,20.4-96.7C540.5,49.9,526.4,28.1,520.4,22ZM429.5,7.1c2.6-.1,5.6-.1,8.7-.1,16.2,0,33.4.7,38.7,1.4s14.9,3.1,18.7,4.1c-10.1-.6-61.6-3.3-89.8-1.1C408.4,10.3,416.2,7.4,429.5,7.1ZM405,11.8h.1a.31.31,0,0,0,.2-.1c29.3-2.4,85.2.8,91.5,1.1a1.759,1.759,0,0,0,.6.1,45.911,45.911,0,0,1,5.3,1.1h0l.1.1a37.351,37.351,0,0,1,7.4,5.7c-7.9-.4-122.9-6.1-172-6.6l-.1-1.4ZM534.2,118.6c0,33.1-4.3,55.9-6.8,66.6a101.737,101.737,0,0,1-4,13.5c-4.8,12.6-12.8,18.4-12.9,18.4h-.1c-5.5.3-122.7,6.1-172.3,6.6l-4.4-7.2,8.4-19.1a2.433,2.433,0,0,0-.3-1.9c-.8-1.1-2.6-1.8-5.3-2-6.4-.4-21.4-.5-32.7-.4-10.8.1-39.2,1.9-53.9,3.7-13.2,1.7-39,7.4-50.9,10.2-12.9,3-28.8,7.5-31.1,11.3l-2.4,4.5c-5,0-8.7-.1-10.7-.1-14.8,0-85.7-3-101.5-5.3a27.4,27.4,0,0,0-4.3-8.3c-.6-.9-1.2-1.7-1.8-2.6,11.7.9,42.4,3.2,51.5,3.5,2.5.1,5.3.1,8.2.1,10.6,0,22.7-.5,28.7-1.4a70.694,70.694,0,0,0,14.8-3.9c2.4,2.2,5.2,2.8,8.5,2.8h0c1.1,0,2.2-.1,3.3-.1h.9c6.9-.3,18.2-2.4,33.7-6.2,16.5-4.1,40.6-9.8,43.1-10.2a2.625,2.625,0,0,0,2.3-3c-.2-.9-.3-2-.6-3.3a373.793,373.793,0,0,1-6.2-66.2,373.793,373.793,0,0,1,6.2-66.2q.3-1.95.6-3.3a2.52,2.52,0,0,0-2.2-3c-2.5-.5-26.6-6.2-43.1-10.2-15.5-3.8-26.8-5.9-33.7-6.2h-.9c-1.1-.1-2.2-.1-3.3-.1-3.2,0-6,.6-8.4,2.7h0a70.066,70.066,0,0,0-14.9-3.9c-7.6-1.2-25.2-1.6-36.9-1.3-6.4.2-23.7,1.4-51.3,3.6h-.2c.6-.8,1.1-1.6,1.7-2.5a28.865,28.865,0,0,0,4.3-8.4c15.9-2.3,86.1-5.2,101.5-5.2,2.1,0,5.9,0,10.7-.1l2.4,4.5c-28.9.4-76.1,3-76.6,3v.2c.4,0,38.4.3,44.4.5,6.1.1,24.8.7,30,1.9,1.3.3,5.1,1.2,10.3,2.4,16.2,3.8,46.2,11,63.5,14.2,23.7,4.5,71.2,5.4,87.5,5.4,24,0,68.4-.2,95.3-1.6,9.8-.5,22-1.7,33.4-3.1,3.4-.4,12.9,1,22.7,3.4-12.5,1-26.7,2.2-32.3,3-7.9,1.1-16.8,3.5-15.7,12.2.9,6.9,4.3,36.9,4.3,58.3s-3.4,51.4-4.3,58.3c-1.2,8.7,7.8,11.1,15.7,12.2,8.6,1.2,37.7,3.5,49.7,4.3a23.482,23.482,0,0,0,2.6.1c7,0,10-2.5,12.1-5.9a45.643,45.643,0,0,1-9.1,14.3c-9.9,7.7-33.2,9.9-35.7,10.1l-.1-.1c-.1-.1-14.4-7.7-38.8-12.5-22-4.3-55.5-4.5-69.9-4.5-6.1,0-8.2,4.4-8.2,4.4l-7.4,17.3h.4c30.2-.8,123-4.2,124-4.2h.8l-.3-.1c3.9-.3,25.9-2.6,35.5-10.1,5-5,8.2-11.8,9.9-16.2.4-.8.8-1.6,1.2-2.5,3-6.6,7.5-36.7,7.5-64.8,0-27.5-4.3-56.9-7.3-64.3-2.5-7.6-6.8-15.8-11.3-19.2-9.6-7.5-31.6-9.8-35.5-10.1l.3-.1h-.8c-.9,0-93.8-3.4-124-4.2h-.4l7.4,17.3s2.1,4.4,8.2,4.4h0c14.3-.1,47.9-.2,69.9-4.5,24.4-4.8,38.7-12.4,38.8-12.5l.1-.1c2.6.2,25.8,2.4,35.7,10.1,4.1,3,7.9,9.9,10.4,16.8-2.2-4.7-4.9-8.4-13.4-8.4a23.484,23.484,0,0,0-2.6.1c-4.1.3-10.1.7-16.7,1.3-10.1-2.5-20-4-23.5-3.6-11.4,1.5-23.6,2.6-33.4,3.1-26.9,1.4-71.2,1.6-95.3,1.6-16.3,0-63.8-1-87.5-5.4C222.1,37.9,192,30.8,175.9,27c-5.2-1.2-9-2.1-10.3-2.4-5.2-1.1-23.9-1.7-30-1.9-4.9-.1-30.7-.3-40.6-.4,11.9-.6,48.9-2.4,73-2.8,2.7,3.7,18.2,8.1,30.9,11,11.8,2.8,37.7,8.5,50.9,10.2,14.7,1.8,43.1,3.6,53.9,3.7,2.8,0,5.9.1,9,.1,9.3,0,18.9-.2,23.7-.4,3.4-.2,4.7-1.2,5.3-2a2.433,2.433,0,0,0,.3-1.9l-8.4-19.1,4.4-7.2c49.6.4,166.7,6.3,172.3,6.6h.1c.1.1,8.1,5.8,12.9,18.5a101.736,101.736,0,0,1,4,13.5C530,62.8,534.2,85.6,534.2,118.6Zm-6.3-66.3c1.5,0,4.6.5,5.5,3.8,1.7,5.7,5.1,26.1,5.8,62.6-.7,36.4-4.1,56.9-5.8,62.6a5.493,5.493,0,0,1-5.5,3.8c2.6-10.8,6.8-33.6,6.8-66.4C534.7,85.8,530.5,63.1,527.9,52.3ZM43.3,218.4c-4.3-2.2-9.3-6.3-14.2-13.1-7.7-10.8-13.5-27.9-15.4-33.8,10.1,6.2,22.1,19.3,35,38,4.1,5.9,4.8,9.4,4.2,10.6-.2.4-.6.6-1.3.7h-.2a17.594,17.594,0,0,1-7.8-2.3l.1-.1ZM6.1,95.6C6.7,83.2,8.4,74.1,11.6,65c.4-1.1.8-2.4,1.3-3.7,3-8.6,7.5-21.6,14.7-30.9,5.8-7.5,11.2-10.2,13.9-11.2A44.472,44.472,0,0,0,28.6,31.6c-8,11.3-14,29.2-15.6,34.5v.6l.5-.3a70.235,70.235,0,0,0,11.6-9.1L19.4,67.5l.4-.2c11.1-5.4,67.3-16.7,88.5-20.8C89.8,50.6,45.1,60.7,29.7,65.6,19.2,68.9,17,73,16.6,74.2a1.613,1.613,0,0,0-.9-.3c-1.2,0-2.6,1.3-3.5,2.4-1.9,2.5-2.9,5-3.6,9.7C7.6,92.4,7,104,7,118.6c0,14.7.6,26.3,1.6,32.6.8,4.7,1.7,7.2,3.6,9.7.9,1.2,2.3,2.4,3.5,2.4a1.613,1.613,0,0,0,.9-.3c.4,1.2,2.6,5.3,13.1,8.6,15.4,4.9,60.1,15,78.6,19.1-21.3-4.1-77.4-15.4-88.5-20.8l-.4-.2L25,179.8a69.9,69.9,0,0,0-11.5-9.1l-.5-.3.2.6c1.6,5.2,7.6,23.2,15.6,34.5a42.585,42.585,0,0,0,12.8,12.3c-2.6-.9-8-3.6-13.8-11.1C20.5,197.5,16,184.5,13,176c-.5-1.4-.9-2.6-1.3-3.7-3.3-9-4.9-18.2-5.5-30.6-.7-13.2-.3-22.9-.3-23C5.8,118.5,5.5,108.8,6.1,95.6ZM147.7,200c-7.8-16.7-11.7-44.1-11.7-81.4s3.9-64.7,11.7-81.4c2.8-6.1,6.5-7.4,11.4-7.4,1.1,0,2.1.1,3.3.1h.9c6.8.3,18.1,2.4,33.6,6.2,16.4,4.1,40.6,9.8,43.1,10.3a2.175,2.175,0,0,1,1.9,2.5c-.2.9-.3,2-.6,3.3a375.223,375.223,0,0,0-6.2,66.3,375.224,375.224,0,0,0,6.2,66.3q.3,1.95.6,3.3a2.091,2.091,0,0,1-1.9,2.5c-2.5.5-26.6,6.2-43.1,10.3-15.5,3.8-26.8,5.9-33.6,6.2h-.9c-1.1.1-2.2.1-3.3.1h0C154.1,207.4,150.5,206.1,147.7,200Zm.9,2.6c-3.8-.3-12.7-7.1-16.4-17-4-10.8-8.5-34.7-8.4-66.9-.1-32.2,4.5-56.1,8.4-66.9,3.7-10,12.6-16.8,16.4-17a13.575,13.575,0,0,0-1.3,2.4c-7.8,16.8-11.7,44.2-11.7,81.6s3.9,64.8,11.7,81.6A25.292,25.292,0,0,0,148.6,202.6Zm.3-168.4c-3.8-.1-13.2,6.8-17.1,17.4-4,10.8-8.6,34.8-8.5,67.1-.1,32.2,4.5,56.3,8.5,67.1,3.9,10.5,13.2,17.4,17,17.4h.1c.4.6.9,1.1,1.3,1.6a67.9,67.9,0,0,1-14.5,3.8c-7.6,1.2-25.2,1.6-36.8,1.3-9.3-.3-40.5-2.6-51.9-3.5a186.221,186.221,0,0,0-21.4-25.8L20,170.5c14.4,6.8,95.7,22.1,96.5,22.3v-.2c-.7-.1-67.2-14.7-86.7-20.9-10.8-3.4-12.7-7.5-13-8.6l.1-.1q1.05-1.2.9-4.8c-.1-2.5-.4-5.8-.7-9.7-.7-9.1-1.5-20.5-1.6-29.8.1-9.3.9-20.6,1.6-29.8.3-3.9.5-7.2.7-9.7q.15-3.75-.9-4.8l-.1-.1c.3-1,2.2-5.1,13-8.6,19.5-6.2,86-20.8,86.7-20.9v-.2c-.8.2-82.2,15.5-96.5,22.3l5.7-10.2c6.7-6.5,13.9-15.2,21.5-25.8h.5c27.6-2.2,44.9-3.4,51.3-3.6,11.7-.3,29.2.1,36.8,1.3a73.594,73.594,0,0,1,14.6,3.8A11.922,11.922,0,0,0,148.9,34.2ZM9.4,96.5c0,.4-.1.8-.1,1.2-.4,5.2-.8,15.8-.8,21,0,3.2.3,8.7.5,13.4.1,2.9.3,5.7.3,7.5.2,6.4,1.3,21.1,7.8,21.9a6.136,6.136,0,0,1-.5,1.1,1.235,1.235,0,0,1-.8.4c-.9,0-2.1-.9-3.1-2.3-1.9-2.5-2.8-4.9-3.5-9.5-1-6.3-1.6-17.9-1.6-32.5,0-14.7.6-26.2,1.6-32.5.7-4.6,1.6-7,3.5-9.5,1-1.4,2.3-2.3,3.1-2.3a.909.909,0,0,1,.8.4,2.257,2.257,0,0,1,.5,1.1C10.7,76.5,9.8,90.5,9.4,96.5Zm7.8-20.2a12.47,12.47,0,0,1,.1,2.9c-.1,2.5-.4,5.8-.7,9.7-.7,9.1-1.5,20.5-1.6,29.8.1,9.3.9,20.7,1.6,29.8.3,3.9.5,7.2.7,9.7a12.47,12.47,0,0,1-.1,2.9c-6.2-.6-7.3-15.1-7.4-21.4-.1-1.8-.2-4.6-.3-7.5-.3-4.9-.5-10.3-.5-13.6,0-5.2.4-15.8.8-20.9,0-.3.1-.7.1-1.2C10.2,91.1,11.2,76.9,17.2,76.3ZM13.8,65.7c1.8-5.9,7.6-22.9,15.4-33.8,8.7-12.2,18.1-15.5,22.3-15.5h.2c.7,0,1.1.2,1.3.7.6,1.2-.1,4.7-4.2,10.6C35.9,46.4,23.8,59.5,13.8,65.7ZM495.9,44.3a21.751,21.751,0,0,1,2.5-.1c8.9,0,11,3.8,13.8,9.9,3,6.6,7.4,36.6,7.4,64.6s-4.4,58-7.4,64.6c-2.8,6.1-5,9.9-13.8,9.9a21.749,21.749,0,0,1-2.5-.1c-12-.9-41.1-3.1-49.7-4.3-7.7-1.1-16.4-3.4-15.3-11.7.9-6.9,4.3-37,4.3-58.4s-3.4-51.5-4.3-58.4c-1.1-8.3,7.6-10.6,15.3-11.7C454.8,47.4,483.9,45.1,495.9,44.3ZM464.5,212c-9.6.3-93.8,3.4-122.7,4.2l7.1-16.6s2-4.1,7.9-4.1c14.3.1,47.9.2,69.8,4.5C447.7,204.1,461.2,210.4,464.5,212ZM349,37.7l-7.2-16.6c29,.8,113.1,3.8,122.7,4.2-3.3,1.6-16.8,7.9-37.9,12.1-21.9,4.3-55.5,4.5-69.8,4.5v0C351,41.9,349,37.8,349,37.7ZM189.3,21h0a6.749,6.749,0,0,0,3.8,1.1h.1c2.3,0,2.5-1.3,2.5-1.4v-.1l-.7-1.4c38.8.4,107.1,1.2,131.7,1.5l7.7,17.2a2.733,2.733,0,0,1-.1,2.4c-.6,1-1.9,1.5-4,1.6-22.6,1.3-62.4.1-100.3-7.8-39.9-8.3-50.8-13.6-53.2-15.1l11.7.1Zm-1.4-4h5.5l1.8,3.8c-.1.2-.4.9-2,.9h-.1a6.479,6.479,0,0,1-3.5-1Zm42,17.7A431.094,431.094,0,0,0,313.1,43c6.5,0,12.3-.2,17.3-.5,2.2-.1,3.7-.8,4.4-1.9a2.92,2.92,0,0,0,.1-2.8L327,20.4h-.1c-24.5-.3-93.2-1.1-132.1-1.5l-1.2-2.4h0l.4-2.4c37.7-.3,107.7-.9,143.5-.7h.2l-4.3,7-.1.2,8.5,19.3a2.242,2.242,0,0,1-.2,1.5c-.5.7-1.7,1.6-4.9,1.8-6.4.4-21.3.5-32.7.4-10.8-.1-39.2-1.9-53.8-3.7-13.2-1.7-39-7.4-50.8-10.1-21.7-5.1-28.7-8.5-30.5-10.6,2.5,0,4.8-.1,7-.1l.1.1C176.1,19.3,182.6,24.9,229.9,34.7ZM337.6,11.9l.1,1.3h-.3c-35.8-.3-105.7.3-143.4.7l.3-1.8ZM187.7,9.4c.1-.9.3-1.8.4-2.5.3-2.8,1.5-5.2,2.9-5.8a13.676,13.676,0,0,1,4.2-.6l-1.3,11.1h-6.5C187.5,10.9,187.6,10.1,187.7,9.4Zm6.1,2.6-.7,4.5h-5.4l-.3-4.5Zm-6.6,4.5h-.1l1.1,2.3-12.8-.1.1.1c-2.2,0-4.5,0-6.9.1,0-.1-.1-.1-.1-.2l-2.3-4.3c5.9,0,13.2-.1,20.9-.2Zm-.3-4.4L187,14c-7.7.1-15.1.1-21,.2l-1.1-2Zm-73.5-5a171.648,171.648,0,0,1,39.9,4.7c-6.7,0-37.7.2-53.9.4-17,.2-31.3-.9-35.2-2.1C73,8.1,89.9,7.1,113.4,7.1ZM63,10.4c.2-.1.5-.1.7-.2,3.1,1.1,16,2.2,31.8,2.2h3.8c17-.2,50.5-.4,54.7-.4a1,1,0,0,0,.4.1h9.8l1.1,2c-4.8,0-8.6.1-10.6.1-15.3,0-85.3,2.9-101.4,5.2a3.715,3.715,0,0,0-.1-2.4,1.956,1.956,0,0,0-1.5-.9,112.852,112.852,0,0,1,11.1-5.6ZM31.3,219.6c-12-7.3-18.1-14.7-22.5-27.3C4.2,179.2,1.2,166.1.9,157.4.5,148.6.5,119,.5,118.7S.5,88.8.9,80c.3-8.8,3.3-21.8,7.9-35,4.4-12.6,10.5-20,22.5-27.3,10.2-6.2,27.2-7.2,31-7.3C58.6,12,52.6,15.3,51.4,16a18.273,18.273,0,0,0-8,2.3c-.5.1-7.9,1.3-16,11.9-7.2,9.4-11.8,22.4-14.8,31-.5,1.4-.9,2.6-1.3,3.7C8,74,6.3,83.2,5.7,95.6c-.7,13.2-.3,22.9-.3,23s-.3,9.8.3,23c.6,12.4,2.3,21.6,5.6,30.7.4,1.1.8,2.4,1.3,3.7,3,8.6,7.6,21.6,14.8,31s13.7,11.3,15.4,11.7h0l.3.3.2-.2a19.079,19.079,0,0,0,8,2.4,114.585,114.585,0,0,0,11,5.6C58.6,226.7,41.5,225.8,31.3,219.6Zm82.1,10.6c-23.4,0-40.3-1-49.2-3,3.9-1.2,18.3-2.2,35.2-2.1,16.1.2,47.1.4,53.9.4A166.017,166.017,0,0,1,113.4,230.2Zm73.5-5H154.6a1.577,1.577,0,0,0-.4.1c-4.2,0-37.7-.2-54.7-.4-17.5-.2-32.4,1-35.7,2.2-.3-.1-.5-.1-.8-.2h-.1c-3.4-1.4-9.5-4.7-11.2-5.6a1.6,1.6,0,0,0,1.6-.9,4.094,4.094,0,0,0,.1-2.5c15.9,2.3,86.6,5.3,101.4,5.3,2,0,5.7,0,10.6.1l-1,1.8.4.2,1.1-2c5.5,0,12.7.1,21,.2Zm.2-4.4-.1,2.3c-8.3-.1-15.3-.1-20.9-.2l2.3-4.3c1.2-2,7.5-5.5,30.8-11,11.8-2.8,37.6-8.5,50.8-10.1,14.6-1.8,43.1-3.6,53.8-3.7,11.4-.2,26.4,0,32.7.4,2.5.1,4.2.8,4.9,1.8a1.421,1.421,0,0,1,.2,1.5l-8.5,19.3,4.3,7.1h-.1c-36,.3-105.8-.3-143.4-.7l-.3-2.4h0l.2-2.3c32-.4,106.5-1.2,133-1.5h.1l7.8-17.5a3.259,3.259,0,0,0-.1-2.8c-.7-1.1-2.1-1.7-4.4-1.9-22.6-1.3-62.4-.1-100.4,7.8-47.3,9.8-53.8,15.4-54.1,15.6l-.4.4h.6s3.3-.1,11.6-.1l-.4,2.3Zm4.1-5.8H191c-2.5.1-2.9.6-2.9.8l-.4,2.1c-6.1.1-9.5.1-10.9.1,2.4-1.5,13.4-6.8,53.2-15.1,38-7.9,77.8-9.1,100.3-7.8,2.1.1,3.4.7,4,1.6a2.733,2.733,0,0,1,.1,2.4l-7.7,17.2c-26.6.3-100.8,1.2-132.8,1.5l.1-1.5C194,216.4,193.8,215,191.2,215Zm2.4,1.5-.3,3.8h-5.6l.9-4.3s.3-.4,2.5-.5h.2C193.2,215.5,193.5,216.3,193.6,216.5Zm-6,4.3h5.6l.6,4.5h-6.5Zm7.6,16a11.186,11.186,0,0,1-4.2-.6c-1.4-.6-2.6-3.1-2.9-5.9-.1-.7-.2-1.6-.4-2.5-.1-.7-.2-1.5-.3-2.2h6.5Zm142.4-11.4-143.3-.2-.2-1.8c31,.3,83.9.7,121.7.7,8,0,15.4,0,21.7-.1h.3v.1ZM477,228.9c-5.3.7-22.5,1.4-38.7,1.4-3.2,0-6.1,0-8.7-.1-13.3-.3-21.2-3.2-23.6-4.3,7.8.6,17.5.8,27.5.8,26.1,0,55-1.5,62.2-1.9C491.8,225.8,482.2,228.2,477,228.9Zm25.7-5.6a45.014,45.014,0,0,1-5.4,1.1,1.213,1.213,0,0,1-.5.1c-6.3.4-62.2,3.5-91.5,1.1a.31.31,0,0,0-.2-.1H405l-67-.1.1-1.4c49.1-.4,164.1-6.2,172-6.6a34.482,34.482,0,0,1-7.4,5.7Zm17.4-8.3c-4,4.1-10.9,6.6-16.1,7.9a33.348,33.348,0,0,0,6.8-5.4c.5-.4,8.3-6.3,13.1-18.6a117.108,117.108,0,0,0,4-13.4,5.93,5.93,0,0,0,6.1-4.2c1.7-5.7,5.1-26.2,5.8-62.7-.7-36.5-4.1-57-5.8-62.7-1.1-3.7-4.6-4.2-6.1-4.2a99.888,99.888,0,0,0-4-13.4c-4.7-12.4-12.5-18.2-13.1-18.6-1.1-1.4-3.4-3.2-6.8-5.4,5.2,1.4,12.1,3.9,16.1,7.9,6,6.1,20,27.7,20.2,96.4C540,187.3,526.1,208.9,520.1,215Z"/>
    <path id="Path_1041" data-name="Path 1041" d="M432.8,60c.9,6.9,4.4,37.1,4.4,58.6s-3.4,51.7-4.4,58.6c-.5,3.9.8,7.7,13.7,9.5,8.5,1.2,37.6,3.5,49.5,4.3a19.267,19.267,0,0,0,2.4.1c8.1,0,9.7-3.5,12.1-8.8,2.6-5.6,7.3-34.1,7.3-63.8s-4.7-58.2-7.3-63.8c-2.4-5.3-4-8.8-12.1-8.8a20.932,20.932,0,0,0-2.4.1c-11.9.9-41,3.1-49.5,4.3C433.6,52.3,432.3,56.2,432.8,60Zm13.7-9.3c8.5-1.2,37.6-3.5,49.5-4.3a19.269,19.269,0,0,1,2.4-.1c7.9,0,9.5,3.4,11.9,8.6,2.6,5.6,7.2,34,7.2,63.7s-4.7,58.1-7.3,63.7c-2.4,5.2-3.9,8.6-11.9,8.6a20.931,20.931,0,0,1-2.4-.1c-11.9-.9-41-3.1-49.5-4.3-12.7-1.8-14-5.5-13.5-9.3.9-6.9,4.4-37.1,4.4-58.6s-3.4-51.7-4.4-58.6C432.6,56.2,433.8,52.5,446.5,50.7Z"/>
    <path id="Path_1042" data-name="Path 1042" d="M162.4,202a174.319,174.319,0,0,0,33.5-3.7c8.2-1.6,18.3-4.1,26.4-6.2,3.5-.9,6.9-1.7,9.6-2.4,3.4-.8,5.2-4.3,4.5-8.6l-.1-.7a327.908,327.908,0,0,1-5.5-61.8,327.908,327.908,0,0,1,5.5-61.8l.1-.7c.8-4.3-1.1-7.7-4.5-8.6-2.7-.6-6.1-1.5-9.6-2.4-8.1-2-18.2-4.6-26.4-6.2a173.5,173.5,0,0,0-33.5-3.7c-7.1,0-9.4,3.3-11.6,9.8-5.5,16.4-8.8,34.4-8.8,73.6s3.4,57.2,8.8,73.6C153,198.7,155.4,202,162.4,202ZM151,45.2c2.1-6.4,4.5-9.6,11.4-9.6a174.319,174.319,0,0,1,33.5,3.7c8.2,1.6,18.3,4.1,26.4,6.2,3.5.9,6.9,1.7,9.6,2.4,3.4.8,5,4.1,4.3,8.3l-.1.7a329.24,329.24,0,0,0-5.5,61.9,329.24,329.24,0,0,0,5.5,61.9l.1.7c.7,4.2-1,7.5-4.3,8.3-2.7.6-6.1,1.5-9.6,2.4-8.1,2-18.2,4.6-26.4,6.2a173.5,173.5,0,0,1-33.5,3.7c-6.9,0-9.3-3.2-11.4-9.6-5.4-16.3-8.8-34.3-8.8-73.5C142.2,79.5,145.6,61.5,151,45.2Z"/>
  </g>
</svg>
