<svg xmlns="http://www.w3.org/2000/svg" xmlns:xlink="http://www.w3.org/1999/xlink" width="47.253" height="43.523" viewBox="0 0 47.253 43.523">
  <defs>
    <clipPath id="clip-path">
      <path id="Path_966" data-name="Path 966" d="M66.017-162.932l.485-29.844A1.244,1.244,0,0,1,67.745-194H89.118a1.244,1.244,0,0,1,1.243,1.223l.485,29.844a1.243,1.243,0,0,1-1.223,1.264H67.26a1.243,1.243,0,0,1-1.244-1.243C66.016-162.919,66.016-162.926,66.017-162.932Z" transform="translate(-66.016 194)" fill="#bebebe" stroke="#707070" stroke-width="1"/>
    </clipPath>
    <clipPath id="clip-path-2">
      <path id="Path_965" data-name="Path 965" d="M-42,432.423H424.317V-397H-42Z" transform="translate(42 397)" fill="#bebebe" stroke="#707070" stroke-width="1"/>
    </clipPath>
    <clipPath id="clip-path-3">
      <path id="Path_969" data-name="Path 969" d="M104.253-178.337v11.6a1.637,1.637,0,0,1-1.578,1.663H98.745a1.637,1.637,0,0,1-1.578-1.663v-11.6A1.637,1.637,0,0,1,98.745-180h3.916A1.636,1.636,0,0,1,104.253-178.337ZM62.509-180H58.578A1.637,1.637,0,0,0,57-178.337v11.6a1.637,1.637,0,0,0,1.578,1.663h3.931a1.637,1.637,0,0,0,1.578-1.663v-11.6A1.637,1.637,0,0,0,62.509-180Z" transform="translate(-57 180)" fill="#bebebe" stroke="#707070" stroke-width="1"/>
    </clipPath>
    <clipPath id="clip-path-5">
      <path id="Path_972" data-name="Path 972" d="M63.052-165h33.2a2.052,2.052,0,0,1,2.052,2.052v3.358a2.052,2.052,0,0,1-2.052,2.052h-33.2A2.052,2.052,0,0,1,61-159.591v-3.358A2.052,2.052,0,0,1,63.052-165Z" transform="translate(-61 165)" fill="#bebebe" stroke="#707070" stroke-width="1"/>
    </clipPath>
  </defs>
  <g id="_1_Seat" data-name="1 Seat" transform="translate(-139.809 -395.191)">
    <g id="Group_3130" data-name="Group 3130" transform="translate(151.02 395.191)" clip-path="url(#clip-path)">
      <g id="Group_3129" data-name="Group 3129" transform="translate(-134.32 -252.433)" clip-path="url(#clip-path-2)">
        <path id="Path_964" data-name="Path 964" d="M61.016-154.234H98.281V-199H61.016Z" transform="translate(67.086 445.216)" fill="#bebebe" stroke="#707070" stroke-width="1"/>
      </g>
    </g>
    <g id="Group_3132" data-name="Group 3132" transform="translate(139.809 412.6)" clip-path="url(#clip-path-3)">
      <g id="Group_3131" data-name="Group 3131" transform="translate(-123.108 -269.842)" clip-path="url(#clip-path-2)">
        <path id="Path_967" data-name="Path 967" d="M52-157.643h59.689V-185H52Z" transform="translate(64.89 448.625)" fill="#bebebe" stroke="#707070" stroke-width="1"/>
      </g>
    </g>
    <g id="Group_3134" data-name="Group 3134" transform="translate(144.783 431.253)" clip-path="url(#clip-path-5)">
      <g id="Group_3133" data-name="Group 3133" transform="translate(-128.082 -288.495)" clip-path="url(#clip-path-2)">
        <path id="Path_970" data-name="Path 970" d="M56-150.1h49.741V-170H56Z" transform="translate(65.864 452.277)" fill="#bebebe" stroke="#707070" stroke-width="1"/>
      </g>
    </g>
  </g>
</svg>
