<svg xmlns="http://www.w3.org/2000/svg" xmlns:xlink="http://www.w3.org/1999/xlink" width="47.253" height="43.522" viewBox="0 0 47.253 43.522">
  <defs>
    <clipPath id="clip-path">
      <path id="Path_903" data-name="Path 903" d="M66.017-162.932l.485-29.844A1.244,1.244,0,0,1,67.745-194H89.118a1.244,1.244,0,0,1,1.243,1.223l.485,29.844a1.243,1.243,0,0,1-1.223,1.264H67.26a1.243,1.243,0,0,1-1.244-1.243C66.016-162.919,66.016-162.926,66.017-162.932Z" transform="translate(-66.016 194)" fill="#f50052"/>
    </clipPath>
    <clipPath id="clip-path-2">
      <path id="Path_902" data-name="Path 902" d="M-42,432.423H424.317V-397H-42Z" transform="translate(42 397)" fill="#f50052"/>
    </clipPath>
    <clipPath id="clip-path-3">
      <path id="Path_906" data-name="Path 906" d="M104.253-178.337v11.6a1.637,1.637,0,0,1-1.578,1.663H98.745a1.637,1.637,0,0,1-1.578-1.663v-11.6A1.637,1.637,0,0,1,98.745-180h3.916A1.636,1.636,0,0,1,104.253-178.337ZM62.509-180H58.578A1.637,1.637,0,0,0,57-178.337v11.6a1.637,1.637,0,0,0,1.578,1.663h3.931a1.637,1.637,0,0,0,1.578-1.663v-11.6A1.637,1.637,0,0,0,62.509-180Z" transform="translate(-57 180)" fill="#f50052"/>
    </clipPath>
    <clipPath id="clip-path-5">
      <path id="Path_909" data-name="Path 909" d="M63.052-165h33.2a2.052,2.052,0,0,1,2.052,2.052v3.358a2.052,2.052,0,0,1-2.052,2.052h-33.2A2.052,2.052,0,0,1,61-159.591v-3.358A2.052,2.052,0,0,1,63.052-165Z" transform="translate(-61 165)" fill="#f50052"/>
    </clipPath>
  </defs>
  <g id="_9_Seat" data-name="9 Seat" transform="translate(-139.809 -559.545)">
    <g id="Group_3085" data-name="Group 3085" transform="translate(151.02 559.545)" clip-path="url(#clip-path)">
      <g id="Group_3084" data-name="Group 3084" transform="translate(-134.32 -252.433)" clip-path="url(#clip-path-2)">
        <path id="Path_901" data-name="Path 901" d="M61.016-154.234H98.281V-199H61.016Z" transform="translate(67.086 445.216)" fill="#f50052"/>
      </g>
    </g>
    <g id="Group_3087" data-name="Group 3087" transform="translate(139.809 576.954)" clip-path="url(#clip-path-3)">
      <g id="Group_3086" data-name="Group 3086" transform="translate(-123.108 -269.842)" clip-path="url(#clip-path-2)">
        <path id="Path_904" data-name="Path 904" d="M52-157.643h59.689V-185H52Z" transform="translate(64.89 448.625)" fill="#f50052"/>
      </g>
    </g>
    <g id="Group_3089" data-name="Group 3089" transform="translate(144.783 595.607)" clip-path="url(#clip-path-5)">
      <g id="Group_3088" data-name="Group 3088" transform="translate(-128.082 -288.495)" clip-path="url(#clip-path-2)">
        <path id="Path_907" data-name="Path 907" d="M56-150.1h49.741V-170H56Z" transform="translate(65.864 452.277)" fill="#f50052"/>
      </g>
    </g>
  </g>
</svg>
