<svg xmlns="http://www.w3.org/2000/svg" width="38.027" height="38.027" viewBox="0 0 38.027 38.027">
  <path id="Path_6740" data-name="Path 6740" d="M111.014,152a19.014,19.014,0,1,0,19.014,19.014A19.013,19.013,0,0,0,111.014,152Zm0,2.925a16.1,16.1,0,0,1,15.835,13.334l-10.273,1.028a5.813,5.813,0,0,0-11.124,0L95.178,168.26A16.1,16.1,0,0,1,111.014,154.925Zm14.626,16.089a1.463,1.463,0,1,1-1.463-1.463A1.461,1.461,0,0,1,125.64,171.014Zm-26.327,0a1.463,1.463,0,1,1-1.463-1.463A1.461,1.461,0,0,1,99.313,171.014Zm8.947,15.835a16.106,16.106,0,0,1-13.081-13.081l10.273-1.028a5.825,5.825,0,0,0,3.836,3.836Zm-.171-15.835a2.925,2.925,0,1,1,2.925,2.925A2.924,2.924,0,0,1,108.088,171.014Zm5.679,15.835-1.028-10.273a5.825,5.825,0,0,0,3.836-3.836l10.273,1.028A16.108,16.108,0,0,1,113.768,186.849Z" transform="translate(-92 -152)" fill="#878787"/>
</svg>
