<svg xmlns="http://www.w3.org/2000/svg" width="16.875" height="18" viewBox="0 0 16.875 18">
  <defs>
    <style>
      .cls-1 {
        fill: #bebebe;
      }
    </style>
  </defs>
  <path id="Fill_168" data-name="Fill 168" class="cls-1" d="M14.625,18H2.25A2.253,2.253,0,0,1,0,15.75V3.375a2.253,2.253,0,0,1,2.25-2.25H4.5V.562a.562.562,0,1,1,1.125,0v.562H11.25V.562a.562.562,0,1,1,1.125,0v.562h2.25a2.253,2.253,0,0,1,2.25,2.25V15.75A2.253,2.253,0,0,1,14.625,18ZM1.125,5.625V15.75A1.126,1.126,0,0,0,2.25,16.875H14.625A1.126,1.126,0,0,0,15.75,15.75V5.625ZM2.25,2.25A1.126,1.126,0,0,0,1.125,3.375V4.5H15.749V3.375A1.126,1.126,0,0,0,14.625,2.25h-2.25v.563a.562.562,0,0,1-1.125,0V2.25H5.625v.563a.562.562,0,0,1-1.125,0V2.25ZM13.5,15.75H12.375a1.126,1.126,0,0,1-1.125-1.125V13.5a1.126,1.126,0,0,1,1.125-1.125H13.5A1.126,1.126,0,0,1,14.625,13.5v1.125A1.126,1.126,0,0,1,13.5,15.75ZM12.375,13.5v1.125H13.5V13.5ZM9,15.75H7.875A1.126,1.126,0,0,1,6.75,14.625V13.5a1.127,1.127,0,0,1,1.125-1.125H9A1.126,1.126,0,0,1,10.125,13.5v1.125A1.126,1.126,0,0,1,9,15.75ZM7.875,13.5v1.125H9V13.5ZM4.5,15.75H3.375A1.126,1.126,0,0,1,2.25,14.625V13.5a1.127,1.127,0,0,1,1.125-1.125H4.5A1.126,1.126,0,0,1,5.625,13.5v1.125A1.126,1.126,0,0,1,4.5,15.75ZM3.375,13.5v1.125H4.5V13.5ZM13.5,11.25H12.375a1.126,1.126,0,0,1-1.125-1.125V9a1.126,1.126,0,0,1,1.125-1.125H13.5A1.126,1.126,0,0,1,14.625,9v1.125A1.126,1.126,0,0,1,13.5,11.25ZM12.375,9v1.125H13.5V9ZM9,11.25H7.875A1.126,1.126,0,0,1,6.75,10.125V9A1.126,1.126,0,0,1,7.875,7.875H9A1.126,1.126,0,0,1,10.125,9v1.125A1.126,1.126,0,0,1,9,11.25ZM7.875,9v1.125H9V9ZM4.5,11.25H3.375A1.126,1.126,0,0,1,2.25,10.125V9A1.126,1.126,0,0,1,3.375,7.875H4.5A1.126,1.126,0,0,1,5.625,9v1.125A1.126,1.126,0,0,1,4.5,11.25ZM3.375,9v1.125H4.5V9Z"/>
</svg>
