<svg xmlns="http://www.w3.org/2000/svg" width="13.5" height="18" viewBox="0 0 13.5 18">
  <defs>
    <style>
      .cls-1 {
        fill: #bebebe;
      }
    </style>
  </defs>
  <path id="Fill_162" data-name="Fill 162" class="cls-1" d="M6.751,18h0c-.6,0-2.406-2.353-3.8-4.567C1.525,11.163,0,8.215,0,6.75A6.75,6.75,0,0,1,11.523,1.977,6.705,6.705,0,0,1,13.5,6.75c0,1.445-1.528,4.392-2.959,6.669C9.145,15.64,7.343,18,6.751,18Zm0-16.875A5.631,5.631,0,0,0,1.125,6.75c0,1.223,1.271,3.728,2.46,5.663,1.389,2.259,2.72,3.9,3.164,3.9.218,0,.669-.415,1.27-1.168A28.491,28.491,0,0,0,9.909,12.4c1.192-1.94,2.466-4.444,2.466-5.651A5.631,5.631,0,0,0,6.75,1.125Zm0,8.438A2.812,2.812,0,1,1,9.562,6.75,2.816,2.816,0,0,1,6.75,9.562Zm0-4.5A1.688,1.688,0,1,0,8.438,6.75,1.689,1.689,0,0,0,6.75,5.062Z"/>
</svg>
