<svg xmlns="http://www.w3.org/2000/svg" width="79.628" height="20.096" viewBox="0 0 79.628 20.096">
  <defs>
    <style>
      .cls-1 {
        fill: #2890c3;
      }

      .cls-2 {
        fill: #28346a;
      }

      .cls-3 {
        fill: #1f274f;
      }
    </style>
  </defs>
  <g id="logo" transform="translate(-0.05 -19)">
    <path id="l" class="cls-1" d="M1.783.3,0,11.579a.36.36,0,0,0,.356.416H2.15a.6.6,0,0,0,.594-.507L4.5.416A.36.36,0,0,0,4.141,0h-2a.36.36,0,0,0-.357.3" transform="translate(75.176 24.304)"/>
    <path id="a" class="cls-1" d="M3.448,8.387A3.259,3.259,0,0,1,.834,7.336,3.9,3.9,0,0,1,.062,4.159,4.768,4.768,0,0,1,4.694,0,2.908,2.908,0,0,1,7.144.868l.145.209L7.38.5A.359.359,0,0,1,7.737.2H9.812a.36.36,0,0,1,.357.416L9.047,7.689a.6.6,0,0,1-.595.507H6.584a.361.361,0,0,1-.357-.417L6.32,7.2l0,0A4.069,4.069,0,0,1,3.448,8.387ZM5.186,2.194A2.318,2.318,0,0,0,2.86,4.184a1.75,1.75,0,0,0,.325,1.452,1.754,1.754,0,0,0,1.393.558A2.31,2.31,0,0,0,6.92,4.219a1.769,1.769,0,0,0-.352-1.462A1.747,1.747,0,0,0,5.186,2.194Z" transform="translate(64.702 28.103)"/>
    <path id="P" class="cls-1" d="M2.584,11.994H.361A.36.36,0,0,1,0,11.578L1.757.507A.6.6,0,0,1,2.352,0H6.684A4.027,4.027,0,0,1,9.842,1.1a3.318,3.318,0,0,1,.553,2.786c-.429,2.724-2.089,4.1-4.932,4.1H4.092A.6.6,0,0,0,3.5,8.5L3,11.641A.419.419,0,0,1,2.584,11.994ZM4.772,2.4a.359.359,0,0,0-.356.3L3.956,5.594h.654c1.149,0,2.336,0,2.573-1.551a1.432,1.432,0,0,0-.211-1.2C6.593,2.4,5.854,2.4,5.071,2.4Z" transform="translate(54.879 24.303)"/>
    <path id="y" class="cls-2" d="M9.667,0H7.582a.6.6,0,0,0-.5.263L4.207,4.486,2.988.428A.6.6,0,0,0,2.411,0H.361A.36.36,0,0,0,.02.476l2.3,6.717L.156,10.23a.36.36,0,0,0,.295.568H2.534a.6.6,0,0,0,.495-.258L9.964.565A.36.36,0,0,0,9.667,0" transform="translate(44.993 28.298)"/>
    <path id="a-2" data-name="a" class="cls-2" d="M3.448,8.387A3.259,3.259,0,0,1,.834,7.336,3.9,3.9,0,0,1,.062,4.159,4.768,4.768,0,0,1,4.694,0,2.908,2.908,0,0,1,7.144.868l.145.209L7.38.5A.359.359,0,0,1,7.737.2H9.812a.36.36,0,0,1,.357.416L9.047,7.689a.6.6,0,0,1-.595.507H6.584a.361.361,0,0,1-.357-.417L6.32,7.2l0,0A4.069,4.069,0,0,1,3.448,8.387ZM5.186,2.194A2.318,2.318,0,0,0,2.86,4.184a1.753,1.753,0,0,0,.325,1.452,1.754,1.754,0,0,0,1.393.558A2.31,2.31,0,0,0,6.92,4.219a1.769,1.769,0,0,0-.352-1.462A1.747,1.747,0,0,0,5.186,2.194Z" transform="translate(33.798 28.103)"/>
    <path id="P-2" data-name="P" class="cls-2" d="M2.43,11.994H.361A.36.36,0,0,1,0,11.578L1.757.507A.6.6,0,0,1,2.352,0H6.684A4.027,4.027,0,0,1,9.842,1.1a3.318,3.318,0,0,1,.553,2.786c-.429,2.724-2.089,4.1-4.932,4.1H4.092A.6.6,0,0,0,3.5,8.5l-.472,2.987A.6.6,0,0,1,2.43,11.994ZM4.772,2.4a.359.359,0,0,0-.356.3L3.957,5.594h.653c1.149,0,2.336,0,2.573-1.551a1.432,1.432,0,0,0-.211-1.2C6.593,2.4,5.854,2.4,5.071,2.4Z" transform="translate(23.976 24.303)"/>
    <g id="icon" transform="translate(0 19)">
      <path id="P-3" data-name="P" class="cls-2" d="M14.593,1.524C13.656.457,11.963,0,9.8,0H3.513a.9.9,0,0,0-.889.759L.007,17.344a.539.539,0,0,0,.533.623H4.42l.975-6.177-.03.193a.9.9,0,0,1,.886-.759H8.094c3.622,0,6.458-1.47,7.287-5.723q.037-.189.064-.368h0a4.013,4.013,0,0,0-.853-3.611" transform="translate(0.05)"/>
      <path id="shadow" class="cls-1" d="M11.283,0h0c-.019.12-.04.241-.064.366-.827,4.235-3.66,5.7-7.277,5.7H2.1a.894.894,0,0,0-.884.755L.006,14.47a.471.471,0,0,0,.465.543H3.738a.785.785,0,0,0,.776-.661l.032-.166L5.161,10.3l.04-.215a.785.785,0,0,1,.776-.661h.489c3.164,0,5.642-1.281,6.366-4.986A4.236,4.236,0,0,0,12.177.688,3.118,3.118,0,0,0,11.283,0" transform="translate(4.196 5.083)"/>
      <path id="fill" class="cls-3" d="M9.2.3Q9.011.241,8.81.2C8.676.167,8.537.141,8.4.118A10.248,10.248,0,0,0,6.772,0H1.852a.786.786,0,0,0-.776.661L.03,7.269,0,7.462a.894.894,0,0,1,.884-.755H2.726c3.617,0,6.449-1.464,7.277-5.7.025-.125.045-.247.064-.366a4.476,4.476,0,0,0-.68-.286C9.325.334,9.263.315,9.2.3" transform="translate(5.413 4.443)"/>
    </g>
  </g>
</svg>
