<svg xmlns="http://www.w3.org/2000/svg" width="10.125" height="18" viewBox="0 0 10.125 18">
  <defs>
    <style>
      .cls-1 {
        fill: #bebebe;
      }
    </style>
  </defs>
  <path id="Icon" class="cls-1" d="M7.875,18H2.25A2.253,2.253,0,0,1,0,15.75V2.25A2.252,2.252,0,0,1,2.25,0H7.875a2.252,2.252,0,0,1,2.25,2.25v13.5A2.253,2.253,0,0,1,7.875,18Zm-6.75-5.625V15.75A1.126,1.126,0,0,0,2.25,16.875H7.875A1.126,1.126,0,0,0,9,15.75V12.375Zm0-8.437V11.25H9V3.937ZM2.25,1.125A1.126,1.126,0,0,0,1.125,2.25v.563H9V2.25A1.126,1.126,0,0,0,7.875,1.125ZM5.063,15.75a1.125,1.125,0,1,1,1.125-1.125A1.126,1.126,0,0,1,5.063,15.75Z"/>
</svg>
