<svg xmlns="http://www.w3.org/2000/svg" width="11" height="16" viewBox="0 0 11 16">
  <defs>
    <style>
      .cls-1 {
        fill: #bebebe;
      }
    </style>
  </defs>
  <path id="Icon" class="cls-1" d="M8,16H3a3,3,0,0,1-3-3V11A3,3,0,0,1,2.025,8.176,5.354,5.354,0,0,1,1,5,4.775,4.775,0,0,1,5.5,0,4.775,4.775,0,0,1,10,5,5.358,5.358,0,0,1,8.976,8.176,3,3,0,0,1,11,11v2A3,3,0,0,1,8,16ZM2.888,9.066A2.29,2.29,0,0,0,1,11.25v1.5A2.362,2.362,0,0,0,3.454,15H7.546A2.362,2.362,0,0,0,10,12.75v-1.5A2.29,2.29,0,0,0,8.112,9.066a4.118,4.118,0,0,1-5.224,0ZM5.5,1A3.779,3.779,0,0,0,2,5,3.78,3.78,0,0,0,5.5,9,3.78,3.78,0,0,0,9,5,3.779,3.779,0,0,0,5.5,1Z"/>
</svg>
