<svg xmlns="http://www.w3.org/2000/svg" width="6.474" height="4.585" viewBox="0 0 6.474 4.585">
  <path id="ic_back" d="M21-30.911a.287.287,0,0,1,.21-.089.287.287,0,0,1,.21.089l1.957,2a.2.2,0,0,1,.036.044.026.026,0,0,1,.007.015.162.162,0,0,0,.022.037c0,.007,0,.015.007.015s.007.022.014.037a.166.166,0,0,1,.007.059.166.166,0,0,1-.007.059.057.057,0,0,1-.014.037c0,.007,0,.015-.007.015l-.022.044a.007.007,0,0,1-.007.007.2.2,0,0,1-.036.044l-1.957,2a.293.293,0,0,1-.42,0,.308.308,0,0,1,0-.429l1.45-1.479H17.3a.3.3,0,0,1-.3-.3.3.3,0,0,1,.3-.3h5.154L21-30.5A.29.29,0,0,1,21-30.911Z" transform="translate(-17 31)" fill="#333"/>
</svg>
