<svg xmlns="http://www.w3.org/2000/svg" width="16.25" height="26" viewBox="0 0 16.25 26">
  <defs>
    <style>
      .cls-1 {
        fill: #696969;
      }
    </style>
  </defs>
  <path id="Fill_175" data-name="Fill 175" class="cls-1" d="M8.125,26A8.134,8.134,0,0,1,0,17.874a8.045,8.045,0,0,1,1.625-4.859V6.5a6.5,6.5,0,0,1,13,0H13a4.875,4.875,0,0,0-9.75,0v4.886a8.114,8.114,0,0,1,13,6.488A8.134,8.134,0,0,1,8.125,26Zm0-14.625a6.5,6.5,0,1,0,6.5,6.5A6.507,6.507,0,0,0,8.125,11.375Zm0,9.75a.813.813,0,0,1-.812-.812v-3.25a.812.812,0,0,1,1.625,0v3.25A.813.813,0,0,1,8.125,21.125Z"/>
</svg>
