<svg xmlns="http://www.w3.org/2000/svg" width="151.449" height="38.222" viewBox="0 0 151.449 38.222">
  <defs>
    <style>
      .cls-1 {
        fill: #2890c3;
      }

      .cls-2 {
        fill: #28346a;
      }

      .cls-3 {
        fill: #1f274f;
      }
    </style>
  </defs>
  <g id="Symbol_220_21" data-name="Symbol 220 – 21" transform="translate(-10.468 -19)">
    <path id="l" class="cls-1" d="M3.391.578.009,22.022a.685.685,0,0,0,.678.791h3.4a1.143,1.143,0,0,0,1.131-.964L8.554.791A.685.685,0,0,0,7.875,0H4.069a.685.685,0,0,0-.679.578" transform="translate(153.355 29.087)"/>
    <path id="a" class="cls-1" d="M6.557,15.952a6.2,6.2,0,0,1-4.971-2A7.416,7.416,0,0,1,.118,7.91,9.069,9.069,0,0,1,8.927,0c2.27,0,3.926.586,4.661,1.65l.276.4.173-1.1a.683.683,0,0,1,.68-.577h3.946a.686.686,0,0,1,.68.791L17.206,14.624a1.138,1.138,0,0,1-1.131.964H12.523a.687.687,0,0,1-.68-.793L12.02,13.7l0,.009A7.739,7.739,0,0,1,6.557,15.952ZM9.863,4.173A4.41,4.41,0,0,0,5.44,7.958a3.329,3.329,0,0,0,.618,2.761,3.335,3.335,0,0,0,2.65,1.061,4.394,4.394,0,0,0,4.454-3.756,3.364,3.364,0,0,0-.669-2.78A3.323,3.323,0,0,0,9.863,4.173Z" transform="translate(133.433 36.313)"/>
    <path id="P" class="cls-1" d="M4.914,22.813H.686a.685.685,0,0,1-.678-.791L3.341.964A1.138,1.138,0,0,1,4.473,0h8.24c2.757,0,4.834.726,6.007,2.1,1.065,1.249,1.419,3.032,1.051,5.3-.817,5.181-3.973,7.807-9.38,7.807H7.783a1.138,1.138,0,0,0-1.131.964L5.707,22.14A.8.8,0,0,1,4.914,22.813ZM9.075,4.558a.683.683,0,0,0-.678.577L7.525,10.64H8.769c2.185,0,4.444,0,4.894-2.949a2.724,2.724,0,0,0-.4-2.289c-.724-.844-2.129-.844-3.617-.844Z" transform="translate(114.751 29.086)"/>
    <path id="y" class="cls-2" d="M18.387,0H14.42a1.143,1.143,0,0,0-.947.5L8,8.531,5.683.814A1.146,1.146,0,0,0,4.586,0H.688a.685.685,0,0,0-.65.905L4.4,13.682.3,19.458a.684.684,0,0,0,.561,1.08H4.82a1.149,1.149,0,0,0,.941-.49L18.951,1.075A.684.684,0,0,0,18.387,0" transform="translate(95.948 36.684)"/>
    <path id="a-2" data-name="a" class="cls-2" d="M6.557,15.952a6.2,6.2,0,0,1-4.971-2A7.416,7.416,0,0,1,.118,7.91,9.069,9.069,0,0,1,8.927,0c2.27,0,3.926.586,4.661,1.65l.276.4.173-1.1a.683.683,0,0,1,.68-.577h3.946a.686.686,0,0,1,.68.791L17.206,14.624a1.138,1.138,0,0,1-1.131.964H12.523a.687.687,0,0,1-.68-.793L12.02,13.7l0,.009A7.739,7.739,0,0,1,6.557,15.952ZM9.863,4.173A4.41,4.41,0,0,0,5.44,7.958a3.334,3.334,0,0,0,.618,2.761,3.335,3.335,0,0,0,2.65,1.061,4.394,4.394,0,0,0,4.454-3.756,3.364,3.364,0,0,0-.669-2.78A3.323,3.323,0,0,0,9.863,4.173Z" transform="translate(74.655 36.313)"/>
    <path id="P-2" data-name="P" class="cls-2" d="M4.621,22.813H.686a.685.685,0,0,1-.678-.791L3.341.964A1.138,1.138,0,0,1,4.473,0h8.24c2.757,0,4.834.726,6.007,2.1,1.065,1.249,1.419,3.032,1.051,5.3-.817,5.181-3.973,7.807-9.38,7.807H7.783a1.138,1.138,0,0,0-1.131.964l-.9,5.681A1.14,1.14,0,0,1,4.621,22.813ZM9.075,4.558a.683.683,0,0,0-.678.577L7.526,10.64H8.769c2.185,0,4.444,0,4.894-2.949a2.724,2.724,0,0,0-.4-2.289c-.724-.844-2.129-.844-3.617-.844Z" transform="translate(55.973 29.086)"/>
    <g id="icon" transform="translate(10.468 19)">
      <path id="P-3" data-name="P" class="cls-2" d="M27.754,2.9C25.973.87,22.754,0,18.635,0H6.681A1.711,1.711,0,0,0,4.99,1.443L.013,32.988a1.026,1.026,0,0,0,1.014,1.185h7.38L10.26,22.425l-.057.368a1.706,1.706,0,0,1,1.684-1.443h3.507c6.889,0,12.284-2.8,13.86-10.885q.07-.359.122-.7h0c.469-2.99,0-5.025-1.622-6.867" transform="translate(0)"/>
      <path id="shadow" class="cls-1" d="M21.46,0h0c-.036.228-.075.458-.122.7C19.764,8.752,14.377,11.537,7.5,11.537h-3.5a1.7,1.7,0,0,0-1.681,1.437L.011,27.521A.9.9,0,0,0,.9,28.554H7.109A1.493,1.493,0,0,0,8.585,27.3l.061-.316,1.171-7.4.075-.409a1.493,1.493,0,0,1,1.476-1.257h.93c6.018,0,10.73-2.436,12.107-9.483.575-2.945.277-5.4-1.243-7.13A5.931,5.931,0,0,0,21.46,0" transform="translate(7.885 9.668)"/>
      <path id="fill" class="cls-3" d="M17.5.563q-.36-.1-.743-.19C16.5.318,16.237.268,15.967.224A19.491,19.491,0,0,0,12.88,0H3.522A1.494,1.494,0,0,0,2.046,1.258L.057,13.826,0,14.192a1.7,1.7,0,0,1,1.681-1.437h3.5c6.88,0,12.267-2.785,13.84-10.841.047-.238.086-.469.122-.7A8.514,8.514,0,0,0,17.852.673C17.736.635,17.618.6,17.5.563" transform="translate(10.2 8.45)"/>
    </g>
  </g>
</svg>
