<svg xmlns="http://www.w3.org/2000/svg" xmlns:xlink="http://www.w3.org/1999/xlink" width="48" height="52" viewBox="0 0 48 52">
  <defs>
    <clipPath id="clip-path">
      <path id="Path_21512" data-name="Path 21512" d="M1766-956v9.01a1.006,1.006,0,0,1-1,.99.988.988,0,0,1-1-.99V-942h.99a1.016,1.016,0,0,1,1.01,1,.99.99,0,0,1-.293.714.992.992,0,0,1-.717.286H1761a4.991,4.991,0,0,1-5-5V-951a4.99,4.99,0,0,1,4-4.9v-.107A20,20,0,0,1,1780-976a20.006,20.006,0,0,1,20,19.992v.107a4.99,4.99,0,0,1,4,4.9V-945a4.991,4.991,0,0,1-4.038,4.905c-.361,4.428-3.262,10.323-7.72,11.437a24.932,24.932,0,0,1-6.35.688A5.013,5.013,0,0,1,1781-924h-2a5,5,0,0,1-3.54-1.461A5,5,0,0,1,1774-929a5.01,5.01,0,0,1,5-5h2a4.994,4.994,0,0,1,4.909,4.032,23.083,23.083,0,0,0,5.85-.627c3.613-.9,5.81-5.947,6.186-9.405H1794v-16h4v-.008A18.005,18.005,0,0,0,1780-974a18,18,0,0,0-18,17.992V-956Zm4.043-8.33a1,1,0,0,1-1.413.073,1,1,0,0,1-.073-1.413A14.942,14.942,0,0,1,1780-971a14.938,14.938,0,0,1,11.443,5.33,1,1,0,0,1,.209.978,1,1,0,0,1-.743.67,1,1,0,0,1-.952-.309A12.944,12.944,0,0,0,1780-969,12.946,12.946,0,0,0,1770.043-964.33ZM1776-929a2.994,2.994,0,0,0,3,3h2a3.01,3.01,0,0,0,3-3,2.994,2.994,0,0,0-3-3h-2a3.01,3.01,0,0,0-3,3Zm26-22a2.99,2.99,0,0,0-.877-2.122A2.991,2.991,0,0,0,1799-954h-3v12h3a2.991,2.991,0,0,0,3-3V-951Zm-44,0V-945a2.99,2.99,0,0,0,.877,2.122A2.991,2.991,0,0,0,1761-942h3v-12h-3A2.992,2.992,0,0,0,1758-951Z"/>
    </clipPath>
    <clipPath id="clip-path-2">
      <path id="Path_21511" data-name="Path 21511" d="M1500,0H2900V-1680H1500Z"/>
    </clipPath>
  </defs>
  <g id="Group_16160" data-name="Group 16160" transform="translate(-1756 976)" clip-path="url(#clip-path)">
    <g id="Group_16159" data-name="Group 16159" clip-path="url(#clip-path-2)">
      <g id="Group_16157" data-name="Group 16157" opacity="0">
        <g id="Group_16156" data-name="Group 16156" transform="translate(1756 -976)">
          <path id="Path_21509" data-name="Path 21509" d="M-1756-704H1144V976H-1756Z"/>
        </g>
      </g>
      <g id="Group_16158" data-name="Group 16158" transform="translate(1756 -976)">
        <path id="Path_21510" data-name="Path 21510" d="M-1756-704H1144V976H-1756Z"/>
      </g>
    </g>
  </g>
</svg>
