<svg xmlns="http://www.w3.org/2000/svg" width="22.804" height="22.804" viewBox="0 0 22.804 22.804">
  <path id="Fill_37" data-name="Fill 37" d="M11.4,22.8a2.854,2.854,0,0,1-2.851-2.851v-5.7H2.85a2.851,2.851,0,0,1,0-5.7h5.7V2.85a2.851,2.851,0,0,1,5.7,0v5.7h5.7a2.851,2.851,0,1,1,0,5.7h-5.7v5.7A2.854,2.854,0,0,1,11.4,22.8ZM2.85,9.977a1.425,1.425,0,1,0,0,2.85H9.977v7.126a1.425,1.425,0,0,0,2.85,0V12.827h7.126a1.425,1.425,0,0,0,0-2.85H12.827V2.85a1.425,1.425,0,1,0-2.85,0V9.977Z" fill="#131314"/>
</svg>
