<svg xmlns="http://www.w3.org/2000/svg" width="28" height="32" viewBox="0 0 28 32">
  <path id="Fill_215" data-name="Fill 215" d="M24,32H4a4,4,0,0,1-4-4V8A4,4,0,0,1,4,4H7V2H9.693A5.275,5.275,0,0,1,14,0a5.276,5.276,0,0,1,4.307,2H21V4h3a4,4,0,0,1,4,4V28A4,4,0,0,1,24,32ZM4,6A2,2,0,0,0,2,8V28a2,2,0,0,0,2,2H24a2,2,0,0,0,2-2V8a2,2,0,0,0-2-2H21v4H7V6ZM9,4V8H19V4H16.777a1.76,1.76,0,0,0-.815-1.413A3.368,3.368,0,0,0,14,2c-1.531,0-2.777.9-2.777,2ZM21,26H7a1,1,0,0,1,0-2H21a1,1,0,0,1,0,2Zm0-5H7a1,1,0,1,1,0-2H21a1,1,0,1,1,0,2Zm0-5H7a1,1,0,0,1,0-2H21a1,1,0,0,1,0,2Z" fill="#7e7e7e"/>
</svg>
