<?xml version="1.0" encoding="UTF-8"?>
<svg width="48px" height="48px" viewBox="0 0 48 48" version="1.1" xmlns="http://www.w3.org/2000/svg" xmlns:xlink="http://www.w3.org/1999/xlink">
    <title>route_icon@3x</title>
    <g id="symbols" stroke="none" stroke-width="1" fill="none" fill-rule="evenodd">
        <g id="Group" fill="#1A171B" fill-rule="nonzero">
            <g id="route_icon">
                <path d="M47.952,46.285 L40.678,27.255 C40.5701412,26.9733558 40.2995904,26.7875511 39.998,26.788 L31.447,26.788 C34.099,22.213 36.503,16.866 36.503,12.503 C36.503,5.59750763 30.9049924,-0.0005 23.9995,-0.0005 C17.0940076,-0.0005 11.496,5.59750763 11.496,12.503 C11.496,16.866 13.896,22.213 16.552,26.788 L8,26.788 C7.69867417,26.7884038 7.42855968,26.9739089 7.32,27.255 L0.047,46.285 C-0.0377313751,46.5085688 -0.00728682289,46.7594908 0.128450533,46.95631 C0.264187888,47.1531291 0.487913503,47.271 0.727,47.271 L47.273,47.271 C47.5120936,47.271 47.7358538,47.1532485 47.8714598,46.9563303 C48.0070657,46.759412 48.0371792,46.5084061 47.952,46.285 L47.952,46.285 Z M27.935,45.817 L27.935,39.838 C29.2029178,39.5278481 30.3267163,38.793586 31.12,37.757 C33.060926,37.7585935 34.9941503,37.51295 36.873,37.026 L36.885,37.026 C36.885,37.026 36.891,37.026 36.896,37.026 C38.7341774,36.5817451 40.441924,35.7109143 41.881,34.484 L43.466,38.63 C35.674,39.34 33.016,44.198 32.339,45.822 L27.939,45.822 L27.935,45.817 Z M12.324,37.129 C13.6915408,36.8485621 15.0792775,36.6776866 16.474,36.618 C16.679,38.785 19.839,40.394 23.999,40.394 C24.8301288,40.395538 25.659851,40.3256139 26.479,40.185 L26.479,45.816 L10.363,45.816 L12.324,37.129 Z M23.435,36.853 C23.5728484,37.0230703 23.7800797,37.1218567 23.999,37.1218567 C24.2179203,37.1218567 24.4251516,37.0230703 24.563,36.853 C24.684,36.703 25.493,35.701 26.635,34.131 C28.713,34.586 30.088,35.525 30.088,36.395 C30.088,37.595 27.488,38.941 23.998,38.941 C20.508,38.941 17.906,37.596 17.906,36.395 C17.906,35.525 19.279,34.584 21.359,34.13 C22.503,35.699 23.312,36.702 23.435,36.855 L23.435,36.853 Z M41.314,32.994 C40.1818641,34.1346402 38.7728565,34.9616438 37.225,35.394 L35.431,28.24 L39.497,28.24 L41.314,32.994 Z M33.931,28.243 L35.824,35.789 C34.4148701,36.0959426 32.9789454,36.2634169 31.537,36.289 C31.469,34.749 29.913,33.48 27.558,32.844 C28.483,31.529 29.533,29.958 30.581,28.244 L33.931,28.243 Z M24,1.455 C30.0992245,1.46216357 35.0418364,6.40477551 35.049,12.504 C35.049,20.351 26.327,32.195 24,35.217 C21.672,32.196 12.951,20.356 12.951,12.504 C12.9576137,6.40454737 17.9005474,1.46161367 24,1.455 L24,1.455 Z M20.439,32.845 C18.9773461,33.1247357 17.6765764,33.9493787 16.8,35.152 C15.4152318,35.1947359 14.0354955,35.3394611 12.672,35.585 L14.329,28.244 L17.415,28.244 C18.464,29.955 19.516,31.53 20.439,32.844 L20.439,32.845 Z M8.501,28.245 L12.838,28.245 L8.873,45.819 L1.783,45.819 L8.501,28.245 Z M33.954,45.819 C34.863,44.088 37.527,40.514 44.012,40.056 L46.212,45.819 L33.954,45.819 Z" id="Path_1257"></path>
                <path d="M24.73,20.68 L24.73,19.555 C28.0057279,19.2079066 30.5939066,16.6197279 30.941,13.344 L32.07,13.344 C32.4717872,13.344 32.7975,13.0182872 32.7975,12.6165 C32.7975,12.2147128 32.4717872,11.889 32.07,11.889 L30.941,11.889 C30.5931772,8.61362042 28.0053796,6.02582278 24.73,5.678 L24.73,4.545 C24.7398764,4.27865623 24.6034163,4.02820674 24.3742613,3.89210184 C24.1451064,3.75599693 23.8598936,3.75599693 23.6307387,3.89210184 C23.4015837,4.02820674 23.2651236,4.27865623 23.275,4.545 L23.275,5.674 C19.9996204,6.02182278 17.4118228,8.60962042 17.064,11.885 L15.93,11.885 C15.5282128,11.885 15.2025,12.2107128 15.2025,12.6125 C15.2025,13.0142872 15.5282128,13.34 15.93,13.34 L17.06,13.34 C17.4053289,16.6172863 19.9939367,19.2075612 23.271,19.555 L23.271,20.685 C23.2611236,20.9513438 23.3975837,21.2017933 23.6267387,21.3378982 C23.8558936,21.4740031 24.1411064,21.4740031 24.3702613,21.3378982 C24.5994163,21.2017933 24.7358764,20.9513438 24.726,20.685 L24.73,20.68 Z M18.53,13.339 L19.567,13.339 C19.9687872,13.339 20.2945,13.0132872 20.2945,12.6115 C20.2945,12.2097128 19.9687872,11.884 19.567,11.884 L18.53,11.884 C18.8612513,9.41578963 20.8027896,7.47425134 23.271,7.143 L23.271,8.181 C23.2855099,8.57229683 23.6069342,8.88202316 23.9985,8.88202316 C24.3900658,8.88202316 24.7114901,8.57229683 24.726,8.181 L24.726,7.143 C27.1938884,7.47490205 29.135098,9.4161116 29.467,11.884 L28.43,11.884 C28.0282128,11.884 27.7025,12.2097128 27.7025,12.6115 C27.7025,13.0132872 28.0282128,13.339 28.43,13.339 L29.467,13.339 C29.1355128,15.8072775 27.1942075,17.7489922 24.726,18.081 L24.726,17.044 C24.7358764,16.7776562 24.5994163,16.5272067 24.3702613,16.3911018 C24.1411064,16.2549969 23.8558936,16.2549969 23.6267387,16.3911018 C23.3975837,16.5272067 23.2611236,16.7776562 23.271,17.044 L23.271,18.081 C20.8024704,17.7496431 18.8608362,15.8075994 18.53,13.339 Z" id="Path_1258"></path>
            </g>
        </g>
    </g>
</svg>