<svg xmlns="http://www.w3.org/2000/svg" width="21.914" height="13.196" viewBox="0 0 21.914 13.196">
  <g id="Mastercard" transform="translate(0 0.1)">
    <path id="Path_15" data-name="Path 15" d="M858.363,11.385a6.474,6.474,0,0,0,4.394,1.71,6.6,6.6,0,0,0,0-13.195,6.474,6.474,0,0,0-4.394,1.71,6.6,6.6,0,0,0,0,9.775Z" transform="translate(-847.401)" fill="#e9b040"/>
    <path id="Path_16" data-name="Path 16" d="M2047.5,979.9a.2.2,0,0,1,.2-.2.205.205,0,0,1,.215.2.208.208,0,0,1-.215.215A.205.205,0,0,1,2047.5,979.9Zm.2.171a.174.174,0,0,0,.17-.17.164.164,0,0,0-.17-.158.162.162,0,0,0-.158.158A.173.173,0,0,0,2047.7,980.074Zm-.022-.069h-.045v-.192h.079a.068.068,0,0,1,.045.011c.023.011.023.023.023.045s-.011.045-.034.045l.045.09h-.057l-.022-.079h-.034v-.034h.045c.011,0,.011-.011.011-.023s0-.011-.011-.023h-.045Z" transform="translate(-2026.457 -969.73)" fill="#e9b040"/>
    <path id="Path_17" data-name="Path 17" d="M13.081,5.9c-.023-.237-.068-.465-.113-.7H8.959a6.873,6.873,0,0,1,.181-.691h3.635q-.119-.358-.271-.7H9.422c.113-.239.238-.474.374-.7h2.322a5.857,5.857,0,0,0-.5-.691H10.295a6.437,6.437,0,0,1,.668-.7A6.579,6.579,0,1,0,6.557,13.195a6.5,6.5,0,0,0,4.406-1.71,6.222,6.222,0,0,0,.657-.691H10.295a7.843,7.843,0,0,1-.5-.7h2.322a5.347,5.347,0,0,0,.385-.7H9.422c-.1-.226-.2-.453-.284-.691h3.636a7.126,7.126,0,0,0,.192-.7,6.989,6.989,0,0,0,.113-.7c.023-.229.034-.46.034-.691a6.856,6.856,0,0,0-.033-.705Z" transform="translate(0 -0.099)" fill="#cc2131"/>
    <path id="Path_18" data-name="Path 18" d="M2047.5,770.515a.206.206,0,0,1,.2-.215.208.208,0,0,1,.215.215.215.215,0,0,1-.215.215A.212.212,0,0,1,2047.5,770.515Zm.2.159a.159.159,0,1,0,0-.316.158.158,0,0,0,0,.316Zm-.022-.069h-.045v-.181h.124c.023.011.023.034.023.056a.061.061,0,0,1-.034.045l.045.079h-.057l-.022-.068h-.034V770.5h.022c.011,0,.022,0,.022-.011s.011-.011.011-.023a.011.011,0,0,0-.011-.011c0-.011-.011,0-.022,0h-.022Z" transform="translate(-2026.457 -762.482)" fill="#fff"/>
    <path id="Path_19" data-name="Path 19" d="M76.366,478.371l-.124.725a1.362,1.362,0,0,0-.634-.181c-.532,0-.906.521-.906,1.257,0,.51.249.815.668.815a1.391,1.391,0,0,0,.6-.17l-.124.758a2.368,2.368,0,0,1-.623.1c-.77,0-1.246-.555-1.246-1.449,0-1.189.657-2.028,1.6-2.028a1.392,1.392,0,0,1,.328.034l.284.068c.09.035.113.046.181.069Zm-2.288.5h-.068c-.237,0-.374.113-.589.442l.068-.419h-.646L72.4,481.61h.713c.26-1.665.328-1.948.668-1.948h.045a2.838,2.838,0,0,1,.271-.781l-.021-.012Zm-4.1,2.707a1.474,1.474,0,0,1-.51.09.524.524,0,0,1-.566-.6,1.893,1.893,0,0,1,.023-.238l.045-.271.034-.215.306-1.857h.7l-.079.408H70.3l-.09.668h-.364l-.192,1.133a.424.424,0,0,0-.011.113c0,.136.068.192.237.192a.47.47,0,0,0,.192-.023l-.089.6Zm-2.73-1.824a.792.792,0,0,0,.532.758c.295.136.34.181.34.295,0,.17-.124.249-.408.249a2.122,2.122,0,0,1-.634-.1l-.1.623.034.011.124.023a.738.738,0,0,0,.192.023,2.626,2.626,0,0,0,.385.023c.747,0,1.1-.284,1.1-.906a.752.752,0,0,0-.5-.758c-.306-.136-.34-.17-.34-.295,0-.147.124-.215.351-.215a4.423,4.423,0,0,1,.51.034l.1-.623a4.112,4.112,0,0,0-.623-.057c-.793,0-1.076.42-1.065.918Zm14.541,1.858h-.668l.034-.261a.849.849,0,0,1-.657.295c-.521,0-.86-.442-.86-1.121,0-.906.532-1.676,1.155-1.676a.811.811,0,0,1,.679.374l.158-.952h.7l-.544,3.341Zm-1.042-.634c.329,0,.555-.385.555-.918,0-.351-.124-.532-.374-.532-.318,0-.555.374-.555.906,0,.362.125.544.374.544Zm-8.6.577a2.332,2.332,0,0,1-.736.113,1.079,1.079,0,0,1-1.2-1.223c0-.929.521-1.62,1.234-1.62a.91.91,0,0,1,.963.986,2.742,2.742,0,0,1-.09.679h-1.4a.221.221,0,0,0-.011.079c0,.318.215.476.623.476a1.559,1.559,0,0,0,.736-.17l-.113.679Zm-.4-1.619V479.8a.314.314,0,0,0-.34-.352c-.226,0-.385.17-.453.487Zm-7.215,1.676h-.7l.408-2.571-.918,2.571h-.487l-.057-2.549-.431,2.549H61.7l.555-3.341h1.019l.034,2.073.679-2.073H65.1l-.555,3.341ZM66.3,480.4c-.068,0-.1-.011-.158-.011-.4,0-.6.147-.6.419a.238.238,0,0,0,.249.271c.295,0,.5-.272.51-.679Zm.521,1.212H66.23l.011-.284a.883.883,0,0,1-.747.329.658.658,0,0,1-.645-.736c0-.668.453-1.053,1.246-1.053.079,0,.181.011.295.023a.571.571,0,0,0,.023-.17c0-.181-.124-.249-.453-.249a2.343,2.343,0,0,0-.589.068l-.1.034-.068.011.1-.612a2.857,2.857,0,0,1,.85-.136c.611,0,.94.271.94.792a3.43,3.43,0,0,1-.057.544l-.158.963-.023.17-.011.136-.011.1-.013.068ZM77.51,480.4c-.079,0-.113-.011-.158-.011-.408,0-.611.147-.611.419a.247.247,0,0,0,.261.271c.283,0,.5-.272.509-.679Zm.521,1.212h-.589l.011-.284a.883.883,0,0,1-.747.329.658.658,0,0,1-.645-.736c0-.668.453-1.053,1.246-1.053a2.843,2.843,0,0,1,.284.023.718.718,0,0,0,.034-.17c0-.181-.124-.249-.453-.249a2.43,2.43,0,0,0-.6.068l-.09.034-.068.011.1-.612a2.857,2.857,0,0,1,.85-.136c.611,0,.929.271.929.792a2.435,2.435,0,0,1-.057.544l-.147.963-.023.17-.023.136-.011.1,0,.068Zm1.9-2.741h-.068c-.237,0-.374.113-.589.442l.068-.419H78.7l-.431,2.718h.7c.261-1.665.329-1.948.668-1.948h.045a2.839,2.839,0,0,1,.271-.781l-.022-.012Z" transform="translate(-61.066 -473.384)" fill="#fff"/>
  </g>
</svg>
