<svg xmlns="http://www.w3.org/2000/svg" width="17.121" height="20.096" viewBox="0 0 17.121 20.096">
  <g id="icon" transform="translate(-0.05)">
    <path id="P" d="M14.593,1.524C13.656.457,11.963,0,9.8,0H3.513a.9.9,0,0,0-.889.759L.007,17.344a.539.539,0,0,0,.533.623H4.42l.975-6.177-.03.193a.9.9,0,0,1,.886-.759H8.094c3.622,0,6.458-1.47,7.287-5.723q.037-.189.064-.368h0a4.013,4.013,0,0,0-.853-3.611" transform="translate(0.05)" fill="#28346a"/>
    <path id="shadow" d="M11.283,0h0c-.019.12-.04.241-.064.366-.827,4.235-3.66,5.7-7.277,5.7H2.1a.894.894,0,0,0-.884.755L.006,14.47a.471.471,0,0,0,.465.543H3.738a.785.785,0,0,0,.776-.661l.032-.166L5.161,10.3l.04-.215a.785.785,0,0,1,.776-.661h.489c3.164,0,5.642-1.281,6.366-4.986A4.236,4.236,0,0,0,12.177.688,3.118,3.118,0,0,0,11.283,0" transform="translate(4.196 5.083)" fill="#2890c3"/>
    <path id="fill" d="M9.2.3Q9.011.241,8.81.2C8.676.167,8.537.141,8.4.118A10.248,10.248,0,0,0,6.772,0H1.852a.786.786,0,0,0-.776.661L.03,7.269,0,7.462a.894.894,0,0,1,.884-.755H2.726c3.617,0,6.449-1.464,7.277-5.7.025-.125.045-.247.064-.366a4.476,4.476,0,0,0-.68-.286C9.325.334,9.263.315,9.2.3" transform="translate(5.413 4.443)" fill="#1f274f"/>
  </g>
</svg>
