<svg xmlns="http://www.w3.org/2000/svg" width="10" height="15.999" viewBox="0 0 10 15.999">
  <defs>
    <style>
      .cls-1 {
        fill: #bebebe;
      }
    </style>
  </defs>
  <path id="Icon" class="cls-1" d="M5.5,16.5a5.005,5.005,0,0,1-5-5,4.948,4.948,0,0,1,1-2.991V4.5a4,4,0,0,1,8,0V8.51a4.993,4.993,0,0,1-4,7.99Zm0-9a4,4,0,1,0,4,4A4.105,4.105,0,0,0,5.5,7.5Zm0-1a4.96,4.96,0,0,1,3,1.007V4.5a3,3,0,0,0-6,0V7.507A4.956,4.956,0,0,1,5.5,6.5Zm0,7A.5.5,0,0,1,5,13V11a.5.5,0,0,1,1,0v2A.5.5,0,0,1,5.5,13.5Z" transform="translate(-0.5 -0.5)"/>
</svg>
