<svg xmlns="http://www.w3.org/2000/svg" width="18" height="13.5" viewBox="0 0 18 13.5">
  <defs>
    <style>
      .cls-1 {
        fill: #bebebe;
      }
    </style>
  </defs>
  <path id="Fill_186" data-name="Fill 186" class="cls-1" d="M15.75,13.5H2.25A2.253,2.253,0,0,1,0,11.25v-9A2.252,2.252,0,0,1,2.25,0h13.5A2.253,2.253,0,0,1,18,2.25v9A2.253,2.253,0,0,1,15.75,13.5ZM7.076,6.936,2,12.344c.04.009,3.552.014,7,.014,3.342,0,6.958,0,7-.014L10.84,6.926,9,8.389Zm9.8-4.686L11.812,6.187l5.009,5.387a1.083,1.083,0,0,0,.054-.325Zm-15.75,0v9a1.1,1.1,0,0,0,.053.324L6.187,6.187Zm.562-1.125L9,6.749l7.313-5.624Z"/>
</svg>
