<svg xmlns="http://www.w3.org/2000/svg" width="18" height="13.5" viewBox="0 0 18 13.5">
  <defs>
    <style>
      .cls-1 {
        fill: #bebebe;
      }
    </style>
  </defs>
  <path id="Fill_185" data-name="Fill 185" class="cls-1" d="M15.75,13.5H2.25A2.253,2.253,0,0,1,0,11.25v-9A2.252,2.252,0,0,1,2.25,0h13.5A2.253,2.253,0,0,1,18,2.25v9A2.253,2.253,0,0,1,15.75,13.5ZM2.25,1.125A1.126,1.126,0,0,0,1.125,2.25v9A1.126,1.126,0,0,0,2.25,12.375h13.5a1.126,1.126,0,0,0,1.125-1.125v-9A1.126,1.126,0,0,0,15.75,1.125ZM9.562,11.25H2.813a.562.562,0,1,1,0-1.125h6.75a.562.562,0,0,1,0,1.125Zm0-2.25H2.813a.562.562,0,1,1,0-1.125h6.75A.562.562,0,0,1,9.562,9Zm5.062-2.25h-2.25A1.126,1.126,0,0,1,11.25,5.625V3.375A1.126,1.126,0,0,1,12.375,2.25h2.25A1.126,1.126,0,0,1,15.75,3.375v2.25A1.126,1.126,0,0,1,14.625,6.75ZM12.938,3.375a.563.563,0,0,0-.563.562V5.062a.563.563,0,0,0,.563.562h1.125a.563.563,0,0,0,.562-.562V3.938a.563.563,0,0,0-.562-.562Z"/>
</svg>
