<svg xmlns="http://www.w3.org/2000/svg" width="22.416" height="22.415" viewBox="0 0 22.416 22.415">
  <defs>
    <style>
      .cls-1 {
        fill: #252941;
      }
    </style>
  </defs>
  <path id="ic_bank" class="cls-1" d="M61.739,43.819a5.137,5.137,0,0,0-1.191-6.5V34.273h.467a.467.467,0,0,0,.467-.467v-1.4h.467a.467.467,0,0,0,.266-.85L51.474,24.083a.467.467,0,0,0-.532,0L40.2,31.555a.467.467,0,0,0,.266.85h.467v1.4a.467.467,0,0,0,.467.467h.467v7.472H41.4a.467.467,0,0,0-.467.467V43.7A1.4,1.4,0,0,0,40,45.014v.934a.467.467,0,0,0,.467.467H61.949a.467.467,0,0,0,.467-.467v-.934A1.4,1.4,0,0,0,61.739,43.819ZM60.548,33.339H56.812v-.934h3.736Zm-.934.934v2.433a5.09,5.09,0,0,0-1.868-.542V34.273Zm-8.406-9.237,9.251,6.435h-18.5ZM46.071,41.745H45.6V34.273h.467a.467.467,0,0,0,.467-.467v-1.4h1.868v1.4a.467.467,0,0,0,.467.467h.467v7.472h-.467a.467.467,0,0,0-.467.467v1.4H46.538v-1.4A.467.467,0,0,0,46.071,41.745Zm3.269.934h3a5.1,5.1,0,0,0,.369.934H49.34v-.934Zm.934-.934V34.273h1.868v7.472Zm2.335-8.406H49.34v-.934h3.736v.934Zm.467.934h.467a.467.467,0,0,0,.467-.467v-1.4h1.868v1.4a.467.467,0,0,0,.467.467h.467v1.891a5.137,5.137,0,0,0-3.736,2.167ZM41.868,32.405H45.6v.934H41.868Zm2.8,1.868v7.472H42.8V34.273Zm-2.8,8.406H45.6v.934H41.868Zm-.934,2.8v-.467a.467.467,0,0,1,.467-.467H53.319a5.179,5.179,0,0,0,1.013.934h-13.4Zm20.548,0H60.221a5.175,5.175,0,0,0,.981-.892.467.467,0,0,1,.28.425Zm-4.2,0a4.2,4.2,0,1,1,4.2-4.2A4.2,4.2,0,0,1,57.279,45.481Zm.934-6.538h-.467v-.934h-.934v.934h-.467a.934.934,0,0,0-.934.934v.934a.934.934,0,0,0,.934.934h1.868v.934H56.345v-.467h-.934v.467a.934.934,0,0,0,.934.934h.467v.934h.934v-.934h.467a.934.934,0,0,0,.934-.934v-.934a.934.934,0,0,0-.934-.934H56.345v-.934h1.868v.467h.934v-.467A.934.934,0,0,0,58.213,38.943Z" transform="translate(-40 -24)"/>
</svg>
