<?xml version="1.0" encoding="iso-8859-1"?>
<!-- Generator: Adobe Illustrator 19.0.0, SVG Export Plug-In . SVG Version: 6.00 Build 0)  -->
<svg xmlns="http://www.w3.org/2000/svg" xmlns:xlink="http://www.w3.org/1999/xlink" version="1.1" id="Layer_1" x="0px" y="0px" viewBox="0 0 512.424 512.424" style="enable-background:new 0 0 512.424 512.424;" xml:space="preserve" width="512" height="512">
<g id="XMLID_3030_">
	<g id="XMLID_1632_">
		<g id="XMLID_47_">
			<path id="XMLID_79_" d="M487.427,108.638l1.192-3.342h13.806c5.523,0,10-4.478,10-10s-4.477-10-10-10h-20.856     c-1.604,0-3.141,0.384-4.51,1.077l-8.725-35.524c-4.43-18.038-20.497-30.637-39.071-30.637H329.163     c-18.574,0-34.641,12.598-39.072,30.637l-8.725,35.524c-1.369-0.693-2.906-1.077-4.51-1.077H256c-5.523,0-10,4.478-10,10     s4.477,10,10,10h13.806l1.192,3.342C256.416,114.065,246,128.122,246,144.571v3.142h-36.949     c-4.386-8.176-13.016-13.75-22.926-13.75h-78c-9.91,0-18.539,5.574-22.926,13.75H32c-17.645,0-32,14.355-32,32v280.5     c0,17.645,14.355,32,32,32h230.25c17.645,0,32-14.355,32-32V260.498c1.21,0.192,2.451,0.295,3.714,0.295h15.25     c13.023,0,23.619-10.596,23.619-23.619v-18.868h84.759v18.868c0,13.023,10.595,23.619,23.618,23.619h15.25     c13.023,0,23.619-10.596,23.619-23.619v-18.868h18.346c5.523,0,10-4.478,10-10v-63.734     C512.424,128.122,502.008,114.065,487.427,108.638z M309.514,55.619c2.228-9.071,10.308-15.407,19.649-15.407h100.099     c9.341,0,17.42,6.335,19.648,15.406l12.434,50.625H297.08L309.514,55.619z M108.125,153.962h78c3.309,0,6,2.691,6,6v23     c0,3.309-2.691,6-6,6h-78c-3.309,0-6-2.691-6-6v-23C102.125,156.654,104.816,153.962,108.125,153.962z M274.25,460.212     c0,6.617-5.383,12-12,12H32c-6.617,0-12-5.383-12-12v-280.5c0-6.617,5.383-12,12-12h50.125v15.25c0,14.337,11.664,26,26,26h78     c14.336,0,26-11.663,26-26v-15.25h50.125c6.617,0,12,5.383,12,12V460.212z M316.833,237.173c0,1.995-1.624,3.619-3.619,3.619     h-15.25c-1.995,0-3.618-1.624-3.618-3.619v-18.868h22.487V237.173z M464.079,237.173c0,1.995-1.624,3.619-3.619,3.619h-15.25     c-1.995,0-3.618-1.624-3.618-3.619v-18.868h22.487V237.173z M492.424,198.305h-18.346h-42.487H326.833H294.25v-18.593     c0-16.375-12.367-29.909-28.25-31.773v-3.369c0-10.094,8.204-18.308,18.294-18.325c0.011,0,0.022,0.001,0.033,0.001     c0.023,0,0.046-0.003,0.069-0.003h189.631c0.023,0,0.046,0.003,0.069,0.003c0.011,0,0.022-0.001,0.033-0.001     c10.09,0.018,18.294,8.231,18.294,18.325V198.305z"/>
			<path id="XMLID_85_" d="M321.34,152.272c-2.63,0-5.21,1.07-7.07,2.931c-1.86,1.859-2.93,4.439-2.93,7.069s1.07,5.21,2.93,7.07     c1.86,1.86,4.44,2.93,7.07,2.93s5.21-1.069,7.07-2.93c1.86-1.86,2.93-4.44,2.93-7.07s-1.07-5.21-2.93-7.069     C326.55,153.342,323.97,152.272,321.34,152.272z"/>
			<path id="XMLID_86_" d="M437.09,152.272c-2.64,0-5.21,1.07-7.07,2.931c-1.87,1.859-2.93,4.439-2.93,7.069s1.06,5.21,2.93,7.07     c1.86,1.86,4.43,2.93,7.07,2.93c2.63,0,5.2-1.069,7.07-2.93c1.86-1.86,2.93-4.44,2.93-7.07s-1.07-5.21-2.93-7.069     C442.29,153.342,439.72,152.272,437.09,152.272z"/>
			<path id="XMLID_87_" d="M397.086,152.545h-35.747c-5.523,0-10,4.478-10,10s4.477,10,10,10h35.747c5.523,0,10-4.478,10-10     S402.609,152.545,397.086,152.545z"/>
			<path id="XMLID_88_" d="M94.358,317.641L73.429,338.57l-7.524-7.524c-3.905-3.904-10.237-3.904-14.143,0     c-3.905,3.905-3.905,10.237,0,14.143l14.596,14.596c1.953,1.952,4.512,2.929,7.071,2.929s5.119-0.977,7.071-2.929l28-28     c3.905-3.905,3.905-10.237,0-14.143C104.595,313.737,98.263,313.737,94.358,317.641z"/>
			<path id="XMLID_89_" d="M234.388,334.212h-84.667c-5.523,0-10,4.478-10,10s4.477,10,10,10h84.667c5.523,0,10-4.478,10-10     S239.911,334.212,234.388,334.212z"/>
			<path id="XMLID_90_" d="M94.358,237.641L73.429,258.57l-7.524-7.524c-3.905-3.904-10.237-3.904-14.143,0     c-3.905,3.905-3.905,10.237,0,14.143l14.596,14.596c1.953,1.952,4.512,2.929,7.071,2.929s5.119-0.977,7.071-2.929l28-28     c3.905-3.905,3.905-10.237,0-14.143C104.595,233.737,98.263,233.737,94.358,237.641z"/>
			<path id="XMLID_91_" d="M234.39,254.212c-2.63,0-5.21,1.069-7.07,2.93s-2.93,4.44-2.93,7.07s1.07,5.21,2.93,7.069     c1.86,1.86,4.44,2.931,7.07,2.931c2.63,0,5.21-1.07,7.07-2.931c1.86-1.859,2.93-4.439,2.93-7.069s-1.07-5.21-2.93-7.07     C239.6,255.281,237.02,254.212,234.39,254.212z"/>
			<path id="XMLID_92_" d="M149.722,274.212h44.667c5.523,0,10-4.478,10-10s-4.477-10-10-10h-44.667c-5.523,0-10,4.478-10,10     S144.199,274.212,149.722,274.212z"/>
			<path id="XMLID_93_" d="M94.358,397.641L73.429,418.57l-7.524-7.524c-3.905-3.904-10.237-3.904-14.143,0     c-3.905,3.905-3.905,10.237,0,14.143l14.596,14.596c1.953,1.952,4.512,2.929,7.071,2.929s5.119-0.977,7.071-2.929l28-28     c3.905-3.905,3.905-10.237,0-14.143C104.595,393.737,98.263,393.737,94.358,397.641z"/>
			<path id="XMLID_94_" d="M234.388,414.212h-84.667c-5.523,0-10,4.478-10,10s4.477,10,10,10h84.667c5.523,0,10-4.478,10-10     S239.911,414.212,234.388,414.212z"/>
		</g>
	</g>
</g>















</svg>
