<?xml version="1.0"?>
<svg xmlns="http://www.w3.org/2000/svg" viewBox="0 0 32 32">
    <path style="text-indent:0;text-align:start;line-height:normal;text-transform:none;block-progression:tb;-inkscape-font-specification:Sans" d="M 16 4 C 12.685125 4 9.7035576 5.3534128 7.53125 7.53125 L 5.65625 5.65625 L 5 12 L 11 11 L 8.9375 8.9375 C 10.745095 7.1247212 13.231209 6 16 6 C 21.534534 6 26 10.465466 26 16 C 26 21.534534 21.534534 26 16 26 L 15 26 L 15 28 L 16 28 L 17 28 L 17 27.9375 C 23.145802 27.423652 28 22.276017 28 16 C 28 9.3845336 22.615466 4 16 4 z M 15 10 L 15 11.1875 C 13.841877 11.607798 13 12.715128 13 14 C 13 14.833668 13.460298 15.54129 13.96875 15.96875 C 14.477202 16.39621 15.061402 16.653884 15.5625 16.90625 C 16.063598 17.158616 16.507774 17.393096 16.75 17.59375 C 16.992226 17.794404 17 17.847176 17 18 C 17 18.524506 16.548741 19 16 19 C 15.43497 19 15 18.56503 15 18 L 13 18 C 13 19.291987 13.844264 20.394273 15 20.8125 L 15 22 L 17 22 L 17 20.8125 C 18.159316 20.391193 19 19.281403 19 18 C 19 17.169324 18.507774 16.483127 18 16.0625 C 17.492226 15.641873 16.936402 15.376259 16.4375 15.125 C 15.938598 14.873741 15.522798 14.640571 15.28125 14.4375 C 15.039702 14.234429 15 14.168332 15 14 C 15 13.461911 15.44583 13 16 13 C 16.56503 13 17 13.43497 17 14 L 19 14 C 19 12.708013 18.155736 11.605727 17 11.1875 L 17 10 L 15 10 z M 5 15 C 4.4477153 15 4 15.447715 4 16 C 4 16.552285 4.4477153 17 5 17 C 5.5522847 17 6 16.552285 6 16 C 6 15.447715 5.5522847 15 5 15 z M 5.84375 19.21875 C 5.7138538 19.217783 5.5963111 19.228412 5.46875 19.28125 C 4.9585054 19.4926 4.6948997 20.083505 4.90625 20.59375 C 5.1176003 21.103995 5.7085054 21.33635 6.21875 21.125 C 6.7289945 20.91365 6.9613503 20.322745 6.75 19.8125 C 6.5914873 19.429816 6.2334387 19.221652 5.84375 19.21875 z M 8.21875 22.78125 C 7.9628277 22.78125 7.6952622 22.867238 7.5 23.0625 C 7.1094757 23.453024 7.1094755 24.109476 7.5 24.5 C 7.8905245 24.890524 8.5469757 24.890524 8.9375 24.5 C 9.3280243 24.109476 9.3280245 23.453024 8.9375 23.0625 C 8.7422378 22.867238 8.4746723 22.78125 8.21875 22.78125 z M 11.78125 25.15625 C 11.391561 25.159152 11.033513 25.398566 10.875 25.78125 C 10.66365 26.291495 10.896005 26.8824 11.40625 27.09375 C 11.916495 27.3051 12.5074 27.041495 12.71875 26.53125 C 12.9301 26.021005 12.697745 25.46135 12.1875 25.25 C 12.059939 25.197162 11.911146 25.155283 11.78125 25.15625 z"/>
</svg>
