<svg id="Layer_1" data-name="Layer 1" xmlns="http://www.w3.org/2000/svg" xmlns:xlink="http://www.w3.org/1999/xlink" viewBox="0 0 76.34 84.84"><defs><style>.cls-1{mask:url(#mask);}.cls-2{mix-blend-mode:multiply;fill:url(#_ÂÁ_Ï_ÌÌ_È_ËÂÌÚ_69);}.cls-10,.cls-11,.cls-12,.cls-13,.cls-14,.cls-15,.cls-16,.cls-17,.cls-18,.cls-19,.cls-20,.cls-21,.cls-22,.cls-23,.cls-24,.cls-25,.cls-26,.cls-27,.cls-28,.cls-29,.cls-3,.cls-30,.cls-31,.cls-32,.cls-33,.cls-34,.cls-35,.cls-36,.cls-37,.cls-38,.cls-39,.cls-4,.cls-40,.cls-41,.cls-42,.cls-43,.cls-44,.cls-45,.cls-46,.cls-47,.cls-48,.cls-49,.cls-5,.cls-50,.cls-51,.cls-52,.cls-53,.cls-54,.cls-6,.cls-7,.cls-8,.cls-9{fill:#1a1a1a;}.cls-3{opacity:0;}.cls-4{opacity:0.02;}.cls-5{opacity:0.04;}.cls-6{opacity:0.06;}.cls-7{opacity:0.08;}.cls-8{opacity:0.1;}.cls-9{opacity:0.12;}.cls-10{opacity:0.14;}.cls-11{opacity:0.16;}.cls-12{opacity:0.18;}.cls-13{opacity:0.2;}.cls-14{opacity:0.22;}.cls-15{opacity:0.24;}.cls-16{opacity:0.25;}.cls-17{opacity:0.27;}.cls-18{opacity:0.29;}.cls-19{opacity:0.31;}.cls-20{opacity:0.33;}.cls-21{opacity:0.35;}.cls-22{opacity:0.37;}.cls-23{opacity:0.39;}.cls-24{opacity:0.41;}.cls-25{opacity:0.43;}.cls-26{opacity:0.45;}.cls-27{opacity:0.47;}.cls-28{opacity:0.49;}.cls-29{opacity:0.51;}.cls-30{opacity:0.53;}.cls-31{opacity:0.55;}.cls-32{opacity:0.57;}.cls-33{opacity:0.59;}.cls-34{opacity:0.61;}.cls-35{opacity:0.63;}.cls-36{opacity:0.65;}.cls-37{opacity:0.67;}.cls-38{opacity:0.69;}.cls-39{opacity:0.71;}.cls-40{opacity:0.73;}.cls-41{opacity:0.75;}.cls-42{opacity:0.76;}.cls-43{opacity:0.78;}.cls-44{opacity:0.8;}.cls-45{opacity:0.82;}.cls-46{opacity:0.84;}.cls-47{opacity:0.86;}.cls-48{opacity:0.88;}.cls-49{opacity:0.9;}.cls-50{opacity:0.92;}.cls-51{opacity:0.94;}.cls-52{opacity:0.96;}.cls-53{opacity:0.98;}.cls-55,.cls-62{fill:#010101;}.cls-56{fill:#e6e6e5;}.cls-57{fill:url(#_ÂÁ_Ï_ÌÌ_È_ËÂÌÚ_21);}.cls-58{mask:url(#mask-2);}.cls-59{fill:url(#_ÂÁ_Ï_ÌÌ_È_ËÂÌÚ_66);}.cls-60{opacity:0.2;}.cls-61{fill:#fff;}.cls-62{opacity:0.15;}.cls-63{fill:url(#ÕÓ_ËÈ_Á_ÁÓÍ_ÌÚ_4);}.cls-64{fill:url(#ÕÓ_È_Ó·_ÁÂ_ËÂÌÚ_1);}.cls-65{fill:url(#ÕÓ_È_Ó·_ÁÂ_ËÂÌÚ_1-2);}.cls-66{fill:url(#ÕÓ_È_Ó·_ÁÂ_ËÂÌÚ_2);}.cls-67{fill:#f3f3f3;}.cls-68{fill:url(#_ÂÁ_Ï_ÌÌ_È_ËÂÌÚ_23);}.cls-69{fill:#818181;}.cls-70{fill:#676767;}.cls-71{fill:url(#ÕÓ_ËÈ_Á_ÁÓÍ_ÌÚ_4-2);}.cls-72{fill:url(#_ÂÁ_Ï_ÌÌ_È_ËÂÌÚ_29);}.cls-73{fill:url(#ÕÓ_ËÈ_Á_ÁÓÍ_ÌÚ_4-3);}.cls-74{fill:url(#ÕÓ_È_Ó·_ÁÂ_ËÂÌÚ_2-2);}.cls-75{fill:#272626;}.cls-76{fill:url(#_ÂÁ_Ï_ÌÌ_È_ËÂÌÚ_23-2);}.cls-77{fill:url(#ÕÓ_ËÈ_Á_ÁÓÍ_ÌÚ_4-4);}.cls-78{fill:url(#_ÂÁ_Ï_ÌÌ_È_ËÂÌÚ_29-2);}.cls-79{fill:url(#_ÂÁ_Ï_ÌÌ_È_ËÂÌÚ_26);}.cls-80{fill:url(#_ÂÁ_Ï_ÌÌ_È_ËÂÌÚ_26-2);}.cls-81{fill:url(#_ÂÁ_Ï_ÌÌ_È_ËÂÌÚ_26-3);}.cls-82{fill:#d9d9d8;}.cls-83{filter:url(#luminosity-noclip-2);}.cls-84{filter:url(#luminosity-noclip);}</style><filter id="luminosity-noclip" x="12.76" y="-8242" width="55.89" height="32766" filterUnits="userSpaceOnUse" color-interpolation-filters="sRGB"><feFlood flood-color="#fff" result="bg"/><feBlend in="SourceGraphic" in2="bg"/></filter><mask id="mask" x="12.76" y="-8242" width="55.89" height="32766" maskUnits="userSpaceOnUse"><g class="cls-84"/></mask><linearGradient id="_ÂÁ_Ï_ÌÌ_È_ËÂÌÚ_69" x1="40.7" y1="84.74" x2="40.7" y2="82.89" gradientUnits="userSpaceOnUse"><stop offset="0" stop-color="#333"/><stop offset="1" stop-color="#0d0d0d"/></linearGradient><linearGradient id="_ÂÁ_Ï_ÌÌ_È_ËÂÌÚ_21" x1="18.2" y1="63.32" x2="63.2" y2="18.32" gradientUnits="userSpaceOnUse"><stop offset="0" stop-color="#2b2a32"/><stop offset="0.1" stop-color="#31303a"/><stop offset="0.25" stop-color="#3f3f4d"/><stop offset="0.39" stop-color="#31303a"/><stop offset="0.5" stop-color="#2b2a32"/><stop offset="0.66" stop-color="#373743"/><stop offset="0.74" stop-color="#3f3f4d"/><stop offset="0.79" stop-color="#393845"/><stop offset="0.9" stop-color="#2f2e37"/><stop offset="1" stop-color="#2b2a32"/></linearGradient><filter id="luminosity-noclip-2" x="12.76" y="82.89" width="55.89" height="1.85" filterUnits="userSpaceOnUse" color-interpolation-filters="sRGB"><feFlood flood-color="#fff" result="bg"/><feBlend in="SourceGraphic" in2="bg"/></filter><mask id="mask-2" x="10.22" y="74.32" width="55.89" height="1.85" maskUnits="userSpaceOnUse"><g class="cls-83"><g transform="translate(-2.53 -8.58)"><g class="cls-1"><path class="cls-2" d="M40.7,82.89H12.76a4.3,4.3,0,0,0,3.54,1.85H65.1a4.31,4.31,0,0,0,3.55-1.85Z"/></g></g></g></mask><linearGradient id="_ÂÁ_Ï_ÌÌ_È_ËÂÌÚ_66" x1="40.7" y1="84.74" x2="40.7" y2="82.89" gradientUnits="userSpaceOnUse"><stop offset="0" stop-color="#010101"/><stop offset="1" stop-color="#010101"/></linearGradient><linearGradient id="ÕÓ_ËÈ_Á_ÁÓÍ_ÌÚ_4" x1="15.07" y1="79.76" x2="17" y2="79.76" gradientUnits="userSpaceOnUse"><stop offset="0.01" stop-color="#fff"/><stop offset="0.07" stop-color="#f5f5f5"/><stop offset="0.17" stop-color="#dbdbdb"/><stop offset="0.26" stop-color="#bfbfbf"/><stop offset="0.28" stop-color="#ccc"/><stop offset="0.33" stop-color="#e3e3e3"/><stop offset="0.38" stop-color="#f3f3f3"/><stop offset="0.43" stop-color="#fcfcfc"/><stop offset="0.51" stop-color="#fff"/><stop offset="0.57" stop-color="#fafafa"/><stop offset="0.64" stop-color="#ededed"/><stop offset="0.71" stop-color="#d7d7d7"/><stop offset="0.77" stop-color="#bfbfbf"/><stop offset="0.78" stop-color="#c8c8c8"/><stop offset="0.83" stop-color="#e0e0e0"/><stop offset="0.88" stop-color="#f2f2f2"/><stop offset="0.93" stop-color="#fcfcfc"/><stop offset="1" stop-color="#fff"/></linearGradient><linearGradient id="ÕÓ_È_Ó·_ÁÂ_ËÂÌÚ_1" x1="14.27" y1="58.28" x2="21.71" y2="65.72" gradientUnits="userSpaceOnUse"><stop offset="0.01" stop-color="#e6bd7e"/><stop offset="0.12" stop-color="#e6c188"/><stop offset="0.3" stop-color="#e6cba2"/><stop offset="0.53" stop-color="#e6dccc"/><stop offset="0.56" stop-color="#e6ded1"/><stop offset="0.57" stop-color="#e6ddce"/><stop offset="0.63" stop-color="#e6d1b1"/><stop offset="0.71" stop-color="#e6c89a"/><stop offset="0.79" stop-color="#e6c28a"/><stop offset="0.88" stop-color="#e6be81"/><stop offset="1" stop-color="#e6bd7e"/></linearGradient><linearGradient id="ÕÓ_È_Ó·_ÁÂ_ËÂÌÚ_1-2" x1="-70.64" y1="58.28" x2="-63.2" y2="65.72" gradientTransform="matrix(-1, 0, 0, 1, -3.5, 0)" xlink:href="#ÕÓ_È_Ó·_ÁÂ_ËÂÌÚ_1"/><linearGradient id="ÕÓ_È_Ó·_ÁÂ_ËÂÌÚ_2" x1="26.56" y1="74.34" x2="54.84" y2="46.06" gradientUnits="userSpaceOnUse"><stop offset="0" stop-color="#989898"/><stop offset="0.24" stop-color="#ebebeb"/><stop offset="0.5" stop-color="#989898"/><stop offset="0.74" stop-color="#ebebeb"/><stop offset="1" stop-color="#989898"/></linearGradient><linearGradient id="_ÂÁ_Ï_ÌÌ_È_ËÂÌÚ_23" x1="15.29" y1="71.91" x2="21.21" y2="65.99" gradientUnits="userSpaceOnUse"><stop offset="0.01" stop-color="#e3e7eb"/><stop offset="0.07" stop-color="#dbdee1"/><stop offset="0.18" stop-color="#c4c6c7"/><stop offset="0.26" stop-color="#b0b0b0"/><stop offset="0.27" stop-color="#b7b8b8"/><stop offset="0.32" stop-color="#cbcdcf"/><stop offset="0.37" stop-color="#d8dbdf"/><stop offset="0.43" stop-color="#e0e4e8"/><stop offset="0.51" stop-color="#e3e7eb"/><stop offset="0.57" stop-color="#dfe3e6"/><stop offset="0.65" stop-color="#d4d6d9"/><stop offset="0.72" stop-color="#c1c2c3"/><stop offset="0.77" stop-color="#b0b0b0"/><stop offset="0.78" stop-color="#b4b4b4"/><stop offset="0.82" stop-color="#c9cacc"/><stop offset="0.88" stop-color="#d7dade"/><stop offset="0.93" stop-color="#e0e4e8"/><stop offset="1" stop-color="#e3e7eb"/></linearGradient><linearGradient id="ÕÓ_ËÈ_Á_ÁÓÍ_ÌÚ_4-2" x1="14.46" y1="68.22" x2="19.15" y2="68.22" xlink:href="#ÕÓ_ËÈ_Á_ÁÓÍ_ÌÚ_4"/><radialGradient id="_ÂÁ_Ï_ÌÌ_È_ËÂÌÚ_29" cx="18.61" cy="61.92" r="1.76" gradientUnits="userSpaceOnUse"><stop offset="0.01" stop-color="#dcf2fd"/><stop offset="0.09" stop-color="#d7eaf3"/><stop offset="0.24" stop-color="#cbd5d9"/><stop offset="0.35" stop-color="#bfbfbf"/><stop offset="0.45" stop-color="#cfcfcf"/><stop offset="0.6" stop-color="#dfdfdf"/><stop offset="0.77" stop-color="#e8e8e8"/><stop offset="1" stop-color="#ebebeb"/></radialGradient><linearGradient id="ÕÓ_ËÈ_Á_ÁÓÍ_ÌÚ_4-3" x1="64.41" y1="79.76" x2="66.33" y2="79.76" xlink:href="#ÕÓ_ËÈ_Á_ÁÓÍ_ÌÚ_4"/><linearGradient id="ÕÓ_È_Ó·_ÁÂ_ËÂÌÚ_2-2" x1="34.04" y1="77.25" x2="47.37" y2="63.92" xlink:href="#ÕÓ_È_Ó·_ÁÂ_ËÂÌÚ_2"/><linearGradient id="_ÂÁ_Ï_ÌÌ_È_ËÂÌÚ_23-2" x1="-69.61" y1="71.91" x2="-63.69" y2="65.99" gradientTransform="matrix(-1, 0, 0, 1, -3.5, 0)" xlink:href="#_ÂÁ_Ï_ÌÌ_È_ËÂÌÚ_23"/><linearGradient id="ÕÓ_ËÈ_Á_ÁÓÍ_ÌÚ_4-4" x1="-70.44" y1="68.22" x2="-65.75" y2="68.22" gradientTransform="matrix(-1, 0, 0, 1, -3.5, 0)" xlink:href="#ÕÓ_ËÈ_Á_ÁÓÍ_ÌÚ_4"/><radialGradient id="_ÂÁ_Ï_ÌÌ_È_ËÂÌÚ_29-2" cx="-63.76" cy="70.5" r="1.76" gradientTransform="matrix(-1, 0, 0, 1, -3.5, 0)" xlink:href="#_ÂÁ_Ï_ÌÌ_È_ËÂÌÚ_29"/><linearGradient id="_ÂÁ_Ï_ÌÌ_È_ËÂÌÚ_26" x1="39.53" y1="68.51" x2="41.87" y2="66.17" gradientUnits="userSpaceOnUse"><stop offset="0" stop-color="#989898"/><stop offset="0.5" stop-color="#ebebeb"/><stop offset="1" stop-color="#989898"/></linearGradient><linearGradient id="_ÂÁ_Ï_ÌÌ_È_ËÂÌÚ_26-2" x1="34.69" y1="68.78" x2="36.98" y2="66.49" xlink:href="#_ÂÁ_Ï_ÌÌ_È_ËÂÌÚ_26"/><linearGradient id="_ÂÁ_Ï_ÌÌ_È_ËÂÌÚ_26-3" x1="44.36" y1="68.64" x2="46.37" y2="66.63" xlink:href="#_ÂÁ_Ï_ÌÌ_È_ËÂÌÚ_26"/></defs><title>bus</title><ellipse class="cls-3" cx="38.17" cy="82.47" rx="38.17" ry="2.37"/><ellipse class="cls-4" cx="38.17" cy="82.47" rx="37.78" ry="2.33"/><ellipse class="cls-5" cx="38.17" cy="82.47" rx="37.39" ry="2.29"/><ellipse class="cls-6" cx="38.17" cy="82.47" rx="36.99" ry="2.25"/><ellipse class="cls-7" cx="38.17" cy="82.47" rx="36.6" ry="2.21"/><ellipse class="cls-8" cx="38.17" cy="82.47" rx="36.21" ry="2.17"/><ellipse class="cls-9" cx="38.17" cy="82.47" rx="35.82" ry="2.13"/><ellipse class="cls-10" cx="38.17" cy="82.47" rx="35.43" ry="2.09"/><path class="cls-11" d="M40.7,93.09c-18.78,0-34.16-.91-35-2,.87-1.14,16.25-2,35-2s34.17.91,35,2C74.87,92.18,59.48,93.09,40.7,93.09Z" transform="translate(-2.53 -8.58)"/><ellipse class="cls-12" cx="38.17" cy="82.47" rx="34.64" ry="2"/><ellipse class="cls-13" cx="38.17" cy="82.47" rx="34.25" ry="1.96"/><ellipse class="cls-14" cx="38.17" cy="82.47" rx="33.86" ry="1.92"/><ellipse class="cls-15" cx="38.17" cy="82.47" rx="33.47" ry="1.88"/><path class="cls-16" d="M40.7,92.89c-17.34,0-31.66-.82-33.07-1.84C9,90,23.36,89.21,40.7,89.21s31.66.81,33.07,1.84C72.36,92.07,58,92.89,40.7,92.89Z" transform="translate(-2.53 -8.58)"/><ellipse class="cls-17" cx="38.17" cy="82.47" rx="32.68" ry="1.8"/><ellipse class="cls-18" cx="38.17" cy="82.47" rx="32.29" ry="1.76"/><ellipse class="cls-19" cx="38.17" cy="82.47" rx="31.9" ry="1.72"/><path class="cls-20" d="M40.7,92.72C24.51,92.72,11,92,9.2,91.05c1.84-.94,15.31-1.68,31.5-1.68s29.66.74,31.51,1.68C70.36,92,56.89,92.72,40.7,92.72Z" transform="translate(-2.53 -8.58)"/><path class="cls-21" d="M40.7,92.68c-15.9,0-29.16-.72-31.11-1.63,1.95-.92,15.21-1.64,31.11-1.64s29.16.72,31.11,1.64C69.86,92,56.61,92.68,40.7,92.68Z" transform="translate(-2.53 -8.58)"/><ellipse class="cls-22" cx="38.17" cy="82.47" rx="30.72" ry="1.59"/><ellipse class="cls-23" cx="38.17" cy="82.47" rx="30.33" ry="1.55"/><path class="cls-24" d="M40.7,92.56c-15,0-27.66-.67-29.94-1.51,2.28-.85,14.9-1.52,29.94-1.52s27.66.67,29.94,1.52C68.36,91.89,55.74,92.56,40.7,92.56Z" transform="translate(-2.53 -8.58)"/><path class="cls-25" d="M40.7,92.52c-14.75,0-27.16-.65-29.54-1.47,2.38-.83,14.79-1.47,29.54-1.47s27.16.64,29.55,1.47C67.86,91.87,55.46,92.52,40.7,92.52Z" transform="translate(-2.53 -8.58)"/><ellipse class="cls-26" cx="38.17" cy="82.47" rx="29.15" ry="1.43"/><ellipse class="cls-27" cx="38.17" cy="82.47" rx="28.76" ry="1.39"/><path class="cls-28" d="M40.7,92.4c-13.89,0-25.66-.59-28.37-1.35C15,90.29,26.81,89.7,40.7,89.7s25.66.59,28.37,1.35C66.36,91.81,54.59,92.4,40.7,92.4Z" transform="translate(-2.53 -8.58)"/><path class="cls-29" d="M40.7,92.36c-13.6,0-25.16-.58-28-1.31,2.82-.74,14.38-1.31,28-1.31s25.16.57,28,1.31C65.86,91.78,54.31,92.36,40.7,92.36Z" transform="translate(-2.53 -8.58)"/><path class="cls-30" d="M40.7,92.32c-13.32,0-24.66-.56-27.58-1.27,2.92-.72,14.26-1.27,27.58-1.27s24.66.55,27.59,1.27C65.36,91.76,54,92.32,40.7,92.32Z" transform="translate(-2.53 -8.58)"/><ellipse class="cls-31" cx="38.17" cy="82.47" rx="27.19" ry="1.23"/><path class="cls-32" d="M40.7,92.23C28,92.23,17,91.72,13.9,91.05,17,90.38,28,89.86,40.7,89.86s23.66.52,26.8,1.19C64.36,91.72,53.44,92.23,40.7,92.23Z" transform="translate(-2.53 -8.58)"/><path class="cls-33" d="M40.7,92.19c-12.45,0-23.15-.49-26.41-1.14,3.26-.65,14-1.15,26.41-1.15s23.16.5,26.41,1.15C63.86,91.7,53.16,92.19,40.7,92.19Z" transform="translate(-2.53 -8.58)"/><path class="cls-34" d="M40.7,92.15c-12.17,0-22.65-.48-26-1.1,3.37-.63,13.85-1.11,26-1.11s22.66.48,26,1.11C63.36,91.67,52.87,92.15,40.7,92.15Z" transform="translate(-2.53 -8.58)"/><path class="cls-35" d="M40.7,92.11c-11.88,0-22.15-.46-25.63-1.06C18.55,90.44,28.82,90,40.7,90s22.16.46,25.63,1.07C62.86,91.65,52.58,92.11,40.7,92.11Z" transform="translate(-2.53 -8.58)"/><ellipse class="cls-36" cx="38.17" cy="82.47" rx="25.23" ry="1.02"/><path class="cls-37" d="M40.7,92c-11.3,0-21.15-.42-24.84-1,3.69-.56,13.54-1,24.84-1s21.15.42,24.84,1C61.85,91.61,52,92,40.7,92Z" transform="translate(-2.53 -8.58)"/><path class="cls-38" d="M40.7,92c-11,0-20.65-.4-24.45-.94,3.8-.54,13.43-.94,24.45-.94s20.65.4,24.45.94C61.35,91.59,51.72,92,40.7,92Z" transform="translate(-2.53 -8.58)"/><path class="cls-39" d="M40.7,92c-10.73,0-20.15-.39-24.06-.9a238.45,238.45,0,0,1,24.06-.9,238.45,238.45,0,0,1,24.06.9C60.85,91.56,51.43,92,40.7,92Z" transform="translate(-2.53 -8.58)"/><path class="cls-40" d="M40.7,91.91c-10.44,0-19.65-.37-23.67-.86,4-.5,13.23-.86,23.67-.86s19.65.36,23.67.86C60.35,91.54,51.14,91.91,40.7,91.91Z" transform="translate(-2.53 -8.58)"/><path class="cls-41" d="M40.7,91.87c-10.15,0-19.15-.35-23.27-.82,4.12-.48,13.12-.82,23.27-.82s19.15.34,23.28.82C59.85,91.52,50.85,91.87,40.7,91.87Z" transform="translate(-2.53 -8.58)"/><path class="cls-42" d="M40.7,91.82c-9.87,0-18.65-.32-22.88-.77,4.23-.45,13-.78,22.88-.78s18.65.33,22.88.78C59.35,91.5,50.57,91.82,40.7,91.82Z" transform="translate(-2.53 -8.58)"/><path class="cls-43" d="M40.7,91.78c-9.58,0-18.15-.3-22.49-.73,4.34-.43,12.91-.74,22.49-.74s18.15.31,22.49.74C58.85,91.48,50.28,91.78,40.7,91.78Z" transform="translate(-2.53 -8.58)"/><path class="cls-44" d="M40.7,91.74c-9.29,0-17.65-.29-22.1-.69,4.45-.41,12.81-.7,22.1-.7s17.65.29,22.1.7C58.35,91.45,50,91.74,40.7,91.74Z" transform="translate(-2.53 -8.58)"/><path class="cls-45" d="M40.7,91.7c-9,0-17.15-.27-21.71-.65,4.56-.39,12.71-.66,21.71-.66s17.15.27,21.71.66C57.85,91.43,49.7,91.7,40.7,91.7Z" transform="translate(-2.53 -8.58)"/><path class="cls-46" d="M40.7,91.66c-8.72,0-16.65-.25-21.31-.61,4.66-.37,12.59-.62,21.31-.62s16.65.25,21.32.62C57.35,91.41,49.42,91.66,40.7,91.66Z" transform="translate(-2.53 -8.58)"/><path class="cls-47" d="M40.7,91.62c-8.43,0-16.15-.23-20.92-.57,4.77-.34,12.49-.57,20.92-.57s16.15.23,20.92.57C56.85,91.39,49.13,91.62,40.7,91.62Z" transform="translate(-2.53 -8.58)"/><path class="cls-48" d="M40.7,91.58c-8.14,0-15.65-.21-20.53-.53,4.88-.32,12.39-.53,20.53-.53s15.65.21,20.53.53C56.35,91.37,48.84,91.58,40.7,91.58Z" transform="translate(-2.53 -8.58)"/><path class="cls-49" d="M40.7,91.54c-7.85,0-15.15-.2-20.14-.49,5-.3,12.29-.49,20.14-.49s15.15.19,20.14.49C55.85,91.34,48.55,91.54,40.7,91.54Z" transform="translate(-2.53 -8.58)"/><path class="cls-50" d="M40.7,91.5c-7.57,0-14.65-.18-19.75-.45,5.1-.28,12.18-.45,19.75-.45s14.65.17,19.75.45C55.35,91.32,48.27,91.5,40.7,91.5Z" transform="translate(-2.53 -8.58)"/><path class="cls-51" d="M40.7,91.46c-7.28,0-14.15-.16-19.35-.41,5.2-.26,12.07-.41,19.35-.41s14.15.15,19.36.41C54.85,91.3,48,91.46,40.7,91.46Z" transform="translate(-2.53 -8.58)"/><path class="cls-52" d="M40.7,91.42c-7,0-13.65-.14-19-.37,5.31-.23,12-.37,19-.37s13.65.14,19,.37C54.35,91.28,47.69,91.42,40.7,91.42Z" transform="translate(-2.53 -8.58)"/><path class="cls-53" d="M40.7,91.37c-6.7,0-13.15-.11-18.57-.32,5.42-.21,11.87-.33,18.57-.33s13.15.12,18.57.33C53.85,91.26,47.4,91.37,40.7,91.37Z" transform="translate(-2.53 -8.58)"/><path class="cls-54" d="M40.7,91.33c-6.42,0-12.65-.1-18.18-.28,5.53-.19,11.76-.29,18.18-.29s12.65.1,18.18.29C53.35,91.23,47.12,91.33,40.7,91.33Z" transform="translate(-2.53 -8.58)"/><path class="cls-55" d="M12.55,80.62v8.09c0,2.39,1.92,2.39,1.92,2.39h4.91c1.29,0,1.29-1.69,1.29-1.69V83.25Z" transform="translate(-2.53 -8.58)"/><path class="cls-55" d="M68.85,80.62v8.09c0,2.39-1.91,2.39-1.91,2.39H62c-1.29,0-1.29-1.69-1.29-1.69V83.25Z" transform="translate(-2.53 -8.58)"/><path class="cls-56" d="M65.85,10.53c-2.29-1.9-9.75-1.9-12.91-1.9H28.46c-3.16,0-10.62,0-12.91,1.9S12.22,30,12.22,52.85V80.73c0,3.92,3.78,4,4.08,4H65.1c.3,0,4.08-.09,4.08-4V52.85C69.18,30,68.15,12.44,65.85,10.53Z" transform="translate(-2.53 -8.58)"/><path class="cls-55" d="M65.1,84.79H16.3c-.17,0-4.13,0-4.13-4.06V52.85c0-25.16,1.22-40.6,3.35-42.36,2.31-1.91,9.76-1.91,12.94-1.91H52.94c3.19,0,10.64,0,13,1.91h0c2.12,1.76,3.34,17.2,3.34,42.36V80.73C69.23,84.75,65.27,84.79,65.1,84.79ZM28.46,8.68c-3.17,0-10.6,0-12.88,1.89-2.1,1.75-3.31,17.16-3.31,42.28V80.73c0,3.91,3.86,4,4,4H65.1c.17,0,4,0,4-4V52.85c0-25.12-1.21-40.53-3.31-42.28-2.28-1.89-9.71-1.89-12.88-1.89Z" transform="translate(-2.53 -8.58)"/><path class="cls-55" d="M40.7,57.34H12.22v6a19.6,19.6,0,0,1,4.33.62c3.44.8,4.69,1.95,4.69,1.95a14.3,14.3,0,0,1,2.29,3c1.6,2.45,2.93,4.12,2.93,4.12s1.53,1.4,2.13,1.4H52.81c.6,0,2.13-1.4,2.13-1.4s1.33-1.67,2.93-4.12a14.8,14.8,0,0,1,2.29-3s1.25-1.15,4.69-1.95a19.6,19.6,0,0,1,4.33-.62v-6Z" transform="translate(-2.53 -8.58)"/><path class="cls-57" d="M68.35,23.47a13.16,13.16,0,0,0-6.23-1.61H19.29a13.21,13.21,0,0,0-6.24,1.61c-.56,7.51-.83,17.75-.83,29.38v4.49h57V52.85C69.18,41.22,68.91,31,68.35,23.47Z" transform="translate(-2.53 -8.58)"/><path class="cls-55" d="M65.85,10.53c-2.29-1.9-9.75-1.9-12.91-1.9H28.46c-3.16,0-10.62,0-12.91,1.9-1.13.94-2,5.66-2.5,12.94a13.21,13.21,0,0,1,6.24-1.61H62.12a13.16,13.16,0,0,1,6.23,1.61C67.81,16.19,67,11.47,65.85,10.53Z" transform="translate(-2.53 -8.58)"/><g class="cls-58"><path class="cls-59" d="M40.7,82.89H12.76a4.3,4.3,0,0,0,3.54,1.85H65.1a4.31,4.31,0,0,0,3.55-1.85Z" transform="translate(-2.53 -8.58)"/></g><g class="cls-60"><path class="cls-55" d="M12.76,81s2.2.23,4.44.23h4.44c1.29,0-1.9-3.45-4.44-3.45a8.36,8.36,0,0,0-4.44,1.35,12.82,12.82,0,0,1,4.74-.62c1.92.3,3.74,1.52,3.16,2.09S12.76,81,12.76,81Z" transform="translate(-2.53 -8.58)"/><path class="cls-55" d="M68.65,81s-2.21.23-4.44.23H59.76c-1.29,0,1.9-3.45,4.45-3.45a8.4,8.4,0,0,1,4.44,1.35,12.87,12.87,0,0,0-4.74-.62c-1.92.3-3.75,1.52-3.17,2.09S68.65,81,68.65,81Z" transform="translate(-2.53 -8.58)"/></g><path class="cls-61" d="M48.39,80.52H33a52.16,52.16,0,0,1-6.56-.47,24.63,24.63,0,0,0,6.95,1.15H48a24.54,24.54,0,0,0,6.95-1.15A52.11,52.11,0,0,1,48.39,80.52Z" transform="translate(-2.53 -8.58)"/><path class="cls-62" d="M40.7,76.36H27.48a34.94,34.94,0,0,0,6.6.51H47.32a35.13,35.13,0,0,0,6.61-.51Z" transform="translate(-2.53 -8.58)"/><path class="cls-61" d="M64.92,72.55h0s-3.33,1.84-12.11,1.84H28.59c-8.78,0-12.11-1.84-12.11-1.84h0a8.12,8.12,0,0,1-4.26-5s1,7.65,9,7.65H60.16c8,0,9-7.65,9-7.65A8.12,8.12,0,0,1,64.92,72.55Z" transform="translate(-2.53 -8.58)"/><path class="cls-63" d="M17,79.76a1,1,0,1,1-1-1A1,1,0,0,1,17,79.76Z" transform="translate(-2.53 -8.58)"/><path class="cls-55" d="M16,80.75a1,1,0,1,1,1-1A1,1,0,0,1,16,80.75Zm0-1.92a.93.93,0,1,0,.93.93A.94.94,0,0,0,16,78.83Z" transform="translate(-2.53 -8.58)"/><rect class="cls-55" x="31.15" y="68.29" width="14.04" height="3.65" rx="0.4"/><path class="cls-64" d="M22.5,64.83c.41-.13.9-1,.9-1s-10.91-5-10.91-3.64A28.13,28.13,0,0,0,18,63.31C21.06,64.55,22.09,65,22.5,64.83Z" transform="translate(-2.53 -8.58)"/><path class="cls-65" d="M58.9,64.83c-.41-.13-.9-1-.9-1s10.91-5,10.91-3.64a27.78,27.78,0,0,1-5.55,3.17C60.34,64.55,59.31,65,58.9,64.83Z" transform="translate(-2.53 -8.58)"/><path class="cls-66" d="M63.36,63.31c-3,1.24-4,1.64-4.46,1.52s-.9-1-.9-1H23.4s-.49.92-.9,1-1.44-.28-4.46-1.52a28.13,28.13,0,0,1-5.55-3.17c0,.83,8,5.33,10.51,5.33.18,0,.41-.11.69-.11h34c.28,0,.52.11.69.11,2.56,0,10.51-4.5,10.51-5.33A27.78,27.78,0,0,1,63.36,63.31Z" transform="translate(-2.53 -8.58)"/><rect class="cls-67" x="31.35" y="68.49" width="13.64" height="3.25" rx="0.2"/><path class="cls-55" d="M18.84,73h7.62s-1.33-1.67-2.93-4.12a14.3,14.3,0,0,0-2.29-3S20,64.73,16.55,63.93c-2.32-.54-4.33-1.13-4.33-1.13v4.8C13.16,70.09,15.06,73,18.84,73Z" transform="translate(-2.53 -8.58)"/><path class="cls-68" d="M26.26,72.89c-.37-.48-1.51-2-2.81-4a14.46,14.46,0,0,0-2.28-3A11.17,11.17,0,0,0,16.52,64c-2-.46-3.72-1-4.2-1.09v4.63a8.85,8.85,0,0,0,3.13,4.32A19.58,19.58,0,0,1,13.5,67.6a10.28,10.28,0,0,1-.25-2.75l.7-.67s5.13.95,6.49,1.7a5.26,5.26,0,0,1,2.15,2.44,19.06,19.06,0,0,1,1,2.78c.3,1.07-3.1,1.56-5.25,1.76.15,0,.3,0,.46,0Z" transform="translate(-2.53 -8.58)"/><path class="cls-69" d="M23.63,71.1a19.06,19.06,0,0,0-1-2.78,5.26,5.26,0,0,0-2.15-2.44c-1.36-.75-6.49-1.7-6.49-1.7l-.7.67a10.28,10.28,0,0,0,.25,2.75,19.58,19.58,0,0,0,1.95,4.29,5.8,5.8,0,0,0,2.93,1C20.53,72.66,23.93,72.17,23.63,71.1Z" transform="translate(-2.53 -8.58)"/><path class="cls-70" d="M16.8,65.65a2.58,2.58,0,1,0,2.58,2.57A2.57,2.57,0,0,0,16.8,65.65Zm0,4.92a2.35,2.35,0,1,1,2.35-2.35A2.35,2.35,0,0,1,16.8,70.57Z" transform="translate(-2.53 -8.58)"/><path class="cls-71" d="M16.8,65.88a2.35,2.35,0,1,0,2.35,2.34A2.34,2.34,0,0,0,16.8,65.88Zm0,3.56A1.22,1.22,0,1,1,18,68.22,1.22,1.22,0,0,1,16.8,69.44Z" transform="translate(-2.53 -8.58)"/><circle class="cls-72" cx="18.61" cy="61.92" r="1.76"/><path class="cls-73" d="M64.41,79.76a1,1,0,1,0,1-1A1,1,0,0,0,64.41,79.76Z" transform="translate(-2.53 -8.58)"/><path class="cls-55" d="M65.37,80.75a1,1,0,1,1,0-2,1,1,0,1,1,0,2Zm0-1.92a.93.93,0,1,0,.93.93A.93.93,0,0,0,65.37,78.83Z" transform="translate(-2.53 -8.58)"/><path class="cls-74" d="M40.7,70.58H27.37a3,3,0,0,0,2.09,1H52a3,3,0,0,0,2.08-1Z" transform="translate(-2.53 -8.58)"/><path class="cls-75" d="M40.7,69.75h-14a4.86,4.86,0,0,0,.64.83H54a4.86,4.86,0,0,0,.64-.83Z" transform="translate(-2.53 -8.58)"/><path class="cls-55" d="M62.56,73H54.94s1.33-1.67,2.93-4.12a14.8,14.8,0,0,1,2.29-3s1.25-1.15,4.69-1.95c2.32-.54,4.33-1.13,4.33-1.13v4.8C68.24,70.09,66.34,73,62.56,73Z" transform="translate(-2.53 -8.58)"/><path class="cls-76" d="M55.15,72.89c.37-.48,1.5-2,2.8-4a14.46,14.46,0,0,1,2.28-3A11.17,11.17,0,0,1,64.88,64c2-.46,3.72-1,4.2-1.09v4.63A8.8,8.8,0,0,1,66,71.89a19.12,19.12,0,0,0,2-4.29,10.28,10.28,0,0,0,.25-2.75l-.7-.67s-5.13.95-6.49,1.7a5.16,5.16,0,0,0-2.14,2.44,17.89,17.89,0,0,0-1,2.78c-.31,1.07,3.1,1.56,5.24,1.76-.15,0-.3,0-.46,0Z" transform="translate(-2.53 -8.58)"/><path class="cls-69" d="M57.78,71.1a17.89,17.89,0,0,1,1-2.78A5.16,5.16,0,0,1,61,65.88c1.36-.75,6.49-1.7,6.49-1.7l.7.67a10.28,10.28,0,0,1-.25,2.75,19.12,19.12,0,0,1-2,4.29,5.8,5.8,0,0,1-2.93,1C60.88,72.66,57.47,72.17,57.78,71.1Z" transform="translate(-2.53 -8.58)"/><path class="cls-70" d="M62,68.22a2.57,2.57,0,1,0,2.57-2.57A2.58,2.58,0,0,0,62,68.22Zm.22,0a2.35,2.35,0,1,1,2.35,2.35A2.35,2.35,0,0,1,62.25,68.22Z" transform="translate(-2.53 -8.58)"/><path class="cls-77" d="M62.25,68.22a2.35,2.35,0,1,0,2.35-2.34A2.35,2.35,0,0,0,62.25,68.22Zm1.13,0a1.22,1.22,0,1,1,1.22,1.22A1.22,1.22,0,0,1,63.38,68.22Z" transform="translate(-2.53 -8.58)"/><path class="cls-78" d="M58.5,70.5a1.77,1.77,0,1,0,1.76-1.76A1.76,1.76,0,0,0,58.5,70.5Z" transform="translate(-2.53 -8.58)"/><path class="cls-79" d="M41.28,66.61h1V67.8a.68.68,0,0,1-.09.33.85.85,0,0,1-.29.27,1.54,1.54,0,0,1-.42.17,3.77,3.77,0,0,1-.73.06,5,5,0,0,1-.53,0,2.09,2.09,0,0,1-.49-.08,1.27,1.27,0,0,1-.35-.17.59.59,0,0,1-.22-.23.68.68,0,0,1-.1-.33V66.61h1v1.21a.29.29,0,0,0,.15.26,1,1,0,0,0,.84,0,.28.28,0,0,0,.16-.26Z" transform="translate(-2.53 -8.58)"/><path class="cls-80" d="M34.51,66.61h2a1.62,1.62,0,0,1,.74.14.43.43,0,0,1,.27.36.39.39,0,0,1-.19.3,1.05,1.05,0,0,1-.36.13,1.16,1.16,0,0,1,.53.18.38.38,0,0,1,0,.59.88.88,0,0,1-.33.2,1.61,1.61,0,0,1-.4.06l-.46,0h-1.8Zm1.05.78H36a.86.86,0,0,0,.34,0,.15.15,0,0,0,0-.28A.8.8,0,0,0,36,67h-.46Zm0,.78h.53a1.07,1.07,0,0,0,.38,0,.18.18,0,0,0,.11-.16s0-.1-.11-.14a1.07,1.07,0,0,0-.38,0h-.53Z" transform="translate(-2.53 -8.58)"/><path class="cls-81" d="M43.84,67.94l1,0a.33.33,0,0,0,.13.22.74.74,0,0,0,.46.12.77.77,0,0,0,.34-.06c.08,0,.12-.09.12-.14s0-.1-.11-.14a2.2,2.2,0,0,0-.54-.12,3.2,3.2,0,0,1-1-.24c-.2-.1-.3-.23-.3-.38a.4.4,0,0,1,.15-.29,1.31,1.31,0,0,1,.46-.22,3.56,3.56,0,0,1,.82-.07,2.6,2.6,0,0,1,1,.14.6.6,0,0,1,.4.45l-1,0a.31.31,0,0,0-.16-.19.85.85,0,0,0-.35-.06A.64.64,0,0,0,45,67c-.06,0-.09.07-.09.11s0,.06.07.09a1.55,1.55,0,0,0,.35.07,7.09,7.09,0,0,1,1,.18,1.08,1.08,0,0,1,.43.22.39.39,0,0,1,.13.29.45.45,0,0,1-.18.35,1.23,1.23,0,0,1-.5.25,3.07,3.07,0,0,1-.81.08,2.57,2.57,0,0,1-1.19-.19A.7.7,0,0,1,43.84,67.94Z" transform="translate(-2.53 -8.58)"/><path class="cls-55" d="M24.45,84.74a2.07,2.07,0,0,1-1.34-1.85V75.25c0-.53,4.19-.92,5.05-1l.18.08c-2.48.22-5.13.63-5.13.92v7.64a2.22,2.22,0,0,0,1.42,1.85Z" transform="translate(-2.53 -8.58)"/><path class="cls-55" d="M57,84.74h-.18a2.24,2.24,0,0,0,1.41-1.85V75.25c0-.29-2.66-.7-5.14-.92l.19-.08c.86.08,5,.47,5,1v7.64A2.07,2.07,0,0,1,57,84.74Z" transform="translate(-2.53 -8.58)"/><path class="cls-55" d="M23.8,65.36a3.57,3.57,0,0,0-.11-.78,5,5,0,0,0-.29-.8h.11a4,4,0,0,1,.27.77,3.49,3.49,0,0,1,.12.81Z" transform="translate(-2.53 -8.58)"/><path class="cls-55" d="M57.6,65.36h-.1a3.49,3.49,0,0,1,.12-.81,3.11,3.11,0,0,1,.3-.77H58a4.46,4.46,0,0,0-.28.8A3.28,3.28,0,0,0,57.6,65.36Z" transform="translate(-2.53 -8.58)"/><path class="cls-54" d="M29.57,54.21s-12,2.93-12.23,3.6.05.76.65,1,13.13-4.6,13.13-4.6L48.64,54l0-.47-23.26.23v.64Z" transform="translate(-2.53 -8.58)"/><path class="cls-54" d="M52.51,52.74s11.36,5.17,11.56,5.54a.66.66,0,0,1-.63,1c-.67,0-12.48-6.52-12.48-6.52l-20.41-.3V52l26.2.25v.65Z" transform="translate(-2.53 -8.58)"/><path class="cls-82" d="M13.45,23.89l-.34-1.24.07-.84a18.24,18.24,0,0,0-4.28.46Z" transform="translate(-2.53 -8.58)"/><path class="cls-55" d="M12.22,37.26c1.23,0,1.23-2.27,1.23-2.27V23.89c0-.93-2.79-1.65-3.39-1.65h-.9s-1.8,0-1.8,2.27V35a2,2,0,0,0,1.9,2.27Z" transform="translate(-2.53 -8.58)"/><path class="cls-82" d="M68,23.89l.34-1.24-.07-.84a18.24,18.24,0,0,1,4.28.46Z" transform="translate(-2.53 -8.58)"/><path class="cls-55" d="M69.18,37.26C68,37.26,68,35,68,35V23.89c0-.93,2.79-1.65,3.39-1.65h.9s1.8,0,1.8,2.27V35a2,2,0,0,1-1.9,2.27Z" transform="translate(-2.53 -8.58)"/></svg>