<svg id="Group_15" data-name="Group 15" xmlns="http://www.w3.org/2000/svg" width="62.837" height="48.305" viewBox="0 0 62.837 48.305">
  <defs>
    <style>
      .cls-1, .cls-4 {
        fill: #f79a1d;
      }

      .cls-1, .cls-2 {
        fill-rule: evenodd;
      }

      .cls-2, .cls-3 {
        fill: #252941;
      }
    </style>
  </defs>
  <path id="Path_1" data-name="Path 1" class="cls-1" d="M239.644,73.827,233.4,88.2H222.232c-1.448-.19-1.379-1.517-.776-2.879L226.576,74a2.038,2.038,0,0,0,.172-1.931l10.9-.069C238.971,72.121,239.661,72.69,239.644,73.827Z" transform="translate(-182.943 -59.588)"/>
  <path id="Path_2" data-name="Path 2" class="cls-1" d="M43.822,12.481l-1.862-.224h-30L14.671,6.1H8.913L6.206,12.257H0l2.931-6.31H8.689L11.309,0h6.1L14.826,5.879h5.758L23.17,0H58.355c3.465.931,3.431,2.534,1.724,6.448l-3.4,7.861a1.708,1.708,0,0,0-1.62-1.914Z"/>
  <path id="Path_3" data-name="Path 3" class="cls-2" d="M35.7,128.478,41.956,114.1H53.128c1.448.19,1.379,1.517.776,2.879l-5.12,11.326a2.038,2.038,0,0,0-.172,1.931l-10.9.069C36.388,130.2,35.681,129.615,35.7,128.478Z" transform="translate(-29.544 -94.43)"/>
  <path id="Path_4" data-name="Path 4" class="cls-2" d="M26.931,199.027l1.862.224H58.772l-2.707,6.154h5.758l2.707-6.154h6.206l-2.931,6.31H62.047l-2.62,5.948h-6.1l2.586-5.879H50.152l-2.586,5.879H12.4c-3.465-.931-3.431-2.534-1.724-6.448l3.413-7.861a1.708,1.708,0,0,0,1.621,1.914Z" transform="translate(-7.899 -163.204)"/>
  <g id="Group_1" data-name="Group 1" transform="translate(6.417 34.599)">
    <path id="Path_5" data-name="Path 5" class="cls-3" d="M38.221,202.769a1.035,1.035,0,0,0,0-2.069,1.035,1.035,0,0,0,0,2.069Z" transform="translate(-37.225 -200.7)"/>
  </g>
  <g id="Group_2" data-name="Group 2" transform="translate(6.028 34.006)">
    <path id="Path_6" data-name="Path 6" class="cls-3" d="M35.246,199.041c1.172,1.276,2.81.879,4.362.948a24.83,24.83,0,0,1,4.534.224c1.293.293,1.845-1.707.552-2a25.31,25.31,0,0,0-4.275-.241,19.688,19.688,0,0,0-2.017-.035c-.621.017-1.258.138-1.707-.345-.9-1-2.345.465-1.448,1.448Z" transform="translate(-34.964 -197.258)"/>
  </g>
  <g id="Group_3" data-name="Group 3" transform="translate(16.128 35.112)">
    <path id="Path_7" data-name="Path 7" class="cls-3" d="M94.529,203.714l-.207.052a1.069,1.069,0,0,0-.621.483.992.992,0,0,0-.1.793,1.033,1.033,0,0,0,.483.621,1.067,1.067,0,0,0,.793.1.909.909,0,0,1,.207-.052,1.02,1.02,0,0,0,.621-.483.992.992,0,0,0,.1-.793,1.033,1.033,0,0,0-.483-.621c-.086-.034-.172-.069-.241-.1a1,1,0,0,0-.552,0Z" transform="translate(-93.556 -203.675)"/>
  </g>
  <g id="Group_4" data-name="Group 4" transform="translate(10.158 35.071)">
    <path id="Path_8" data-name="Path 8" class="cls-3" d="M66.73,203.479c-2.276,0-4.534-.1-6.81,0-1.327.069-1.327,2.138,0,2.069,2.276-.1,4.534,0,6.81,0a1.035,1.035,0,0,0,0-2.069Z" transform="translate(-58.925 -203.433)"/>
  </g>
  <g id="Group_5" data-name="Group 5" transform="translate(7.066 34.998)">
    <path id="Path_9" data-name="Path 9" class="cls-3" d="M49.833,203.613c-2.62.017-5.241-.431-7.844-.569v2.069c.862,0,1.724.086,2.586.052a16.418,16.418,0,0,1,2.6.069c1.31.19,1.862-1.81.552-2a37.529,37.529,0,0,0-5.741-.207,1.035,1.035,0,0,0,0,2.069c2.62.138,5.224.6,7.844.569a1.026,1.026,0,0,0,0-2.051Z" transform="translate(-40.987 -203.011)"/>
  </g>
  <g id="Group_6" data-name="Group 6" transform="translate(11.774 34.666)">
    <path id="Path_10" data-name="Path 10" class="cls-3" d="M68.626,201.881a13.8,13.8,0,0,0-.328,1.845,1.045,1.045,0,0,0,1.31,1,4.922,4.922,0,0,0,2.086-1.9c-.638-.086-1.258-.172-1.9-.241a4.652,4.652,0,0,0,.517,1.517,1.072,1.072,0,0,0,1.414.379,4.441,4.441,0,0,0,1.4-1.862c-.638-.086-1.258-.172-1.9-.241.155.621.069,1.293.224,1.9a1.046,1.046,0,0,0,1.9.241,4.75,4.75,0,0,0,.31-.672c.034-.086.293-.827.172-.552-.638-.172-1.293-.345-1.931-.517.017.465.017.931.034,1.379a1.051,1.051,0,0,0,1.552.9c.017,0,.034-.017.052-.017,1.207-.569.155-2.345-1.052-1.793-.017,0-.034.017-.052.017.517.293,1.034.6,1.552.9-.017-.465-.017-.931-.034-1.379-.034-.948-1.465-1.517-1.931-.517-.19.4-.259.845-.483,1.224.638.086,1.258.172,1.9.241-.138-.552-.069-1.293-.224-1.9a1.047,1.047,0,0,0-1.9-.241c-.138.241-.4.965-.655,1.121.465.121.948.241,1.414.379a3.433,3.433,0,0,1-.31-1.034,1.054,1.054,0,0,0-1.9-.241c-.207.276-.5.828-.845.948.431.328.879.672,1.31,1a8.8,8.8,0,0,1,.259-1.31c.259-1.31-1.724-1.879-1.965-.569Z" transform="translate(-68.298 -201.086)"/>
  </g>
  <g id="Group_7" data-name="Group 7" transform="translate(8.6 33.44)">
    <path id="Path_11" data-name="Path 11" class="cls-3" d="M57.9,196.7c.172.465.379.914.534,1.379.569-.328,1.155-.672,1.724-1a17.553,17.553,0,0,1-1.379-1.62c-.259-.328-.724-.672-1.172-.483-1,.431-1.052,1.707-1.655,2.5l1.621-.207c-.552-.621-.465-1.379-.707-2.086-.224-.655-1.207-1.1-1.724-.448a16,16,0,0,0-1.914,3.172c.638.086,1.258.172,1.9.241a8.345,8.345,0,0,1-.328-2.276c-.052-.586-.638-1.276-1.31-1-1.1.465-1.724,1.776-2.414,2.689.638.172,1.293.345,1.931.517a16.6,16.6,0,0,1,.5-3.1c.121-.931-1.19-1.31-1.758-.724a9.042,9.042,0,0,0-1.689,2.482c.638.172,1.293.345,1.931.517-.017-.241-.052-.465-.086-.707-.241-1.31-2.241-.759-2,.552,0,.052.017.1.017.155.069.931,1.448,1.517,1.931.517a7.467,7.467,0,0,1,1.362-2.051L51.455,195a14.743,14.743,0,0,0-.5,3.1,1.045,1.045,0,0,0,1.931.517c.293-.4.552-.827.862-1.207.121-.155.276-.293.379-.448.121-.172.431-.293-.069-.069-.431-.328-.879-.672-1.31-1a10.163,10.163,0,0,0,.414,2.81c.276.724,1.483,1.138,1.9.241a13.649,13.649,0,0,1,1.586-2.758c-.569-.155-1.155-.31-1.724-.448.172.5.155,1.017.345,1.517a4.677,4.677,0,0,0,.9,1.483,1.04,1.04,0,0,0,1.62-.207,21.927,21.927,0,0,0,1-2.017c-.207.155-.414.31-.621.483a.06.06,0,0,0,.034-.017c-.4-.155-.776-.31-1.172-.483a19.043,19.043,0,0,0,1.707,2.034,1.038,1.038,0,0,0,1.724-1c-.155-.465-.362-.914-.534-1.379-.483-1.241-2.482-.707-2.017.552Z" transform="translate(-49.883 -193.977)"/>
  </g>
  <g id="Group_8" data-name="Group 8" transform="translate(5.513 33.931)">
    <path id="Path_12" data-name="Path 12" class="cls-3" d="M35.224,196.975a32.562,32.562,0,0,1-2.741,1.793c.517.293,1.034.6,1.552.9v-.1c-.052.172-.086.345-.138.517.293-.69,1-1.258.931-2.069a1.061,1.061,0,0,0-1.034-1.034,1.049,1.049,0,0,0-1.034,1.034c-.017-.138-.1.121-.155.207-.069.121-.155.259-.224.379a1.739,1.739,0,0,0-.4,1.069,1.045,1.045,0,0,0,1.552.9c.931-.552,1.845-1.172,2.741-1.793a1.077,1.077,0,0,0,.379-1.414,1.053,1.053,0,0,0-1.431-.379Z" transform="translate(-31.979 -196.824)"/>
  </g>
  <g id="Group_9" data-name="Group 9" transform="translate(5.129 34.08)">
    <path id="Path_13" data-name="Path 13" class="cls-3" d="M30.743,198.467c.052-.172-.121.155-.155.19.069-.1.017-.052-.138.172l-.155.207a3.747,3.747,0,0,0-.414.931,1.211,1.211,0,0,0,1.19,1.776,1.061,1.061,0,0,0,1.034-1.034,1.037,1.037,0,0,0-1.034-1.034H31.1c.155.086.31.172.448.259l-.052-.052.31.724c.017.138-.052.207,0,.017.017-.052.069-.224.069-.241a2.707,2.707,0,0,1,.241-.431,3.612,3.612,0,0,0,.586-.965,1.059,1.059,0,0,0-.724-1.276,1.11,1.11,0,0,0-1.241.759Z" transform="translate(-29.752 -197.69)"/>
  </g>
  <g id="Group_10" data-name="Group 10" transform="translate(54.031 11.474)">
    <path id="Path_14" data-name="Path 14" class="cls-4" d="M313.468,67.856a1.2,1.2,0,0,0,.431.621c.293.224-.1-.052-.1-.121,0,.052.121.19.138.207a1.112,1.112,0,0,0,.862.431,1.464,1.464,0,0,0,.655-.207c-.414-.052-.827-.1-1.258-.155-.121-.172-.086-.138.086.1.052.069.069.069,0,0a.411.411,0,0,1-.1-.19c0-.172-.017-.207-.017-.1.052-.172.086-.345.138-.517a2.022,2.022,0,0,0-.276.9,1.034,1.034,0,1,0,2.069,0c0,.052-.172.414-.034.224a.925.925,0,0,0,.086-.19,1.238,1.238,0,0,0,.034-.827,1.463,1.463,0,0,0-.19-.448c-.052-.086-.155-.172-.207-.259.1.138.1.121-.017,0-.034-.052-.086-.1-.121-.155a1.04,1.04,0,0,0-1.258-.155c-.1.052-.052.034.1-.034l.793.1c-.017,0-.035-.017-.052-.017l.379.379a2.352,2.352,0,0,0-.259-.362.208.208,0,0,0-.086-.086c-.259-.19-.276-.207-.069-.069.086.155.172.31.259.448,0-.017-.017-.034-.017-.052a1.059,1.059,0,0,0-1.276-.724,1.026,1.026,0,0,0-.69,1.258Z" transform="translate(-313.419 -66.556)"/>
  </g>
  <g id="Group_11" data-name="Group 11" transform="translate(49.757 10.885)">
    <path id="Path_15" data-name="Path 15" class="cls-4" d="M295.6,65.717a5.355,5.355,0,0,0-.638-1.345,3.009,3.009,0,0,0-1.483-.776,3.869,3.869,0,0,0-1.827-.448c-.655.052-1.379.138-2.034.138a1.035,1.035,0,0,0,0,2.069c.431,0,.862-.086,1.293-.121.259-.017.517,0,.776-.017a1.7,1.7,0,0,0,.293-.034c.172-.034.19-.034.017.034.4.121.776.31,1.172.448.379.121.293.138.465.6.448,1.224,2.448.69,1.965-.552Z" transform="translate(-288.625 -63.138)"/>
  </g>
  <g id="Group_12" data-name="Group 12" transform="translate(44.937 10.73)">
    <path id="Path_16" data-name="Path 16" class="cls-4" d="M266.621,62.251c-.914.121-1.81.224-2.724.293a13.16,13.16,0,0,0-2.327.241l.793.1a.432.432,0,0,1-.121-.069c-1.19-.569-2.241,1.207-1.052,1.793a4.959,4.959,0,0,0,2.414.034c1.017-.069,2.017-.19,3.017-.328,1.293-.155,1.31-2.241,0-2.069Z" transform="translate(-260.667 -62.241)"/>
  </g>
  <g id="Group_13" data-name="Group 13" transform="translate(44.188 10.981)">
    <path id="Path_17" data-name="Path 17" class="cls-4" d="M256.972,63.993a1.53,1.53,0,0,0-.276.379l.155-.207a2.136,2.136,0,0,0-.241.31c-.052.1-.086.207-.138.328.034-.086.069-.172.1-.241-.017.034-.017.052-.034.069l.155-.207-.017.017.207-.155h-.017c.086-.034.172-.069.241-.1h.517a.68.68,0,0,0-.414-.017.757.757,0,0,0-.379.121,1.16,1.16,0,0,0-.483.621,1.056,1.056,0,0,0,.1.793,1.085,1.085,0,0,0,.621.483,1.7,1.7,0,0,0,.293.034,1.042,1.042,0,0,0,.414-.086.839.839,0,0,0,.362-.241,1.7,1.7,0,0,0,.328-.569c-.034.086-.069.172-.1.241,0-.017.017-.034.017-.052l-.155.207a2.137,2.137,0,0,0,.241-.31c.017-.034.052-.086.069-.121l-.155.207.034-.034a1.064,1.064,0,0,0,.31-.724,1.032,1.032,0,0,0-.31-.724,1.111,1.111,0,0,0-.724-.31,1.046,1.046,0,0,0-.724.293Z" transform="translate(-256.321 -63.7)"/>
  </g>
  <g id="Group_14" data-name="Group 14" transform="translate(43.904 8.098)">
    <path id="Path_18" data-name="Path 18" class="cls-4" d="M254.676,50.979a4.323,4.323,0,0,0,.534,1.586,1,1,0,0,0,.9.517,3.013,3.013,0,0,0,1.586-.827,10.2,10.2,0,0,1,1.31-.948c-.328-.086-.672-.172-1-.259-.207-.259-.1-.345-.138,0a6.9,6.9,0,0,0,.017.845,8.378,8.378,0,0,0-.052,1.138,1.042,1.042,0,0,0,2.034.276,18.476,18.476,0,0,0,.5-4.465H258.3a19.874,19.874,0,0,0,.069,4.051c.207.965,1.414.9,1.9.241,1.017-1.379,1.517-3.1,2.586-4.448h-1.465c-.362-.448-.1.017-.086.259.034.362.052.741.052,1.121,0,.69-.069,1.379-.052,2.069.017.81,1.172,1.483,1.758.724.552-.69,1.034-1.448,1.517-2.189.207-.328.431-.655.621-1l.31-.569c.069-.155.362-.569.034-.155-.569-.155-1.155-.31-1.724-.448.224,1.19.19,2.465.31,3.672a1.046,1.046,0,0,0,1.552.9,1.437,1.437,0,0,0,.534-.621,1.975,1.975,0,0,0,.172-.4c.034-.121-.017-.517.017-.586.034.086.086.155.121.241.035-.1.086-.207.121-.31a5.356,5.356,0,0,0,.276-.793c.1-.31.224-.948.293-1.121-.638-.172-1.293-.345-1.931-.517a9.073,9.073,0,0,1-.638,2.362c.672.086,1.362.19,2.034.276a3.5,3.5,0,0,1,.4-1.034l-1.758-.724a5.136,5.136,0,0,1-.224,1.517,1.042,1.042,0,0,0,1.9.793c.31-.517.534-1.1.879-1.6-.638-.172-1.293-.345-1.931-.517.017-.207-.155.328-.034.052-.552,1.207,1.241,2.258,1.793,1.052a4.1,4.1,0,0,0,.31-1.086c.138-1.1-1.414-1.276-1.931-.517-.345.5-.569,1.086-.879,1.6.638.259,1.258.534,1.9.793a7.058,7.058,0,0,0,.293-2.069c-.086-.776-1.138-1.5-1.758-.724a5.062,5.062,0,0,0-1,2.482c-.138,1.19,1.707,1.345,2.034.276a10.743,10.743,0,0,0,.707-2.913c0-.965-1.483-1.483-1.931-.517-.276.6-.4,1.293-.621,1.931a6.628,6.628,0,0,0-.431,1.241c-.017.138-.1.672,0,.172.086-.345-.224-.207.259-.483.517.293,1.034.6,1.552.9-.138-1.4-.121-2.844-.379-4.224a1.03,1.03,0,0,0-1.724-.448c-.414.534-.672,1.19-1.034,1.758a22.4,22.4,0,0,1-1.448,2.155l1.758.724c-.034-1.483.483-3.655-.517-4.913a1.051,1.051,0,0,0-1.465,0c-1.19,1.5-1.793,3.344-2.9,4.861.638.086,1.258.172,1.9.241A7.757,7.757,0,0,1,260.4,50.7c.017-.6,0-1.224,0-1.827a1.035,1.035,0,0,0-2.069,0,15.649,15.649,0,0,1-.414,3.913c.672.086,1.362.19,2.034.276-.1-1.172.362-2.448-.414-3.448a.978.978,0,0,0-1-.259,5.819,5.819,0,0,0-1.258.759c-.224.155-.431.31-.638.465-.138.1-.293.224-.431.345-.328.172-.328.207,0,.121.293.172.6.345.9.517-.086-.19-.241-.328-.259-.552-.224-1.362-2.293-1.362-2.172-.034Z" transform="translate(-254.671 -46.975)"/>
  </g>
</svg>
