<svg xmlns="http://www.w3.org/2000/svg" width="48.687" height="32.458" viewBox="0 0 48.687 32.458">
  <g id="Group_24" data-name="Group 24" transform="translate(0)">
    <g id="Group_23" data-name="Group 23">
      <g id="Group_22" data-name="Group 22">
        <path id="Path_72" data-name="Path 72" d="M48.687,12.983H27.566V0H21.121V12.983H0v6.492H21.121V32.458h6.445V19.475H48.687Z" fill="#ed1c24"/>
        <path id="Path_73" data-name="Path 73" d="M80.6,10.146c0-.376.047-.8.047-1.176a18.908,18.908,0,0,1-2.352.282A18.909,18.909,0,0,1,78.575,6.9a9.064,9.064,0,0,1-1.129.047c-.376,0-.8-.047-1.176-.047a18.907,18.907,0,0,1,.282,2.352A20.043,20.043,0,0,1,74.2,8.97a9.447,9.447,0,0,1,.047,1.176c0,.376-.047.8-.047,1.176a18.908,18.908,0,0,1,2.352-.282,18.909,18.909,0,0,1-.282,2.352,9.447,9.447,0,0,1,1.176-.047c.376,0,.8.047,1.176.047a18.909,18.909,0,0,1-.282-2.352,18.908,18.908,0,0,1,2.352.282A9.9,9.9,0,0,1,80.6,10.146Z" transform="translate(-39.296 -3.654)" fill="#ed1c24"/>
        <path id="Path_74" data-name="Path 74" d="M21.945,10.146c0-.376.047-.8.047-1.176a18.908,18.908,0,0,1-2.352.282A18.908,18.908,0,0,1,19.922,6.9a9.447,9.447,0,0,1-1.176.047c-.376,0-.8-.047-1.176-.047a18.909,18.909,0,0,1,.282,2.352A18.908,18.908,0,0,1,15.5,8.97a9.447,9.447,0,0,1,.047,1.176c0,.376-.047.8-.047,1.176a18.908,18.908,0,0,1,2.352-.282,18.908,18.908,0,0,1-.282,2.352,9.447,9.447,0,0,1,1.176-.047c.376,0,.8.047,1.176.047a18.908,18.908,0,0,1-.282-2.352,20.042,20.042,0,0,1,2.352.282A9.832,9.832,0,0,1,21.945,10.146Z" transform="translate(-8.209 -3.654)" fill="#ed1c24"/>
        <path id="Path_75" data-name="Path 75" d="M80.545,51.546c0-.376.047-.8.047-1.176a18.908,18.908,0,0,1-2.352.282,18.906,18.906,0,0,1,.282-2.352,9.448,9.448,0,0,1-1.176.047c-.376,0-.8-.047-1.176-.047a18.907,18.907,0,0,1,.282,2.352A20.042,20.042,0,0,1,74.1,50.37a9.448,9.448,0,0,1,.047,1.176c0,.376-.047.8-.047,1.176a18.907,18.907,0,0,1,2.352-.282,18.907,18.907,0,0,1-.282,2.352,9.448,9.448,0,0,1,1.176-.047c.376,0,.8.047,1.176.047a18.906,18.906,0,0,1-.282-2.352,18.907,18.907,0,0,1,2.352.282C80.592,52.346,80.545,51.922,80.545,51.546Z" transform="translate(-39.243 -25.579)" fill="#ed1c24"/>
        <path id="Path_76" data-name="Path 76" d="M21.945,51.546c0-.376.047-.8.047-1.176a18.908,18.908,0,0,1-2.352.282,18.908,18.908,0,0,1,.282-2.352,9.448,9.448,0,0,1-1.176.047c-.376,0-.8-.047-1.176-.047a18.907,18.907,0,0,1,.282,2.352A18.908,18.908,0,0,1,15.5,50.37a9.447,9.447,0,0,1,.047,1.176c0,.376-.047.8-.047,1.176a18.907,18.907,0,0,1,2.352-.282,18.907,18.907,0,0,1-.282,2.352,9.448,9.448,0,0,1,1.176-.047c.376,0,.8.047,1.176.047a18.908,18.908,0,0,1-.282-2.352,20.042,20.042,0,0,1,2.352.282A9.832,9.832,0,0,1,21.945,51.546Z" transform="translate(-8.209 -25.579)" fill="#ed1c24"/>
      </g>
    </g>
  </g>
</svg>
