<svg xmlns="http://www.w3.org/2000/svg" width="48.327" height="32.458" viewBox="0 0 48.327 32.458">
  <g id="Group_17" data-name="Group 17" transform="translate(-0.3 -0.6)">
    <g id="Group_16" data-name="Group 16" transform="translate(0.3 0.6)">
      <rect id="Rectangle_1" data-name="Rectangle 1" width="48.327" height="2.525" transform="translate(0 22.432)" fill="#fff"/>
      <rect id="Rectangle_2" data-name="Rectangle 2" width="48.327" height="2.525" transform="translate(0 27.481)" fill="#fff"/>
      <rect id="Rectangle_3" data-name="Rectangle 3" width="23.947" height="2.525" transform="translate(24.38 12.262)" fill="#fff"/>
      <path id="Path_19" data-name="Path 19" d="M34.1,12.043v1.082H58.047V10.6H34.1Z" transform="translate(-9.72 -3.387)" fill="#fff"/>
      <rect id="Rectangle_4" data-name="Rectangle 4" width="23.947" height="2.525" transform="translate(24.38 2.164)" fill="#fff"/>
      <path id="Path_20" data-name="Path 20" d="M.3,24.7v2.452H48.627V24.7H.3Z" transform="translate(-0.3 -7.317)" fill="#fff"/>
      <rect id="Rectangle_5" data-name="Rectangle 5" width="23.947" height="2.164" transform="translate(24.38 0)" fill="#e30613"/>
      <rect id="Rectangle_6" data-name="Rectangle 6" width="23.947" height="2.525" transform="translate(24.38 4.616)" fill="#e30613"/>
      <rect id="Rectangle_7" data-name="Rectangle 7" width="23.947" height="2.597" transform="translate(24.38 9.737)" fill="#e30613"/>
      <rect id="Rectangle_8" data-name="Rectangle 8" width="23.947" height="2.597" transform="translate(24.38 14.787)" fill="#e30613"/>
      <rect id="Rectangle_9" data-name="Rectangle 9" width="48.327" height="2.597" transform="translate(0 19.836)" fill="#e30613"/>
      <rect id="Rectangle_10" data-name="Rectangle 10" width="48.327" height="2.597" transform="translate(0 24.957)" fill="#e30613"/>
      <rect id="Rectangle_11" data-name="Rectangle 11" width="48.327" height="2.452" transform="translate(0 30.006)" fill="#e30613"/>
      <path id="Path_21" data-name="Path 21" d="M24.68,15.387V.6H.3V17.983H24.68ZM23.6,13.728l-.433-.289-.433.289.072-.649-.361-.433.5-.072L23.165,12l.216.577.5.072-.361.433Zm-20.052.144.216-.577.216.577.5.072-.361.433.072.649-.433-.289-.433.289.072-.649-.433-.433ZM5.2,12.646l-.361-.433.5-.072.216-.577.216.577.5.072-.361.433L6,13.295l-.433-.289-.433.289Zm-.361-10.6.5-.072.216-.577.216.577.5.072-.361.5L6,3.2l-.433-.361L5.133,3.2,5.2,2.547ZM9.1,1.97,9.6,1.9l.216-.577.216.577.5.072-.361.433.072.649-.433-.289-.433.289L9.46,2.4Zm4.472.144.5-.072.216-.577.216.577.5.072-.361.433.072.649-.433-.289L13.86,3.2l.072-.649Zm4.472,0,.5-.072.216-.577.216.577.5.072-.361.433L19.2,3.2l-.433-.289-.433.289.072-.649Zm.938,3.318.5.072-.361.433.144.721-.433-.289-.5.289L18.4,6.01l-.361-.433.5-.072.216-.577ZM21.073,10.7l.5.072-.361.433.072.649-.433-.289-.433.289L20.5,11.2l-.361-.433.5-.072.216-.577Zm.289,4.544-.433-.289-.433.289.072-.649-.361-.433.5-.072.216-.577.216.577.5.072-.433.433Zm-4.688-4.616.5.072-.361.433.072.649-.433-.289-.5.361.072-.649-.361-.433.5-.072.216-.577Zm.216,4.616-.433-.289-.5.289.072-.649-.361-.433.5-.072.216-.577.216.577.5.072-.289.433ZM12.2,10.554l.5.072-.361.5.072.649-.433-.289-.433.289.072-.649-.361-.433.5-.072.216-.577Zm.216,4.544-.433-.289-.433.289.072-.649-.361-.433.5-.072.216-.577.216.577.5.072-.361.433ZM8.162,5.072l-.433-.289-.5.289L7.3,4.423,6.936,3.99l.5-.072.216-.577.216.577.5.072-.361.433ZM9.6,5.288l.216-.577.216.577.5.072-.361.433.072.649-.433-.289-.433.289.072-.649L9.1,5.361ZM12.418,5l-.433-.289L11.552,5l.072-.649-.361-.433.5-.144.216-.577.216.577.5.072-.361.5Zm4.472.144-.433-.289-.5.289.072-.649-.361-.433.5-.072.216-.577.289.5.5.072-.361.433Zm-2.308.216.5.072-.361.5.072.649L14.365,6.3l-.433.289V5.938L13.572,5.5l.5-.072.216-.577ZM14.8,9.977l-.433-.289-.433.289L14,9.328l-.433-.5.5-.072.216-.577.216.577.5.072-.361.433ZM11.264,7.236l.5-.072.216-.577.216.577.5.072-.361.5.072.649L11.985,8.1l-.433.289.072-.649ZM9.6,8.679,9.821,8.1l.216.577.5.072-.361.433.072.649-.361-.289-.433.289.072-.649-.361-.433Zm9.593,1.3-.433-.289-.433.289.072-.649-.361-.433.5-.072.216-.577.216.577.5.072-.361.433ZM16.89,8.462l-.433-.289-.5.289.072-.649-.361-.433.5-.072.289-.649.216.577.5.072-.361.433Zm4.472-3.318-.433-.289-.433.289V4.495l-.361-.433.5-.072.216-.577.216.577.5.072-.361.433ZM3.546,3.774,3.762,3.2l.216.577.5.072-.361.5L4.195,5l-.433-.361L3.257,5l.072-.649-.289-.5Zm1.8,1.587.216-.577.216.577.5.072-.361.433L6,6.515l-.433-.289-.433.361L5.2,5.938l-.361-.5ZM6.936,7.308l.5-.072.216-.577.216.577.5.072-.361.5.072.649L7.657,8.1l-.433.289L7.3,7.741ZM5.349,8.679,5.565,8.1l.216.577.5.144-.361.433L6,9.9l-.433-.289L5.133,9.9,5.2,9.256l-.361-.433Zm2.308,1.3.216.577.5.072-.361.5.072.649-.433-.289-.433.289.072-.649L6.936,10.7l.5-.072ZM8.09,15.17l-.433-.289-.433.289.072-.649-.361-.433.5-.072.216-.577.216.577.5.072-.361.433Zm1.37-2.6L9.1,12.141l.5-.072.216-.577.216.577.5.072-.361.433.072.649-.433-.289-.433.289Zm4.472.144-.361-.433.5-.072.216-.577.216.577.5.072-.361.433.072.649-.433-.289-.433.289Zm4.472,0-.361-.433.5-.072.216-.577.216.577.5.072-.361.433.072.649-.433-.289-.433.289Zm5.193-2.38-.433-.289-.433.289.072-.649-.361-.433.5-.072.216-.577.216.577.5.072-.361.433Zm-2.236-1.8-.433-.289-.433.289.072-.649-.433-.5.5-.072.216-.577.216.577.5.072-.361.433Zm2.02-2.741.5.072-.361.433.072.649-.433-.289-.433.289L22.8,6.3l-.361-.433.5-.072.144-.577ZM23.6,3.629l-.433-.289-.433.289L22.8,2.98l-.361-.433.5-.072.216-.649.216.577.5.072-.361.433ZM.877,1.97l.5-.072L1.6,1.321l.216.577.5.072L2.031,2.4l.072.649L1.67,2.764l-.5.289L1.238,2.4Zm.5,3.246L1.6,4.639l.289.577.5.072-.361.5.072.649L1.67,6.154l-.5.289.072-.649L.877,5.361Zm1.659,2.02.5-.072.216-.577.216.577.5.072-.361.433.072.649-.433-.289-.433.289L3.4,7.669ZM2.1,9.833,1.67,9.544l-.433.289.072-.649L.949,8.751l.5-.072L1.67,8.1l.216.577.5.072-.361.433ZM3.762,9.9l.216.577.5.072-.361.433.072.721-.433-.289-.5.289.072-.649-.361-.433.5-.072ZM.877,12.069l.5-.072.216-.577L1.815,12l.5.072-.361.433.072.649L1.6,12.862l-.433.289.072-.649ZM2.1,16.541l-.433-.289-.433.289.072-.649-.361-.433.5-.072.216-.577.216.577.5.072-.361.433ZM6,16.685,5.565,16.4l-.433.289.072-.649L4.844,15.6l.5-.072.216-.577.216.577.5.072-.361.433Zm4.328-.072-.433-.289-.433.289.072-.649-.361-.433.5-.072.216-.577.216.577.5.072-.361.433Zm4.472.072-.433-.289-.433.289L14,16.036l-.361-.433.5-.072.216-.577.216.577.5.072-.433.433Zm4.4.072-.433-.289-.433.289.072-.649-.361-.433.5-.072.216-.577.216.577.5.072-.361.433Zm4.4.361-.433-.289-.433.289.072-.649-.361-.433.5-.072.216-.577.216.577.5.072-.361.433Z" transform="translate(-0.3 -0.6)" fill="#2d2e83"/>
      <path id="Path_22" data-name="Path 22" d="M6.889,3.5l.433-.361.433.361-.072-.649.361-.5-.5-.072L7.321,1.7,7.1,2.277l-.5.072.361.5Z" transform="translate(-2.056 -0.907)" fill="#fff"/>
      <path id="Path_23" data-name="Path 23" d="M6.889,8.175l.433-.361.433.289-.072-.649.361-.433-.5-.072L7.321,6.3,7.1,6.949l-.5.072.361.433Z" transform="translate(-2.056 -2.189)" fill="#fff"/>
      <path id="Path_24" data-name="Path 24" d="M6.889,12.8l.433-.289.433.289-.072-.649.361-.433-.5-.144L7.321,11l-.216.577-.5.144.361.433Z" transform="translate(-2.056 -3.499)" fill="#fff"/>
      <path id="Path_25" data-name="Path 25" d="M7.754,17.5l-.072-.649.361-.5-.5-.072L7.321,15.7l-.216.577-.5.144.361.433-.072.649.433-.289Z" transform="translate(-2.056 -4.808)" fill="#fff"/>
      <path id="Path_26" data-name="Path 26" d="M7.538,20.977,7.321,20.4l-.216.577-.5.072.361.5-.072.649.433-.361.433.361-.072-.649.361-.5Z" transform="translate(-2.056 -6.118)" fill="#fff"/>
      <path id="Path_27" data-name="Path 27" d="M10.438,4.877,10.221,4.3,10,4.877l-.5.144.361.433L9.789,6.1l.433-.289.5.289-.144-.649.361-.5Z" transform="translate(-2.864 -1.631)" fill="#fff"/>
      <path id="Path_28" data-name="Path 28" d="M9.789,10.8l.433-.361.5.361-.144-.649.361-.5-.5-.072L10.221,9,10,9.577l-.5.072.361.5Z" transform="translate(-2.864 -2.941)" fill="#fff"/>
      <path id="Path_29" data-name="Path 29" d="M9.5,14.321l.361.433-.072.721.433-.361.5.361-.144-.721.361-.433-.5-.072-.216-.649L10,14.249Z" transform="translate(-2.864 -4.223)" fill="#fff"/>
      <path id="Path_30" data-name="Path 30" d="M10.438,18.877l-.216-.577L10,18.877l-.5.144.361.433-.072.649.433-.289.433.289-.072-.649.361-.433Z" transform="translate(-2.864 -5.533)" fill="#fff"/>
      <path id="Path_31" data-name="Path 31" d="M12.789,3.4l.5-.289.433.289-.072-.649.361-.5-.5-.072L13.293,1.6l-.216.577-.577.072.433.5Z" transform="translate(-3.7 -0.879)" fill="#fff"/>
      <path id="Path_32" data-name="Path 32" d="M12.789,8.1l.5-.361.433.361-.072-.649.361-.5-.5-.072L13.293,6.3,13,6.877l-.5.072.433.5Z" transform="translate(-3.7 -2.189)" fill="#fff"/>
      <path id="Path_33" data-name="Path 33" d="M12.789,12.7l.5-.289.433.289-.072-.649.361-.433-.5-.072-.216-.649L13,11.549l-.5.072.361.433Z" transform="translate(-3.7 -3.471)" fill="#fff"/>
      <path id="Path_34" data-name="Path 34" d="M13.726,17.4l-.072-.649.361-.433-.5-.144-.216-.577L13,16.177l-.5.144.361.433-.072.649.5-.289Z" transform="translate(-3.7 -4.781)" fill="#fff"/>
      <path id="Path_35" data-name="Path 35" d="M13.51,20.877l-.216-.577L13,20.877l-.5.072.361.5-.072.649.5-.289.433.289-.072-.649.361-.5Z" transform="translate(-3.7 -6.09)" fill="#fff"/>
      <path id="Path_36" data-name="Path 36" d="M16.438,4.777,16.221,4.2,16,4.777l-.5.144.361.433L15.789,6l.433-.289L16.654,6l-.072-.649.361-.433Z" transform="translate(-4.536 -1.603)" fill="#fff"/>
      <path id="Path_37" data-name="Path 37" d="M15.789,10.7l.433-.289.433.289-.072-.649.361-.5-.5-.072L16.221,8.9,16,9.477l-.5.072.361.5Z" transform="translate(-4.536 -2.913)" fill="#fff"/>
      <path id="Path_38" data-name="Path 38" d="M16,14.177l-.5.072.361.5-.144.649.5-.361.433.361-.072-.649.361-.5-.5-.072-.216-.577Z" transform="translate(-4.536 -4.223)" fill="#fff"/>
      <path id="Path_39" data-name="Path 39" d="M16.41,18.849l-.216-.649-.216.649-.577.072.433.433-.144.721.5-.361.433.289-.072-.649.361-.433Z" transform="translate(-4.508 -5.505)" fill="#fff"/>
      <path id="Path_40" data-name="Path 40" d="M18.989,3.5l.433-.289.5.289-.072-.649.361-.433-.5-.144L19.421,1.7l-.216.577-.5.144.361.433Z" transform="translate(-5.428 -0.907)" fill="#fff"/>
      <path id="Path_41" data-name="Path 41" d="M19.2,6.977l-.5.144.361.433-.072.649.433-.289.5.289-.072-.649.361-.433-.5-.144L19.421,6.4Z" transform="translate(-5.428 -2.216)" fill="#fff"/>
      <path id="Path_42" data-name="Path 42" d="M19.71,11.677l-.289-.577-.216.577-.5.072.361.5-.072.649.433-.289.5.289-.144-.649.433-.5Z" transform="translate(-5.428 -3.526)" fill="#fff"/>
      <path id="Path_43" data-name="Path 43" d="M19.926,17.575l-.144-.721.433-.433-.577-.072-.216-.649-.216.649-.5.072.361.5-.072.649.433-.361Z" transform="translate(-5.428 -4.808)" fill="#fff"/>
      <path id="Path_44" data-name="Path 44" d="M19.638,20.977l-.216-.577-.216.577-.5.144.361.433-.072.649.433-.289.5.289-.144-.649.433-.433Z" transform="translate(-5.428 -6.118)" fill="#fff"/>
      <path id="Path_45" data-name="Path 45" d="M22.61,4.949,22.393,4.3l-.289.649-.5.072.361.5-.072.649.5-.361.433.361-.072-.721.361-.433Z" transform="translate(-6.236 -1.631)" fill="#fff"/>
      <path id="Path_46" data-name="Path 46" d="M23.115,9.721l-.5-.144L22.393,9l-.289.649-.5.072.361.433-.072.649.5-.289.433.289-.072-.649Z" transform="translate(-6.236 -2.941)" fill="#fff"/>
      <path id="Path_47" data-name="Path 47" d="M22.1,14.277l-.5.144.361.433-.072.649.5-.289.433.289-.072-.649.361-.433-.5-.144-.289-.577Z" transform="translate(-6.236 -4.251)" fill="#fff"/>
      <path id="Path_48" data-name="Path 48" d="M22.61,18.977l-.289-.577-.216.577-.5.072.361.5-.072.649.433-.289.5.289-.072-.649.361-.5Z" transform="translate(-6.236 -5.561)" fill="#fff"/>
      <path id="Path_49" data-name="Path 49" d="M25.189,3.6l.433-.289.5.289-.144-.649.361-.5-.5-.072L25.621,1.8l-.216.577-.5.072.361.5Z" transform="translate(-7.156 -0.934)" fill="#fff"/>
      <path id="Path_50" data-name="Path 50" d="M25.4,7.077l-.5.072.361.5-.072.649.433-.361.5.361-.144-.649.361-.5-.5-.072L25.621,6.5Z" transform="translate(-7.156 -2.244)" fill="#fff"/>
      <path id="Path_51" data-name="Path 51" d="M25.838,11.749l-.216-.649-.216.649-.5.072.361.433-.072.649.433-.289.433.289-.072-.649.361-.433Z" transform="translate(-7.156 -3.526)" fill="#fff"/>
      <path id="Path_52" data-name="Path 52" d="M26.054,17.6l-.072-.649.361-.433-.5-.144-.216-.577-.216.577-.5.144.361.433-.072.649.433-.289Z" transform="translate(-7.156 -4.836)" fill="#fff"/>
      <path id="Path_53" data-name="Path 53" d="M25.838,21.077l-.216-.577-.216.577-.5.072.361.5-.072.649.433-.289.433.289-.072-.649.361-.5Z" transform="translate(-7.156 -6.146)" fill="#fff"/>
      <path id="Path_54" data-name="Path 54" d="M28.81,4.977,28.521,4.4l-.216.577-.5.144.361.433-.072.649.433-.289.5.289-.144-.649.433-.433Z" transform="translate(-7.964 -1.659)" fill="#fff"/>
      <path id="Path_55" data-name="Path 55" d="M29.315,9.749l-.577-.072L28.521,9.1l-.216.577-.5.072.361.5-.072.649.433-.289.5.289-.144-.649Z" transform="translate(-7.964 -2.969)" fill="#fff"/>
      <path id="Path_56" data-name="Path 56" d="M28.3,14.377l-.5.072.361.5-.072.649.433-.361.5.361-.144-.649.361-.5-.5-.072-.216-.577Z" transform="translate(-7.964 -4.279)" fill="#fff"/>
      <path id="Path_57" data-name="Path 57" d="M28.738,19.049l-.216-.649-.216.649-.5.072.361.433-.072.649.433-.289.5.289-.144-.649.361-.433Z" transform="translate(-7.964 -5.561)" fill="#fff"/>
      <path id="Path_58" data-name="Path 58" d="M32.415,2.949l-.5-.072L31.693,2.3l-.289.577-.5.072.361.5-.072.649.5-.289.433.289-.072-.649Z" transform="translate(-8.828 -1.074)" fill="#fff"/>
      <path id="Path_59" data-name="Path 59" d="M31.4,7.577l-.5.072.361.5-.072.649.5-.361.433.361-.072-.649.361-.5-.5-.072L31.621,7Z" transform="translate(-8.828 -2.384)" fill="#fff"/>
      <path id="Path_60" data-name="Path 60" d="M32.415,12.321l-.5-.072-.289-.649-.216.649-.5.072.361.433-.072.649.433-.289.5.289-.072-.649Z" transform="translate(-8.828 -3.666)" fill="#fff"/>
      <path id="Path_61" data-name="Path 61" d="M32.415,17.021l-.5-.144-.289-.577-.216.577-.5.144.361.433-.072.649.433-.289.5.289-.072-.649Z" transform="translate(-8.828 -4.976)" fill="#fff"/>
      <path id="Path_62" data-name="Path 62" d="M31.91,21.577,31.621,21l-.216.577-.5.072.361.5-.072.649.433-.289.5.289-.072-.649.361-.5Z" transform="translate(-8.828 -6.286)" fill="#fff"/>
      <path id="Path_63" data-name="Path 63" d="M1.389,3.3l.5-.289.433.289-.072-.649.361-.433-.5-.072L1.893,1.5,1.6,2.149l-.5.072.433.433Z" transform="translate(-0.523 -0.851)" fill="#fff"/>
      <path id="Path_64" data-name="Path 64" d="M1.461,7.354,1.389,8l.5-.289L2.326,8l-.072-.649.361-.433-.5-.144L1.893,6.2,1.6,6.777l-.5.144Z" transform="translate(-0.523 -2.161)" fill="#fff"/>
      <path id="Path_65" data-name="Path 65" d="M2.11,11.477,1.893,10.9l-.289.577-.5.072.361.5-.072.649.5-.289.433.289-.072-.649.361-.5Z" transform="translate(-0.523 -3.471)" fill="#fff"/>
      <path id="Path_66" data-name="Path 66" d="M1.389,17.4l.5-.361.433.361-.072-.649.361-.5-.5-.072L1.821,15.6l-.216.577-.5.072.361.5Z" transform="translate(-0.523 -4.781)" fill="#fff"/>
      <path id="Path_67" data-name="Path 67" d="M2.11,20.849,1.821,20.2l-.216.649-.5.072.361.433L1.389,22l.5-.289L2.326,22l-.072-.649.361-.433Z" transform="translate(-0.523 -6.063)" fill="#fff"/>
      <path id="Path_68" data-name="Path 68" d="M4.316,6l.5-.361L5.254,6l-.072-.649.361-.5-.5-.072L4.821,4.2,4.6,4.777l-.5.072.361.5Z" transform="translate(-1.359 -1.603)" fill="#fff"/>
      <path id="Path_69" data-name="Path 69" d="M4.316,10.6l.5-.289.433.289-.072-.649.361-.433-.5-.072L4.821,8.8,4.6,9.449l-.5.072.361.433Z" transform="translate(-1.359 -2.885)" fill="#fff"/>
      <path id="Path_70" data-name="Path 70" d="M4,14.221l.433.433-.144.649.5-.289.433.289-.072-.649.361-.433-.5-.144L4.793,13.5l-.216.577Z" transform="translate(-1.331 -4.195)" fill="#fff"/>
      <path id="Path_71" data-name="Path 71" d="M4.289,20l.5-.289L5.226,20l-.072-.649.361-.5-.5-.072L4.793,18.2l-.216.577L4,18.849l.433.5Z" transform="translate(-1.331 -5.505)" fill="#fff"/>
    </g>
  </g>
</svg>
