<svg xmlns="http://www.w3.org/2000/svg" width="18" height="18" viewBox="0 0 18 18">
  <g id="Back_Arrow" data-name="Back Arrow" transform="translate(-1154 -146)">
    <path id="arrow" d="M8.2,17.67.339,9.805a1.132,1.132,0,0,1-.113-.128v0L.219,9.667l0,0,0-.007,0-.005,0,0L.2,9.64v0c-.02-.029-.039-.059-.056-.09h0l0-.008,0,0,0,0,0-.008h0A1.119,1.119,0,0,1,0,9.027v0s0-.008,0-.011S0,9.007,0,9,0,9,0,9H0s0-.009,0-.014v0s0-.008,0-.011V8.92H0a1.12,1.12,0,0,1,.063-.3l0-.006v0A1.121,1.121,0,0,1,.33,8.2L8.2.33A1.125,1.125,0,0,1,9.8,1.921L3.841,7.875H16.875a1.125,1.125,0,1,1,0,2.25H3.841L9.8,16.079A1.125,1.125,0,1,1,8.2,17.67Z" transform="translate(1154 146)" fill="#333"/>
  </g>
</svg>
