<svg xmlns="http://www.w3.org/2000/svg" width="28" height="27.999" viewBox="0 0 28 27.999">
  <defs>
    <style>
      .cls-1 {
        fill: #696969;
      }
    </style>
  </defs>
  <path id="ic_bank" class="cls-1" d="M47.154,50.756a6.417,6.417,0,0,0-1.487-8.12v-3.8h.583a.583.583,0,0,0,.583-.583V36.5h.583a.583.583,0,0,0,.332-1.062L34.332,26.1a.583.583,0,0,0-.665,0L20.251,35.437a.583.583,0,0,0,.333,1.062h.583v1.75a.583.583,0,0,0,.583.583h.583v9.333H21.75a.583.583,0,0,0-.583.583V50.6A1.75,1.75,0,0,0,20,52.249v1.167a.583.583,0,0,0,.583.583H47.417A.583.583,0,0,0,48,53.416V52.249A1.75,1.75,0,0,0,47.154,50.756Zm-1.487-13.09H41V36.5h4.667ZM44.5,38.832v3.039a6.358,6.358,0,0,0-2.333-.677V38.832ZM34,27.294l11.556,8.038H22.444ZM27.583,48.166H27V38.832h.583a.583.583,0,0,0,.583-.583V36.5H30.5v1.75a.583.583,0,0,0,.583.583h.583v9.333h-.583a.583.583,0,0,0-.583.583V50.5H28.167v-1.75A.583.583,0,0,0,27.583,48.166Zm4.083,1.167h3.751a6.364,6.364,0,0,0,.461,1.167H31.667V49.332Zm1.167-1.167V38.832h2.333v9.333Zm2.917-10.5H31.667V36.5h4.667v1.167Zm.583,1.167h.583a.583.583,0,0,0,.583-.583V36.5h2.333v1.75a.583.583,0,0,0,.583.583H41v2.362A6.417,6.417,0,0,0,36.333,43.9Zm-14-2.333H27v1.167H22.333Zm3.5,2.333v9.333H23.5V38.832Zm-3.5,10.5H27V50.5H22.333Zm-1.167,3.5v-.583a.583.583,0,0,1,.583-.583H36.637A6.469,6.469,0,0,0,37.9,52.832H21.167Zm25.667,0H45.258a6.465,6.465,0,0,0,1.225-1.114.583.583,0,0,1,.35.531Zm-5.25,0a5.25,5.25,0,1,1,5.25-5.25A5.25,5.25,0,0,1,41.583,52.832Zm1.167-8.167h-.583V43.5H41v1.167h-.583a1.167,1.167,0,0,0-1.167,1.167V47a1.167,1.167,0,0,0,1.167,1.167H42.75v1.167H40.417v-.583H39.25v.583A1.167,1.167,0,0,0,40.417,50.5H41v1.167h1.167V50.5h.583a1.167,1.167,0,0,0,1.167-1.167V48.166A1.167,1.167,0,0,0,42.75,47H40.417V45.832H42.75v.583h1.167v-.583A1.167,1.167,0,0,0,42.75,44.666Z" transform="translate(-20 -26)"/>
</svg>
