<svg height="496pt" viewBox="0 0 496 496" width="496pt" xmlns="http://www.w3.org/2000/svg"><path d="m320 176h96v208h-96zm0 0" fill="#f0bc5e"/><path d="m104 208c-57.34375 0-104-46.65625-104-104s46.65625-104 104-104 104 46.65625 104 104-46.65625 104-104 104zm0 0" fill="#f0bc5e"/><path d="m104 80c4.40625 0 8 3.59375 8 8h16c0-10.414062-6.710938-19.214844-16-22.527344v-9.472656h-16v9.472656c-9.289062 3.3125-16 12.113282-16 22.527344 0 13.230469 10.769531 24 24 24 4.40625 0 8 3.59375 8 8s-3.59375 8-8 8-8-3.59375-8-8h-16c0 10.414062 6.710938 19.214844 16 22.527344v9.472656h16v-9.472656c9.289062-3.3125 16-12.113282 16-22.527344 0-13.230469-10.769531-24-24-24-4.40625 0-8-3.59375-8-8s3.59375-8 8-8zm0 0"/><path d="m104 48c30.878906 0 56 25.121094 56 56 0 12.496094-4.078125 24.359375-11.800781 34.296875l12.632812 9.816406c9.921875-12.777343 15.167969-28.023437 15.167969-44.113281 0-39.695312-32.304688-72-72-72-16.089844 0-31.335938 5.246094-44.113281 15.167969l9.816406 12.632812c9.9375-7.722656 21.800781-11.800781 34.296875-11.800781zm0 0"/><path d="m104 176c16.089844 0 31.335938-5.246094 44.113281-15.167969l-9.816406-12.632812c-9.9375 7.722656-21.800781 11.800781-34.296875 11.800781-30.878906 0-56-25.121094-56-56 0-12.496094 4.078125-24.359375 11.800781-34.296875l-12.632812-9.816406c-9.921875 12.777343-15.167969 28.023437-15.167969 44.113281 0 39.695312 32.304688 72 72 72zm0 0"/><path d="m448 144h-16v-64h-16v-32h-40v-48h-16v48h-40v32h-16v64h-16v112h-16v-48h-16v-32h-24v-40h-16v40h-24v32h-16v48h-32v224h-16v16h336v-16h-16zm-112-80h64v16h-64zm-16 32h96v48h-16v-32h-16v32h-32v-32h-16v32h-16zm112 64v320h-24v-80h-80v80h-24v-320zm-40 320h-48v-64h48zm-184-288h32v16h-32zm-16 32h64v32h-24v-16h-16v16h-24zm-32 48h128v208h-16v-192h-16v192h-24v-192h-16v192h-24v-192h-16v192h-16zm0 0"/><path d="m320 176h16v16h-16zm0 0"/><path d="m360 176h16v16h-16zm0 0"/><path d="m400 176h16v16h-16zm0 0"/><path d="m320 224h16v16h-16zm0 0"/><path d="m360 224h16v16h-16zm0 0"/><path d="m400 224h16v16h-16zm0 0"/><path d="m320 272h16v16h-16zm0 0"/><path d="m360 272h16v16h-16zm0 0"/><path d="m400 272h16v16h-16zm0 0"/><path d="m320 320h16v16h-16zm0 0"/><path d="m360 320h16v16h-16zm0 0"/><path d="m400 320h16v16h-16zm0 0"/><path d="m320 368h16v16h-16zm0 0"/><path d="m360 368h16v16h-16zm0 0"/><path d="m400 368h16v16h-16zm0 0"/><path d="m0 240h16v16h-16zm0 0"/><path d="m0 272h16v96h-16zm0 0"/><path d="m48 296h16v16h-16zm0 0"/><path d="m48 328h16v96h-16zm0 0"/><path d="m96 240h16v16h-16zm0 0"/><path d="m96 272h16v96h-16zm0 0"/><path d="m480 480h16v16h-16zm0 0"/><path d="m96 480h16v16h-16zm0 0"/></svg>