<svg xmlns="http://www.w3.org/2000/svg" width="42.691" height="39.569" viewBox="0 0 42.691 39.569">
  <path id="Conversations" d="M39.027,39.507l-6.384-2.132a31.1,31.1,0,0,1-7.7,1.255h-.086a19.065,19.065,0,0,1-11.021-3.4,1.194,1.194,0,0,1-.29-1.667,1.2,1.2,0,0,1,1.672-.29,16.906,16.906,0,0,0,9.644,2.964h.071a28.534,28.534,0,0,0,7.31-1.251,1.214,1.214,0,0,1,.4-.069,1.183,1.183,0,0,1,.38.062l4.816,1.608-.915-4.732a1.189,1.189,0,0,1,.268-1.005A12.1,12.1,0,0,0,38.354,16.2a1.193,1.193,0,0,1,.369-1.651,1.2,1.2,0,0,1,1.658.368,14.462,14.462,0,0,1-.991,17.036l1.2,6.19a1.2,1.2,0,0,1-1.56,1.361ZM2.563,32.444a1.2,1.2,0,0,1-.393-1.125l1.169-6.2A14.6,14.6,0,0,1,0,15.871C0,7.12,7.993,0,17.817,0S35.633,7.12,35.633,15.871,27.641,31.739,17.817,31.739a31.086,31.086,0,0,1-7.708-1.224L3.736,32.673a1.2,1.2,0,0,1-1.173-.229ZM2.4,15.871a12.3,12.3,0,0,0,3.13,8.137,1.188,1.188,0,0,1,.272,1L4.91,29.75l4.809-1.628a1.2,1.2,0,0,1,.782,0,28.574,28.574,0,0,0,7.317,1.221c8.5,0,15.414-6.045,15.414-13.476S26.317,2.393,17.817,2.393,2.4,8.439,2.4,15.871Zm15.022,4.7a1.2,1.2,0,1,1,0-2.393h4.833a1.2,1.2,0,1,1,0,2.393Zm-9.2,0a1.2,1.2,0,1,1,0-2.393h4.83a1.2,1.2,0,1,1,0,2.393Zm0-6.707a1.2,1.2,0,1,1,0-2.393H27.409a1.2,1.2,0,1,1,0,2.393Z" transform="translate(0 0)" fill="#f79a1d"/>
</svg>
