<?xml version="1.0" encoding="utf-8"?>
<!-- Generator: Adobe Illustrator 21.0.0, SVG Export Plug-In . SVG Version: 6.00 Build 0)  -->
<svg version="1.1" id="Layer_1" xmlns="http://www.w3.org/2000/svg" xmlns:xlink="http://www.w3.org/1999/xlink" x="0px" y="0px"
	 viewBox="0 0 64 64" style="enable-background:new 0 0 64 64;" xml:space="preserve">
<style type="text/css">
	.st0{fill:none;stroke:#1D1D1D;stroke-width:2;stroke-linecap:square;stroke-linejoin:round;}
	.st1{fill:none;stroke:#1D1D1D;stroke-width:2;stroke-linecap:round;stroke-linejoin:round;}
</style>
<title>Asset 30</title>
<g id="Layer_2">
	<g id="Layer_1-2">
		<g id="bank_check">
			<line class="st0" x1="40" y1="40.3" x2="8" y2="40.3"/>
			<polyline class="st0" points="13,10.3 63,10.3 63,40.3 61,40.3 			"/>
			<path class="st1" d="M18,29.3c0.6,1.2,1.7,1.9,3,2h2c1.7,0,3-1.3,3-3l0,0c0-1.7-1.3-3-3-3h-2c-1.7,0-3-1.3-3-3l0,0
				c0-1.7,1.3-3,3-3h2c1.3,0.1,2.4,0.8,3,2"/>
			<line class="st1" x1="22" y1="17.3" x2="22" y2="19.3"/>
			<line class="st1" x1="22" y1="31.3" x2="22" y2="33.3"/>
			<path class="st0" d="M1,37.3V6.8c0-3,2.5-5.5,5.5-5.5l0,0c3,0,5.5,2.5,5.5,5.5v28.5"/>
			<path class="st1" d="M7,32.3h1c2.2,0,4,1.8,4,4l0,0c0,2.2-1.8,4-4,4H7"/>
			<path class="st1" d="M34,44.3H7c-3.3,0-6-2.7-6-6l0,0c0-3.3,2.7-6,6-6"/>
			<polyline class="st1" points="51,23.3 57,23.3 57,16.3 34,16.3 34,23.3 36,23.3 			"/>
			
				<rect x="44.3" y="28" transform="matrix(0.9239 -0.3827 0.3827 0.9239 -9.7623 21.0514)" class="st1" width="7.5" height="14.1"/>
			<polygon class="st1" points="42,20.3 42,20.3 41.9,30 48.8,27.1 			"/>
			<path class="st1" d="M59.3,62.3c-2.4,1-5.1-0.2-6.1-2.5l-6.8-16.5l8.7-3.6l6.8,16.5C62.9,58.6,61.7,61.3,59.3,62.3z"/>
			<line class="st1" x1="57" y1="57.3" x2="53" y2="47.3"/>
		</g>
	</g>
</g>
</svg>
