<svg xmlns="http://www.w3.org/2000/svg" width="26" height="26" viewBox="0 0 26 26">
  <defs>
    <style>
      .cls-1 {
        fill: #696969;
      }
    </style>
  </defs>
  <path id="Fill_176" data-name="Fill 176" class="cls-1" d="M13,26H4.875A4.881,4.881,0,0,1,0,21.125v-3.25a4.867,4.867,0,0,1,3.29-4.588A8.721,8.721,0,0,1,1.625,8.125C1.625,3.645,4.905,0,8.937,0S16.25,3.645,16.25,8.125a8.72,8.72,0,0,1-1.664,5.162,4.867,4.867,0,0,1,3.289,4.588v3.25A4.88,4.88,0,0,1,13,26ZM4.692,14.733a3.719,3.719,0,0,0-3.068,3.548v2.437a3.838,3.838,0,0,0,3.989,3.656h6.648a3.837,3.837,0,0,0,3.988-3.656V18.281a3.719,3.719,0,0,0-3.067-3.548,6.7,6.7,0,0,1-8.49,0ZM8.937,1.625c-3.136,0-5.688,2.916-5.688,6.5s2.551,6.5,5.688,6.5,5.688-2.916,5.688-6.5S12.073,1.625,8.937,1.625Zm16.25,19.5H20.312a.812.812,0,1,1,0-1.625h4.874a.812.812,0,1,1,0,1.625Zm0-4.875H20.312a.812.812,0,1,1,0-1.625h4.874a.812.812,0,1,1,0,1.625Zm0-4.874h-6.5a.813.813,0,1,1,0-1.626h6.5a.813.813,0,1,1,0,1.626Zm0-4.875h-6.5a.812.812,0,1,1,0-1.625h6.5a.812.812,0,1,1,0,1.625Z"/>
</svg>
