<?xml version="1.0" standalone="no"?>
<!DOCTYPE svg PUBLIC "-//W3C//DTD SVG 1.1//EN" "http://www.w3.org/Graphics/SVG/1.1/DTD/svg11.dtd" >
<svg xmlns="http://www.w3.org/2000/svg" xmlns:xlink="http://www.w3.org/1999/xlink" version="1.1">
<metadata>
Created by FontForge 20170731 at Sat Nov 13 21:55:20 2010
 By Aleksey,,,
Copyright (c) 2001. Nokia Corporation.  All rights reserved.
</metadata>
<defs>
<font id="Gugeshashvili_7_KMthavruli" horiz-adv-x="1451" >
  <font-face 
    font-family="Gugeshashvili_7_KMthavruli"
    font-weight="400"
    font-stretch="normal"
    units-per-em="2048"
    panose-1="2 11 7 6 3 4 4 3 2 4"
    ascent="1638"
    descent="-410"
    x-height="1219"
    cap-height="1489"
    bbox="-1262 -378 2646 1887"
    underline-thickness="133"
    underline-position="-335"
    unicode-range="U+000D-FEFC"
  />
<missing-glyph horiz-adv-x="1024" 
d="M51 0v1536h922v-1536h-922zM179 128h666v1280h-666v-1280z" />
    <glyph glyph-name="uniFB50" unicode="&#x671;" horiz-adv-x="498" arabic-form="isolated" 
d="M336 200h-174v1261h174v-1261zM117 1694q57 95 126 143.5t134 48.5t106.5 -35.5t41.5 -85.5q0 -149 -365 -149l-26 -64h-80l26 64h-110v78h147zM199 1694q117 0 182.5 19t65.5 52q0 18 -18.5 30.5t-51.5 12.5q-44 0 -93 -29t-85 -85z" />
    <glyph glyph-name="uniFB51" unicode="&#x671;" horiz-adv-x="559" arabic-form="final" 
d="M561 200h-65q-179 0 -256.5 95t-77.5 300v866h174v-862q0 -204 151 -204h74v-195zM117 1694q57 95 126 143.5t134 48.5t106.5 -35.5t41.5 -85.5q0 -149 -365 -149l-26 -64h-80l26 64h-110v78h147zM199 1694q117 0 182.5 19t65.5 52q0 18 -18.5 30.5t-51.5 12.5
q-44 0 -93 -29t-85 -85z" />
    <glyph glyph-name="uniFB56" unicode="&#x67e;" horiz-adv-x="1579" arabic-form="isolated" 
d="M1444 702q8 -45 8 -111q0 -212 -192 -352.5t-521 -140.5q-294 0 -453 113.5t-159 320.5q0 119 39 211l164 -41q-29 -77 -29 -168q0 -242 438 -242q236 0 387.5 94.5t151.5 245.5q0 44 -8 70h174zM981 -138h-147v147h147v-147zM713 -138h-148v147h148v-147zM846 -347h-148
v147h148v-147z" />
    <glyph glyph-name="uniFB57" unicode="&#x67e;" horiz-adv-x="1614" arabic-form="final" 
d="M1616 200h-4q-195 0 -273 150q-175 -252 -600 -252q-294 0 -453 113.5t-159 320.5q0 119 39 211l164 -41q-29 -77 -29 -168q0 -242 438 -242q236 0 387.5 94.5t151.5 245.5q0 43 -6 70h174q6 -48 6 -111q0 -196 152 -196h12v-195zM945 -138h-147v147h147v-147zM677 -138
h-148v147h148v-147zM810 -347h-148v147h148v-147z" />
    <glyph glyph-name="uniFB58" unicode="&#x67e;" horiz-adv-x="565" arabic-form="initial" 
d="M397 595q0 -215 -82 -305t-252 -90h-65v195h74q151 0 151 204v183h174v-187zM480 -56h-147v147h147v-147zM212 -56h-148v147h148v-147zM345 -265h-148v147h148v-147z" />
    <glyph glyph-name="uniFB59" unicode="&#x67e;" horiz-adv-x="498" arabic-form="medial" 
d="M500 200h-4q-170 0 -248 84q-78 -84 -246 -84h-4v195h12q152 0 152 204v183h174v-183q0 -204 151 -204h13v-195zM463 -56h-147v147h147v-147zM195 -56h-148v147h148v-147zM328 -265h-148v147h148v-147z" />
    <glyph glyph-name="uniFB66" unicode="&#x679;" horiz-adv-x="1579" arabic-form="isolated" 
d="M1444 702q8 -45 8 -111q0 -212 -192 -352.5t-521 -140.5q-294 0 -453 113.5t-159 320.5q0 119 39 211l164 -41q-29 -77 -29 -168q0 -242 438 -242q236 0 387.5 94.5t151.5 245.5q0 44 -8 70h174zM777 912h-207v72h64v293h67v-227q80 114 166 114q54 0 86.5 -32t32.5 -87
q0 -61 -55 -97t-154 -36zM867 1095q-32 0 -64 -23t-85 -88h59q67 0 104 17t37 44q0 19 -15 34.5t-36 15.5z" />
    <glyph glyph-name="uniFB67" unicode="&#x679;" horiz-adv-x="1614" arabic-form="final" 
d="M1616 200h-4q-195 0 -273 150q-175 -252 -600 -252q-294 0 -453 113.5t-159 320.5q0 119 39 211l164 -41q-29 -77 -29 -168q0 -242 438 -242q236 0 387.5 94.5t151.5 245.5q0 43 -6 70h174q6 -48 6 -111q0 -196 152 -196h12v-195zM807 912h-207v72h64v293h67v-227
q80 114 166 114q54 0 86.5 -32t32.5 -87q0 -61 -55 -97t-154 -36zM897 1095q-32 0 -64 -23t-85 -88h59q67 0 104 17t37 44q0 19 -15 34.5t-36 15.5z" />
    <glyph glyph-name="uniFB68" unicode="&#x679;" horiz-adv-x="565" arabic-form="initial" 
d="M397 595q0 -215 -82 -305t-252 -90h-65v195h74q151 0 151 204v183h174v-187zM297 912h-207v72h64v293h67v-227q80 114 166 114q54 0 86.5 -32t32.5 -87q0 -61 -55 -97t-154 -36zM387 1095q-32 0 -64 -23t-85 -88h59q67 0 104 17t37 44q0 19 -15 34.5t-36 15.5z" />
    <glyph glyph-name="uniFB69" unicode="&#x679;" horiz-adv-x="498" arabic-form="medial" 
d="M500 200h-4q-170 0 -248 84q-78 -84 -246 -84h-4v195h12q152 0 152 204v183h174v-183q0 -204 151 -204h13v-195zM237 912h-207v72h64v293h67v-227q80 114 166 114q54 0 86.5 -32t32.5 -87q0 -61 -55 -97t-154 -36zM327 1095q-32 0 -64 -23t-85 -88h59q67 0 104 17t37 44
q0 19 -15 34.5t-36 15.5z" />
    <glyph glyph-name="uniFB7A" unicode="&#x686;" horiz-adv-x="1114" arabic-form="isolated" 
d="M1155 -278q-222 -70 -444 -70q-269 0 -437 145.5t-168 368.5q0 237 200.5 416.5t514.5 231.5q-158 75 -263.5 97t-254.5 22q-65 0 -151 -20l-33 190q78 25 164 25q147 0 279 -54t407 -225v-147q-688 -113 -688 -538q0 -137 119 -227t309 -90q174 0 415 61zM961 239h-147
v147h147v-147zM693 239h-148v147h148v-147zM826 30h-148v147h148v-147z" />
    <glyph glyph-name="uniFB7B" unicode="&#x686;" horiz-adv-x="1348" arabic-form="final" 
d="M1350 200h-76q-123 0 -245 81t-333 351q-411 -141 -411 -472q0 -137 119 -225t309 -88q174 0 415 61l31 -186q-222 -70 -444 -70q-269 0 -436.5 143.5t-167.5 366.5q0 244 200.5 422t513.5 230q-158 75 -263.5 97t-254.5 22q-65 0 -151 -20l-33 190q78 25 164 25
q147 0 279 -54t407 -225v-147q-81 -15 -131 -27q165 -185 254.5 -232.5t173.5 -47.5h80v-195zM857 167h-147v147h147v-147zM589 167h-148v147h148v-147zM722 -42h-148v147h148v-147z" />
    <glyph glyph-name="uniFB7C" unicode="&#x686;" horiz-adv-x="1323" arabic-form="initial" 
d="M1161 587q-84 0 -198 -34.5t-366 -165.5q-237 -123 -339 -155t-176 -32h-84v195h90q62 0 155.5 29t318.5 140q302 150 403 158q-413 211 -684 211q-65 0 -152 -20l-33 190q78 25 164 25q109 0 250.5 -45.5t440.5 -214.5q197 -111 204 -111h6v-170zM934 -15h-147v147h147
v-147zM666 -15h-148v147h148v-147zM799 -224h-148v147h148v-147z" />
    <glyph glyph-name="uniFB7D" unicode="&#x686;" horiz-adv-x="1305" arabic-form="medial" 
d="M1307 200h-76q-160 0 -461 274q-177 -87 -247 -126t-203.5 -93.5t-237.5 -54.5h-84v195h90q62 0 155.5 29t318.5 140q302 150 403 158q-413 211 -684 211q-65 0 -152 -20l-33 190q78 25 164 25q109 0 250.5 -45.5t440.5 -214.5q197 -111 204 -111h6v-170q-104 0 -243 -49
q184 -143 309 -143h80v-195zM903 -15h-147v147h147v-147zM635 -15h-148v147h148v-147zM768 -224h-148v147h148v-147z" />
    <glyph glyph-name="uniFB88" unicode="&#x688;" horiz-adv-x="881" arabic-form="isolated" 
d="M461 1095q293 -364 293 -502q0 -185 -158.5 -289t-456.5 -104h-61v195h57q445 0 445 198q0 128 -330 502h211zM327 1242h-207v72h64v293h67v-227q80 114 166 114q54 0 86.5 -32t32.5 -87q0 -61 -55 -97t-154 -36zM417 1425q-32 0 -64 -23t-85 -88h59q67 0 104 17t37 44
q0 19 -15 34.5t-36 15.5z" />
    <glyph glyph-name="uniFB89" unicode="&#x688;" horiz-adv-x="938" arabic-form="final" 
d="M940 200h-4q-215 0 -287 147q-155 -147 -510 -147h-61v195h57q445 0 445 198q0 65 -39.5 169.5t-169.5 330.5h209q132 -280 174 -469q28 -132 68.5 -180.5t105.5 -48.5h12v-195zM447 1242h-207v72h64v293h67v-227q80 114 166 114q54 0 86.5 -32t32.5 -87q0 -61 -55 -97
t-154 -36zM537 1425q-32 0 -64 -23t-85 -88h59q67 0 104 17t37 44q0 19 -15 34.5t-36 15.5z" />
    <glyph glyph-name="uniFB8A" unicode="&#x698;" horiz-adv-x="862" arabic-form="isolated" 
d="M666 794q65 -177 65 -375q0 -310 -184.5 -479.5t-501.5 -169.5q-71 0 -197 14l37 176q90 -16 162 -16q510 0 510 475q0 168 -102 375h211zM607 1189h-148v147h148v-147zM742 980h-147v147h147v-147zM474 980h-148v147h148v-147z" />
    <glyph glyph-name="uniFB8B" unicode="&#x698;" horiz-adv-x="893" arabic-form="final" 
d="M895 200h-4q-121 0 -178 49q-44 -230 -222.5 -354.5t-445.5 -124.5q-71 0 -197 14l37 176q90 -16 162 -16q510 0 510 475q0 118 -53 270h192q23 -93 31 -172q12 -122 156 -122h12v-195zM646 1169h-148v147h148v-147zM781 960h-147v147h147v-147zM513 960h-148v147h148
v-147z" />
    <glyph glyph-name="uniFB8C" unicode="&#x691;" horiz-adv-x="862" arabic-form="isolated" 
d="M666 794q65 -177 65 -375q0 -310 -184.5 -479.5t-501.5 -169.5q-71 0 -197 14l37 176q90 -16 162 -16q510 0 510 475q0 168 -102 375h211zM462 999h-207v72h64v293h67v-227q80 114 166 114q54 0 86.5 -32t32.5 -87q0 -61 -55 -97t-154 -36zM552 1182q-32 0 -64 -23
t-85 -88h59q67 0 104 17t37 44q0 19 -15 34.5t-36 15.5z" />
    <glyph glyph-name="uniFB8D" unicode="&#x691;" horiz-adv-x="893" arabic-form="final" 
d="M895 200h-4q-121 0 -178 49q-44 -230 -222.5 -354.5t-445.5 -124.5q-71 0 -197 14l37 176q90 -16 162 -16q510 0 510 475q0 118 -53 270h192q23 -93 31 -172q12 -122 156 -122h12v-195zM394 942h-207v72h64v293h67v-227q80 114 166 114q54 0 86.5 -32t32.5 -87
q0 -61 -55 -97t-154 -36zM484 1125q-32 0 -64 -23t-85 -88h59q67 0 104 17t37 44q0 19 -15 34.5t-36 15.5z" />
    <glyph glyph-name="uniFB8E" unicode="&#x6a9;" horiz-adv-x="1696" arabic-form="isolated" 
d="M1694 1478l-366 -149q-169 -68 -207 -87t-57.5 -36.5t-19.5 -34.5q0 -45 84 -148l181 -216q57 -68 83.5 -131.5t26.5 -127.5q0 -166 -116.5 -257t-315.5 -91h-317q-256 0 -399.5 105.5t-143.5 300.5q0 89 23 202l163 -41q-12 -72 -12 -159q0 -103 96.5 -158t274.5 -55
h317q118 0 187 43.5t69 115.5q0 82 -90 189l-184 220q-54 65 -77.5 113.5t-23.5 100.5q0 81 65.5 141t196.5 115l562 235v-190z" />
    <glyph glyph-name="uniFB8F" unicode="&#x6a9;" horiz-adv-x="1929" arabic-form="final" 
d="M1931 200h-65q-100 0 -221 63.5t-240 180.5q-34 -119 -145 -181.5t-273 -62.5h-317q-256 0 -399.5 105.5t-143.5 300.5q0 89 23 202l163 -41q-12 -72 -12 -159q0 -103 96.5 -158t274.5 -55h317q118 0 187 43.5t69 115.5q0 79 -90 189l-184 220q-54 65 -77.5 113.5
t-23.5 100.5q0 81 65.5 141t196.5 115l562 235v-190l-366 -149q-169 -68 -207 -87t-57.5 -36.5t-19.5 -34.5q0 -44 56 -113l240 -287q183 -218 302 -297t220 -79h69v-195z" />
    <glyph glyph-name="uniFB90" unicode="&#x6a9;" horiz-adv-x="885" arabic-form="initial" 
d="M885 1478l-366 -149q-169 -68 -207 -87t-57 -36.5t-19 -34.5q0 -45 83 -148l181 -216q57 -68 83.5 -131.5t26.5 -127.5q0 -166 -116.5 -257t-315.5 -91h-180v195h182q118 0 187 43.5t69 115.5q0 79 -90 189l-184 220q-54 65 -77.5 113.5t-23.5 100.5q0 81 66 141t196 115
l562 235v-190z" />
    <glyph glyph-name="uniFB91" unicode="&#x6a9;" horiz-adv-x="1124" arabic-form="medial" 
d="M1122 200h-65q-100 0 -221 63.5t-240 180.5q-34 -119 -145 -181.5t-273 -62.5h-180v195h182q118 0 187 43.5t69 115.5q0 79 -90 189l-184 220q-54 65 -77.5 113.5t-23.5 100.5q0 81 66 141t196 115l562 235v-190l-366 -149q-169 -68 -207 -87t-57 -36.5t-19 -34.5
q0 -44 55 -113l240 -287q183 -218 302 -297t220 -79h69v-195z" />
    <glyph glyph-name="uniFB92" unicode="&#x6af;" horiz-adv-x="1696" arabic-form="isolated" 
d="M1694 1478l-366 -149q-169 -68 -207 -87t-57.5 -36.5t-19.5 -34.5q0 -45 84 -148l181 -216q57 -68 83.5 -131.5t26.5 -127.5q0 -166 -116.5 -257t-315.5 -91h-317q-256 0 -399.5 105.5t-143.5 300.5q0 89 23 202l163 -41q-12 -72 -12 -159q0 -103 96.5 -158t274.5 -55
h317q118 0 187 43.5t69 115.5q0 82 -90 189l-184 220q-54 65 -77.5 113.5t-23.5 100.5q0 81 65.5 141t196.5 115l562 235v-190zM1694 1746l-752 -315v78l752 315v-78z" />
    <glyph glyph-name="uniFB93" unicode="&#x6af;" horiz-adv-x="1929" arabic-form="final" 
d="M1931 200h-65q-100 0 -221 63.5t-240 180.5q-34 -119 -145 -181.5t-273 -62.5h-317q-256 0 -399.5 105.5t-143.5 300.5q0 89 23 202l163 -41q-12 -72 -12 -159q0 -103 96.5 -158t274.5 -55h317q118 0 187 43.5t69 115.5q0 79 -90 189l-184 220q-54 65 -77.5 113.5
t-23.5 100.5q0 81 65.5 141t196.5 115l562 235v-190l-366 -149q-169 -68 -207 -87t-57.5 -36.5t-19.5 -34.5q0 -44 56 -113l240 -287q183 -218 302 -297t220 -79h69v-195zM1694 1746l-752 -315v78l752 315v-78z" />
    <glyph glyph-name="uniFB94" unicode="&#x6af;" horiz-adv-x="885" arabic-form="initial" 
d="M885 1478l-366 -149q-169 -68 -207 -87t-57 -36.5t-19 -34.5q0 -45 83 -148l181 -216q57 -68 83.5 -131.5t26.5 -127.5q0 -166 -116.5 -257t-315.5 -91h-180v195h182q118 0 187 43.5t69 115.5q0 79 -90 189l-184 220q-54 65 -77.5 113.5t-23.5 100.5q0 81 66 141t196 115
l562 235v-190zM885 1746l-752 -315v78l752 315v-78z" />
    <glyph glyph-name="uniFB95" unicode="&#x6af;" horiz-adv-x="1124" arabic-form="medial" 
d="M1122 200h-65q-100 0 -221 63.5t-240 180.5q-34 -119 -145 -181.5t-273 -62.5h-180v195h182q118 0 187 43.5t69 115.5q0 79 -90 189l-184 220q-54 65 -77.5 113.5t-23.5 100.5q0 81 66 141t196 115l562 235v-190l-366 -149q-169 -68 -207 -87t-57 -36.5t-19 -34.5
q0 -44 55 -113l240 -287q183 -218 302 -297t220 -79h69v-195zM885 1746l-752 -315v78l752 315v-78z" />
    <glyph glyph-name="uniFB9E" unicode="&#x6ba;" horiz-adv-x="1417" arabic-form="isolated" 
d="M1262 757q28 -174 28 -317q0 -223 -157 -355.5t-426 -132.5q-267 0 -423.5 133t-156.5 355q0 143 29 317l163 -41q-18 -141 -18 -274q0 -142 104.5 -218.5t303.5 -76.5t303 76.5t104 218.5q0 133 -18 274z" />
    <glyph glyph-name="uniFB9F" unicode="&#x6ba;" horiz-adv-x="1481" arabic-form="final" 
d="M1483 200h-15q-85 0 -141 47q-8 -237 -171 -375.5t-464 -138.5q-285 0 -448.5 128.5t-163.5 356.5q0 147 43 357l164 -41q-33 -184 -33 -314t111.5 -211t326.5 -81q461 0 461 422q0 36 -8 182l170 43q25 -180 153 -180h15v-195z" />
    <glyph glyph-name="uniFBA4" unicode="&#x6c0;" horiz-adv-x="1053" arabic-form="isolated" 
d="M526 1083q400 -200 400 -504q0 -191 -107 -291t-293 -100q-181 0 -290 104t-109 287q0 150 102.5 281.5t296.5 222.5zM752 579q0 96 -65 187.5t-161 144.5q-96 -57 -160.5 -147.5t-64.5 -184.5q0 -197 225 -197q105 0 165.5 50.5t60.5 146.5zM685 1275l-272 -49v72l59 10
q-78 33 -78 109q0 58 37 92.5t98 34.5q122 0 146 -109l-72 -6q-13 37 -72 37q-65 0 -65 -49q0 -37 38.5 -60.5t96.5 -23.5l84 14v-72z" />
    <glyph glyph-name="uniFBA5" unicode="&#x6c0;" horiz-adv-x="977" arabic-form="final" 
d="M979 200h-4q-145 0 -222.5 63t-105.5 191q-28 -53 -100 -91t-150 -38q-116 0 -193 74t-77 202q0 139 110.5 253t331.5 175l-10 84h174l43 -358q22 -187 31 -224.5t31 -70.5t54 -49t75 -16h12v-195zM586 886q-267 -76 -267 -280q0 -40 31 -64.5t72 -24.5q57 0 122.5 52
t65.5 110q0 13 -24 207zM680 1325l-272 -49v72l59 10q-78 33 -78 109q0 58 37 92.5t98 34.5q122 0 146 -109l-72 -6q-13 37 -72 37q-65 0 -65 -49q0 -37 38.5 -60.5t96.5 -23.5l84 14v-72z" />
    <glyph glyph-name="uniFBA6" unicode="&#x6c1;" horiz-adv-x="1053" arabic-form="isolated" 
d="M526 1083q400 -200 400 -504q0 -191 -107 -291t-293 -100q-181 0 -290 104t-109 287q0 150 102.5 281.5t296.5 222.5zM752 579q0 96 -65 187.5t-161 144.5q-96 -57 -160.5 -147.5t-64.5 -184.5q0 -197 225 -197q105 0 165.5 50.5t60.5 146.5z" />
    <glyph glyph-name="uniFBA7" unicode="&#x6c1;" horiz-adv-x="1063" arabic-form="final" 
d="M76 259l370 404q42 -67 141 -147t188.5 -100.5t238.5 -20.5h49v-195h-123q-350 0 -516 217l-348 -389v231z" />
    <glyph glyph-name="uniFBA8" unicode="&#x6c1;" horiz-adv-x="565" arabic-form="initial" 
d="M397 630q0 -215 -82 -305t-252 -90h-65v195h74q151 0 151 204v183h174v-187zM439 182q-111 -110 -151.5 -161t-40.5 -100q0 -33 17 -54t81 -21v-194q-139 0 -205.5 50t-66.5 159q0 67 44 139.5t144 181.5h178z" />
    <glyph glyph-name="uniFBA9" unicode="&#x6c1;" horiz-adv-x="1262" arabic-form="medial" 
d="M1264 235h-58q-454 0 -454 -295q0 -118 51 -288h-160q-144 52 -224.5 165.5t-80.5 242.5q0 138 68 271q-153 -96 -345 -96h-61v195h57q237 0 356.5 78t174.5 243h188q-54 -151 -155 -292q-119 -164 -119 -347q0 -146 94 -229q-8 59 -8 90q0 194 166.5 325.5t447.5 131.5
h62v-195z" />
    <glyph glyph-name="uniFBAA" unicode="&#x6be;" horiz-adv-x="1405" arabic-form="isolated" 
d="M199 1388q133 26 307 26q334 0 553 -173t219 -441q0 -218 -160 -364t-395 -146q-102 0 -199 23q-246 -113 -514 -113h-12v195h16q151 0 277 22q-144 109 -144 262q0 132 96.5 229t248.5 97q151 0 247.5 -95.5t96.5 -236.5q0 -112 -91 -209q170 6 264.5 97t94.5 235
q0 190 -164 307t-434 117q-102 0 -252 -27zM518 489q144 77 144 184q0 58 -48.5 97.5t-121.5 39.5q-78 0 -124 -38.5t-46 -92.5q0 -131 196 -190z" />
    <glyph glyph-name="uniFBAB" unicode="&#x6be;" horiz-adv-x="1540" arabic-form="final" 
d="M1542 200h-24q-123 0 -217 71.5t-142 207.5q-164 -189 -436 -189q-99 0 -199 23q-243 -113 -514 -113h-12v195h16q145 0 277 22q-144 107 -144 262q0 135 97.5 230.5t247.5 95.5q154 0 249 -97t95 -235q0 -112 -91 -209q170 7 264.5 96.5t94.5 235.5q0 100 -68.5 206
t-205.5 162t-324 56q-107 0 -252 -27l-55 195q127 26 307 26q336 0 554 -174t218 -440q0 -196 59.5 -300.5t175.5 -104.5h29v-195zM518 489q144 76 144 184q0 60 -48.5 98.5t-121.5 38.5q-79 0 -124.5 -39.5t-45.5 -91.5q0 -132 196 -190z" />
    <glyph glyph-name="uniFBAC" unicode="&#x6be;" horiz-adv-x="1405" arabic-form="initial" 
d="M199 1388q133 26 307 26q334 0 553 -173t219 -441q0 -218 -160 -364t-395 -146q-102 0 -199 23q-246 -113 -514 -113h-12v195h16q151 0 277 22q-144 109 -144 262q0 132 96.5 229t248.5 97q151 0 247.5 -95.5t96.5 -236.5q0 -112 -91 -209q170 6 264.5 97t94.5 235
q0 190 -164 307t-434 117q-102 0 -252 -27zM518 489q144 77 144 184q0 58 -48.5 97.5t-121.5 39.5q-78 0 -124 -38.5t-46 -92.5q0 -131 196 -190z" />
    <glyph glyph-name="uniFBAD" unicode="&#x6be;" horiz-adv-x="1540" arabic-form="medial" 
d="M1542 200h-24q-123 0 -217 71.5t-142 207.5q-164 -189 -436 -189q-99 0 -199 23q-243 -113 -514 -113h-12v195h16q145 0 277 22q-144 107 -144 262q0 135 97.5 230.5t247.5 95.5q154 0 249 -97t95 -235q0 -112 -91 -209q170 7 264.5 96.5t94.5 235.5q0 100 -68.5 206
t-205.5 162t-324 56q-107 0 -252 -27l-55 195q127 26 307 26q336 0 554 -174t218 -440q0 -196 59.5 -300.5t175.5 -104.5h29v-195zM518 489q144 76 144 184q0 60 -48.5 98.5t-121.5 38.5q-79 0 -124.5 -39.5t-45.5 -91.5q0 -132 196 -190z" />
    <glyph glyph-name="uniFBAE" unicode="&#x6d2;" horiz-adv-x="1503" arabic-form="isolated" 
d="M819 886v-92q0 -157 -48.5 -243.5t-148.5 -128.5l-315 -132q-92 -38 -92 -94q0 -49 64 -49h1171v-191h-1171q-107 0 -169.5 63t-62.5 161q0 190 186 268l306 126q46 19 83 66.5t37 153.5v92h160z" />
    <glyph glyph-name="uniFBAF" unicode="&#x6d2;" horiz-adv-x="1331" arabic-form="final" 
d="M1450 -348h-1171q-107 0 -170.5 63t-63.5 160q0 94 50 161t145 89l332 74q38 8 83 30t84 50q102 76 160 98.5t111 22.5h325v-193h-313q-84 0 -186 -76q-100 -77 -169 -94l-354 -82q-98 -22 -98 -63q0 -50 64 -50h1171v-190z" />
    <glyph glyph-name="uniFBB0" unicode="&#x6d3;" horiz-adv-x="1503" arabic-form="isolated" 
d="M819 886v-92q0 -157 -48.5 -243.5t-148.5 -128.5l-315 -132q-92 -38 -92 -94q0 -49 64 -49h1171v-191h-1171q-107 0 -169.5 63t-62.5 161q0 190 186 268l306 126q46 19 83 66.5t37 153.5v92h160zM391 773l-272 -49v72l59 10q-78 33 -78 109q0 58 37 92.5t98 34.5
q122 0 146 -109l-72 -6q-13 37 -72 37q-65 0 -65 -49q0 -37 38.5 -60.5t96.5 -23.5l84 14v-72z" />
    <glyph glyph-name="uniFBB1" unicode="&#x6d3;" horiz-adv-x="1331" arabic-form="final" 
d="M1450 -348h-1171q-107 0 -170.5 63t-63.5 160q0 94 50 161t145 89l332 74q38 8 83 30t84 50q102 76 160 98.5t111 22.5h325v-193h-313q-84 0 -186 -76q-100 -77 -169 -94l-354 -82q-98 -22 -98 -63q0 -50 64 -50h1171v-190zM391 513l-272 -49v72l59 10q-78 33 -78 109
q0 58 37 92.5t98 34.5q122 0 146 -109l-72 -6q-13 37 -72 37q-65 0 -65 -49q0 -37 38.5 -60.5t96.5 -23.5l84 14v-72z" />
    <glyph glyph-name="uniFBE8" unicode="&#x649;" horiz-adv-x="565" arabic-form="initial" 
d="M397 595q0 -215 -82 -305t-252 -90h-65v195h74q151 0 151 204v183h174v-187z" />
    <glyph glyph-name="uniFBE9" unicode="&#x649;" horiz-adv-x="498" arabic-form="medial" 
d="M500 200h-4q-170 0 -248 84q-78 -84 -246 -84h-4v195h12q152 0 152 204v183h174v-183q0 -204 151 -204h13v-195z" />
    <glyph glyph-name="uniFBFC" unicode="&#x6cc;" horiz-adv-x="1497" arabic-form="isolated" 
d="M1391 849l-174 -18q-34 102 -203 102q-77 0 -131 -33.5t-54 -87.5q0 -31 34.5 -65t174.5 -103q211 -105 271.5 -178t60.5 -151q0 -153 -163.5 -258t-499.5 -105q-294 0 -467.5 105.5t-173.5 304.5q0 99 47 235l159 -41q-32 -106 -32 -192q0 -110 106 -163.5t363 -53.5
q241 0 364 48.5t123 123.5q0 38 -38 77t-190 115q-201 100 -257 166t-56 135q0 118 101.5 217t257.5 99q313 0 377 -279z" />
    <glyph glyph-name="uniFBFD" unicode="&#x6cc;" horiz-adv-x="1624" arabic-form="final" 
d="M1626 210h-6q-43 0 -127 34q-71 29 -102 29q-23 0 -37.5 -12t-14.5 -28q0 -18 49 -87q70 -101 70 -139q0 -125 -215.5 -237.5t-531.5 -112.5q-294 0 -467.5 105.5t-173.5 304.5q0 99 47 235l159 -41q-32 -107 -32 -192q0 -110 106 -163.5t363 -53.5q247 0 409 56t162 124
q0 18 -45 85q-74 109 -74 156q0 77 66 136t160 59q40 0 132 -35q71 -28 97 -28h6v-195z" />
    <glyph glyph-name="uniFBFE" unicode="&#x6cc;" horiz-adv-x="565" arabic-form="initial" 
d="M397 595q0 -215 -82 -305t-252 -90h-65v195h74q151 0 151 204v183h174v-187zM491 -80h-147v147h147v-147zM223 -80h-148v147h148v-147z" />
    <glyph glyph-name="uniFBFF" unicode="&#x6cc;" horiz-adv-x="498" arabic-form="medial" 
d="M500 200h-4q-170 0 -248 84q-78 -84 -246 -84h-4v195h12q152 0 152 204v183h174v-183q0 -204 151 -204h13v-195zM456 -80h-147v147h147v-147zM188 -80h-148v147h148v-147z" />
    <glyph glyph-name="uniFE80" unicode="&#x621;" horiz-adv-x="1083" arabic-form="isolated" 
d="M961 364q-311 -125 -850 -164v195q21 0 107.5 4.5t107.5 7.5q-92 44 -145.5 124.5t-53.5 178.5q0 148 103.5 251t279.5 103q343 0 403 -307l-180 -22q-29 135 -223 135q-100 0 -154.5 -47t-54.5 -125q0 -157 213 -258q240 37 447 120v-196z" />
    <glyph glyph-name="uniFE81" unicode="&#x622;" horiz-adv-x="498" arabic-form="isolated" 
d="M336 200h-174v1466h174v-1466zM555 1829q-71 -86 -166 -86q-36 0 -135 32q-96 31 -129 31q-64 0 -119 -59l-51 55q70 84 164 84q37 0 137 -32q95 -31 129 -31q72 0 119 61z" />
    <glyph glyph-name="uniFE82" unicode="&#x622;" horiz-adv-x="559" arabic-form="final" 
d="M561 200h-65q-179 0 -256.5 95t-77.5 300v1071h174v-1067q0 -204 151 -204h74v-195zM554 1829q-71 -86 -166 -86q-36 0 -135 32q-96 31 -129 31q-64 0 -119 -59l-51 55q70 84 164 84q37 0 137 -32q95 -31 129 -31q72 0 119 61z" />
    <glyph glyph-name="uniFE83" unicode="&#x623;" horiz-adv-x="498" arabic-form="isolated" 
d="M336 200h-174v1261h174v-1261zM385 1617l-272 -49v72l59 10q-78 33 -78 109q0 58 37 92.5t98 34.5q122 0 146 -109l-72 -6q-13 37 -72 37q-65 0 -65 -49q0 -37 38.5 -60.5t96.5 -23.5l84 14v-72z" />
    <glyph glyph-name="uniFE84" unicode="&#x623;" horiz-adv-x="559" arabic-form="final" 
d="M561 200h-65q-179 0 -256.5 95t-77.5 300v866h174v-862q0 -204 151 -204h74v-195zM385 1617l-272 -49v72l59 10q-78 33 -78 109q0 58 37 92.5t98 34.5q122 0 146 -109l-72 -6q-13 37 -72 37q-65 0 -65 -49q0 -37 38.5 -60.5t96.5 -23.5l84 14v-72z" />
    <glyph glyph-name="uniFE85" unicode="&#x624;" horiz-adv-x="963" arabic-form="isolated" 
d="M641 413q-55 -14 -104 -14q-157 0 -281.5 101.5t-124.5 285.5q0 165 101 277t233 112q142 0 256.5 -170.5t114.5 -429.5q0 -206 -118 -394.5t-318.5 -299.5t-424.5 -111q-70 0 -196 14l37 197q89 -17 161 -17q242 0 425 130t239 319zM662 608q-8 142 -68 257t-129 115
q-62 0 -111 -56.5t-49 -137.5t64 -137t157 -56q82 0 136 15zM579 1486l-272 -49v72l59 10q-78 33 -78 109q0 58 37 92.5t98 34.5q122 0 146 -109l-72 -6q-13 37 -72 37q-65 0 -65 -49q0 -37 38.5 -60.5t96.5 -23.5l84 14v-72z" />
    <glyph glyph-name="uniFE86" unicode="&#x624;" horiz-adv-x="954" arabic-form="final" 
d="M956 200h-170q-60 -213 -270 -321.5t-547 -108.5q-70 0 -196 14l37 197q89 -17 161 -17q283 0 430 56t193 180h-84q-157 0 -281.5 102t-124.5 285q0 165 101 277t233 112q136 0 249.5 -158.5t121.5 -422.5h147v-195zM635 395q0 155 -58.5 271t-138.5 116
q-62 0 -110.5 -57t-48.5 -138t63.5 -136.5t157.5 -55.5h135zM549 1286l-272 -49v72l59 10q-78 33 -78 109q0 58 37 92.5t98 34.5q122 0 146 -109l-72 -6q-13 37 -72 37q-65 0 -65 -49q0 -37 38.5 -60.5t96.5 -23.5l84 14v-72z" />
    <glyph glyph-name="uniFE87" unicode="&#x625;" horiz-adv-x="498" arabic-form="isolated" 
d="M336 200h-174v1466h174v-1466zM385 -213l-272 -49v72l59 10q-78 33 -78 109q0 58 37 92.5t98 34.5q122 0 146 -109l-72 -6q-13 37 -72 37q-65 0 -65 -49q0 -37 38.5 -60.5t96.5 -23.5l84 14v-72z" />
    <glyph glyph-name="uniFE88" unicode="&#x625;" horiz-adv-x="559" arabic-form="final" 
d="M561 200h-65q-179 0 -256.5 95t-77.5 300v1071h174v-1067q0 -204 151 -204h74v-195zM385 -213l-272 -49v72l59 10q-78 33 -78 109q0 58 37 92.5t98 34.5q122 0 146 -109l-72 -6q-13 37 -72 37q-65 0 -65 -49q0 -37 38.5 -60.5t96.5 -23.5l84 14v-72z" />
    <glyph glyph-name="uniFE89" unicode="&#x626;" horiz-adv-x="1497" arabic-form="isolated" 
d="M1391 849l-174 -18q-34 102 -203 102q-77 0 -131 -33.5t-54 -87.5q0 -31 34.5 -65t174.5 -103q211 -105 271.5 -178t60.5 -151q0 -153 -163.5 -258t-499.5 -105q-294 0 -467.5 105.5t-173.5 304.5q0 99 47 235l159 -41q-32 -106 -32 -192q0 -110 106 -163.5t363 -53.5
q241 0 364 48.5t123 123.5q0 38 -38 77t-190 115q-201 100 -257 166t-56 135q0 118 101.5 217t257.5 99q313 0 377 -279zM438 848l-272 -49v72l59 10q-78 33 -78 109q0 58 37 92.5t98 34.5q122 0 146 -109l-72 -6q-13 37 -72 37q-65 0 -65 -49q0 -37 38.5 -60.5t96.5 -23.5
l84 14v-72z" />
    <glyph glyph-name="uniFE8A" unicode="&#x626;" horiz-adv-x="1624" arabic-form="final" 
d="M1626 210h-6q-43 0 -127 34q-71 29 -102 29q-23 0 -37.5 -12t-14.5 -28q0 -18 49 -87q70 -101 70 -139q0 -125 -215.5 -237.5t-531.5 -112.5q-294 0 -467.5 105.5t-173.5 304.5q0 99 47 235l159 -41q-32 -107 -32 -192q0 -110 106 -163.5t363 -53.5q247 0 409 56t162 124
q0 18 -45 85q-74 109 -74 156q0 77 66 136t160 59q40 0 132 -35q71 -28 97 -28h6v-195zM465 543l-272 -49v72l59 10q-78 33 -78 109q0 58 37 92.5t98 34.5q122 0 146 -109l-72 -6q-13 37 -72 37q-65 0 -65 -49q0 -37 38.5 -60.5t96.5 -23.5l84 14v-72z" />
    <glyph glyph-name="uniFE8B" unicode="&#x626;" horiz-adv-x="565" arabic-form="initial" 
d="M397 595q0 -215 -82 -305t-252 -90h-65v195h74q151 0 151 204v183h174v-187zM411 1091l-272 -49v72l59 10q-78 33 -78 109q0 58 37 92.5t98 34.5q122 0 146 -109l-72 -6q-13 37 -72 37q-65 0 -65 -49q0 -37 38.5 -60.5t96.5 -23.5l84 14v-72z" />
    <glyph glyph-name="uniFE8C" unicode="&#x626;" horiz-adv-x="498" arabic-form="medial" 
d="M500 200h-4q-170 0 -248 84q-78 -84 -246 -84h-4v195h12q152 0 152 204v183h174v-183q0 -204 151 -204h13v-195zM383 1092l-272 -49v72l59 10q-78 33 -78 109q0 58 37 92.5t98 34.5q122 0 146 -109l-72 -6q-13 37 -72 37q-65 0 -65 -49q0 -37 38.5 -60.5t96.5 -23.5
l84 14v-72z" />
    <glyph glyph-name="uniFE8D" unicode="&#x627;" horiz-adv-x="498" arabic-form="isolated" 
d="M336 200h-174v1466h174v-1466z" />
    <glyph glyph-name="uniFE8E" unicode="&#x627;" horiz-adv-x="559" arabic-form="final" 
d="M561 200h-65q-179 0 -256.5 95t-77.5 300v1071h174v-1067q0 -204 151 -204h74v-195z" />
    <glyph glyph-name="uniFE8F" unicode="&#x628;" horiz-adv-x="1579" arabic-form="isolated" 
d="M1444 702q8 -45 8 -111q0 -212 -192 -352.5t-521 -140.5q-294 0 -453 113.5t-159 320.5q0 119 39 211l164 -41q-29 -77 -29 -168q0 -242 438 -242q236 0 387.5 94.5t151.5 245.5q0 44 -8 70h174zM860 -187h-178v178h178v-178z" />
    <glyph glyph-name="uniFE90" unicode="&#x628;" horiz-adv-x="1614" arabic-form="final" 
d="M1616 200h-4q-195 0 -273 150q-175 -252 -600 -252q-294 0 -453 113.5t-159 320.5q0 119 39 211l164 -41q-29 -77 -29 -168q0 -242 438 -242q236 0 387.5 94.5t151.5 245.5q0 43 -6 70h174q6 -48 6 -111q0 -196 152 -196h12v-195zM823 -187h-178v178h178v-178z" />
    <glyph glyph-name="uniFE91" unicode="&#x628;" horiz-adv-x="565" arabic-form="initial" 
d="M397 595q0 -215 -82 -305t-252 -90h-65v195h74q151 0 151 204v183h174v-187zM340 -85h-178v178h178v-178z" />
    <glyph glyph-name="uniFE92" unicode="&#x628;" horiz-adv-x="498" arabic-form="medial" 
d="M500 200h-4q-170 0 -248 84q-78 -84 -246 -84h-4v195h12q152 0 152 204v183h174v-183q0 -204 151 -204h13v-195zM340 -85h-178v178h178v-178z" />
    <glyph glyph-name="uniFE93" unicode="&#x629;" horiz-adv-x="1053" arabic-form="isolated" 
d="M526 1083q400 -200 400 -504q0 -191 -107 -291t-293 -100q-181 0 -290 104t-109 287q0 150 102.5 281.5t296.5 222.5zM752 579q0 96 -65 187.5t-161 144.5q-96 -57 -160.5 -147.5t-64.5 -184.5q0 -197 225 -197q105 0 165.5 50.5t60.5 146.5zM752 1349h-147v147h147v-147
zM484 1349h-148v147h148v-147z" />
    <glyph glyph-name="uniFE94" unicode="&#x629;" horiz-adv-x="977" arabic-form="final" 
d="M979 200h-4q-145 0 -222.5 63t-105.5 191q-28 -53 -100 -91t-150 -38q-116 0 -193 74t-77 202q0 139 110.5 253t331.5 175l-10 84h174l43 -358q22 -187 31 -224.5t31 -70.5t54 -49t75 -16h12v-195zM586 886q-267 -76 -267 -280q0 -40 31 -64.5t72 -24.5q57 0 122.5 52
t65.5 110q0 13 -24 207zM699 1339h-147v147h147v-147zM431 1339h-148v147h148v-147z" />
    <glyph glyph-name="uniFE95" unicode="&#x62a;" horiz-adv-x="1579" arabic-form="isolated" 
d="M1444 702q8 -45 8 -111q0 -212 -192 -352.5t-521 -140.5q-294 0 -453 113.5t-159 320.5q0 119 39 211l164 -41q-29 -77 -29 -168q0 -242 438 -242q236 0 387.5 94.5t151.5 245.5q0 44 -8 70h174zM1016 950h-147v147h147v-147zM748 950h-148v147h148v-147z" />
    <glyph glyph-name="uniFE96" unicode="&#x62a;" horiz-adv-x="1614" arabic-form="final" 
d="M1616 200h-4q-195 0 -273 150q-175 -252 -600 -252q-294 0 -453 113.5t-159 320.5q0 119 39 211l164 -41q-29 -77 -29 -168q0 -242 438 -242q236 0 387.5 94.5t151.5 245.5q0 43 -6 70h174q6 -48 6 -111q0 -196 152 -196h12v-195zM928 950h-147v147h147v-147zM660 950
h-148v147h148v-147z" />
    <glyph glyph-name="uniFE97" unicode="&#x62a;" horiz-adv-x="559" arabic-form="initial" 
d="M397 595q0 -215 -82 -305t-252 -90h-65v195h74q151 0 151 204v183h174v-187zM447 1050h-147v147h147v-147zM179 1050h-148v147h148v-147z" />
    <glyph glyph-name="uniFE98" unicode="&#x62a;" horiz-adv-x="498" arabic-form="medial" 
d="M500 200h-4q-170 0 -248 84q-78 -84 -246 -84h-4v195h12q152 0 152 204v183h174v-183q0 -204 151 -204h13v-195zM459 1050h-147v147h147v-147zM191 1050h-148v147h148v-147z" />
    <glyph glyph-name="uniFE99" unicode="&#x62b;" horiz-adv-x="1579" arabic-form="isolated" 
d="M1444 702q8 -45 8 -111q0 -212 -192 -352.5t-521 -140.5q-294 0 -453 113.5t-159 320.5q0 119 39 211l164 -41q-29 -77 -29 -168q0 -242 438 -242q236 0 387.5 94.5t151.5 245.5q0 44 -8 70h174zM881 1159h-148v147h148v-147zM1016 950h-147v147h147v-147zM748 950h-148
v147h148v-147z" />
    <glyph glyph-name="uniFE9A" unicode="&#x62b;" horiz-adv-x="1614" arabic-form="final" 
d="M1616 200h-4q-195 0 -273 150q-175 -252 -600 -252q-294 0 -453 113.5t-159 320.5q0 119 39 211l164 -41q-29 -77 -29 -168q0 -242 438 -242q236 0 387.5 94.5t151.5 245.5q0 43 -6 70h174q6 -48 6 -111q0 -196 152 -196h12v-195zM793 1159h-148v147h148v-147zM928 950
h-147v147h147v-147zM660 950h-148v147h148v-147z" />
    <glyph glyph-name="uniFE9B" unicode="&#x62b;" horiz-adv-x="559" arabic-form="initial" 
d="M397 595q0 -215 -82 -305t-252 -90h-65v195h74q151 0 151 204v183h174v-187zM312 1259h-148v147h148v-147zM447 1050h-147v147h147v-147zM179 1050h-148v147h148v-147z" />
    <glyph glyph-name="uniFE9C" unicode="&#x62b;" horiz-adv-x="498" arabic-form="medial" 
d="M500 200h-4q-170 0 -248 84q-78 -84 -246 -84h-4v195h12q152 0 152 204v183h174v-183q0 -204 151 -204h13v-195zM324 1259h-148v147h148v-147zM459 1050h-147v147h147v-147zM191 1050h-148v147h148v-147z" />
    <glyph glyph-name="uniFE9D" unicode="&#x62c;" horiz-adv-x="1114" arabic-form="isolated" 
d="M1155 -278q-222 -70 -444 -70q-269 0 -437 145.5t-168 368.5q0 237 200.5 416.5t514.5 231.5q-158 75 -263.5 97t-254.5 22q-65 0 -151 -20l-33 190q78 25 164 25q147 0 279 -54t407 -225v-147q-688 -113 -688 -538q0 -137 119 -227t309 -90q174 0 415 61zM735 126h-178
v178h178v-178z" />
    <glyph glyph-name="uniFE9E" unicode="&#x62c;" horiz-adv-x="1348" arabic-form="final" 
d="M1350 200h-76q-123 0 -245 81t-333 351q-411 -141 -411 -472q0 -137 119 -225t309 -88q174 0 415 61l31 -186q-222 -70 -444 -70q-269 0 -436.5 143.5t-167.5 366.5q0 244 200.5 422t513.5 230q-158 75 -263.5 97t-254.5 22q-65 0 -151 -20l-33 190q78 25 164 25
q147 0 279 -54t407 -225v-147q-81 -15 -131 -27q165 -185 254.5 -232.5t173.5 -47.5h80v-195zM735 125h-178v178h178v-178z" />
    <glyph glyph-name="uniFE9F" unicode="&#x62c;" horiz-adv-x="1323" arabic-form="initial" 
d="M1161 587q-84 0 -198 -34.5t-366 -165.5q-237 -123 -339 -155t-176 -32h-84v195h90q62 0 155.5 29t318.5 140q302 150 403 158q-413 211 -684 211q-65 0 -152 -20l-33 190q78 25 164 25q109 0 250.5 -45.5t440.5 -214.5q197 -111 204 -111h6v-170zM842 38h-178v178h178
v-178z" />
    <glyph glyph-name="uniFEA0" unicode="&#x62c;" horiz-adv-x="1305" arabic-form="medial" 
d="M1307 200h-76q-160 0 -461 274q-177 -87 -247 -126t-203.5 -93.5t-237.5 -54.5h-84v195h90q62 0 155.5 29t318.5 140q302 150 403 158q-413 211 -684 211q-65 0 -152 -20l-33 190q78 25 164 25q109 0 250.5 -45.5t440.5 -214.5q197 -111 204 -111h6v-170q-104 0 -243 -49
q184 -143 309 -143h80v-195zM780 -85h-178v178h178v-178z" />
    <glyph glyph-name="uniFEA1" unicode="&#x62d;" horiz-adv-x="1114" arabic-form="isolated" 
d="M1155 -278q-222 -70 -444 -70q-269 0 -437 145.5t-168 368.5q0 237 200.5 416.5t514.5 231.5q-158 75 -263.5 97t-254.5 22q-65 0 -151 -20l-33 190q78 25 164 25q147 0 279 -54t407 -225v-147q-688 -113 -688 -538q0 -137 119 -227t309 -90q174 0 415 61z" />
    <glyph glyph-name="uniFEA2" unicode="&#x62d;" horiz-adv-x="1348" arabic-form="final" 
d="M1350 200h-76q-123 0 -245 81t-333 351q-411 -141 -411 -472q0 -137 119 -225t309 -88q174 0 415 61l31 -186q-222 -70 -444 -70q-269 0 -436.5 143.5t-167.5 366.5q0 244 200.5 422t513.5 230q-158 75 -263.5 97t-254.5 22q-65 0 -151 -20l-33 190q78 25 164 25
q147 0 279 -54t407 -225v-147q-81 -15 -131 -27q165 -185 254.5 -232.5t173.5 -47.5h80v-195z" />
    <glyph glyph-name="uniFEA3" unicode="&#x62d;" horiz-adv-x="1323" arabic-form="initial" 
d="M1161 587q-84 0 -198 -34.5t-366 -165.5q-237 -123 -339 -155t-176 -32h-84v195h90q62 0 155.5 29t318.5 140q302 150 403 158q-413 211 -684 211q-65 0 -152 -20l-33 190q78 25 164 25q109 0 250.5 -45.5t440.5 -214.5q197 -111 204 -111h6v-170z" />
    <glyph glyph-name="uniFEA4" unicode="&#x62d;" horiz-adv-x="1305" arabic-form="medial" 
d="M1307 200h-76q-160 0 -461 274q-177 -87 -247 -126t-203.5 -93.5t-237.5 -54.5h-84v195h90q62 0 155.5 29t318.5 140q302 150 403 158q-413 211 -684 211q-65 0 -152 -20l-33 190q78 25 164 25q109 0 250.5 -45.5t440.5 -214.5q197 -111 204 -111h6v-170q-104 0 -243 -49
q184 -143 309 -143h80v-195z" />
    <glyph glyph-name="uniFEA5" unicode="&#x62e;" horiz-adv-x="1114" arabic-form="isolated" 
d="M1155 -278q-222 -70 -444 -70q-269 0 -437 145.5t-168 368.5q0 237 200.5 416.5t514.5 231.5q-158 75 -263.5 97t-254.5 22q-65 0 -151 -20l-33 190q78 25 164 25q147 0 279 -54t407 -225v-147q-688 -113 -688 -538q0 -137 119 -227t309 -90q174 0 415 61zM647 1294h-178
v178h178v-178z" />
    <glyph glyph-name="uniFEA6" unicode="&#x62e;" horiz-adv-x="1348" arabic-form="final" 
d="M1350 200h-76q-123 0 -245 81t-333 351q-411 -141 -411 -472q0 -137 119 -225t309 -88q174 0 415 61l31 -186q-222 -70 -444 -70q-269 0 -436.5 143.5t-167.5 366.5q0 244 200.5 422t513.5 230q-158 75 -263.5 97t-254.5 22q-65 0 -151 -20l-33 190q78 25 164 25
q147 0 279 -54t407 -225v-147q-81 -15 -131 -27q165 -185 254.5 -232.5t173.5 -47.5h80v-195zM723 1294h-178v178h178v-178z" />
    <glyph glyph-name="uniFEA7" unicode="&#x62e;" horiz-adv-x="1323" arabic-form="initial" 
d="M1161 587q-84 0 -198 -34.5t-366 -165.5q-237 -123 -339 -155t-176 -32h-84v195h90q62 0 155.5 29t318.5 140q302 150 403 158q-413 211 -684 211q-65 0 -152 -20l-33 190q78 25 164 25q109 0 250.5 -45.5t440.5 -214.5q197 -111 204 -111h6v-170zM827 1271h-178v178h178
v-178z" />
    <glyph glyph-name="uniFEA8" unicode="&#x62e;" horiz-adv-x="1305" arabic-form="medial" 
d="M1307 200h-76q-160 0 -461 274q-177 -87 -247 -126t-203.5 -93.5t-237.5 -54.5h-84v195h90q62 0 155.5 29t318.5 140q302 150 403 158q-413 211 -684 211q-65 0 -152 -20l-33 190q78 25 164 25q109 0 250.5 -45.5t440.5 -214.5q197 -111 204 -111h6v-170q-104 0 -243 -49
q184 -143 309 -143h80v-195zM825 1275h-178v178h178v-178z" />
    <glyph glyph-name="uniFEA9" unicode="&#x62f;" horiz-adv-x="881" arabic-form="isolated" 
d="M461 1095q293 -364 293 -502q0 -185 -158.5 -289t-456.5 -104h-61v195h57q445 0 445 198q0 128 -330 502h211z" />
    <glyph glyph-name="uniFEAA" unicode="&#x62f;" horiz-adv-x="938" arabic-form="final" 
d="M940 200h-4q-215 0 -287 147q-155 -147 -510 -147h-61v195h57q445 0 445 198q0 65 -39.5 169.5t-169.5 330.5h209q132 -280 174 -469q28 -132 68.5 -180.5t105.5 -48.5h12v-195z" />
    <glyph glyph-name="uniFEAB" unicode="&#x630;" horiz-adv-x="881" arabic-form="isolated" 
d="M461 1095q293 -364 293 -502q0 -185 -158.5 -289t-456.5 -104h-61v195h57q445 0 445 198q0 128 -330 502h211zM416 1310h-178v178h178v-178z" />
    <glyph glyph-name="uniFEAC" unicode="&#x630;" horiz-adv-x="938" arabic-form="final" 
d="M940 200h-4q-215 0 -287 147q-155 -147 -510 -147h-61v195h57q445 0 445 198q0 65 -39.5 169.5t-169.5 330.5h209q132 -280 174 -469q28 -132 68.5 -180.5t105.5 -48.5h12v-195zM551 1359h-178v178h178v-178z" />
    <glyph glyph-name="uniFEAD" unicode="&#x631;" horiz-adv-x="862" arabic-form="isolated" 
d="M666 794q65 -177 65 -375q0 -310 -184.5 -479.5t-501.5 -169.5q-71 0 -197 14l37 176q90 -16 162 -16q510 0 510 475q0 168 -102 375h211z" />
    <glyph glyph-name="uniFEAE" unicode="&#x631;" horiz-adv-x="893" arabic-form="final" 
d="M895 200h-4q-121 0 -178 49q-44 -230 -222.5 -354.5t-445.5 -124.5q-71 0 -197 14l37 176q90 -16 162 -16q510 0 510 475q0 118 -53 270h192q23 -93 31 -172q12 -122 156 -122h12v-195z" />
    <glyph glyph-name="uniFEAF" unicode="&#x632;" horiz-adv-x="858" arabic-form="isolated" 
d="M666 794q65 -177 65 -375q0 -310 -184.5 -479.5t-501.5 -169.5q-71 0 -197 14l37 176q90 -16 162 -16q510 0 510 475q0 168 -102 375h211zM620 986h-178v178h178v-178z" />
    <glyph glyph-name="uniFEB0" unicode="&#x632;" horiz-adv-x="893" arabic-form="final" 
d="M895 200h-4q-121 0 -178 49q-44 -230 -222.5 -354.5t-445.5 -124.5q-71 0 -197 14l37 176q90 -16 162 -16q510 0 510 475q0 118 -53 270h192q23 -93 31 -172q12 -122 156 -122h12v-195zM665 962h-178v178h178v-178z" />
    <glyph glyph-name="uniFEB1" unicode="&#x633;" horiz-adv-x="2445" arabic-form="isolated" 
d="M2284 622q0 -205 -86 -313.5t-246 -108.5h-17q-174 0 -254 92q-68 -92 -217 -92q-88 0 -137 49q-12 -253 -179.5 -384.5t-455.5 -131.5q-296 0 -454 116.5t-158 338.5q0 131 43 313l164 -41q-33 -156 -33 -270q0 -262 438 -262q461 0 461 422v432h174v-164
q0 -117 29.5 -170t103.5 -53q73 0 104 51.5t31 175.5v160h174v-156q0 -231 166 -231h17q157 0 157 231v283h175v-287z" />
    <glyph glyph-name="uniFEB2" unicode="&#x633;" horiz-adv-x="2445" arabic-form="final" 
d="M2447 200h-4q-164 0 -248 92q-87 -92 -243 -92h-17q-174 0 -254 92q-77 -92 -217 -92q-88 0 -137 49q-12 -253 -179.5 -384.5t-455.5 -131.5q-296 0 -454 116.5t-158 338.5q0 131 43 313l164 -41q-33 -156 -33 -270q0 -262 438 -262q461 0 461 422v432h174v-164
q0 -117 29.5 -170t103.5 -53q73 0 104 51.5t31 175.5v160h174v-156q0 -231 166 -231h17q157 0 157 231v283h175v-283q0 -231 151 -231h12v-195z" />
    <glyph glyph-name="uniFEB3" unicode="&#x633;" horiz-adv-x="1577" arabic-form="initial" 
d="M1415 622q0 -205 -86 -313.5t-246 -108.5h-16q-174 0 -254 92q-34 -42 -104 -67t-113 -25q-148 0 -217 92q-83 -92 -242 -92h-139v195h135q152 0 152 204v183h174v-164q0 -117 29.5 -170t103.5 -53q72 0 103.5 51.5t31.5 175.5v160h174v-156q0 -231 166 -231h16
q158 0 158 231v283h174v-287z" />
    <glyph glyph-name="uniFEB4" unicode="&#x633;" horiz-adv-x="1577" arabic-form="medial" 
d="M1579 200h-4q-165 0 -248 92q-88 -92 -244 -92h-16q-174 0 -254 92q-34 -42 -104 -67t-113 -25q-148 0 -217 92q-83 -92 -242 -92h-139v195h135q152 0 152 204v183h174v-164q0 -117 29.5 -170t103.5 -53q72 0 103.5 51.5t31.5 175.5v160h174v-156q0 -231 166 -231h16
q158 0 158 231v283h174v-283q0 -231 152 -231h12v-195z" />
    <glyph glyph-name="uniFEB5" unicode="&#x634;" horiz-adv-x="2445" arabic-form="isolated" 
d="M2284 622q0 -205 -86 -313.5t-246 -108.5h-17q-174 0 -254 92q-68 -92 -217 -92q-88 0 -137 49q-12 -253 -179.5 -384.5t-455.5 -131.5q-296 0 -454 116.5t-158 338.5q0 131 43 313l164 -41q-33 -156 -33 -270q0 -262 438 -262q461 0 461 422v432h174v-164
q0 -117 29.5 -170t103.5 -53q73 0 104 51.5t31 175.5v160h174v-156q0 -231 166 -231h17q157 0 157 231v283h175v-287zM1706 1292h-148v147h148v-147zM1841 1083h-147v147h147v-147zM1573 1083h-148v147h148v-147z" />
    <glyph glyph-name="uniFEB6" unicode="&#x634;" horiz-adv-x="2445" arabic-form="final" 
d="M2447 200h-4q-164 0 -248 92q-87 -92 -243 -92h-17q-174 0 -254 92q-77 -92 -217 -92q-88 0 -137 49q-12 -253 -179.5 -384.5t-455.5 -131.5q-296 0 -454 116.5t-158 338.5q0 131 43 313l164 -41q-33 -156 -33 -270q0 -262 438 -262q461 0 461 422v432h174v-164
q0 -117 29.5 -170t103.5 -53q73 0 104 51.5t31 175.5v160h174v-156q0 -231 166 -231h17q157 0 157 231v283h175v-283q0 -231 151 -231h12v-195zM1708 1292h-148v147h148v-147zM1843 1083h-147v147h147v-147zM1575 1083h-148v147h148v-147z" />
    <glyph glyph-name="uniFEB7" unicode="&#x634;" horiz-adv-x="1577" arabic-form="initial" 
d="M1415 622q0 -205 -86 -313.5t-246 -108.5h-16q-174 0 -254 92q-34 -42 -104 -67t-113 -25q-148 0 -217 92q-83 -92 -242 -92h-139v195h135q152 0 152 204v183h174v-164q0 -117 29.5 -170t103.5 -53q72 0 103.5 51.5t31.5 175.5v160h174v-156q0 -231 166 -231h16
q158 0 158 231v283h174v-287zM826 1292h-148v147h148v-147zM961 1083h-147v147h147v-147zM693 1083h-148v147h148v-147z" />
    <glyph glyph-name="uniFEB8" unicode="&#x634;" horiz-adv-x="1577" arabic-form="medial" 
d="M1579 200h-4q-165 0 -248 92q-88 -92 -244 -92h-16q-174 0 -254 92q-34 -42 -104 -67t-113 -25q-148 0 -217 92q-83 -92 -242 -92h-139v195h135q152 0 152 204v183h174v-164q0 -117 29.5 -170t103.5 -53q72 0 103.5 51.5t31.5 175.5v160h174v-156q0 -231 166 -231h16
q158 0 158 231v283h174v-283q0 -231 152 -231h12v-195zM842 1292h-148v147h148v-147zM977 1083h-147v147h147v-147zM709 1083h-148v147h148v-147z" />
    <glyph glyph-name="uniFEB9" unicode="&#x635;" horiz-adv-x="2644" arabic-form="isolated" 
d="M1409 425q246 377 415.5 522.5t301.5 145.5q168 0 280.5 -118.5t112.5 -299.5q0 -221 -195.5 -348t-527.5 -127h-328q-85 0 -141 47q-8 -237 -171 -375.5t-464 -138.5q-296 0 -454 116.5t-158 338.5q0 131 43 313l164 -41q-33 -156 -33 -270q0 -262 438 -262
q461 0 461 422q0 36 -8 182l170 43q18 -124 94 -150zM1567 395h229q252 0 400.5 73.5t148.5 202.5q0 92 -66 160.5t-153 68.5q-201 0 -559 -505z" />
    <glyph glyph-name="uniFEBA" unicode="&#x635;" horiz-adv-x="2644" arabic-form="final" 
d="M2646 200h-66q-197 0 -270 117v2q-198 -119 -514 -119h-328q-85 0 -141 47q-8 -237 -171 -375.5t-464 -138.5q-296 0 -454 116.5t-158 338.5q0 131 43 313l164 -41q-33 -156 -33 -270q0 -262 438 -262q461 0 461 422q0 36 -8 182l170 43q18 -124 94 -150
q246 377 415.5 522.5t301.5 145.5q168 0 280.5 -118.5t112.5 -299.5q0 -124 -65 -221q35 -59 118 -59h74v-195zM1567 395h229q252 0 400.5 73.5t148.5 202.5q0 92 -66 160.5t-153 68.5q-201 0 -559 -505z" />
    <glyph glyph-name="uniFEBB" unicode="&#x635;" horiz-adv-x="1673" arabic-form="initial" 
d="M424 405q267 406 435 547t296 141q168 0 280.5 -118.5t112.5 -299.5q0 -219 -194 -347t-529 -128h-331q-168 0 -246 84q-78 -84 -246 -84h-4v195h12q152 0 152 204v101h174v-101q0 -159 88 -194zM596 395h229q252 0 400.5 73.5t148.5 202.5q0 92 -66 160.5t-153 68.5
q-201 0 -559 -505z" />
    <glyph glyph-name="uniFEBC" unicode="&#x635;" horiz-adv-x="1673" arabic-form="medial" 
d="M1675 200h-65q-198 0 -271 117v2q-198 -119 -514 -119h-331q-168 0 -246 84q-78 -84 -246 -84h-4v195h12q152 0 152 204v101h174v-101q0 -159 88 -194q267 406 435 547t296 141q168 0 280.5 -118.5t112.5 -299.5q0 -124 -65 -221q35 -59 119 -59h73v-195zM596 395h229
q252 0 400.5 73.5t148.5 202.5q0 92 -66 160.5t-153 68.5q-201 0 -559 -505z" />
    <glyph glyph-name="uniFEBD" unicode="&#x636;" horiz-adv-x="2644" arabic-form="isolated" 
d="M1409 425q246 377 415.5 522.5t301.5 145.5q168 0 280.5 -118.5t112.5 -299.5q0 -221 -195.5 -348t-527.5 -127h-328q-85 0 -141 47q-8 -237 -171 -375.5t-464 -138.5q-296 0 -454 116.5t-158 338.5q0 131 43 313l164 -41q-33 -156 -33 -270q0 -262 438 -262
q461 0 461 422q0 36 -8 182l170 43q18 -124 94 -150zM1567 395h229q252 0 400.5 73.5t148.5 202.5q0 92 -66 160.5t-153 68.5q-201 0 -559 -505zM1546 1111h-178v178h178v-178z" />
    <glyph glyph-name="uniFEBE" unicode="&#x636;" horiz-adv-x="2644" arabic-form="final" 
d="M2646 200h-66q-197 0 -270 117v2q-198 -119 -514 -119h-328q-85 0 -141 47q-8 -237 -171 -375.5t-464 -138.5q-296 0 -454 116.5t-158 338.5q0 131 43 313l164 -41q-33 -156 -33 -270q0 -262 438 -262q461 0 461 422q0 36 -8 182l170 43q18 -124 94 -150
q246 377 415.5 522.5t301.5 145.5q168 0 280.5 -118.5t112.5 -299.5q0 -124 -65 -221q35 -59 118 -59h74v-195zM1567 395h229q252 0 400.5 73.5t148.5 202.5q0 92 -66 160.5t-153 68.5q-201 0 -559 -505zM1546 1111h-178v178h178v-178z" />
    <glyph glyph-name="uniFEBF" unicode="&#x636;" horiz-adv-x="1673" arabic-form="initial" 
d="M424 405q267 406 435 547t296 141q168 0 280.5 -118.5t112.5 -299.5q0 -219 -194 -347t-529 -128h-331q-168 0 -246 84q-78 -84 -246 -84h-4v195h12q152 0 152 204v101h174v-101q0 -159 88 -194zM596 395h229q252 0 400.5 73.5t148.5 202.5q0 92 -66 160.5t-153 68.5
q-201 0 -559 -505zM575 1093h-178v178h178v-178z" />
    <glyph glyph-name="uniFEC0" unicode="&#x636;" horiz-adv-x="1673" arabic-form="medial" 
d="M1675 200h-65q-198 0 -271 117v2q-198 -119 -514 -119h-331q-168 0 -246 84q-78 -84 -246 -84h-4v195h12q152 0 152 204v101h174v-101q0 -159 88 -194q267 406 435 547t296 141q168 0 280.5 -118.5t112.5 -299.5q0 -124 -65 -221q35 -59 119 -59h73v-195zM596 395h229
q252 0 400.5 73.5t148.5 202.5q0 92 -66 160.5t-153 68.5q-201 0 -559 -505zM575 1093h-178v178h178v-178z" />
    <glyph glyph-name="uniFEC1" unicode="&#x637;" horiz-adv-x="1726" arabic-form="isolated" 
d="M561 530q377 563 647 563q168 0 281 -118.5t113 -299.5q0 -221 -195.5 -348t-527.5 -127h-758v195h266v1210h174v-1075zM649 395h230q251 0 399.5 73.5t148.5 202.5q0 92 -65.5 160.5t-153.5 68.5q-201 0 -559 -505z" />
    <glyph glyph-name="uniFEC2" unicode="&#x637;" horiz-adv-x="1726" arabic-form="final" 
d="M1728 200h-66q-198 0 -270 117q-195 -117 -514 -117h-758v195h266v1210h174v-1075q377 563 647 563q168 0 281 -118.5t113 -299.5q0 -124 -66 -221q35 -59 119 -59h74v-195zM648 395h230q251 0 399.5 73.5t148.5 202.5q0 92 -65.5 160.5t-153.5 68.5q-201 0 -559 -505z
" />
    <glyph glyph-name="uniFEC3" unicode="&#x637;" horiz-adv-x="1501" arabic-form="initial" 
d="M336 530q376 563 647 563q168 0 280.5 -118.5t112.5 -299.5q0 -219 -194 -347t-529 -128h-655v195h164v1210h174v-1075zM424 395h229q252 0 400.5 73.5t148.5 202.5q0 92 -65.5 160.5t-153.5 68.5q-201 0 -559 -505z" />
    <glyph glyph-name="uniFEC4" unicode="&#x637;" horiz-adv-x="1501" arabic-form="medial" 
d="M1503 200h-65q-198 0 -271 117q-194 -117 -514 -117h-655v195h164v1210h174v-1075q376 563 647 563q168 0 280.5 -118.5t112.5 -299.5q0 -124 -65 -221q35 -59 119 -59h73v-195zM424 395h229q252 0 400.5 73.5t148.5 202.5q0 92 -65.5 160.5t-153.5 68.5
q-201 0 -559 -505z" />
    <glyph glyph-name="uniFEC5" unicode="&#x638;" horiz-adv-x="1726" arabic-form="isolated" 
d="M561 530q377 563 647 563q168 0 281 -118.5t113 -299.5q0 -221 -195.5 -348t-527.5 -127h-758v195h266v1210h174v-1075zM649 395h230q251 0 399.5 73.5t148.5 202.5q0 92 -65.5 160.5t-153.5 68.5q-201 0 -559 -505zM966 1216h-178v178h178v-178z" />
    <glyph glyph-name="uniFEC6" unicode="&#x638;" horiz-adv-x="1726" arabic-form="final" 
d="M1728 200h-66q-198 0 -270 117q-195 -117 -514 -117h-758v195h266v1210h174v-1075q377 563 647 563q168 0 281 -118.5t113 -299.5q0 -124 -66 -221q35 -59 119 -59h74v-195zM648 395h230q251 0 399.5 73.5t148.5 202.5q0 92 -65.5 160.5t-153.5 68.5q-201 0 -559 -505z
M965 1216h-178v178h178v-178z" />
    <glyph glyph-name="uniFEC7" unicode="&#x638;" horiz-adv-x="1501" arabic-form="initial" 
d="M336 530q376 563 647 563q168 0 280.5 -118.5t112.5 -299.5q0 -219 -194 -347t-529 -128h-655v195h164v1210h174v-1075zM424 395h229q252 0 400.5 73.5t148.5 202.5q0 92 -65.5 160.5t-153.5 68.5q-201 0 -559 -505zM741 1216h-178v178h178v-178z" />
    <glyph glyph-name="uniFEC8" unicode="&#x638;" horiz-adv-x="1501" arabic-form="medial" 
d="M1503 200h-65q-198 0 -271 117q-194 -117 -514 -117h-655v195h164v1210h174v-1075q376 563 647 563q168 0 280.5 -118.5t112.5 -299.5q0 -124 -65 -221q35 -59 119 -59h73v-195zM424 395h229q252 0 400.5 73.5t148.5 202.5q0 92 -65.5 160.5t-153.5 68.5
q-201 0 -559 -505zM741 1216h-178v178h178v-178z" />
    <glyph glyph-name="uniFEC9" unicode="&#x639;" horiz-adv-x="1217" arabic-form="isolated" 
d="M1157 -278q-222 -70 -444 -70q-271 0 -437.5 137t-166.5 355q0 140 76 249.5t214 166.5q-182 111 -182 293q0 138 104 246.5t271 108.5q313 0 377 -279l-174 -18q-34 102 -203 102q-87 0 -144 -45t-57 -115q0 -138 176 -229l361 61l39 -161l-317 -55q-163 -29 -233 -79.5
t-102 -113.5t-32 -134q0 -127 121.5 -211t306.5 -84q174 0 415 61z" />
    <glyph glyph-name="uniFECA" unicode="&#x639;" horiz-adv-x="1139" arabic-form="final" 
d="M1161 -278q-222 -70 -444 -70q-276 0 -440 125.5t-164 337.5q0 235 237 386q-225 104 -225 301q0 166 113 286t313 120q220 0 332 -111l-125 -141q-65 57 -207 57q-110 0 -181 -63.5t-71 -147.5q0 -164 207 -215l434 178v-194q-62 -31 -111 -47q36 -51 116 -90t140 -39
h56v-195h-51q-100 0 -210.5 76t-185.5 196q-159 -60 -205 -82.5t-99.5 -63t-78 -94t-24.5 -115.5q0 -132 110 -201t318 -69q174 0 415 61z" />
    <glyph glyph-name="uniFECB" unicode="&#x639;" horiz-adv-x="1200" arabic-form="initial" 
d="M1073 405q-276 -91 -577 -148t-498 -57v195q135 0 346 28q-93 55 -150 154.5t-57 204.5q0 191 122.5 308.5t322.5 117.5q377 0 444 -328l-180 -23q-36 156 -264 156q-120 0 -195.5 -63.5t-75.5 -167.5q0 -102 66 -189.5t178 -132.5q212 44 518 139v-194z" />
    <glyph glyph-name="uniFECC" unicode="&#x639;" horiz-adv-x="1135" arabic-form="medial" 
d="M1137 200h-52q-114 0 -213 55t-161 158q-464 -213 -713 -213v195q141 0 336 63q-213 131 -213 324q0 195 115 310.5t311 115.5q219 0 332 -111l-125 -141q-65 57 -207 57q-114 0 -183 -62.5t-69 -168.5q0 -82 64 -148t165 -98q199 71 432 188v-194q-59 -31 -110 -51
q60 -84 235 -84h56v-195z" />
    <glyph glyph-name="uniFECD" unicode="&#x63a;" horiz-adv-x="1217" arabic-form="isolated" 
d="M1157 -278q-222 -70 -444 -70q-271 0 -437.5 137t-166.5 355q0 140 76 249.5t214 166.5q-182 111 -182 293q0 138 104 246.5t271 108.5q313 0 377 -279l-174 -18q-34 102 -203 102q-87 0 -144 -45t-57 -115q0 -138 176 -229l361 61l39 -161l-317 -55q-163 -29 -233 -79.5
t-102 -113.5t-32 -134q0 -127 121.5 -211t306.5 -84q174 0 415 61zM635 1507h-178v178h178v-178z" />
    <glyph glyph-name="uniFECE" unicode="&#x63a;" horiz-adv-x="1139" arabic-form="final" 
d="M1161 -278q-222 -70 -444 -70q-276 0 -440 125.5t-164 337.5q0 235 237 386q-225 104 -225 301q0 166 113 286t313 120q220 0 332 -111l-125 -141q-65 57 -207 57q-110 0 -181 -63.5t-71 -147.5q0 -164 207 -215l434 178v-194q-62 -31 -111 -47q36 -51 116 -90t140 -39
h56v-195h-51q-100 0 -210.5 76t-185.5 196q-159 -60 -205 -82.5t-99.5 -63t-78 -94t-24.5 -115.5q0 -132 110 -201t318 -69q174 0 415 61zM635 1507h-178v178h178v-178z" />
    <glyph glyph-name="uniFECF" unicode="&#x63a;" horiz-adv-x="1200" arabic-form="initial" 
d="M1073 405q-276 -91 -577 -148t-498 -57v195q135 0 346 28q-93 55 -150 154.5t-57 204.5q0 191 122.5 308.5t322.5 117.5q377 0 444 -328l-180 -23q-36 156 -264 156q-120 0 -195.5 -63.5t-75.5 -167.5q0 -102 66 -189.5t178 -132.5q212 44 518 139v-194zM624 1488h-178
v178h178v-178z" />
    <glyph glyph-name="uniFED0" unicode="&#x63a;" horiz-adv-x="1135" arabic-form="medial" 
d="M1137 200h-52q-114 0 -213 55t-161 158q-464 -213 -713 -213v195q141 0 336 63q-213 131 -213 324q0 195 115 310.5t311 115.5q219 0 332 -111l-125 -141q-65 57 -207 57q-114 0 -183 -62.5t-69 -168.5q0 -82 64 -148t165 -98q199 71 432 188v-194q-59 -31 -110 -51
q60 -84 235 -84h56v-195zM624 1488h-178v178h178v-178z" />
    <glyph glyph-name="uniFED1" unicode="&#x641;" horiz-adv-x="1960" arabic-form="isolated" 
d="M1628 626q-74 -23 -110 -23q-159 0 -266 95.5t-107 275.5q0 149 98 257t219 108q141 0 256 -158.5t115 -392.5q0 -302 -248.5 -445t-785.5 -143q-331 0 -501.5 118t-170.5 349q0 124 43 268l164 -41q-33 -118 -33 -225q0 -133 127.5 -203.5t372.5 -70.5q376 0 571 53.5
t256 177.5zM1655 821q0 119 -59 221t-134 102q-60 0 -101.5 -48t-41.5 -122q0 -79 52.5 -127.5t135.5 -48.5q67 0 148 23zM1485 1605h-178v178h178v-178z" />
    <glyph glyph-name="uniFED2" unicode="&#x641;" horiz-adv-x="1849" arabic-form="final" 
d="M1851 200h-16q-131 0 -270.5 25t-225.5 67q-349 -160 -649 -160q-294 0 -428.5 112.5t-134.5 361.5q0 123 43 268l164 -41q-33 -119 -33 -225q0 -159 95 -220t296 -61q196 0 465 84q-61 41 -102 113.5t-41 142.5q0 142 95.5 240t248.5 98q150 0 247 -98t97 -240
t-152 -246q130 -26 281 -26h20v-195zM1358 479q170 73 170 188q0 59 -48.5 101t-121.5 42q-78 0 -124 -41t-46 -102q0 -111 170 -188zM1440 1271h-178v178h178v-178z" />
    <glyph glyph-name="uniFED3" unicode="&#x641;" horiz-adv-x="954" arabic-form="initial" 
d="M623 626q-75 -23 -111 -23q-159 0 -266 95.5t-107 275.5q0 149 98.5 257t219.5 108q141 0 255.5 -158.5t114.5 -392.5q0 -277 -219.5 -432.5t-609.5 -155.5v195q268 0 412.5 54t212.5 177zM649 821q0 119 -59 221t-133 102q-61 0 -102.5 -48t-41.5 -122q0 -80 53 -128
t136 -48q66 0 147 23zM502 1605h-178v178h178v-178z" />
    <glyph glyph-name="uniFED4" unicode="&#x641;" horiz-adv-x="983" arabic-form="medial" 
d="M985 200h-12q-116 0 -253.5 29.5t-227.5 76.5q-91 -47 -228.5 -76.5t-253.5 -29.5h-12v195h16q122 0 285 30q-68 37 -110 103.5t-42 138.5q0 140 96 239t249 99q150 0 247 -98t97 -240q0 -72 -41.5 -137.5t-110.5 -104.5q134 -30 285 -30h16v-195zM492 483
q170 70 170 184q0 59 -49 101t-121 42q-80 0 -125 -40t-45 -103q0 -108 170 -184zM579 1271h-178v178h178v-178z" />
    <glyph glyph-name="uniFED5" unicode="&#x642;" horiz-adv-x="1638" arabic-form="isolated" 
d="M1321 413q-44 -14 -109 -14q-157 0 -281 101.5t-124 285.5q0 165 101 277t233 112q142 0 256 -170.5t114 -429.5q0 -340 -251.5 -576.5t-655.5 -236.5q-253 0 -393.5 125t-140.5 350q0 131 43 264l163 -41q-32 -107 -32 -221q0 -125 91.5 -204t270.5 -79q270 0 463.5 130
t251.5 327zM1348 612q-8 141 -68 254.5t-129 113.5q-62 0 -111 -56.5t-49 -137.5t64 -137t157 -56q77 0 136 19zM1342 1441h-147v147h147v-147zM1074 1441h-148v147h148v-147z" />
    <glyph glyph-name="uniFED6" unicode="&#x642;" horiz-adv-x="1686" arabic-form="final" 
d="M1688 200h-195q-78 -261 -313.5 -404.5t-565.5 -143.5q-254 0 -394 120t-140 344q0 124 43 268l164 -41q-33 -118 -33 -225q0 -129 94.5 -200t267.5 -71q501 0 695 353h-86q-389 0 -389 328q0 170 107.5 306t234.5 136q146 0 246 -148t100 -403v-24h164v-195zM1350 395
q0 133 -51 256.5t-121 123.5q-58 0 -113 -80.5t-55 -166.5q0 -69 45 -101t159 -32h136zM1333 1193h-147v148h147v-148zM1065 1193h-147v148h147v-148z" />
    <glyph glyph-name="uniFED7" unicode="&#x642;" horiz-adv-x="954" arabic-form="initial" 
d="M623 626q-75 -23 -111 -23q-159 0 -266 95.5t-107 275.5q0 149 98.5 257t219.5 108q141 0 255.5 -158.5t114.5 -392.5q0 -277 -219.5 -432.5t-609.5 -155.5v195q268 0 412.5 54t212.5 177zM649 821q0 119 -59 221t-133 102q-61 0 -102.5 -48t-41.5 -122q0 -80 53 -128
t136 -48q66 0 147 23zM621 1605h-147v147h147v-147zM353 1605h-148v147h148v-147z" />
    <glyph glyph-name="uniFED8" unicode="&#x642;" horiz-adv-x="983" arabic-form="medial" 
d="M985 200h-12q-116 0 -253.5 29.5t-227.5 76.5q-91 -47 -228.5 -76.5t-253.5 -29.5h-12v195h16q122 0 285 30q-68 37 -110 103.5t-42 138.5q0 140 96 239t249 99q150 0 247 -98t97 -240q0 -72 -41.5 -137.5t-110.5 -104.5q134 -30 285 -30h16v-195zM492 483
q170 70 170 184q0 59 -49 101t-121 42q-80 0 -125 -40t-45 -103q0 -108 170 -184zM699 1271h-147v147h147v-147zM431 1271h-148v147h148v-147z" />
    <glyph glyph-name="uniFED9" unicode="&#x643;" horiz-adv-x="1550" arabic-form="isolated" 
d="M1411 849q0 -315 -176.5 -482t-513.5 -167h-51q-256 0 -399.5 105.5t-143.5 300.5q0 89 23 202l163 -41q-12 -72 -12 -159q0 -108 103.5 -160.5t267.5 -52.5h43q256 0 389 114t133 334v823h174v-817zM860 1226q-54 -10 -91.5 -30.5t-37.5 -43.5q0 -22 70 -55
q77 -36 99 -64t22 -59q0 -87 -88 -140t-244 -63v80q117 5 186.5 36.5t69.5 80.5q0 30 -79 68q-72 34 -92 59t-20 53q0 60 56 102t149 56v-80z" />
    <glyph glyph-name="uniFEDA" unicode="&#x643;" horiz-adv-x="1501" arabic-form="final" 
d="M1503 200h-4q-248 0 -309 195q-179 -195 -578 -195q-255 0 -398.5 105.5t-143.5 300.5q0 89 22 202l164 -41q-12 -72 -12 -159q0 -103 96 -158t274 -55q279 0 415 109.5t136 338.5v823h174v-1067q0 -204 152 -204h12v-195zM795 1226q-54 -10 -91.5 -30.5t-37.5 -43.5
q0 -22 70 -55q76 -36 98 -64t22 -59q0 -87 -87.5 -140t-244.5 -63v80q117 5 186.5 36.5t69.5 80.5q0 30 -79 68q-71 34 -91 59t-20 53q0 60 56 102t149 56v-80z" />
    <glyph glyph-name="uniFEDB" unicode="&#x643;" horiz-adv-x="885" arabic-form="initial" 
d="M885 1478l-366 -149q-169 -68 -207 -87t-57 -36.5t-19 -34.5q0 -45 83 -148l181 -216q57 -68 83.5 -131.5t26.5 -127.5q0 -166 -116.5 -257t-315.5 -91h-180v195h182q118 0 187 43.5t69 115.5q0 79 -90 189l-184 220q-54 65 -77.5 113.5t-23.5 100.5q0 81 66 141t196 115
l562 235v-190z" />
    <glyph glyph-name="uniFEDC" unicode="&#x643;" horiz-adv-x="1124" arabic-form="medial" 
d="M1122 200h-65q-100 0 -221 63.5t-240 180.5q-34 -119 -145 -181.5t-273 -62.5h-180v195h182q118 0 187 43.5t69 115.5q0 79 -90 189l-184 220q-54 65 -77.5 113.5t-23.5 100.5q0 81 66 141t196 115l562 235v-190l-366 -149q-169 -68 -207 -87t-57 -36.5t-19 -34.5
q0 -44 55 -113l240 -287q183 -218 302 -297t220 -79h69v-195z" />
    <glyph glyph-name="uniFEDD" unicode="&#x644;" horiz-adv-x="1356" arabic-form="isolated" 
d="M1217 601q0 -358 -164.5 -503.5t-501.5 -145.5q-481 0 -481 406q0 89 22 202l164 -41q-12 -71 -12 -159q0 -115 74 -164t235 -49q254 0 371.5 95t117.5 353v1071h175v-1065z" />
    <glyph glyph-name="uniFEDE" unicode="&#x644;" horiz-adv-x="1378" arabic-form="final" 
d="M1380 200h-4q-102 0 -168 29q-27 -257 -187 -376.5t-470 -119.5q-481 0 -481 406q0 89 22 202l164 -41q-12 -72 -12 -159q0 -110 70.5 -161.5t238.5 -51.5q254 0 371.5 95t117.5 353v1290h175v-1067q0 -204 151 -204h12v-195z" />
    <glyph glyph-name="uniFEDF" unicode="&#x644;" horiz-adv-x="559" arabic-form="initial" 
d="M397 595q0 -195 -101.5 -295t-293.5 -100h-4v195h74q151 0 151 204v1067h174v-1071z" />
    <glyph glyph-name="uniFEE0" unicode="&#x644;" horiz-adv-x="498" arabic-form="medial" 
d="M500 200h-4q-170 0 -248 84q-78 -84 -246 -84h-4v195h12q152 0 152 204v1067h174v-1067q0 -204 151 -204h13v-195z" />
    <glyph glyph-name="uniFEE1" unicode="&#x645;" horiz-adv-x="1206" arabic-form="isolated" 
d="M119 -343v400q0 153 39.5 219t144.5 106q69 27 94 119q65 235 150.5 334.5t214.5 99.5q134 0 225.5 -107.5t91.5 -256.5q0 -180 -106.5 -275.5t-265.5 -95.5q-124 0 -215 80q-33 -38 -116 -70q-41 -16 -56 -39t-21 -58.5t-6 -84.5v-371h-174zM563 452q81 -57 154 -57
q83 0 135.5 48.5t52.5 127.5q0 73 -41 121.5t-102 48.5q-125 0 -199 -289z" />
    <glyph glyph-name="uniFEE2" unicode="&#x645;" horiz-adv-x="1311" arabic-form="final" 
d="M1313 200h-15q-90 0 -165.5 41.5t-110.5 112.5q-49 -77 -134 -115.5t-181 -38.5q-146 0 -211 55q-25 -29 -92 -50q-52 -16 -72 -34.5t-29.5 -54.5t-9.5 -88v-371h-174v385q0 160 41.5 230.5t142.5 109.5q72 28 86 86q59 245 148 356t225 111q100 0 187 -75t118 -193
q72 -272 231 -272h15v-195zM561 429q83 -34 156 -34q83 0 135.5 48.5t52.5 127.5q0 73 -41 121.5t-102 48.5q-65 0 -119 -84.5t-82 -227.5z" />
    <glyph glyph-name="uniFEE3" unicode="&#x645;" horiz-adv-x="985" arabic-form="initial" 
d="M-2 395h43q56 0 90 31.5t55 107.5q61 214 144.5 307.5t210.5 93.5q131 0 224 -105.5t93 -258.5q0 -180 -107 -275.5t-266 -95.5q-135 0 -215 82q-61 -82 -219 -82h-53v195zM342 452q77 -57 154 -57q83 0 135.5 48.5t52.5 127.5q0 73 -41.5 121.5t-101.5 48.5
q-126 0 -199 -289z" />
    <glyph glyph-name="uniFEE4" unicode="&#x645;" horiz-adv-x="1090" arabic-form="medial" 
d="M1092 200h-15q-91 0 -166 41.5t-110 112.5q-49 -77 -134 -115.5t-182 -38.5q-132 0 -215 82q-61 -82 -225 -82h-47v195h43q56 0 90 31.5t55 107.5q61 214 144.5 307.5t210.5 93.5q110 0 191 -72t114 -196q72 -272 231 -272h15v-195zM342 452q77 -57 154 -57
q83 0 135.5 48.5t52.5 127.5q0 73 -41.5 121.5t-101.5 48.5q-124 0 -199 -289z" />
    <glyph glyph-name="uniFEE5" unicode="&#x646;" horiz-adv-x="1417" arabic-form="isolated" 
d="M1262 757q28 -174 28 -317q0 -223 -157 -355.5t-426 -132.5q-267 0 -423.5 133t-156.5 355q0 143 29 317l163 -41q-18 -141 -18 -274q0 -142 104.5 -218.5t303.5 -76.5t303 76.5t104 218.5q0 133 -18 274zM803 961h-178v178h178v-178z" />
    <glyph glyph-name="uniFEE6" unicode="&#x646;" horiz-adv-x="1481" arabic-form="final" 
d="M1483 200h-15q-85 0 -141 47q-8 -237 -171 -375.5t-464 -138.5q-285 0 -448.5 128.5t-163.5 356.5q0 147 43 357l164 -41q-33 -184 -33 -314t111.5 -211t326.5 -81q461 0 461 422q0 36 -8 182l170 43q25 -180 153 -180h15v-195zM799 753h-178v178h178v-178z" />
    <glyph glyph-name="uniFEE7" unicode="&#x646;" horiz-adv-x="565" arabic-form="initial" 
d="M397 595q0 -215 -82 -305t-252 -90h-65v195h74q151 0 151 204v183h174v-187zM340 1050h-178v178h178v-178z" />
    <glyph glyph-name="uniFEE8" unicode="&#x646;" horiz-adv-x="498" arabic-form="medial" 
d="M500 200h-4q-170 0 -248 84q-78 -84 -246 -84h-4v195h12q152 0 152 204v183h174v-183q0 -204 151 -204h13v-195zM340 1050h-178v178h178v-178z" />
    <glyph glyph-name="uniFEE9" unicode="&#x647;" horiz-adv-x="1053" arabic-form="isolated" 
d="M526 1083q400 -200 400 -504q0 -191 -107 -291t-293 -100q-181 0 -290 104t-109 287q0 150 102.5 281.5t296.5 222.5zM752 579q0 96 -65 187.5t-161 144.5q-96 -57 -160.5 -147.5t-64.5 -184.5q0 -197 225 -197q105 0 165.5 50.5t60.5 146.5z" />
    <glyph glyph-name="uniFEEA" unicode="&#x647;" horiz-adv-x="977" arabic-form="final" 
d="M979 200h-4q-145 0 -222.5 63t-105.5 191q-28 -53 -100 -91t-150 -38q-116 0 -193 74t-77 202q0 139 110.5 253t331.5 175l-10 84h174l43 -358q22 -187 31 -224.5t31 -70.5t54 -49t75 -16h12v-195zM586 886q-267 -76 -267 -280q0 -40 31 -64.5t72 -24.5q57 0 122.5 52
t65.5 110q0 13 -24 207z" />
    <glyph glyph-name="uniFEEB" unicode="&#x647;" horiz-adv-x="1405" arabic-form="initial" 
d="M199 1388q133 26 307 26q334 0 553 -173t219 -441q0 -218 -160 -364t-395 -146q-102 0 -199 23q-246 -113 -514 -113h-12v195h16q151 0 277 22q-144 109 -144 262q0 132 96.5 229t248.5 97q151 0 247.5 -95.5t96.5 -236.5q0 -112 -91 -209q170 6 264.5 97t94.5 235
q0 190 -164 307t-434 117q-102 0 -252 -27zM518 489q144 77 144 184q0 58 -48.5 97.5t-121.5 39.5q-78 0 -124 -38.5t-46 -92.5q0 -131 196 -190z" />
    <glyph glyph-name="uniFEEC" unicode="&#x647;" horiz-adv-x="829" arabic-form="medial" 
d="M831 200h-333q107 -31 177 -115t70 -159q0 -126 -67 -200t-176 -74q-128 0 -260.5 171.5t-132.5 380.5q-45 -4 -72 -4h-39v195h33q34 0 92 2q47 266 171.5 419.5t213.5 153.5q92 0 175 -98.5t83 -222.5q0 -82 -72.5 -155.5t-191.5 -98.5h329v-195zM301 405
q125 24 215 96.5t90 147.5q0 50 -34 88t-64 38q-44 0 -111 -102t-96 -268zM586 -74q0 71 -87 158.5t-216 119.5v-14q0 -112 73.5 -227.5t145.5 -115.5q84 0 84 79z" />
    <glyph glyph-name="uniFEED" unicode="&#x648;" horiz-adv-x="963" arabic-form="isolated" 
d="M641 413q-55 -14 -104 -14q-157 0 -281.5 101.5t-124.5 285.5q0 165 101 277t233 112q142 0 256.5 -170.5t114.5 -429.5q0 -206 -118 -394.5t-318.5 -299.5t-424.5 -111q-70 0 -196 14l37 197q89 -17 161 -17q242 0 425 130t239 319zM662 608q-8 142 -68 257t-129 115
q-62 0 -111 -56.5t-49 -137.5t64 -137t157 -56q82 0 136 15z" />
    <glyph glyph-name="uniFEEE" unicode="&#x648;" horiz-adv-x="954" arabic-form="final" 
d="M956 200h-170q-60 -213 -270 -321.5t-547 -108.5q-70 0 -196 14l37 197q89 -17 161 -17q283 0 430 56t193 180h-84q-157 0 -281.5 102t-124.5 285q0 165 101 277t233 112q136 0 249.5 -158.5t121.5 -422.5h147v-195zM635 395q0 155 -58.5 271t-138.5 116
q-62 0 -110.5 -57t-48.5 -138t63.5 -136.5t157.5 -55.5h135z" />
    <glyph glyph-name="uniFEEF" unicode="&#x649;" horiz-adv-x="1497" arabic-form="isolated" 
d="M1391 849l-174 -18q-34 102 -203 102q-77 0 -131 -33.5t-54 -87.5q0 -31 34.5 -65t174.5 -103q211 -105 271.5 -178t60.5 -151q0 -153 -163.5 -258t-499.5 -105q-294 0 -467.5 105.5t-173.5 304.5q0 99 47 235l159 -41q-32 -106 -32 -192q0 -110 106 -163.5t363 -53.5
q241 0 364 48.5t123 123.5q0 38 -38 77t-190 115q-201 100 -257 166t-56 135q0 118 101.5 217t257.5 99q313 0 377 -279z" />
    <glyph glyph-name="uniFEF0" unicode="&#x649;" horiz-adv-x="1624" arabic-form="final" 
d="M1626 205h-6q-43 0 -127 34q-71 29 -102 29q-23 0 -37.5 -12t-14.5 -28q0 -18 49 -87q70 -101 70 -139q0 -125 -215.5 -237.5t-531.5 -112.5q-294 0 -467.5 105.5t-173.5 304.5q0 99 47 235l159 -41q-32 -107 -32 -192q0 -110 106 -163.5t363 -53.5q247 0 409 56t162 124
q0 18 -45 85q-74 109 -74 156q0 77 66 136t160 59q40 0 132 -35q71 -28 97 -28h6v-195z" />
    <glyph glyph-name="uniFEF1" unicode="&#x64a;" horiz-adv-x="1497" arabic-form="isolated" 
d="M1391 849l-174 -18q-34 102 -203 102q-77 0 -131 -33.5t-54 -87.5q0 -31 34.5 -65t174.5 -103q211 -105 271.5 -178t60.5 -151q0 -153 -163.5 -258t-499.5 -105q-294 0 -467.5 105.5t-173.5 304.5q0 99 47 235l159 -41q-32 -106 -32 -192q0 -110 106 -163.5t363 -53.5
q241 0 364 48.5t123 123.5q0 38 -38 77t-190 115q-201 100 -257 166t-56 135q0 118 101.5 217t257.5 99q313 0 377 -279zM1012 -285h-147v147h147v-147zM744 -285h-148v147h148v-147z" />
    <glyph glyph-name="uniFEF2" unicode="&#x64a;" horiz-adv-x="1645" arabic-form="final" 
d="M1647 200h-7q-49 0 -152 89q-73 62 -110 62q-21 0 -30 -9.5t-9 -24.5q0 -21 45 -68q65 -64 65 -124q0 -124 -191.5 -191.5t-551.5 -67.5q-309 0 -472.5 84.5t-163.5 278.5q0 99 47 216l159 -41q-32 -85 -32 -158q0 -94 106 -140t368 -46q280 0 413 26.5t133 64.5
q0 30 -41 69q-68 66 -68 135q0 72 51.5 120.5t139.5 48.5q90 0 188 -78q65 -51 106 -51h7v-195zM951 -348h-127v127h127v-127zM704 -348h-127v127h127v-127z" />
    <glyph glyph-name="uniFEF3" unicode="&#x64a;" horiz-adv-x="559" arabic-form="initial" 
d="M397 595q0 -215 -82 -305t-252 -90h-65v195h74q151 0 151 204v183h174v-187zM447 -85h-147v147h147v-147zM179 -85h-148v147h148v-147z" />
    <glyph glyph-name="uniFEF4" unicode="&#x64a;" horiz-adv-x="498" arabic-form="medial" 
d="M500 200h-4q-170 0 -248 84q-78 -84 -246 -84h-4v195h12q152 0 152 204v183h174v-183q0 -204 151 -204h13v-195zM459 -85h-147v147h147v-147zM191 -85h-148v147h148v-147z" />
    <glyph glyph-name="uniFEF5" unicode="&#xfef5;" horiz-adv-x="1128" arabic-form="isolated" 
d="M971 902q0 -702 -664 -702q-68 0 -170 14l39 195q76 -14 131 -14q177 0 289 55l-580 1071l152 76l557 -1035q72 102 72 281v823h174v-764zM553 1829q-71 -86 -166 -86q-36 0 -135 32q-96 31 -129 31q-64 0 -119 -59l-51 55q70 84 164 84q37 0 137 -32q95 -31 129 -31
q72 0 119 61z" />
    <glyph glyph-name="uniFEF6" unicode="&#xfef6;" horiz-adv-x="1235" arabic-form="final" 
d="M1237 200h-49q-107 0 -198 63t-130 166q-74 -111 -186.5 -170t-241.5 -59q-150 0 -307 61l41 189q55 -24 135.5 -39.5t130.5 -15.5q97 0 164 55l-580 1071l152 76l557 -1035q72 102 72 281v823h174v-888q0 -175 54 -279t159 -104h53v-195zM555 1829q-71 -86 -166 -86
q-36 0 -135 32q-96 31 -129 31q-64 0 -119 -59l-51 55q70 84 164 84q37 0 137 -32q95 -31 129 -31q72 0 119 61z" />
    <glyph glyph-name="uniFEF7" unicode="&#xfef7;" horiz-adv-x="1128" arabic-form="isolated" 
d="M971 902q0 -702 -664 -702q-68 0 -170 14l39 195q76 -14 131 -14q177 0 289 55l-580 1071l152 76l557 -1035q72 102 72 281v823h174v-764zM385 1617l-272 -49v72l59 10q-78 33 -78 109q0 58 37 92.5t98 34.5q122 0 146 -109l-72 -6q-13 37 -72 37q-65 0 -65 -49
q0 -37 38.5 -60.5t96.5 -23.5l84 14v-72z" />
    <glyph glyph-name="uniFEF8" unicode="&#xfef8;" horiz-adv-x="1235" arabic-form="final" 
d="M1237 200h-49q-107 0 -198 63t-130 166q-74 -111 -186.5 -170t-241.5 -59q-150 0 -307 61l41 189q55 -24 135.5 -39.5t130.5 -15.5q97 0 164 55l-580 1071l152 76l557 -1035q72 102 72 281v823h174v-888q0 -175 54 -279t159 -104h53v-195zM385 1617l-272 -49v72l59 10
q-78 33 -78 109q0 58 37 92.5t98 34.5q122 0 146 -109l-72 -6q-13 37 -72 37q-65 0 -65 -49q0 -37 38.5 -60.5t96.5 -23.5l84 14v-72z" />
    <glyph glyph-name="uniFEF9" unicode="&#xfef9;" horiz-adv-x="1128" arabic-form="isolated" 
d="M971 902q0 -702 -664 -702q-68 0 -170 14l39 195q76 -14 131 -14q177 0 289 55l-580 1071l152 76l557 -1035q72 102 72 281v823h174v-764zM429 -207l-272 -49v72l59 10q-78 33 -78 109q0 58 37 92.5t98 34.5q122 0 146 -109l-72 -6q-13 37 -72 37q-65 0 -65 -49
q0 -37 38.5 -60.5t96.5 -23.5l84 14v-72z" />
    <glyph glyph-name="uniFEFA" unicode="&#xfefa;" horiz-adv-x="1235" arabic-form="final" 
d="M1237 200h-49q-107 0 -198 63t-130 166q-74 -111 -186.5 -170t-241.5 -59q-150 0 -307 61l41 189q55 -24 135.5 -39.5t130.5 -15.5q97 0 164 55l-580 1071l152 76l557 -1035q72 102 72 281v823h174v-888q0 -175 54 -279t159 -104h53v-195zM446 -208l-272 -49v72l59 10
q-78 33 -78 109q0 58 37 92.5t98 34.5q122 0 146 -109l-72 -6q-13 37 -72 37q-65 0 -65 -49q0 -37 38.5 -60.5t96.5 -23.5l84 14v-72z" />
    <glyph glyph-name="uniFEFB" unicode="&#xfefb;" horiz-adv-x="1128" arabic-form="isolated" 
d="M971 902q0 -702 -664 -702q-68 0 -170 14l39 195q76 -14 131 -14q177 0 289 55l-580 1071l152 76l557 -1035q72 102 72 281v823h174v-764z" />
    <glyph glyph-name="uniFEFC" unicode="&#xfefc;" horiz-adv-x="1235" arabic-form="final" 
d="M1237 200h-49q-107 0 -198 63t-130 166q-74 -111 -186.5 -170t-241.5 -59q-150 0 -307 61l41 189q55 -24 135.5 -39.5t130.5 -15.5q97 0 164 55l-580 1071l152 76l557 -1035q72 102 72 281v823h174v-888q0 -175 54 -279t159 -104h53v-195z" />
    <glyph glyph-name=".notdef" horiz-adv-x="1024" 
d="M51 0v1536h922v-1536h-922zM179 128h666v1280h-666v-1280z" />
    <glyph glyph-name=".null" horiz-adv-x="0" 
 />
    <glyph glyph-name="nonmarkingreturn" unicode="&#xd;" horiz-adv-x="485" 
 />
    <glyph glyph-name="space" unicode=" " horiz-adv-x="485" 
 />
    <glyph glyph-name="exclam" unicode="!" horiz-adv-x="582" 
d="M193 0q-22 0 -38 16t-16 37v201q0 21 16 37t38 16h196q22 0 37.5 -16t15.5 -37v-201q0 -21 -15.5 -37t-37.5 -16h-196zM442 1499l-34 -1054h-235l-34 1054h303z" />
    <glyph glyph-name="quotedbl" unicode="&#x22;" horiz-adv-x="788" 
d="M335 1583l-49 -524h-156l-49 524h254zM707 1583l-49 -524h-156l-49 524h254z" />
    <glyph glyph-name="numbersign" unicode="#" horiz-adv-x="1153" 
d="M1092 903h-203l-45 -330h194v-135h-215l-61 -438h-176l61 438h-229l-62 -438h-176l62 438h-181v135h201l45 330h-192v135h213l63 451h176l-63 -451h229l64 451h176l-64 -451h183v-135zM713 903h-230l-45 -330h230z" />
    <glyph glyph-name="dollar" unicode="$" horiz-adv-x="928" 
d="M344 31q-67 3 -139 15t-148 34v156q91 -28 165 -42t132 -14q131 0 188.5 49.5t57.5 155.5q0 89 -39.5 146t-206.5 151q-169 96 -227.5 189.5t-58.5 218.5q0 140 69 227t207 121v204h223v-184q65 -4 126.5 -13.5t119.5 -25.5v-155q-74 21 -136 32t-112 11
q-122 0 -174.5 -40t-52.5 -122q0 -84 43 -131.5t166 -114.5q203 -111 263 -211t60 -233q0 -167 -76 -268t-227 -136v-203h-223v183zM467 1489z" />
    <glyph glyph-name="percent" unicode="%" horiz-adv-x="1729" 
d="M377 1495q137 0 214 -96t77 -355q0 -285 -77 -379t-222 -94q-139 0 -215 94t-76 379q0 259 76 355t223 96zM373 672q55 0 71.5 71.5t16.5 300.5q0 223 -17 287t-71 64t-71 -66t-17 -285q0 -236 15.5 -304t72.5 -68zM1384 1489l-809 -1489h-219l809 1489h219zM1360 918
q137 0 214 -96.5t77 -354.5q0 -285 -77 -379t-222 -94q-139 0 -215 94t-76 379q0 258 76 354.5t223 96.5zM1356 94q55 0 71.5 72t16.5 301q0 222 -17 286t-71 64t-71 -65.5t-17 -284.5q0 -237 15.5 -305t72.5 -68z" />
    <glyph glyph-name="ampersand" unicode="&#x26;" horiz-adv-x="1274" 
d="M1227 0h-312l-69 102q-84 -59 -173.5 -88.5t-183.5 -29.5q-207 0 -321.5 106t-114.5 293q0 123 73.5 231.5t221.5 202.5q-74 103 -110.5 194t-36.5 171q0 160 104.5 244.5t302.5 84.5q174 0 264.5 -75.5t90.5 -218.5q0 -103 -57 -187.5t-242 -218.5l256 -369
q34 62 59 137.5t41 163.5l205 -67q-25 -119 -70.5 -222t-112.5 -190zM569 948q79 58 118.5 125.5t39.5 145.5q0 73 -31.5 110t-93.5 37q-66 0 -98.5 -42t-32.5 -126q0 -61 21.5 -115.5t76.5 -134.5zM754 233l-308 445q-58 -55 -87 -122t-29 -146q0 -124 61 -189t150 -65
q54 0 107 19t106 58z" />
    <glyph glyph-name="quotesingle" unicode="'" horiz-adv-x="418" 
d="M336 1583l-49 -524h-156l-49 524h254z" />
    <glyph glyph-name="parenleft" unicode="(" horiz-adv-x="696" 
d="M639 -281q-328 0 -436.5 227.5t-108.5 710.5q0 480 108.5 708t436.5 228v-140q-179 0 -227 -168t-48 -628q0 -462 48.5 -630t226.5 -168v-140z" />
    <glyph glyph-name="parenright" unicode=")" horiz-adv-x="696" 
d="M57 1593q327 0 436 -227.5t109 -710.5q0 -479 -109 -707.5t-436 -228.5v140q177 0 226 169.5t49 626.5q0 459 -49 628.5t-226 169.5v140z" />
    <glyph glyph-name="asterisk" unicode="*" horiz-adv-x="969" 
d="M932 901l-86 -149l-293 186l20 -344h-177l20 344l-293 -186l-86 149l305 160l-305 160l86 149l293 -186l-20 344h177l-20 -344l293 186l86 -149l-305 -160z" />
    <glyph glyph-name="plus" unicode="+" horiz-adv-x="979" 
d="M885 631h-297v-297h-197v297h-297v196h297v297h197v-297h297v-196z" />
    <glyph glyph-name="comma" unicode="," horiz-adv-x="471" 
d="M137 0q-25 0 -39 11t-14 42v201q0 21 16 37t37 16h197q21 0 37 -16t16 -37v-137q0 -128 -55.5 -219.5t-167.5 -161.5l-80 80q69 36 101 82t42 102h-90z" />
    <glyph glyph-name="hyphen" unicode="-" horiz-adv-x="633" 
d="M549 561h-465v225h465v-225z" />
    <glyph glyph-name="hyphen" unicode="&#x2010;" horiz-adv-x="633" 
d="M549 561h-465v225h465v-225z" />
    <glyph glyph-name="period" unicode="." horiz-adv-x="471" 
d="M136 0q-21 0 -37 16t-16 37v198q0 21 16 37t37 16h198q21 0 37 -16t16 -37v-198q0 -21 -16 -37t-37 -16h-198z" />
    <glyph glyph-name="slash" unicode="/" horiz-adv-x="721" 
d="M707 1583l-469 -1864h-224l469 1864h224z" />
    <glyph glyph-name="zero" unicode="0" horiz-adv-x="979" 
d="M496 1499q177 0 263.5 -99t110 -250.5t23.5 -387.5q0 -326 -44 -477.5t-134.5 -222t-231.5 -70.5q-182 0 -269 108.5t-107.5 263.5t-20.5 398q0 415 103 576t307 161zM489 127q89 0 111.5 127t22.5 508q0 260 -9.5 382.5t-37 171t-87.5 48.5q-83 0 -108 -117t-25 -485
q0 -399 23 -517t110 -118z" />
    <glyph glyph-name="one" unicode="1" horiz-adv-x="979" 
d="M907 0h-810v135h270v1125l-270 -60v135l405 154h135v-1354h270v-135z" />
    <glyph glyph-name="two" unicode="2" horiz-adv-x="979" 
d="M889 0h-823v117q0 171 66 313.5t276 327.5q124 111 167 188.5t43 151.5q0 115 -64 185.5t-173 70.5q-87 0 -295 -49v147q196 47 344 47q211 0 335 -106t124 -297q0 -111 -51 -222t-239 -276q-97 -84 -152 -143t-92.5 -138.5t-37.5 -181.5h572v-135z" />
    <glyph glyph-name="three" unicode="3" horiz-adv-x="979" 
d="M612 788q119 -38 178.5 -126.5t59.5 -227.5q0 -227 -114.5 -334.5t-356.5 -107.5q-154 0 -305 45v149q163 -49 272 -49q124 0 175.5 70t51.5 227q0 145 -64 218t-192 73h-131v135h131q118 0 177 64t59 192q0 119 -51 178.5t-152 59.5q-67 0 -241 -45v149q173 41 303 41
q208 0 312.5 -92.5t104.5 -276.5q0 -124 -54.5 -209.5t-162.5 -132.5z" />
    <glyph glyph-name="four" unicode="4" horiz-adv-x="979" 
d="M932 309h-117v-309h-270v309h-522v135l600 1045h192v-1045h117v-135zM545 1078l-346 -634h346v634z" />
    <glyph glyph-name="five" unicode="5" horiz-adv-x="979" 
d="M414 958h42q202 0 310 -119t108 -341q0 -253 -119 -379.5t-356 -126.5q-174 0 -309 43v147q149 -45 275 -45q116 0 174.5 78t58.5 266q0 157 -68.5 235.5t-205.5 78.5q-91 0 -181 -11v705h699v-135h-428v-396z" />
    <glyph glyph-name="six" unicode="6" horiz-adv-x="979" 
d="M356 897q78 72 205 72q174 0 258 -102.5t84 -336.5q0 -281 -99.5 -411.5t-303.5 -130.5q-202 0 -308 136t-106 550q0 430 136.5 627.5t410.5 197.5q91 0 182 -14v-148q-96 17 -168 17q-131 0 -209 -117t-82 -340zM498 133q71 0 103 74t32 313q0 152 -25.5 233t-107.5 81
q-76 0 -110 -64t-34 -227q0 -278 34 -344t108 -66z" />
    <glyph glyph-name="seven" unicode="7" horiz-adv-x="979" 
d="M891 1354q-184 -294 -273 -606.5t-100 -747.5h-276q11 391 111.5 729.5t289.5 624.5h-563v135h811v-135z" />
    <glyph glyph-name="eight" unicode="8" horiz-adv-x="979" 
d="M731 778q96 -47 144.5 -134t48.5 -236q0 -208 -109.5 -312t-327.5 -104q-217 0 -325.5 104t-108.5 312q0 149 46 236.5t145 135.5q-171 101 -171 340q0 189 103.5 284t310.5 95t312 -95t105 -284q0 -247 -173 -342zM487 842q79 0 113 59.5t34 196.5q0 162 -34.5 214
t-116.5 52q-70 0 -105 -67t-35 -201q0 -145 35 -199.5t109 -54.5zM487 127q87 0 126.5 58t39.5 245q0 144 -37.5 210.5t-128.5 66.5q-94 0 -128.5 -65.5t-34.5 -211.5q0 -164 38 -233.5t125 -69.5z" />
    <glyph glyph-name="nine" unicode="9" horiz-adv-x="979" 
d="M622 592q-77 -72 -204 -72q-172 0 -257 112t-85 351q0 248 94 382t313 134q213 0 311.5 -139t98.5 -547q0 -458 -134 -639.5t-407 -181.5q-89 0 -192 14v148q100 -17 186 -17q144 0 207 112t69 343zM479 655q74 0 108.5 63.5t34.5 227.5q0 279 -34 343.5t-105 64.5
t-104 -70.5t-33 -314.5q0 -181 33 -247.5t100 -66.5z" />
    <glyph glyph-name="colon" unicode=":" horiz-adv-x="532" 
d="M168 0q-21 0 -37 16t-16 37v201q0 21 15.5 37t37.5 16h197q21 0 37 -16t16 -37v-201q0 -21 -16 -37t-37 -16h-197zM168 690q-21 0 -37 16t-16 37v201q0 22 16 37.5t37 15.5h197q21 0 37 -15.5t16 -37.5v-201q0 -21 -16 -37t-37 -16h-197z" />
    <glyph glyph-name="semicolon" unicode=";" horiz-adv-x="532" 
d="M168 0q-24 0 -38.5 14t-14.5 39v201q0 21 15.5 37t37.5 16h197q21 0 37 -16t16 -37v-137q0 -128 -54 -219.5t-169 -161.5l-80 80q64 36 99 82t44 102h-90zM168 690q-21 0 -37 16t-16 37v201q0 22 16 37.5t37 15.5h197q21 0 37 -15.5t16 -37.5v-201q0 -21 -16 -37t-37 -16
h-197z" />
    <glyph glyph-name="less" unicode="&#x3c;" horiz-adv-x="979" 
d="M885 291l-791 340v196l791 340v-198l-621 -240l621 -240v-198z" />
    <glyph glyph-name="equal" unicode="=" horiz-adv-x="979" 
d="M885 838h-791v196h791v-196zM885 424h-791v197h791v-197z" />
    <glyph glyph-name="greater" unicode="&#x3e;" horiz-adv-x="979" 
d="M885 631l-791 -340v198l621 240l-621 240v198l791 -340v-196z" />
    <glyph glyph-name="question" unicode="?" horiz-adv-x="795" 
d="M219 0q-22 0 -37.5 15.5t-15.5 37.5v201q0 22 15 37.5t38 15.5h197q21 0 37 -16t16 -37v-201q0 -21 -16 -37t-37 -16h-197zM41 1464q137 37 264 37q223 0 325.5 -84t102.5 -258q0 -109 -36.5 -183.5t-106.5 -158.5q-85 -101 -111 -153t-26 -115v-104h-271v108
q0 76 28 155t144 222q54 65 81.5 122t27.5 107q0 95 -51 146t-146 51q-81 0 -225 -39v147z" />
    <glyph glyph-name="at" unicode="@" horiz-adv-x="1788" 
d="M1350 -135q-221 -49 -422 -49q-457 0 -636 191.5t-179 664.5q0 426 209 630.5t647 204.5q363 0 534.5 -169.5t171.5 -608.5q0 -268 -89 -402t-267 -134q-119 0 -178 46t-76 144q-46 -95 -114 -142.5t-158 -47.5q-146 0 -213.5 93.5t-67.5 282.5q0 266 130.5 411.5
t356.5 145.5h242v-608q0 -121 23.5 -155.5t78.5 -34.5q70 0 97.5 89t27.5 279q0 389 -103.5 527.5t-381.5 138.5q-349 0 -496 -160t-147 -536q0 -288 41.5 -431.5t171 -208.5t403.5 -65q173 0 394 51v-147zM1016 678v313h-51q-105 0 -165.5 -110t-60.5 -306q0 -131 22 -189
t85 -58q70 0 120 96t50 254z" />
    <glyph glyph-name="A" unicode="A" horiz-adv-x="905" 
d="M535 406l-101 700l-133 -700h234zM600 0l-47 270h-277l-55 -270h-207l316 1489h282l273 -1489h-285z" />
    <glyph glyph-name="B" unicode="B" horiz-adv-x="1051" 
d="M754 784q119 -34 179 -122.5t60 -231.5q0 -215 -111.5 -322.5t-334.5 -107.5h-424v1489h409q220 0 321 -89t101 -276q0 -120 -50 -205t-150 -135zM393 842h109q98 0 140 62t42 210q0 126 -42.5 183t-135.5 57h-113v-512zM393 135h123q106 0 156.5 62.5t50.5 228.5
q0 161 -51.5 221t-171.5 60h-107v-572z" />
    <glyph glyph-name="C" unicode="C" horiz-adv-x="776" 
d="M532 -8q-225 0 -331.5 162t-106.5 618q0 428 114.5 577.5t336.5 149.5q93 0 194 -24v-151q-95 24 -176 24q-105 0 -148.5 -107.5t-43.5 -469.5q0 -407 43.5 -518t154.5 -111q71 0 170 33v-157q-106 -26 -207 -26z" />
    <glyph glyph-name="D" unicode="D" horiz-adv-x="1069" 
d="M393 1354v-1219h76q121 0 179.5 121.5t58.5 525.5q0 346 -61 459t-187 113h-66zM123 1489h364q244 0 367 -145.5t123 -559.5q0 -452 -118 -618t-382 -166h-354v1489z" />
    <glyph glyph-name="E" unicode="E" horiz-adv-x="836" 
d="M123 0v1489h676v-135h-406v-473h309v-136h-309v-610h406v-135h-676z" />
    <glyph glyph-name="F" unicode="F" horiz-adv-x="829" 
d="M123 0v1489h676v-135h-406v-533h291v-135h-291v-686h-270z" />
    <glyph glyph-name="G" unicode="G" horiz-adv-x="1036" 
d="M483 -8q-169 0 -254 103.5t-110 263t-25 395.5q0 265 49.5 427t160 240t310.5 78q142 0 279 -41v-158q-162 54 -266 54q-159 0 -207.5 -135.5t-48.5 -436.5q0 -383 26 -514t125 -131q70 0 105 47.5t35 143.5v358h-136v135h406v-821h-135l-37 127q-45 -68 -114.5 -101.5
t-162.5 -33.5z" />
    <glyph glyph-name="H" unicode="H" horiz-adv-x="1077" 
d="M954 0h-270v741h-291v-741h-270v1489h270v-612h291v612h270v-1489z" />
    <glyph glyph-name="I" unicode="I" horiz-adv-x="598" 
d="M29 0v135h135v1219h-135v135h540v-135h-135v-1219h135v-135h-540z" />
    <glyph glyph-name="J" unicode="J" horiz-adv-x="598" 
d="M569 1354h-135v-1344q0 -140 -71.5 -215.5t-204.5 -75.5q-129 0 -228 21v162q81 -19 154 -19q45 0 62.5 29t17.5 92v1350h-135v135h540v-135z" />
    <glyph glyph-name="K" unicode="K" horiz-adv-x="1014" 
d="M1010 0h-305l-312 735v-735h-270v1489h270v-748l359 748h243l-344 -682z" />
    <glyph glyph-name="L" unicode="L" horiz-adv-x="829" 
d="M123 0v1489h270v-1346h406v-143h-676z" />
    <glyph glyph-name="M" unicode="M" horiz-adv-x="1327" 
d="M1203 0h-270v645q0 126 4 260l-209 -381h-130l-209 381q4 -122 4 -260v-645h-270v1489h135l405 -729l405 729h135v-1489z" />
    <glyph glyph-name="N" unicode="N" horiz-adv-x="1171" 
d="M904 0l-515 911q4 -82 4 -194v-717h-270v1489h145l515 -911q-4 88 -4 190v721h270v-1489h-145z" />
    <glyph glyph-name="O" unicode="O" horiz-adv-x="1094" 
d="M549 135q103 0 139.5 96t36.5 529q0 335 -29.5 464.5t-152.5 129.5q-117 0 -145.5 -122t-28.5 -472q0 -377 32 -501t148 -124zM541 -10q-203 0 -300.5 99.5t-123 254t-25.5 406.5q0 235 26.5 389.5t125 257t299.5 102.5q207 0 307 -97.5t125.5 -247t25.5 -390.5
q0 -262 -25.5 -418.5t-125.5 -256t-309 -99.5z" />
    <glyph glyph-name="P" unicode="P" horiz-adv-x="1001" 
d="M393 1354v-697h68q107 0 160 79t53 280q0 212 -53.5 275t-159.5 63h-68zM123 1489h356q252 0 358.5 -108t106.5 -365q0 -259 -111.5 -376.5t-353.5 -117.5h-86v-522h-270v1489z" />
    <glyph glyph-name="Q" unicode="Q" horiz-adv-x="1094" 
d="M549 135q103 0 139.5 96t36.5 529q0 335 -29.5 464.5t-152.5 129.5q-117 0 -145.5 -122t-28.5 -472q0 -377 32 -501t148 -124zM406 4q-142 33 -210 137t-86 245.5t-18 363.5q0 235 26.5 389.5t125 257t299.5 102.5q207 0 307 -97.5t125.5 -247t25.5 -390.5
q0 -231 -18 -374.5t-88.5 -248t-216.5 -137.5q22 -103 127 -115v-159q-198 0 -289.5 62t-109.5 212z" />
    <glyph glyph-name="R" unicode="R" horiz-adv-x="1024" 
d="M1012 0h-310l-251 629h-58v-629h-270v1489h377q248 0 346 -97.5t98 -324.5q0 -157 -57 -257.5t-170 -143.5zM393 764h96q93 0 139 64.5t46 238.5q0 163 -45.5 225t-139.5 62h-96v-590z" />
    <glyph glyph-name="S" unicode="S" horiz-adv-x="915" 
d="M360 -12q-128 0 -311 51v158q189 -54 289 -54q127 0 190.5 56t63.5 168q0 103 -48.5 168t-197.5 155q-161 100 -224 199t-63 225q0 202 127.5 293.5t335.5 91.5q140 0 283 -39v-155q-136 38 -238 38q-119 0 -178 -45t-59 -135q0 -72 37 -128t172 -142
q115 -75 179.5 -130.5t104 -135t39.5 -195.5q0 -222 -125.5 -333t-376.5 -111z" />
    <glyph glyph-name="T" unicode="T" horiz-adv-x="969" 
d="M349 0v1337h-318v152h907v-152h-318v-1337h-271z" />
    <glyph glyph-name="U" unicode="U" horiz-adv-x="1069" 
d="M535 -10q-208 0 -312 100.5t-104 302.5v1096h270v-1149q0 -105 33.5 -155t112.5 -50q76 0 110.5 50t34.5 155v1149h270v-1096q0 -202 -104 -302.5t-311 -100.5z" />
    <glyph glyph-name="V" unicode="V" horiz-adv-x="909" 
d="M293 0l-273 1489h287l164 -1077l209 1077h211l-318 -1489h-280z" />
    <glyph glyph-name="W" unicode="W" horiz-adv-x="1579" 
d="M262 0l-239 1489h286l146 -1075l227 1075h289l188 -1079l184 1079h220l-287 -1489h-285l-200 1104l-250 -1104h-279z" />
    <glyph glyph-name="X" unicode="X" horiz-adv-x="1006" 
d="M8 0l352 764l-313 725h311l189 -461l194 461h217l-307 -680l346 -809h-311l-221 547l-240 -547h-217z" />
    <glyph glyph-name="Y" unicode="Y" horiz-adv-x="911" 
d="M305 0v461l-295 1028h297l174 -721l211 721h211l-328 -1022v-467h-270z" />
    <glyph glyph-name="Z" unicode="Z" horiz-adv-x="831" 
d="M39 0v135l442 1202h-430v152h733v-135l-444 -1202h453v-152h-754z" />
    <glyph glyph-name="bracketleft" unicode="[" horiz-adv-x="672" 
d="M613 -270h-490v1853h490v-135h-220v-1583h220v-135z" />
    <glyph glyph-name="backslash" unicode="\" horiz-adv-x="721" 
d="M707 -281h-224l-469 1864h224z" />
    <glyph glyph-name="bracketright" unicode="]" horiz-adv-x="672" 
d="M549 -270h-490v135h220v1583h-220v135h490v-1853z" />
    <glyph glyph-name="asciicircum" unicode="^" horiz-adv-x="979" 
d="M889 803h-206l-194 485l-194 -485h-206l294 686h212z" />
    <glyph glyph-name="underscore" unicode="_" horiz-adv-x="762" 
d="M768 -270h-772v135h772v-135z" />
    <glyph glyph-name="grave" unicode="`" horiz-adv-x="682" 
d="M541 1292h-187l-266 328h250z" />
    <glyph glyph-name="a" unicode="a" horiz-adv-x="967" 
d="M586 612h-47q-106 0 -158.5 -63t-52.5 -189q0 -109 26 -167t92 -58q73 0 106.5 49.5t33.5 163.5v264zM676 154q-38 -82 -114 -123t-189 -41q-155 0 -232.5 92t-77.5 276q0 188 119.5 289t325.5 101h78v114q0 114 -37 162.5t-121 48.5q-135 0 -287 -51v154q155 53 332 53
q191 0 287 -92.5t96 -276.5v-860h-135z" />
    <glyph glyph-name="b" unicode="b" horiz-adv-x="1026" 
d="M373 641q0 -277 27 -390.5t128 -113.5q100 0 122 138.5t22 359.5q0 240 -33 344t-119 104q-88 0 -117.5 -92.5t-29.5 -349.5zM387 1171q84 58 195 58q193 0 276.5 -143.5t83.5 -446.5q0 -219 -37 -361.5t-117.5 -214t-224.5 -71.5q-166 0 -272 141l-39 -133h-135v1583
h270v-412z" />
    <glyph glyph-name="c" unicode="c" horiz-adv-x="764" 
d="M487 -10q-202 0 -302.5 157t-100.5 471q0 305 111 458t333 153q120 0 195 -25v-149q-92 28 -166 28q-109 0 -156 -113t-47 -352q0 -237 49.5 -355t149.5 -118q83 0 170 29v-158q-84 -26 -236 -26z" />
    <glyph glyph-name="d" unicode="d" horiz-adv-x="1026" 
d="M653 578q0 299 -30.5 401t-124.5 102q-77 0 -110.5 -90t-33.5 -397q0 -227 28.5 -343t125.5 -116q89 0 117 98t28 345zM733 143q-116 -153 -289 -153q-192 0 -276 143.5t-84 446.5q0 330 86 488.5t295 158.5q97 0 174 -51v407h270v-1583h-135z" />
    <glyph glyph-name="e" unicode="e" horiz-adv-x="938" 
d="M84 618q0 305 104.5 458t313.5 153q193 0 275.5 -128t82.5 -470v-70h-506q5 -207 53 -311.5t164 -104.5q87 0 246 50v-154q-115 -51 -293 -51q-235 0 -337.5 154t-102.5 474zM354 696h260q0 198 -17.5 298t-100.5 100q-77 0 -107.5 -96t-34.5 -302z" />
    <glyph glyph-name="f" unicode="f" horiz-adv-x="610" 
d="M692 1407q-93 33 -162 33q-51 0 -79.5 -38t-28.5 -108v-75h184v-136h-184v-1083h-270v1083h-136v136h136v36q0 160 78.5 250t236.5 90q119 0 225 -34v-154z" />
    <glyph glyph-name="g" unicode="g" horiz-adv-x="1026" 
d="M653 657q0 271 -34 348.5t-115 77.5q-79 0 -114.5 -68.5t-35.5 -357.5q0 -219 32 -325.5t114 -106.5q91 0 122 101.5t31 330.5zM639 145q-89 -65 -213 -65q-190 0 -266 141.5t-76 435.5q0 286 99.5 429t299.5 143q81 0 144.5 -34t109.5 -101l37 125h135v-1102
q0 -196 -104.5 -297t-306.5 -101q-80 0 -171 13.5t-192 40.5v164q104 -27 185 -40.5t139 -13.5q96 0 138 44t42 157v61z" />
    <glyph glyph-name="h" unicode="h" horiz-adv-x="1038" 
d="M387 1155q88 74 201 74q175 0 257.5 -91t82.5 -286v-852h-271v889q0 104 -29.5 149t-92.5 45q-74 0 -111 -53.5t-37 -159.5v-870h-270v1583h270v-428z" />
    <glyph glyph-name="i" unicode="i" horiz-adv-x="504" 
d="M117 0v1219h270v-1219h-270zM170 1315q-21 0 -37 16t-16 37v164q0 21 15.5 37t37.5 16h164q21 0 37 -16t16 -37v-164q0 -21 -16 -37t-37 -16h-164z" />
    <glyph glyph-name="j" unicode="j" horiz-adv-x="504" 
d="M117 4v1215h270v-1209q0 -151 -76.5 -221t-199.5 -70q-114 0 -228 21v162q94 -19 156 -19q39 0 58.5 30.5t19.5 90.5zM170 1315q-21 0 -37 16t-16 37v164q0 21 15.5 37t37.5 16h164q21 0 37 -16t16 -37v-164q0 -21 -16 -37t-37 -16h-164z" />
    <glyph glyph-name="k" unicode="k" horiz-adv-x="948" 
d="M942 0h-297l-264 647v-647h-270v1583h270v-924l315 560h238l-291 -498z" />
    <glyph glyph-name="l" unicode="l" horiz-adv-x="504" 
d="M117 0v1583h270v-1583h-270z" />
    <glyph glyph-name="m" unicode="m" horiz-adv-x="1581" 
d="M865 1112q48 58 114 87.5t152 29.5q168 0 252.5 -90t84.5 -269v-870h-270v887q0 104 -29.5 150t-93.5 46q-73 0 -109.5 -57t-36.5 -170v-856h-271v887q0 106 -29 151t-91 45q-75 0 -112.5 -56.5t-37.5 -168.5v-858h-270v1219h135l43 -152q47 81 121 121.5t174 40.5
q97 0 165 -29.5t109 -87.5z" />
    <glyph glyph-name="n" unicode="n" horiz-adv-x="1038" 
d="M295 1067q94 162 295 162q169 0 253.5 -90t84.5 -269v-870h-271v889q0 103 -28.5 148.5t-89.5 45.5q-79 0 -115.5 -56t-36.5 -175v-852h-270v1219h135z" />
    <glyph glyph-name="o" unicode="o" horiz-adv-x="1030" 
d="M514 1229q222 0 327 -147t105 -443q0 -340 -97.5 -494.5t-334.5 -154.5q-239 0 -334.5 154t-95.5 495q0 297 104 443.5t326 146.5zM514 135q87 0 121.5 93.5t34.5 410.5q0 250 -35 347t-121 97q-90 0 -122 -103t-32 -341q0 -323 34.5 -413.5t119.5 -90.5z" />
    <glyph glyph-name="p" unicode="p" horiz-adv-x="1026" 
d="M373 657q0 -332 32.5 -426t126.5 -94q73 0 106.5 93t33.5 401q0 225 -29.5 338.5t-124.5 113.5q-90 0 -117.5 -100.5t-27.5 -325.5zM295 1069q100 160 285 160q204 0 283 -152.5t79 -472.5q0 -229 -46.5 -364.5t-129 -191.5t-197.5 -56q-107 0 -182 51v-313h-270v1489
h135z" />
    <glyph glyph-name="q" unicode="q" horiz-adv-x="1026" 
d="M653 578q0 287 -32 395t-123 108q-100 0 -122 -138t-22 -359q0 -246 34 -347.5t118 -101.5q88 0 117.5 93t29.5 350zM639 47q-84 -57 -195 -57q-193 0 -276.5 143.5t-83.5 446.5q0 219 37 361.5t117.5 214t224.5 71.5q166 0 272 -142l39 134h135v-1489h-270v317z" />
    <glyph glyph-name="r" unicode="r" horiz-adv-x="711" 
d="M117 0v1219h135l53 -195q44 102 112.5 151.5t190.5 49.5q29 0 76 -6v-224q-63 15 -145 15q-81 0 -116.5 -42.5t-35.5 -133.5v-834h-270z" />
    <glyph glyph-name="s" unicode="s" horiz-adv-x="801" 
d="M330 -10q-68 0 -139.5 11t-147.5 34v153q81 -27 149 -40t123 -13q87 0 130.5 41t43.5 123q0 58 -35.5 110.5t-164.5 127.5q-134 76 -180 155t-46 180q0 182 116.5 269.5t293.5 87.5q142 0 248 -35v-150q-113 39 -213 39q-87 0 -130.5 -39.5t-43.5 -117.5q0 -73 41 -114.5
t137 -96.5q85 -50 133.5 -89t81.5 -103.5t33 -162.5q0 -203 -114.5 -286.5t-315.5 -83.5z" />
    <glyph glyph-name="t" unicode="t" horiz-adv-x="694" 
d="M424 -10q-146 0 -211.5 69.5t-65.5 214.5v809h-135v97l346 309h60v-270h252v-136h-252v-782q0 -80 24 -118t90 -38q59 0 156 23v-143q-141 -35 -264 -35z" />
    <glyph glyph-name="u" unicode="u" horiz-adv-x="1038" 
d="M743 152q-47 -81 -120.5 -121.5t-173.5 -40.5q-169 0 -253.5 89.5t-84.5 268.5v871h270v-889q0 -103 28.5 -149t90.5 -46q78 0 114.5 56t36.5 176v852h271v-1219h-136z" />
    <glyph glyph-name="v" unicode="v" horiz-adv-x="907" 
d="M293 0l-279 1219h283l176 -947l209 947h217l-324 -1219h-282z" />
    <glyph glyph-name="w" unicode="w" horiz-adv-x="1581" 
d="M279 0l-265 1219h283l164 -934l221 934h291l188 -930l195 930h217l-311 -1219h-271l-196 922l-236 -922h-280z" />
    <glyph glyph-name="x" unicode="x" horiz-adv-x="961" 
d="M6 0l342 586l-323 633h294l191 -410l209 410h215l-316 -578l336 -641h-295l-200 420l-238 -420h-215z" />
    <glyph glyph-name="y" unicode="y" horiz-adv-x="907" 
d="M270 78l-256 1141h283l176 -947l209 947h217l-326 -1252q-32 -124 -105 -186t-187 -62q-115 0 -207 23v162q94 -21 190 -21q55 0 87 33.5t52 161.5h-133z" />
    <glyph glyph-name="z" unicode="z" horiz-adv-x="844" 
d="M35 0v135l444 932h-405v152h714v-136l-444 -931h465v-152h-774z" />
    <glyph glyph-name="braceleft" unicode="{" horiz-adv-x="741" 
d="M683 -270h-220q-114 0 -182 73.5t-68 202.5v412q0 77 -38 119.5t-114 51.5v136q76 9 114 52t38 120v410q0 132 69 204t181 72h220v-135h-75q-63 0 -94 -36.5t-31 -108.5v-390q0 -99 -43 -163t-129 -93q86 -29 129 -93t43 -163v-391q0 -72 31 -108.5t94 -36.5h75v-135z
" />
    <glyph glyph-name="bar" unicode="|" horiz-adv-x="672" 
d="M446 -281h-221v1864h221v-1864z" />
    <glyph glyph-name="braceright" unicode="}" horiz-adv-x="741" 
d="M680 589q-76 -9 -114 -52.5t-38 -120.5v-410q0 -132 -69 -204t-180 -72h-221v135h75q62 0 93.5 36.5t31.5 108.5v391q0 99 43 163t129 93q-86 29 -129 93t-43 163v390q0 72 -31.5 108.5t-93.5 36.5h-75v135h221q113 0 181 -73.5t68 -202.5v-412q0 -78 38 -120t114 -50
v-136z" />
    <glyph glyph-name="asciitilde" unicode="~" horiz-adv-x="979" 
d="M928 742q-68 -136 -129.5 -175t-114.5 -39q-37 0 -81 19.5t-130 89.5q-63 51 -99.5 70.5t-72.5 19.5q-57 0 -109 -50.5t-99 -148.5l-42 188q65 126 124.5 170t131.5 44q49 0 92 -23t111 -80q56 -48 100 -72t76 -24q58 0 108 50.5t92 148.5z" />
    <glyph glyph-name="uni00A0" unicode="&#xa0;" horiz-adv-x="485" 
 />
    <glyph glyph-name="exclamdown" unicode="&#xa1;" horiz-adv-x="582" 
d="M442 965q0 -22 -15.5 -38t-37.5 -16h-196q-23 0 -38.5 16t-15.5 38v200q0 22 15.5 38t38.5 16h196q22 0 37.5 -16t15.5 -38v-200zM442 -281h-303l34 1054h235z" />
    <glyph glyph-name="cent" unicode="&#xa2;" horiz-adv-x="764" 
d="M723 57q-55 -17 -119 -22v-187h-219v195q-151 39 -226 183t-75 392q0 229 75 366t226 183v205h219v-186q68 -6 119 -23v-149q-92 28 -166 28q-105 0 -154 -105t-49 -319q0 -216 49.5 -324t149.5 -108q83 0 170 29v-158z" />
    <glyph glyph-name="sterling" unicode="&#xa3;" horiz-adv-x="932" 
d="M889 0h-838v135q87 15 130.5 95.5t43.5 226.5v243h-157v136h157v206q0 232 101.5 344.5t312.5 112.5q98 0 215 -22v-152q-95 29 -154 29q-119 0 -161.5 -62t-42.5 -263v-193h274v-136h-274v-208q0 -112 -36.5 -197t-109.5 -143h539v-152z" />
    <glyph glyph-name="currency" unicode="&#xa4;" horiz-adv-x="979" 
d="M855 456l-94 -94l-99 101q-79 -55 -173 -55q-93 0 -172 55l-101 -101l-92 94l99 101q-53 81 -53 172q0 92 53 172l-99 102l94 94l99 -102q84 56 172 56q89 0 173 -56l99 102l94 -94l-99 -102q53 -80 53 -172q0 -91 -53 -172zM489 563q70 0 119 49t49 117q0 69 -49 117.5
t-119 48.5q-69 0 -118 -48.5t-49 -117.5t49 -117.5t118 -48.5z" />
    <glyph glyph-name="yen" unicode="&#xa5;" horiz-adv-x="971" 
d="M936 1489l-236 -739h204v-136h-247l-49 -151v-21h296v-136h-296v-306h-270v306h-296v136h296v15l-45 157h-251v136h212l-211 739h297l174 -713l211 713h211z" />
    <glyph glyph-name="brokenbar" unicode="&#xa6;" horiz-adv-x="672" 
d="M446 819h-221v764h221v-764zM446 -281h-221v764h221v-764z" />
    <glyph glyph-name="section" unicode="&#xa7;" horiz-adv-x="952" 
d="M393 -223q-170 0 -344 47v156q203 -58 311 -58q140 0 189 36t49 110q0 80 -42.5 120.5t-166.5 90.5q-212 85 -261.5 158.5t-49.5 185.5q0 97 50 171t151 126q-90 47 -134.5 111t-44.5 145q0 156 117.5 239.5t325.5 83.5q160 0 307 -39v-155q-176 49 -270 49
q-105 0 -157 -32.5t-52 -96.5t34.5 -101t157.5 -88q224 -90 276 -169.5t52 -196.5q0 -184 -164 -299q76 -44 108.5 -101.5t32.5 -146.5q0 -175 -116 -260.5t-359 -85.5zM553 455q102 71 102 170q0 87 -43.5 129t-162.5 88q-136 -69 -136 -178q0 -76 45.5 -114.5t194.5 -94.5
z" />
    <glyph glyph-name="dieresis" unicode="&#xa8;" horiz-adv-x="682" 
d="M637 1386q0 -21 -16 -37t-37 -16h-127q-23 0 -38.5 16t-15.5 37v127q0 22 15.5 38t36.5 16h127q22 0 38.5 -16t16.5 -38v-127zM263 1345q-16 -12 -36 -12h-127q-22 0 -38.5 16t-16.5 37v127q0 22 16 38t37 16h127q23 0 38.5 -16t15.5 -38v-127q0 -29 -16 -41z" />
    <glyph glyph-name="copyright" unicode="&#xa9;" horiz-adv-x="1765" 
d="M883 1509q343 0 571.5 -228.5t228.5 -573.5q0 -347 -228 -575t-572 -228q-343 0 -572 227t-229 576q0 345 229 573.5t572 228.5zM883 49q278 0 463.5 185.5t185.5 472.5q0 283 -184 470t-465 187q-284 0 -467 -188t-183 -469q0 -286 184 -472t466 -186zM1122 227
q-88 -24 -188 -24q-214 0 -321 128.5t-107 385.5q0 245 109 368t327 123q68 0 180 -28v-140q-95 33 -161 33q-129 0 -181.5 -69.5t-52.5 -284.5q0 -253 56.5 -317t181.5 -64q68 0 157 24v-135z" />
    <glyph glyph-name="ordfeminine" unicode="&#xaa;" horiz-adv-x="819" 
d="M698 715h-137l-24 98q-46 -56 -100.5 -83.5t-117.5 -27.5q-119 0 -178 58.5t-59 175.5q0 122 79 188t322 66v74q0 71 -23 96.5t-100 25.5q-65 0 -210 -40v124q150 37 268 37q140 0 210 -63.5t70 -190.5v-538zM483 985v100h-32q-86 0 -120 -31.5t-34 -115.5
q0 -57 20.5 -85t61.5 -28q54 0 79 37t25 123zM719 457h-631v135h631v-135z" />
    <glyph glyph-name="guillemotleft" unicode="&#xab;" horiz-adv-x="1036" 
d="M571 151h-212l-283 410v108l283 410h212l-257 -464zM986 151h-212l-283 410v108l283 410h212l-257 -464z" />
    <glyph glyph-name="logicalnot" unicode="&#xac;" horiz-adv-x="979" 
d="M885 446h-197v338h-594v197h791v-535z" />
    <glyph glyph-name="uni00AD" unicode="&#xad;" horiz-adv-x="633" 
d="M549 561h-465v225h465v-225z" />
    <glyph glyph-name="registered" unicode="&#xae;" horiz-adv-x="1765" 
d="M883 1509q343 0 571.5 -228.5t228.5 -573.5q0 -347 -228 -575t-572 -228q-343 0 -572 227t-229 576q0 345 229 573.5t572 228.5zM883 49q278 0 463.5 185.5t185.5 472.5q0 283 -184 470t-465 187q-284 0 -467 -188t-183 -469q0 -286 184 -472t466 -186zM1276 219h-232
l-219 402h-45v-402h-209v975h328q160 0 240 -67.5t80 -202.5q0 -202 -197 -279zM780 748h74q83 0 120.5 37.5t37.5 140.5q0 77 -31.5 111t-114.5 34h-86v-323z" />
    <glyph glyph-name="uni00AF" unicode="&#xaf;" horiz-adv-x="762" 
d="M768 1625h-772v135h772v-135z" />
    <glyph glyph-name="degree" unicode="&#xb0;" horiz-adv-x="834" 
d="M410 1507q144 0 237.5 -91.5t93.5 -235.5q0 -147 -95 -238.5t-236 -91.5t-233.5 93t-92.5 239q0 142 91 233.5t235 91.5zM412 975q84 0 141 58t57 147q0 88 -56 146t-142 58q-87 0 -143 -58.5t-56 -145.5q0 -89 57 -147t142 -58z" />
    <glyph glyph-name="plusminus" unicode="&#xb1;" horiz-adv-x="979" 
d="M885 807h-297v-309h-197v309h-297v197h297v309h197v-309h297v-197zM885 174h-791v197h791v-197z" />
    <glyph glyph-name="twosuperior" unicode="&#xb2;" horiz-adv-x="745" 
d="M666 578h-605v77q0 89 41.5 178t198.5 209q104 80 130 122t26 81q0 66 -43.5 105t-118.5 39q-76 0 -219 -29v106q139 29 254 29q154 0 244 -65.5t90 -184.5q0 -69 -37.5 -137.5t-179.5 -174.5q-124 -94 -155 -145.5t-34 -111.5h408v-98z" />
    <glyph glyph-name="threesuperior" unicode="&#xb3;" horiz-adv-x="745" 
d="M477 1061q77 -27 115.5 -81.5t38.5 -137.5q0 -136 -84.5 -203.5t-253.5 -67.5q-111 0 -238 35v109q144 -37 207 -37q86 0 120 39.5t34 130.5q0 83 -43.5 124.5t-130.5 41.5h-103v98h103q79 0 119 36t40 109q0 66 -34.5 99t-102.5 33q-59 0 -180 -27v108q117 25 225 25
q152 0 228.5 -57.5t76.5 -171.5q0 -72 -34.5 -123.5t-102.5 -81.5z" />
    <glyph glyph-name="acute" unicode="&#xb4;" horiz-adv-x="682" 
d="M594 1620l-266 -328h-187l203 328h250z" />
    <glyph glyph-name="uni00B5" unicode="&#xb5;" horiz-adv-x="1044" 
d="M928 0h-135l-43 152q-47 -80 -120.5 -120t-174.5 -40h-68v-262h-270v1489h270v-897q0 -111 27.5 -153t92.5 -42q75 0 112.5 60t37.5 180v852h271v-1219z" />
    <glyph glyph-name="paragraph" unicode="&#xb6;" horiz-adv-x="1200" 
d="M1147 1337h-154v-1618h-145v1618h-205v-1618h-145v1022q-213 0 -319.5 92t-106.5 277q0 192 106.5 285.5t333.5 93.5h635v-152z" />
    <glyph glyph-name="uni00B7" unicode="&#xb7;" horiz-adv-x="524" 
d="M383 580h-242v276h242v-276z" />
    <glyph glyph-name="cedilla" unicode="&#xb8;" horiz-adv-x="682" 
d="M346 0q70 3 112 -28.5t42 -84.5q0 -88 -79.5 -133.5t-238.5 -48.5v105q97 3 135.5 20.5t38.5 54.5t-24 55t-96 19l6 70h104v-29z" />
    <glyph glyph-name="onesuperior" unicode="&#xb9;" horiz-adv-x="745" 
d="M684 578h-596v98h195v657l-195 -35v97l297 94h107v-813h192v-98z" />
    <glyph glyph-name="ordmasculine" unicode="&#xba;" horiz-adv-x="852" 
d="M428 1507q169 0 253.5 -98.5t84.5 -294.5q0 -216 -82 -314t-256 -98q-172 0 -257 101t-85 315q0 190 86.5 289.5t255.5 99.5zM428 819q60 0 90.5 48t30.5 255q0 165 -29.5 218t-93.5 53q-63 0 -92 -54t-29 -217q0 -201 30.5 -252t92.5 -51zM766 457h-680v135h680v-135z
" />
    <glyph glyph-name="guillemotright" unicode="&#xbb;" horiz-adv-x="1036" 
d="M545 562l-283 -410h-212l257 464l-257 464h212l283 -410v-108zM961 562l-283 -410h-212l257 464l-257 464h212l283 -410v-108z" />
    <glyph glyph-name="onequarter" unicode="&#xbc;" horiz-adv-x="1667" 
d="M675 578h-596v98h195v657l-195 -35v97l297 94h107v-813h192v-98zM1413 1489l-809 -1489h-219l809 1489h219zM1608 187h-84v-186h-208v186h-373v92l432 633h149v-627h84v-98zM1316 285v342l-224 -342h224z" />
    <glyph glyph-name="onehalf" unicode="&#xbd;" horiz-adv-x="1729" 
d="M665 578h-596v98h195v657l-195 -35v97l297 94h107v-813h192v-98zM1394 1489l-809 -1489h-219l809 1489h219zM1669 1h-605v77q0 89 41.5 178t198.5 209q104 80 130 122t26 81q0 66 -43.5 105t-118.5 39q-76 0 -219 -29v106q139 29 254 29q154 0 244 -65.5t90 -184.5
q0 -69 -37.5 -137.5t-179.5 -174.5q-124 -94 -155 -145.5t-34 -111.5h408v-98z" />
    <glyph glyph-name="threequarters" unicode="&#xbe;" horiz-adv-x="1667" 
d="M477 1061q77 -27 115.5 -81.5t38.5 -137.5q0 -136 -84.5 -203.5t-253.5 -67.5q-111 0 -238 35v109q144 -37 207 -37q86 0 120 39.5t34 130.5q0 83 -43.5 124.5t-130.5 41.5h-103v98h103q79 0 119 36t40 109q0 66 -34.5 99t-102.5 33q-59 0 -180 -27v108q117 25 225 25
q152 0 228.5 -57.5t76.5 -171.5q0 -72 -34.5 -123.5t-102.5 -81.5zM1384 1489l-809 -1489h-219l809 1489h219zM1607 187h-84v-186h-208v186h-373v92l432 633h149v-627h84v-98zM1315 285v342l-224 -342h224z" />
    <glyph glyph-name="questiondown" unicode="&#xbf;" horiz-adv-x="795" 
d="M575 1219q23 0 38.5 -16t15.5 -38v-200q0 -22 -15.5 -38t-38.5 -16h-196q-22 0 -37.5 16t-15.5 38v200q0 22 15.5 38t37.5 16h196zM754 -246q-138 -37 -265 -37q-221 0 -324 84.5t-103 257.5q0 109 36.5 184t106.5 158q85 102 111 153.5t26 115.5v103h271v-107
q0 -76 -27.5 -155t-145.5 -222q-55 -65 -81.5 -122.5t-26.5 -107.5q0 -95 50.5 -146t145.5 -51q81 0 226 39v-147z" />
    <glyph glyph-name="Agrave" unicode="&#xc0;" horiz-adv-x="905" 
d="M535 406l-101 700l-133 -700h234zM600 0l-47 270h-277l-55 -270h-207l316 1489h282l273 -1489h-285zM625 1558h-187l-266 328h250z" />
    <glyph glyph-name="Aacute" unicode="&#xc1;" horiz-adv-x="905" 
d="M535 406l-101 700l-133 -700h234zM600 0l-47 270h-277l-55 -270h-207l316 1489h282l273 -1489h-285zM764 1886l-266 -328h-187l203 328h250z" />
    <glyph glyph-name="Acircumflex" unicode="&#xc2;" horiz-adv-x="905" 
d="M535 406l-101 700l-133 -700h234zM600 0l-47 270h-277l-55 -270h-207l316 1489h282l273 -1489h-285zM796 1537h-178l-147 189l-147 -189h-178l200 312h250z" />
    <glyph glyph-name="Atilde" unicode="&#xc3;" horiz-adv-x="905" 
d="M535 406l-101 700l-133 -700h234zM600 0l-47 270h-277l-55 -270h-207l316 1489h282l273 -1489h-285zM801 1774q0 -93 -54 -153t-149 -60t-170 59q-60 57 -98 57q-39 0 -58.5 -21t-19.5 -67v-28h-127v63q0 95 56.5 150t152.5 55q77 0 158 -59q66 -57 108 -57
q37 0 55.5 18.5t18.5 58.5v39h127v-55z" />
    <glyph glyph-name="Adieresis" unicode="&#xc4;" horiz-adv-x="905" 
d="M535 406l-101 700l-133 -700h234zM600 0l-47 270h-277l-55 -270h-207l316 1489h282l273 -1489h-285zM764 1631q0 -21 -16 -37t-37 -16h-127q-23 0 -38.5 16t-15.5 37v127q0 22 15.5 38t36.5 16h127q22 0 38.5 -16t16.5 -38v-127zM390 1590q-16 -12 -36 -12h-127
q-22 0 -38.5 16t-16.5 37v127q0 22 16 38t37 16h127q23 0 38.5 -16t15.5 -38v-127q0 -29 -16 -41z" />
    <glyph glyph-name="Aring" unicode="&#xc5;" horiz-adv-x="905" 
d="M535 406l-101 700l-133 -700h234zM600 0l-47 270h-277l-55 -270h-207l316 1489q-31 29 -46 65.5t-15 80.5q0 84 56.5 140.5t144.5 56.5q89 0 144 -56.5t55 -140.5q0 -44 -14.5 -80.5t-42.5 -65.5l273 -1489h-285zM470 1532q45 0 72 28.5t27 74.5q0 45 -27.5 71t-71.5 26
q-45 0 -73 -26t-28 -71q0 -47 27.5 -75t73.5 -28z" />
    <glyph glyph-name="AE" unicode="&#xc6;" horiz-adv-x="1225" 
d="M1188 0h-656v270h-241l-68 -270h-217l387 1489h795v-135h-385v-473h299v-136h-299v-610h385v-135zM532 406v839l-208 -839h208z" />
    <glyph glyph-name="Ccedilla" unicode="&#xc7;" horiz-adv-x="776" 
d="M377 10q-125 30 -204 184.5t-79 577.5q0 428 114.5 577.5t336.5 149.5q93 0 194 -24v-151q-95 24 -176 24q-105 0 -148.5 -107.5t-43.5 -469.5q0 -407 43.5 -517t154.5 -110q73 0 170 31v-157q-95 -26 -180 -28q38 -13 57 -38.5t19 -64.5q0 -88 -79 -133.5t-237 -48.5
v105q96 3 134.5 20t38.5 55q0 37 -24 55t-95 19z" />
    <glyph glyph-name="Egrave" unicode="&#xc8;" horiz-adv-x="836" 
d="M123 0v1489h676v-135h-406v-473h309v-136h-309v-610h406v-135h-676zM635 1558h-187l-266 328h250z" />
    <glyph glyph-name="Eacute" unicode="&#xc9;" horiz-adv-x="836" 
d="M123 0v1489h676v-135h-406v-473h309v-136h-309v-610h406v-135h-676zM748 1886l-266 -328h-187l203 328h250z" />
    <glyph glyph-name="Ecircumflex" unicode="&#xca;" horiz-adv-x="836" 
d="M123 0v1489h676v-135h-406v-473h309v-136h-309v-610h406v-135h-676zM765 1558h-178l-147 189l-147 -189h-178l200 312h250z" />
    <glyph glyph-name="Edieresis" unicode="&#xcb;" horiz-adv-x="836" 
d="M123 0v1489h676v-135h-406v-473h309v-136h-309v-610h406v-135h-676zM758 1631q0 -21 -16 -37t-37 -16h-127q-23 0 -38.5 16t-15.5 37v127q0 22 15.5 38t36.5 16h127q22 0 38.5 -16t16.5 -38v-127zM384 1590q-16 -12 -36 -12h-127q-22 0 -38.5 16t-16.5 37v127q0 22 16 38
t37 16h127q23 0 38.5 -16t15.5 -38v-127q0 -29 -16 -41z" />
    <glyph glyph-name="Igrave" unicode="&#xcc;" horiz-adv-x="598" 
d="M29 0v135h135v1219h-135v135h540v-135h-135v-1219h135v-135h-540zM454 1558h-187l-266 328h250z" />
    <glyph glyph-name="Iacute" unicode="&#xcd;" horiz-adv-x="598" 
d="M29 0v135h135v1219h-135v135h540v-135h-135v-1219h135v-135h-540zM594 1886l-266 -328h-187l203 328h250z" />
    <glyph glyph-name="Icircumflex" unicode="&#xce;" horiz-adv-x="598" 
d="M29 0v135h135v1219h-135v135h540v-135h-135v-1219h135v-135h-540zM625 1558h-178l-147 189l-147 -189h-178l200 312h250z" />
    <glyph glyph-name="Idieresis" unicode="&#xcf;" horiz-adv-x="598" 
d="M29 0v135h135v1219h-135v135h540v-135h-135v-1219h135v-135h-540zM597 1631q0 -21 -16 -37t-37 -16h-127q-23 0 -38.5 16t-15.5 37v127q0 22 15.5 38t36.5 16h127q22 0 38.5 -16t16.5 -38v-127zM223 1590q-16 -12 -36 -12h-127q-22 0 -38.5 16t-16.5 37v127q0 22 16 38
t37 16h127q23 0 38.5 -16t15.5 -38v-127q0 -29 -16 -41z" />
    <glyph glyph-name="Eth" unicode="&#xd0;" horiz-adv-x="1124" 
d="M449 1354v-504h210v-135h-210v-580h75q139 0 188.5 137t49.5 510q0 346 -61 459t-187 113h-65zM178 1489h365q243 0 366 -145.5t123 -559.5q0 -472 -123 -628t-377 -156h-354v715h-121v135h121v639z" />
    <glyph glyph-name="Ntilde" unicode="&#xd1;" horiz-adv-x="1171" 
d="M904 0l-515 911q4 -82 4 -194v-717h-270v1489h145l515 -911q-4 88 -4 190v721h270v-1489h-145zM936 1774q0 -93 -54 -153t-149 -60t-170 59q-60 57 -98 57q-39 0 -58.5 -21t-19.5 -67v-28h-127v63q0 95 56.5 150t152.5 55q77 0 158 -59q66 -57 108 -57q37 0 55.5 18.5
t18.5 58.5v39h127v-55z" />
    <glyph glyph-name="Ograve" unicode="&#xd2;" horiz-adv-x="1094" 
d="M549 135q103 0 139.5 96t36.5 529q0 335 -29.5 464.5t-152.5 129.5q-117 0 -145.5 -122t-28.5 -472q0 -377 32 -501t148 -124zM541 -10q-203 0 -300.5 99.5t-123 254t-25.5 406.5q0 235 26.5 389.5t125 257t299.5 102.5q207 0 307 -97.5t125.5 -247t25.5 -390.5
q0 -262 -25.5 -418.5t-125.5 -256t-309 -99.5zM713 1558h-187l-266 328h250z" />
    <glyph glyph-name="Oacute" unicode="&#xd3;" horiz-adv-x="1094" 
d="M549 135q103 0 139.5 96t36.5 529q0 335 -29.5 464.5t-152.5 129.5q-117 0 -145.5 -122t-28.5 -472q0 -377 32 -501t148 -124zM541 -10q-203 0 -300.5 99.5t-123 254t-25.5 406.5q0 235 26.5 389.5t125 257t299.5 102.5q207 0 307 -97.5t125.5 -247t25.5 -390.5
q0 -262 -25.5 -418.5t-125.5 -256t-309 -99.5zM834 1886l-266 -328h-187l203 328h250z" />
    <glyph glyph-name="Ocircumflex" unicode="&#xd4;" horiz-adv-x="1094" 
d="M549 135q103 0 139.5 96t36.5 529q0 335 -29.5 464.5t-152.5 129.5q-117 0 -145.5 -122t-28.5 -472q0 -377 32 -501t148 -124zM541 -10q-203 0 -300.5 99.5t-123 254t-25.5 406.5q0 235 26.5 389.5t125 257t299.5 102.5q207 0 307 -97.5t125.5 -247t25.5 -390.5
q0 -262 -25.5 -418.5t-125.5 -256t-309 -99.5zM863 1558h-178l-147 189l-147 -189h-178l200 312h250z" />
    <glyph glyph-name="Otilde" unicode="&#xd5;" horiz-adv-x="1094" 
d="M549 135q103 0 139.5 96t36.5 529q0 335 -29.5 464.5t-152.5 129.5q-117 0 -145.5 -122t-28.5 -472q0 -377 32 -501t148 -124zM541 -10q-203 0 -300.5 99.5t-123 254t-25.5 406.5q0 235 26.5 389.5t125 257t299.5 102.5q207 0 307 -97.5t125.5 -247t25.5 -390.5
q0 -262 -25.5 -418.5t-125.5 -256t-309 -99.5zM883 1774q0 -93 -54 -153t-149 -60t-170 59q-60 57 -98 57q-39 0 -58.5 -21t-19.5 -67v-28h-127v63q0 95 56.5 150t152.5 55q77 0 158 -59q66 -57 108 -57q37 0 55.5 18.5t18.5 58.5v39h127v-55z" />
    <glyph glyph-name="Odieresis" unicode="&#xd6;" horiz-adv-x="1094" 
d="M549 135q103 0 139.5 96t36.5 529q0 335 -29.5 464.5t-152.5 129.5q-117 0 -145.5 -122t-28.5 -472q0 -377 32 -501t148 -124zM541 -10q-203 0 -300.5 99.5t-123 254t-25.5 406.5q0 235 26.5 389.5t125 257t299.5 102.5q207 0 307 -97.5t125.5 -247t25.5 -390.5
q0 -262 -25.5 -418.5t-125.5 -256t-309 -99.5zM836 1631q0 -21 -16 -37t-37 -16h-127q-23 0 -38.5 16t-15.5 37v127q0 22 15.5 38t36.5 16h127q22 0 38.5 -16t16.5 -38v-127zM462 1590q-16 -12 -36 -12h-127q-22 0 -38.5 16t-16.5 37v127q0 22 16 38t37 16h127
q23 0 38.5 -16t15.5 -38v-127q0 -29 -16 -41z" />
    <glyph glyph-name="multiply" unicode="&#xd7;" horiz-adv-x="979" 
d="M863 496l-140 -140l-233 233l-233 -233l-140 140l233 233l-233 233l140 140l233 -233l233 233l140 -140l-233 -233z" />
    <glyph glyph-name="Oslash" unicode="&#xd8;" horiz-adv-x="1094" 
d="M1057 1581l-139 -266q36 -58 59.5 -173.5t23.5 -377.5t-25.5 -418.5t-125.5 -256t-309 -99.5q-87 0 -156 19.5t-119 58.5l-84 -160h-145l139 266q-36 60 -60 180t-24 396q0 235 26.5 389.5t125 257t299.5 102.5q91 0 162 -20t122 -60l84 162h146zM702 1184
q-14 87 -49.5 128.5t-109.5 41.5q-117 0 -145.5 -122t-28.5 -472q0 -162 2 -217zM391 305q15 -88 50.5 -129t107.5 -41q103 0 139.5 96t36.5 529q0 138 -2 186z" />
    <glyph glyph-name="Ugrave" unicode="&#xd9;" horiz-adv-x="1069" 
d="M535 -10q-208 0 -312 100.5t-104 302.5v1096h270v-1149q0 -105 33.5 -155t112.5 -50q76 0 110.5 50t34.5 155v1149h270v-1096q0 -202 -104 -302.5t-311 -100.5zM695 1558h-187l-266 328h250z" />
    <glyph glyph-name="Uacute" unicode="&#xda;" horiz-adv-x="1069" 
d="M535 -10q-208 0 -312 100.5t-104 302.5v1096h270v-1149q0 -105 33.5 -155t112.5 -50q76 0 110.5 50t34.5 155v1149h270v-1096q0 -202 -104 -302.5t-311 -100.5zM811 1886l-266 -328h-187l203 328h250z" />
    <glyph glyph-name="Ucircumflex" unicode="&#xdb;" horiz-adv-x="1069" 
d="M535 -10q-208 0 -312 100.5t-104 302.5v1096h270v-1149q0 -105 33.5 -155t112.5 -50q76 0 110.5 50t34.5 155v1149h270v-1096q0 -202 -104 -302.5t-311 -100.5zM857 1558h-178l-147 189l-147 -189h-178l200 312h250z" />
    <glyph glyph-name="Udieresis" unicode="&#xdc;" horiz-adv-x="1069" 
d="M535 -10q-208 0 -312 100.5t-104 302.5v1096h270v-1149q0 -105 33.5 -155t112.5 -50q76 0 110.5 50t34.5 155v1149h270v-1096q0 -202 -104 -302.5t-311 -100.5zM834 1631q0 -21 -16 -37t-37 -16h-127q-23 0 -38.5 16t-15.5 37v127q0 22 15.5 38t36.5 16h127
q22 0 38.5 -16t16.5 -38v-127zM460 1590q-16 -12 -36 -12h-127q-22 0 -38.5 16t-16.5 37v127q0 22 16 38t37 16h127q23 0 38.5 -16t15.5 -38v-127q0 -29 -16 -41z" />
    <glyph glyph-name="Yacute" unicode="&#xdd;" horiz-adv-x="911" 
d="M305 0v461l-295 1028h297l174 -721l211 721h211l-328 -1022v-467h-270zM797 1866l-266 -328h-187l203 328h250z" />
    <glyph glyph-name="Thorn" unicode="&#xde;" horiz-adv-x="1001" 
d="M393 1112v-696h68q107 0 160 78.5t53 279.5q0 212 -53.5 275t-159.5 63h-68zM393 1247h86q252 0 358.5 -108t106.5 -365q0 -259 -111.5 -376t-353.5 -117h-86v-281h-270v1489h270v-242z" />
    <glyph glyph-name="germandbls" unicode="&#xdf;" horiz-adv-x="1038" 
d="M731 885q115 -31 172.5 -130.5t57.5 -267.5q0 -294 -73 -395.5t-255 -101.5q-112 0 -168 20v140q54 -15 106 -15q77 0 98 84t21 244q0 189 -37 270.5t-139 81.5v135q80 6 110.5 66t30.5 201q0 113 -31 170t-92 57q-85 0 -115 -57t-30 -205v-1182h-270v1194
q0 202 106.5 303.5t319.5 101.5q191 0 287 -84t96 -251q0 -156 -42 -235t-153 -144z" />
    <glyph glyph-name="agrave" unicode="&#xe0;" horiz-adv-x="967" 
d="M586 612h-47q-106 0 -158.5 -63t-52.5 -189q0 -109 26 -167t92 -58q73 0 106.5 49.5t33.5 163.5v264zM676 154q-38 -82 -114 -123t-189 -41q-155 0 -232.5 92t-77.5 276q0 188 119.5 289t325.5 101h78v114q0 114 -37 162.5t-121 48.5q-135 0 -287 -51v154q155 53 332 53
q191 0 287 -92.5t96 -276.5v-860h-135zM623 1292h-187l-266 328h250z" />
    <glyph glyph-name="aacute" unicode="&#xe1;" horiz-adv-x="967" 
d="M586 612h-47q-106 0 -158.5 -63t-52.5 -189q0 -109 26 -167t92 -58q73 0 106.5 49.5t33.5 163.5v264zM676 154q-38 -82 -114 -123t-189 -41q-155 0 -232.5 92t-77.5 276q0 188 119.5 289t325.5 101h78v114q0 114 -37 162.5t-121 48.5q-135 0 -287 -51v154q155 53 332 53
q191 0 287 -92.5t96 -276.5v-860h-135zM721 1620l-266 -328h-187l203 328h250z" />
    <glyph glyph-name="acircumflex" unicode="&#xe2;" horiz-adv-x="967" 
d="M586 612h-47q-106 0 -158.5 -63t-52.5 -189q0 -109 26 -167t92 -58q73 0 106.5 49.5t33.5 163.5v264zM676 154q-38 -82 -114 -123t-189 -41q-155 0 -232.5 92t-77.5 276q0 188 119.5 289t325.5 101h78v114q0 114 -37 162.5t-121 48.5q-135 0 -287 -51v154q155 53 332 53
q191 0 287 -92.5t96 -276.5v-860h-135zM783 1292h-178l-147 189l-147 -189h-178l200 312h250z" />
    <glyph glyph-name="atilde" unicode="&#xe3;" horiz-adv-x="967" 
d="M586 612h-47q-106 0 -158.5 -63t-52.5 -189q0 -109 26 -167t92 -58q73 0 106.5 49.5t33.5 163.5v264zM676 154q-38 -82 -114 -123t-189 -41q-155 0 -232.5 92t-77.5 276q0 188 119.5 289t325.5 101h78v114q0 114 -37 162.5t-121 48.5q-135 0 -287 -51v154q155 53 332 53
q191 0 287 -92.5t96 -276.5v-860h-135zM809 1528q0 -93 -54 -153t-149 -60t-170 59q-60 57 -98 57q-39 0 -58.5 -21t-19.5 -67v-28h-127v63q0 95 56.5 150t152.5 55q77 0 158 -59q66 -57 108 -57q37 0 55.5 18.5t18.5 58.5v39h127v-55z" />
    <glyph glyph-name="adieresis" unicode="&#xe4;" horiz-adv-x="967" 
d="M586 612h-47q-106 0 -158.5 -63t-52.5 -189q0 -109 26 -167t92 -58q73 0 106.5 49.5t33.5 163.5v264zM676 154q-38 -82 -114 -123t-189 -41q-155 0 -232.5 92t-77.5 276q0 188 119.5 289t325.5 101h78v114q0 114 -37 162.5t-121 48.5q-135 0 -287 -51v154q155 53 332 53
q191 0 287 -92.5t96 -276.5v-860h-135zM770 1386q0 -21 -16 -37t-37 -16h-127q-23 0 -38.5 16t-15.5 37v127q0 22 15.5 38t36.5 16h127q22 0 38.5 -16t16.5 -38v-127zM396 1345q-16 -12 -36 -12h-127q-22 0 -38.5 16t-16.5 37v127q0 22 16 38t37 16h127q23 0 38.5 -16
t15.5 -38v-127q0 -29 -16 -41z" />
    <glyph glyph-name="aring" unicode="&#xe5;" horiz-adv-x="967" 
d="M586 612h-47q-106 0 -158.5 -63t-52.5 -189q0 -109 26 -167t92 -58q73 0 106.5 49.5t33.5 163.5v264zM676 154q-38 -82 -114 -123t-189 -41q-155 0 -232.5 92t-77.5 276q0 188 119.5 289t325.5 101h78v114q0 114 -37 162.5t-121 48.5q-135 0 -287 -51v154q155 53 332 53
q191 0 287 -92.5t96 -276.5v-860h-135zM477 1692q89 0 144 -56.5t55 -140.5q0 -88 -56 -145.5t-143 -57.5q-82 0 -141.5 57.5t-59.5 145.5q0 84 56.5 140.5t144.5 56.5zM477 1392q45 0 72 28.5t27 74.5q0 45 -27.5 71t-71.5 26q-45 0 -73 -26t-28 -71q0 -47 27.5 -75
t73.5 -28z" />
    <glyph glyph-name="ae" unicode="&#xe6;" horiz-adv-x="1440" 
d="M586 612h-47q-106 0 -158.5 -63t-52.5 -189q0 -109 26 -167t92 -58q73 0 106.5 49.5t33.5 163.5v264zM696 180q-51 -98 -126.5 -144t-196.5 -46q-155 0 -232.5 92t-77.5 276q0 188 119.5 289t325.5 101h78v114q0 114 -37 162.5t-121 48.5q-135 0 -287 -51v154
q155 53 332 53q102 0 163.5 -27t113.5 -96q39 61 102.5 92t151.5 31q193 0 275.5 -128t82.5 -470v-70h-506q4 -207 52.5 -311.5t164.5 -104.5q87 0 246 50v-154q-116 -51 -293 -51q-129 0 -207 46t-123 144zM856 696h260q0 238 -21 318t-91 80q-78 0 -111 -96t-37 -302z" />
    <glyph glyph-name="ccedilla" unicode="&#xe7;" horiz-adv-x="764" 
d="M371 6q-144 40 -215.5 193t-71.5 419q0 305 111 458t333 153q120 0 195 -25v-149q-92 28 -166 28q-109 0 -156 -113t-47 -352q0 -237 49.5 -355t149.5 -118q83 0 170 29v-158q-76 -22 -172 -24q78 -30 78 -105q0 -176 -316 -182v105q96 3 134 20t38 55q0 37 -23.5 55
t-94.5 19z" />
    <glyph glyph-name="egrave" unicode="&#xe8;" horiz-adv-x="938" 
d="M84 618q0 305 104.5 458t313.5 153q193 0 275.5 -128t82.5 -470v-70h-506q5 -207 53 -311.5t164 -104.5q87 0 246 50v-154q-115 -51 -293 -51q-235 0 -337.5 154t-102.5 474zM354 696h260q0 198 -17.5 298t-100.5 100q-77 0 -107.5 -96t-34.5 -302zM625 1292h-187
l-266 328h250z" />
    <glyph glyph-name="eacute" unicode="&#xe9;" horiz-adv-x="938" 
d="M84 618q0 305 104.5 458t313.5 153q193 0 275.5 -128t82.5 -470v-70h-506q5 -207 53 -311.5t164 -104.5q87 0 246 50v-154q-115 -51 -293 -51q-235 0 -337.5 154t-102.5 474zM354 696h260q0 198 -17.5 298t-100.5 100q-77 0 -107.5 -96t-34.5 -302zM756 1620l-266 -328
h-187l203 328h250z" />
    <glyph glyph-name="ecircumflex" unicode="&#xea;" horiz-adv-x="938" 
d="M84 618q0 305 104.5 458t313.5 153q193 0 275.5 -128t82.5 -470v-70h-506q5 -207 53 -311.5t164 -104.5q87 0 246 50v-154q-115 -51 -293 -51q-235 0 -337.5 154t-102.5 474zM354 696h260q0 198 -17.5 298t-100.5 100q-77 0 -107.5 -96t-34.5 -302zM792 1292h-178
l-147 189l-147 -189h-178l200 312h250z" />
    <glyph glyph-name="edieresis" unicode="&#xeb;" horiz-adv-x="938" 
d="M84 618q0 305 104.5 458t313.5 153q193 0 275.5 -128t82.5 -470v-70h-506q5 -207 53 -311.5t164 -104.5q87 0 246 50v-154q-115 -51 -293 -51q-235 0 -337.5 154t-102.5 474zM354 696h260q0 198 -17.5 298t-100.5 100q-77 0 -107.5 -96t-34.5 -302zM768 1386
q0 -21 -16 -37t-37 -16h-127q-23 0 -38.5 16t-15.5 37v127q0 22 15.5 38t36.5 16h127q22 0 38.5 -16t16.5 -38v-127zM394 1345q-16 -12 -36 -12h-127q-22 0 -38.5 16t-16.5 37v127q0 22 16 38t37 16h127q23 0 38.5 -16t15.5 -38v-127q0 -29 -16 -41z" />
    <glyph glyph-name="igrave" unicode="&#xec;" horiz-adv-x="504" 
d="M117 0v1219h270v-1219h-270zM419 1292h-187l-266 328h250z" />
    <glyph glyph-name="iacute" unicode="&#xed;" horiz-adv-x="504" 
d="M117 0v1219h270v-1219h-270zM542 1620l-266 -328h-187l203 328h250z" />
    <glyph glyph-name="icircumflex" unicode="&#xee;" horiz-adv-x="504" 
d="M117 0v1219h270v-1219h-270zM578 1292h-178l-147 189l-147 -189h-178l200 312h250z" />
    <glyph glyph-name="idieresis" unicode="&#xef;" horiz-adv-x="504" 
d="M117 0v1219h270v-1219h-270zM549 1386q0 -21 -16 -37t-37 -16h-127q-23 0 -38.5 16t-15.5 37v127q0 22 15.5 38t36.5 16h127q22 0 38.5 -16t16.5 -38v-127zM175 1345q-16 -12 -36 -12h-127q-22 0 -38.5 16t-16.5 37v127q0 22 16 38t37 16h127q23 0 38.5 -16t15.5 -38
v-127q0 -29 -16 -41z" />
    <glyph glyph-name="eth" unicode="&#xf0;" horiz-adv-x="1030" 
d="M514 135q83 0 119.5 87t36.5 366q0 211 -36 303t-120 92q-85 0 -119.5 -91.5t-34.5 -303.5q0 -284 36 -368.5t118 -84.5zM514 -10q-225 0 -327.5 144.5t-102.5 453.5q0 262 110 396t320 134q50 0 78 -6q-60 125 -125 188l-162 -108l-74 106l140 95q-56 42 -119 80l90 129
q102 -50 180 -109l164 111l74 -107l-135 -90q160 -159 240.5 -363.5t80.5 -455.5q0 -307 -104 -452.5t-328 -145.5z" />
    <glyph glyph-name="ntilde" unicode="&#xf1;" horiz-adv-x="1038" 
d="M295 1067q94 162 295 162q169 0 253.5 -90t84.5 -269v-870h-271v889q0 103 -28.5 148.5t-89.5 45.5q-79 0 -115.5 -56t-36.5 -175v-852h-270v1219h135zM879 1528q0 -93 -54 -153t-149 -60t-170 59q-60 57 -98 57q-39 0 -58.5 -21t-19.5 -67v-28h-127v63q0 95 56.5 150
t152.5 55q77 0 158 -59q66 -57 108 -57q37 0 55.5 18.5t18.5 58.5v39h127v-55z" />
    <glyph glyph-name="ograve" unicode="&#xf2;" horiz-adv-x="1030" 
d="M514 1229q222 0 327 -147t105 -443q0 -340 -97.5 -494.5t-334.5 -154.5q-239 0 -334.5 154t-95.5 495q0 297 104 443.5t326 146.5zM514 135q87 0 121.5 93.5t34.5 410.5q0 250 -35 347t-121 97q-90 0 -122 -103t-32 -341q0 -323 34.5 -413.5t119.5 -90.5zM666 1292h-187
l-266 328h250z" />
    <glyph glyph-name="oacute" unicode="&#xf3;" horiz-adv-x="1030" 
d="M514 1229q222 0 327 -147t105 -443q0 -340 -97.5 -494.5t-334.5 -154.5q-239 0 -334.5 154t-95.5 495q0 297 104 443.5t326 146.5zM514 135q87 0 121.5 93.5t34.5 410.5q0 250 -35 347t-121 97q-90 0 -122 -103t-32 -341q0 -323 34.5 -413.5t119.5 -90.5zM791 1620
l-266 -328h-187l203 328h250z" />
    <glyph glyph-name="ocircumflex" unicode="&#xf4;" horiz-adv-x="1030" 
d="M514 1229q222 0 327 -147t105 -443q0 -340 -97.5 -494.5t-334.5 -154.5q-239 0 -334.5 154t-95.5 495q0 297 104 443.5t326 146.5zM514 135q87 0 121.5 93.5t34.5 410.5q0 250 -35 347t-121 97q-90 0 -122 -103t-32 -341q0 -323 34.5 -413.5t119.5 -90.5zM835 1292h-178
l-147 189l-147 -189h-178l200 312h250z" />
    <glyph glyph-name="otilde" unicode="&#xf5;" horiz-adv-x="1030" 
d="M514 1229q222 0 327 -147t105 -443q0 -340 -97.5 -494.5t-334.5 -154.5q-239 0 -334.5 154t-95.5 495q0 297 104 443.5t326 146.5zM514 135q87 0 121.5 93.5t34.5 410.5q0 250 -35 347t-121 97q-90 0 -122 -103t-32 -341q0 -323 34.5 -413.5t119.5 -90.5zM846 1528
q0 -93 -54 -153t-149 -60t-170 59q-60 57 -98 57q-39 0 -58.5 -21t-19.5 -67v-28h-127v63q0 95 56.5 150t152.5 55q77 0 158 -59q66 -57 108 -57q37 0 55.5 18.5t18.5 58.5v39h127v-55z" />
    <glyph glyph-name="odieresis" unicode="&#xf6;" horiz-adv-x="1030" 
d="M514 1229q222 0 327 -147t105 -443q0 -340 -97.5 -494.5t-334.5 -154.5q-239 0 -334.5 154t-95.5 495q0 297 104 443.5t326 146.5zM514 135q87 0 121.5 93.5t34.5 410.5q0 250 -35 347t-121 97q-90 0 -122 -103t-32 -341q0 -323 34.5 -413.5t119.5 -90.5zM811 1386
q0 -21 -16 -37t-37 -16h-127q-23 0 -38.5 16t-15.5 37v127q0 22 15.5 38t36.5 16h127q22 0 38.5 -16t16.5 -38v-127zM437 1345q-16 -12 -36 -12h-127q-22 0 -38.5 16t-16.5 37v127q0 22 16 38t37 16h127q23 0 38.5 -16t15.5 -38v-127q0 -29 -16 -41z" />
    <glyph glyph-name="divide" unicode="&#xf7;" horiz-adv-x="979" 
d="M487 1204q55 0 92 -38.5t37 -92.5t-37 -91.5t-92 -37.5q-53 0 -90 37.5t-37 91.5t37 92.5t90 38.5zM885 629h-791v196h791v-196zM489 514q54 0 90.5 -38t36.5 -93q0 -54 -36.5 -91.5t-90.5 -37.5q-53 0 -91 37.5t-38 91.5q0 55 38 93t91 38z" />
    <glyph glyph-name="oslash" unicode="&#xf8;" horiz-adv-x="1030" 
d="M993 1311l-141 -246q47 -73 70.5 -179.5t23.5 -246.5q0 -340 -97.5 -494.5t-334.5 -154.5q-77 0 -138.5 15t-107.5 46l-82 -143h-149l139 244q-46 74 -69 196t-23 291q0 297 104 443.5t326 146.5q75 0 136 -16.5t108 -49.5l86 148h149zM643 961q-16 61 -48.5 91.5
t-80.5 30.5q-90 0 -122 -103t-32 -341q0 -123 2 -170zM387 256q14 -61 46 -91t81 -30q87 0 121.5 93.5t34.5 410.5q0 81 -2 111z" />
    <glyph glyph-name="ugrave" unicode="&#xf9;" horiz-adv-x="1038" 
d="M743 152q-47 -81 -120.5 -121.5t-173.5 -40.5q-169 0 -253.5 89.5t-84.5 268.5v871h270v-889q0 -103 28.5 -149t90.5 -46q78 0 114.5 56t36.5 176v852h271v-1219h-136zM668 1292h-187l-266 328h250z" />
    <glyph glyph-name="uacute" unicode="&#xfa;" horiz-adv-x="1038" 
d="M743 152q-47 -81 -120.5 -121.5t-173.5 -40.5q-169 0 -253.5 89.5t-84.5 268.5v871h270v-889q0 -103 28.5 -149t90.5 -46q78 0 114.5 56t36.5 176v852h271v-1219h-136zM818 1620l-266 -328h-187l203 328h250z" />
    <glyph glyph-name="ucircumflex" unicode="&#xfb;" horiz-adv-x="1038" 
d="M743 152q-47 -81 -120.5 -121.5t-173.5 -40.5q-169 0 -253.5 89.5t-84.5 268.5v871h270v-889q0 -103 28.5 -149t90.5 -46q78 0 114.5 56t36.5 176v852h271v-1219h-136zM837 1292h-178l-147 189l-147 -189h-178l200 312h250z" />
    <glyph glyph-name="udieresis" unicode="&#xfc;" horiz-adv-x="1038" 
d="M743 152q-47 -81 -120.5 -121.5t-173.5 -40.5q-169 0 -253.5 89.5t-84.5 268.5v871h270v-889q0 -103 28.5 -149t90.5 -46q78 0 114.5 56t36.5 176v852h271v-1219h-136zM811 1386q0 -21 -16 -37t-37 -16h-127q-23 0 -38.5 16t-15.5 37v127q0 22 15.5 38t36.5 16h127
q22 0 38.5 -16t16.5 -38v-127zM437 1345q-16 -12 -36 -12h-127q-22 0 -38.5 16t-16.5 37v127q0 22 16 38t37 16h127q23 0 38.5 -16t15.5 -38v-127q0 -29 -16 -41z" />
    <glyph glyph-name="yacute" unicode="&#xfd;" horiz-adv-x="907" 
d="M270 78l-256 1141h283l176 -947l209 947h217l-326 -1252q-32 -124 -105 -186t-187 -62q-115 0 -207 23v162q94 -21 190 -21q55 0 87 33.5t52 161.5h-133zM764 1620l-266 -328h-187l203 328h250z" />
    <glyph glyph-name="thorn" unicode="&#xfe;" horiz-adv-x="1026" 
d="M373 657q0 -332 32.5 -426t126.5 -94q73 0 106.5 93t33.5 401q0 225 -29.5 338.5t-124.5 113.5q-90 0 -117.5 -100.5t-27.5 -325.5zM387 1171q77 58 193 58q204 0 283 -152.5t79 -472.5q0 -229 -46.5 -364.5t-129 -191.5t-197.5 -56q-107 0 -182 51v-313h-270v1853h270
v-412z" />
    <glyph glyph-name="ydieresis" unicode="&#xff;" horiz-adv-x="907" 
d="M270 78l-256 1141h283l176 -947l209 947h217l-326 -1252q-32 -124 -105 -186t-187 -62q-115 0 -207 23v162q94 -21 190 -21q55 0 87 33.5t52 161.5h-133zM745 1386q0 -21 -16 -37t-37 -16h-127q-23 0 -38.5 16t-15.5 37v127q0 22 15.5 38t36.5 16h127q22 0 38.5 -16
t16.5 -38v-127zM371 1345q-16 -12 -36 -12h-127q-22 0 -38.5 16t-16.5 37v127q0 22 16 38t37 16h127q23 0 38.5 -16t15.5 -38v-127q0 -29 -16 -41z" />
    <glyph glyph-name="Amacron" unicode="&#x100;" horiz-adv-x="905" 
d="M535 406l-101 700l-133 -700h234zM600 0l-47 270h-277l-55 -270h-207l316 1489h282l273 -1489h-285zM734 1614h-550v152h550v-152z" />
    <glyph glyph-name="amacron" unicode="&#x101;" horiz-adv-x="967" 
d="M586 612h-47q-106 0 -158.5 -63t-52.5 -189q0 -109 26 -167t92 -58q73 0 106.5 49.5t33.5 163.5v264zM676 154q-38 -82 -114 -123t-189 -41q-155 0 -232.5 92t-77.5 276q0 188 119.5 289t325.5 101h78v114q0 114 -37 162.5t-121 48.5q-135 0 -287 -51v154q155 53 332 53
q191 0 287 -92.5t96 -276.5v-860h-135zM759 1370h-550v152h550v-152z" />
    <glyph glyph-name="Abreve" unicode="&#x102;" horiz-adv-x="905" 
d="M535 406l-101 700l-133 -700h234zM600 0l-47 270h-277l-55 -270h-207l316 1489h282l273 -1489h-285zM791 1869q-31 -155 -112 -232.5t-212 -77.5q-134 0 -215 77.5t-109 232.5h152q15 -82 58 -123t114 -41t114 41t58 123h152z" />
    <glyph glyph-name="abreve" unicode="&#x103;" horiz-adv-x="967" 
d="M586 612h-47q-106 0 -158.5 -63t-52.5 -189q0 -109 26 -167t92 -58q73 0 106.5 49.5t33.5 163.5v264zM676 154q-38 -82 -114 -123t-189 -41q-155 0 -232.5 92t-77.5 276q0 188 119.5 289t325.5 101h78v114q0 114 -37 162.5t-121 48.5q-135 0 -287 -51v154q155 53 332 53
q191 0 287 -92.5t96 -276.5v-860h-135zM807 1603q-31 -155 -112 -232.5t-212 -77.5q-134 0 -215 77.5t-109 232.5h152q15 -82 58 -123t114 -41t114 41t58 123h152z" />
    <glyph glyph-name="Aogonek" unicode="&#x104;" horiz-adv-x="905" 
d="M535 406l-101 700l-133 -700h234zM600 0l-47 270h-277l-55 -270h-207l316 1489h282l273 -1489h-23q-78 -39 -78 -104q0 -70 78 -70q38 0 68 8v-104q-41 -11 -127 -11q-75 0 -126.5 39.5t-51.5 100.5q0 94 102 141h-127z" />
    <glyph glyph-name="aogonek" unicode="&#x105;" horiz-adv-x="967" 
d="M586 612h-47q-106 0 -158.5 -63t-52.5 -189q0 -109 26 -167t92 -58q73 0 106.5 49.5t33.5 163.5v264zM676 154q-41 -82 -116.5 -123t-186.5 -41q-155 0 -232.5 92t-77.5 276q0 188 120 289t325 101h78v133q0 96 -39.5 144t-118.5 48q-137 0 -287 -51v154q166 53 332 53
q191 0 287 -92.5t96 -276.5v-860q-78 -39 -78 -104q0 -70 78 -70q38 0 68 8v-104q-41 -11 -127 -11q-75 0 -127 39.5t-52 100.5q0 94 103 141z" />
    <glyph glyph-name="Cacute" unicode="&#x106;" horiz-adv-x="776" 
d="M532 -8q-225 0 -331.5 162t-106.5 618q0 428 114.5 577.5t336.5 149.5q93 0 194 -24v-151q-95 24 -176 24q-105 0 -148.5 -107.5t-43.5 -469.5q0 -407 43.5 -518t154.5 -111q71 0 170 33v-157q-106 -26 -207 -26zM734 1886l-266 -328h-187l203 328h250z" />
    <glyph glyph-name="cacute" unicode="&#x107;" horiz-adv-x="764" 
d="M487 -10q-202 0 -302.5 157t-100.5 471q0 305 111 458t333 153q120 0 195 -25v-149q-92 28 -166 28q-109 0 -156 -113t-47 -352q0 -237 49.5 -355t149.5 -118q83 0 170 29v-158q-84 -26 -236 -26zM713 1620l-266 -328h-187l203 328h250z" />
    <glyph glyph-name="Ccircumflex" unicode="&#x108;" horiz-adv-x="776" 
d="M532 -8q-225 0 -331.5 162t-106.5 618q0 428 114.5 577.5t336.5 149.5q93 0 194 -24v-151q-95 24 -176 24q-105 0 -148.5 -107.5t-43.5 -469.5q0 -407 43.5 -518t154.5 -111q71 0 170 33v-157q-106 -26 -207 -26zM742 1558h-178l-147 189l-147 -189h-178l200 312h250z
" />
    <glyph glyph-name="ccircumflex" unicode="&#x109;" horiz-adv-x="764" 
d="M487 -10q-202 0 -302.5 157t-100.5 471q0 305 111 458t333 153q120 0 195 -25v-149q-92 28 -166 28q-109 0 -156 -113t-47 -352q0 -237 49.5 -355t149.5 -118q83 0 170 29v-158q-84 -26 -236 -26zM726 1292h-178l-147 189l-147 -189h-178l200 312h250z" />
    <glyph glyph-name="Cdotaccent" unicode="&#x10a;" horiz-adv-x="776" 
d="M532 -8q-225 0 -331.5 162t-106.5 618q0 428 114.5 577.5t336.5 149.5q93 0 194 -24v-151q-95 24 -176 24q-105 0 -148.5 -107.5t-43.5 -469.5q0 -407 43.5 -518t154.5 -111q71 0 170 33v-157q-106 -26 -207 -26zM549 1634q0 -21 -16 -37t-37 -16h-164q-22 0 -37.5 15.5
t-15.5 37.5v164q0 22 15 37.5t36 15.5h164q23 0 39 -16t16 -37v-164z" />
    <glyph glyph-name="cdotaccent" unicode="&#x10b;" horiz-adv-x="764" 
d="M487 -10q-202 0 -302.5 157t-100.5 471q0 305 111 458t333 153q120 0 195 -25v-149q-92 28 -166 28q-109 0 -156 -113t-47 -352q0 -237 49.5 -355t149.5 -118q83 0 170 29v-158q-84 -26 -236 -26zM553 1368q0 -21 -16 -37t-37 -16h-164q-22 0 -37.5 15.5t-15.5 37.5v164
q0 22 15 37.5t36 15.5h164q23 0 39 -16t16 -37v-164z" />
    <glyph glyph-name="Ccaron" unicode="&#x10c;" horiz-adv-x="776" 
d="M532 -8q-225 0 -331.5 162t-106.5 618q0 428 114.5 577.5t336.5 149.5q93 0 194 -24v-151q-95 24 -176 24q-105 0 -148.5 -107.5t-43.5 -469.5q0 -407 43.5 -518t154.5 -111q71 0 170 33v-157q-106 -26 -207 -26zM738 1870l-200 -312h-250l-200 312h178l147 -189l147 189
h178z" />
    <glyph glyph-name="ccaron" unicode="&#x10d;" horiz-adv-x="764" 
d="M487 -10q-202 0 -302.5 157t-100.5 471q0 305 111 458t333 153q120 0 195 -25v-149q-92 28 -166 28q-109 0 -156 -113t-47 -352q0 -237 49.5 -355t149.5 -118q83 0 170 29v-158q-84 -26 -236 -26zM722 1604l-200 -312h-250l-200 312h178l147 -189l147 189h178z" />
    <glyph glyph-name="Dcaron" unicode="&#x10e;" horiz-adv-x="1069" 
d="M393 1354v-1219h76q121 0 179.5 121.5t58.5 525.5q0 346 -61 459t-187 113h-66zM123 1489h364q244 0 367 -145.5t123 -559.5q0 -452 -118 -618t-382 -166h-354v1489zM855 1870l-200 -312h-250l-200 312h178l147 -189l147 189h178z" />
    <glyph glyph-name="dcaron" unicode="&#x10f;" horiz-adv-x="1298" 
d="M653 578q0 299 -30.5 401t-124.5 102q-77 0 -110.5 -90t-33.5 -397q0 -227 28.5 -343t125.5 -116q89 0 117 98t28 345zM733 143q-116 -153 -289 -153q-192 0 -276 143.5t-84 446.5q0 330 86 488.5t295 158.5q97 0 174 -51v407h270v-1583h-135zM1066 1307q-47 0 -47 47
v182q0 47 47 47h178q47 0 47 -47v-115q0 -113 -48 -201t-144 -151l-72 72q53 32 83.5 73.5t37.5 92.5h-82z" />
    <glyph glyph-name="Dcroat" unicode="&#x110;" horiz-adv-x="1124" 
d="M449 1354v-504h210v-135h-210v-580h75q139 0 188.5 137t49.5 510q0 346 -61 459t-187 113h-65zM178 1489h365q243 0 366 -145.5t123 -559.5q0 -472 -123 -628t-377 -156h-354v715h-121v135h121v639z" />
    <glyph glyph-name="dcroat" unicode="&#x111;" horiz-adv-x="1026" 
d="M653 578q0 299 -30.5 401t-124.5 102q-77 0 -110.5 -90t-33.5 -397q0 -227 28.5 -343t125.5 -116q89 0 117 98t28 345zM733 143q-116 -153 -289 -153q-192 0 -276 143.5t-84 446.5q0 330 86 488.5t295 158.5q97 0 174 -51v153h-287v135h287v119h270v-119h113v-135h-113
v-1329h-135z" />
    <glyph glyph-name="Emacron" unicode="&#x112;" horiz-adv-x="836" 
d="M123 0v1489h676v-135h-406v-473h309v-136h-309v-610h406v-135h-676zM714 1614h-550v152h550v-152z" />
    <glyph glyph-name="emacron" unicode="&#x113;" horiz-adv-x="938" 
d="M84 618q0 305 104.5 458t313.5 153q193 0 275.5 -128t82.5 -470v-70h-506q5 -207 53 -311.5t164 -104.5q87 0 246 50v-154q-115 -51 -293 -51q-235 0 -337.5 154t-102.5 474zM354 696h260q0 198 -17.5 298t-100.5 100q-77 0 -107.5 -96t-34.5 -302zM745 1370h-550v152
h550v-152z" />
    <glyph glyph-name="Ebreve" unicode="&#x114;" horiz-adv-x="836" 
d="M123 0v1489h676v-135h-406v-473h309v-136h-309v-610h406v-135h-676zM762 1869q-31 -155 -112 -232.5t-212 -77.5q-134 0 -215 77.5t-109 232.5h152q15 -82 58 -123t114 -41t114 41t58 123h152z" />
    <glyph glyph-name="ebreve" unicode="&#x115;" horiz-adv-x="938" 
d="M84 618q0 305 104.5 458t313.5 153q193 0 275.5 -128t82.5 -470v-70h-506q5 -207 53 -311.5t164 -104.5q87 0 246 50v-154q-115 -51 -293 -51q-235 0 -337.5 154t-102.5 474zM354 696h260q0 198 -17.5 298t-100.5 100q-77 0 -107.5 -96t-34.5 -302zM793 1603
q-31 -155 -112 -232.5t-212 -77.5q-134 0 -215 77.5t-109 232.5h152q15 -82 58 -123t114 -41t114 41t58 123h152z" />
    <glyph glyph-name="Edotaccent" unicode="&#x116;" horiz-adv-x="836" 
d="M123 0v1489h676v-135h-406v-473h309v-136h-309v-610h406v-135h-676zM573 1634q0 -21 -16 -37t-37 -16h-164q-22 0 -37.5 15.5t-15.5 37.5v164q0 22 15 37.5t36 15.5h164q23 0 39 -16t16 -37v-164z" />
    <glyph glyph-name="edotaccent" unicode="&#x117;" horiz-adv-x="938" 
d="M84 618q0 305 104.5 458t313.5 153q193 0 275.5 -128t82.5 -470v-70h-506q5 -207 53 -311.5t164 -104.5q87 0 246 50v-154q-115 -51 -293 -51q-235 0 -337.5 154t-102.5 474zM354 696h260q0 198 -17.5 298t-100.5 100q-77 0 -107.5 -96t-34.5 -302zM604 1368
q0 -21 -16 -37t-37 -16h-164q-22 0 -37.5 15.5t-15.5 37.5v164q0 22 15 37.5t36 15.5h164q23 0 39 -16t16 -37v-164z" />
    <glyph glyph-name="Eogonek" unicode="&#x118;" horiz-adv-x="836" 
d="M123 0v1489h676v-135h-406v-473h309v-136h-309v-610h406v-135h-41q-78 -39 -78 -104q0 -70 78 -70q37 0 67 8v-104q-41 -11 -127 -11q-75 0 -126.5 39.5t-51.5 100.5q0 94 103 141h-500z" />
    <glyph glyph-name="eogonek" unicode="&#x119;" horiz-adv-x="938" 
d="M84 618q0 305 104.5 458t313.5 153q191 0 274.5 -128.5t83.5 -469.5v-70h-506q6 -216 55.5 -316t161.5 -100q84 0 246 50v-154q-115 -70 -115 -145q0 -70 78 -70q38 0 68 8v-104q-41 -11 -127 -11q-75 0 -126.5 39.5t-51.5 100.5q0 88 92 135q-41 -4 -111 -4
q-233 0 -336.5 153t-103.5 475zM354 696h260q0 254 -27.5 326t-84.5 72q-74 0 -108.5 -89.5t-39.5 -308.5z" />
    <glyph glyph-name="Ecaron" unicode="&#x11a;" horiz-adv-x="836" 
d="M123 0v1489h676v-135h-406v-473h309v-136h-309v-610h406v-135h-676zM763 1870l-200 -312h-250l-200 312h178l147 -189l147 189h178z" />
    <glyph glyph-name="ecaron" unicode="&#x11b;" horiz-adv-x="938" 
d="M84 618q0 305 104.5 458t313.5 153q193 0 275.5 -128t82.5 -470v-70h-506q5 -207 53 -311.5t164 -104.5q87 0 246 50v-154q-115 -51 -293 -51q-235 0 -337.5 154t-102.5 474zM354 696h260q0 198 -17.5 298t-100.5 100q-77 0 -107.5 -96t-34.5 -302zM794 1604l-200 -312
h-250l-200 312h178l147 -189l147 189h178z" />
    <glyph glyph-name="Gcircumflex" unicode="&#x11c;" horiz-adv-x="1036" 
d="M483 -8q-169 0 -254 103.5t-110 263t-25 395.5q0 265 49.5 427t160 240t310.5 78q142 0 279 -41v-158q-162 54 -266 54q-159 0 -207.5 -135.5t-48.5 -436.5q0 -383 26 -514t125 -131q70 0 105 47.5t35 143.5v358h-136v135h406v-821h-135l-37 127q-45 -68 -114.5 -101.5
t-162.5 -33.5zM863 1558h-178l-147 189l-147 -189h-178l200 312h250z" />
    <glyph glyph-name="gcircumflex" unicode="&#x11d;" horiz-adv-x="1026" 
d="M653 657q0 271 -34 348.5t-115 77.5q-79 0 -114.5 -68.5t-35.5 -357.5q0 -219 32 -325.5t114 -106.5q91 0 122 101.5t31 330.5zM639 145q-89 -65 -213 -65q-190 0 -266 141.5t-76 435.5q0 286 99.5 429t299.5 143q81 0 144.5 -34t109.5 -101l37 125h135v-1102
q0 -196 -104.5 -297t-306.5 -101q-80 0 -171 13.5t-192 40.5v164q104 -27 185 -40.5t139 -13.5q96 0 138 44t42 157v61zM839 1292h-178l-147 189l-147 -189h-178l200 312h250z" />
    <glyph glyph-name="Gbreve" unicode="&#x11e;" horiz-adv-x="1036" 
d="M483 -8q-169 0 -254 103.5t-110 263t-25 395.5q0 265 49.5 427t160 240t310.5 78q142 0 279 -41v-158q-162 54 -266 54q-159 0 -207.5 -135.5t-48.5 -436.5q0 -383 26 -514t125 -131q70 0 105 47.5t35 143.5v358h-136v135h406v-821h-135l-37 127q-45 -68 -114.5 -101.5
t-162.5 -33.5zM868 1869q-31 -155 -112 -232.5t-212 -77.5q-134 0 -215 77.5t-109 232.5h152q15 -82 58 -123t114 -41t114 41t58 123h152z" />
    <glyph glyph-name="gbreve" unicode="&#x11f;" horiz-adv-x="1026" 
d="M653 657q0 271 -34 348.5t-115 77.5q-79 0 -114.5 -68.5t-35.5 -357.5q0 -219 32 -325.5t114 -106.5q91 0 122 101.5t31 330.5zM639 145q-89 -65 -213 -65q-190 0 -266 141.5t-76 435.5q0 286 99.5 429t299.5 143q81 0 144.5 -34t109.5 -101l37 125h135v-1102
q0 -196 -104.5 -297t-306.5 -101q-80 0 -171 13.5t-192 40.5v164q104 -27 185 -40.5t139 -13.5q96 0 138 44t42 157v61zM838 1603q-31 -155 -112 -232.5t-212 -77.5q-134 0 -215 77.5t-109 232.5h152q15 -82 58 -123t114 -41t114 41t58 123h152z" />
    <glyph glyph-name="Gdotaccent" unicode="&#x120;" horiz-adv-x="1036" 
d="M483 -8q-169 0 -254 103.5t-110 263t-25 395.5q0 265 49.5 427t160 240t310.5 78q142 0 279 -41v-158q-162 54 -266 54q-159 0 -207.5 -135.5t-48.5 -436.5q0 -383 26 -514t125 -131q70 0 105 47.5t35 143.5v358h-136v135h406v-821h-135l-37 127q-45 -68 -114.5 -101.5
t-162.5 -33.5zM667 1634q0 -21 -16 -37t-37 -16h-164q-22 0 -37.5 15.5t-15.5 37.5v164q0 22 15 37.5t36 15.5h164q23 0 39 -16t16 -37v-164z" />
    <glyph glyph-name="gdotaccent" unicode="&#x121;" horiz-adv-x="1026" 
d="M653 657q0 271 -34 348.5t-115 77.5q-79 0 -114.5 -68.5t-35.5 -357.5q0 -219 32 -325.5t114 -106.5q91 0 122 101.5t31 330.5zM639 145q-89 -65 -213 -65q-190 0 -266 141.5t-76 435.5q0 286 99.5 429t299.5 143q81 0 144.5 -34t109.5 -101l37 125h135v-1102
q0 -196 -104.5 -297t-306.5 -101q-80 0 -171 13.5t-192 40.5v164q104 -27 185 -40.5t139 -13.5q96 0 138 44t42 157v61zM649 1368q0 -21 -16 -37t-37 -16h-164q-22 0 -37.5 15.5t-15.5 37.5v164q0 22 15 37.5t36 15.5h164q23 0 39 -16t16 -37v-164z" />
    <glyph glyph-name="Gcommaaccent" unicode="&#x122;" horiz-adv-x="1036" 
d="M483 -8q-169 0 -254 103.5t-110 263t-25 395.5q0 265 49.5 427t160 240t310.5 78q142 0 279 -41v-158q-162 54 -266 54q-159 0 -207.5 -135.5t-48.5 -436.5q0 -383 26 -514t125 -131q70 0 105 47.5t35 143.5v358h-136v135h406v-821h-135l-37 127q-45 -68 -114.5 -101.5
t-162.5 -33.5zM656 -133q0 -81 -85 -121.5t-255 -40.5v105q72 0 115 12q-9 24 -9 45v41q0 27 13.5 40t40.5 13h127q26 0 39.5 -13t13.5 -40v-41z" />
    <glyph glyph-name="gcommaaccent" unicode="&#x123;" horiz-adv-x="1026" 
d="M653 657q0 271 -34 348.5t-115 77.5q-79 0 -114.5 -68.5t-35.5 -357.5q0 -219 32 -325.5t114 -106.5q91 0 122 101.5t31 330.5zM639 145q-89 -65 -213 -65q-190 0 -266 141.5t-76 435.5q0 286 99.5 429t299.5 143q81 0 144.5 -34t109.5 -101l37 125h135v-1102
q0 -196 -104.5 -297t-306.5 -101q-80 0 -171 13.5t-192 40.5v164q104 -27 185 -40.5t139 -13.5q96 0 138 44t42 157v61zM377 1462q0 91 30 158t162 154l74 -72q-78 -47 -98 -65.5t-25 -59.5h82q47 0 47 -47v-182q0 -48 -47 -48h-178q-47 0 -47 48v114z" />
    <glyph glyph-name="Hcircumflex" unicode="&#x124;" horiz-adv-x="1077" 
d="M954 0h-270v741h-291v-741h-270v1489h270v-612h291v612h270v-1489zM863 1558h-178l-147 189l-147 -189h-178l200 312h250z" />
    <glyph glyph-name="hcircumflex" unicode="&#x125;" horiz-adv-x="1038" 
d="M387 1155q103 74 201 74q175 0 257.5 -91t82.5 -286v-852h-271v889q0 104 -29.5 149t-92.5 45q-74 0 -111 -53.5t-37 -159.5v-870h-270v1583h270v-428zM843 1652h-178l-147 111l-147 -111h-178l200 234h250z" />
    <glyph glyph-name="Hbar" unicode="&#x126;" horiz-adv-x="1077" 
d="M684 563h-291v-563h-270v1489h270v-422h291v422h270v-1489h-270v563zM393 696h291v236h-291v-236z" />
    <glyph glyph-name="hbar" unicode="&#x127;" horiz-adv-x="1038" 
d="M387 1155q88 74 201 74q178 0 259 -92.5t81 -284.5v-852h-271v889q0 97 -30.5 145.5t-91.5 48.5q-74 0 -111 -53.5t-37 -159.5v-870h-270v1329h-113v135h113v119h270v-119h283v-135h-283v-174z" />
    <glyph glyph-name="Itilde" unicode="&#x128;" horiz-adv-x="598" 
d="M29 0v135h135v1219h-135v135h540v-135h-135v-1219h135v-135h-540zM638 1773q0 -93 -54 -153t-149 -60t-170 59q-60 57 -98 57q-39 0 -58.5 -21t-19.5 -67v-28h-127v63q0 95 56.5 150t152.5 55q77 0 158 -59q66 -57 108 -57q37 0 55.5 18.5t18.5 58.5v39h127v-55z" />
    <glyph glyph-name="itilde" unicode="&#x129;" horiz-adv-x="504" 
d="M117 0v1219h270v-1219h-270zM591 1528q0 -93 -54 -153t-149 -60t-170 59q-60 57 -98 57q-39 0 -58.5 -21t-19.5 -67v-28h-127v63q0 95 56.5 150t152.5 55q77 0 158 -59q66 -57 108 -57q37 0 55.5 18.5t18.5 58.5v39h127v-55z" />
    <glyph glyph-name="Imacron" unicode="&#x12a;" horiz-adv-x="598" 
d="M29 0v135h135v1219h-135v135h540v-135h-135v-1219h135v-135h-540zM574 1614h-550v152h550v-152z" />
    <glyph glyph-name="imacron" unicode="&#x12b;" horiz-adv-x="504" 
d="M117 0v1219h270v-1219h-270zM528 1370h-550v152h550v-152z" />
    <glyph glyph-name="Ibreve" unicode="&#x12c;" horiz-adv-x="598" 
d="M29 0v135h135v1219h-135v135h540v-135h-135v-1219h135v-135h-540zM624 1869q-31 -155 -112 -232.5t-212 -77.5q-134 0 -215 77.5t-109 232.5h152q15 -82 58 -123t114 -41t114 41t58 123h152z" />
    <glyph glyph-name="ibreve" unicode="&#x12d;" horiz-adv-x="504" 
d="M117 0v1219h270v-1219h-270zM576 1603q-31 -155 -112 -232.5t-212 -77.5q-134 0 -215 77.5t-109 232.5h152q15 -82 58 -123t114 -41t114 41t58 123h152z" />
    <glyph glyph-name="Iogonek" unicode="&#x12e;" horiz-adv-x="598" 
d="M29 0v135h135v1219h-135v135h540v-135h-135v-1219h135v-135h-30q-78 -39 -78 -104q0 -70 78 -70q37 0 67 8v-104q-41 -11 -127 -11q-75 0 -126.5 39.5t-51.5 100.5q0 94 102 141h-374z" />
    <glyph glyph-name="iogonek" unicode="&#x12f;" horiz-adv-x="504" 
d="M117 0v1219h270v-1219q-78 -39 -78 -104q0 -70 78 -70q38 0 68 8v-104q-41 -11 -127 -11q-75 0 -126.5 39.5t-51.5 100.5q0 94 102 141h-135zM170 1315q-21 0 -37 16t-16 37v164q0 21 15.5 37t37.5 16h164q21 0 37 -16t16 -37v-164q0 -21 -16 -37t-37 -16h-164z" />
    <glyph glyph-name="Idotaccent" unicode="&#x130;" horiz-adv-x="598" 
d="M29 0v135h135v1219h-135v135h540v-135h-135v-1219h135v-135h-540zM435 1634q0 -21 -16 -37t-37 -16h-164q-22 0 -37.5 15.5t-15.5 37.5v164q0 22 15 37.5t36 15.5h164q23 0 39 -16t16 -37v-164z" />
    <glyph glyph-name="dotlessi" unicode="&#x131;" horiz-adv-x="504" 
d="M117 0v1219h270v-1219h-270z" />
    <glyph glyph-name="IJ" unicode="&#x132;" horiz-adv-x="1196" 
d="M29 0v135h135v1219h-135v135h540v-135h-135v-1219h135v-135h-540zM1167 1354h-135v-1344q0 -140 -71.5 -215.5t-204.5 -75.5q-129 0 -228 21v162q81 -19 154 -19q45 0 62.5 29t17.5 92v1350h-135v135h540v-135z" />
    <glyph glyph-name="ij" unicode="&#x133;" horiz-adv-x="1008" 
d="M117 0v1219h270v-1219h-270zM170 1315q-21 0 -37 16t-16 37v164q0 21 15.5 37t37.5 16h164q21 0 37 -16t16 -37v-164q0 -21 -16 -37t-37 -16h-164zM621 4v1215h270v-1209q0 -151 -76.5 -221t-199.5 -70q-114 0 -228 21v162q94 -19 156 -19q39 0 58.5 30.5t19.5 90.5z
M674 1315q-21 0 -37 16t-16 37v164q0 21 15.5 37t37.5 16h164q21 0 37 -16t16 -37v-164q0 -21 -16 -37t-37 -16h-164z" />
    <glyph glyph-name="Jcircumflex" unicode="&#x134;" horiz-adv-x="598" 
d="M569 1354h-135v-1344q0 -140 -71.5 -215.5t-204.5 -75.5q-129 0 -228 21v162q81 -19 154 -19q45 0 62.5 29t17.5 92v1350h-135v135h540v-135zM625 1558h-178l-147 189l-147 -189h-178l200 312h250z" />
    <glyph glyph-name="jcircumflex" unicode="&#x135;" horiz-adv-x="504" 
d="M117 4v1215h270v-1209q0 -151 -76.5 -221t-199.5 -70q-112 0 -228 21v162q92 -19 156 -19q39 0 58.5 30.5t19.5 90.5zM578 1292h-177l-149 189l-148 -189h-178l201 312h250z" />
    <glyph glyph-name="Kcommaaccent" unicode="&#x136;" horiz-adv-x="1014" 
d="M1010 0h-305l-312 735v-735h-270v1489h270v-748l359 748h243l-344 -682zM656 -133q0 -81 -85 -121.5t-255 -40.5v105q72 0 115 12q-9 24 -9 45v41q0 27 13.5 40t40.5 13h127q26 0 39.5 -13t13.5 -40v-41z" />
    <glyph glyph-name="kcommaaccent" unicode="&#x137;" horiz-adv-x="948" 
d="M942 0h-297l-264 647v-647h-270v1583h270v-924l315 560h238l-291 -498zM628 -133q0 -81 -85 -121.5t-255 -40.5v105q72 0 115 12q-9 24 -9 45v41q0 27 13.5 40t40.5 13h127q26 0 39.5 -13t13.5 -40v-41z" />
    <glyph glyph-name="kgreenlandic" unicode="&#x138;" horiz-adv-x="948" 
d="M948 0h-297l-264 649v-649h-270v1219h270v-562l315 562h238l-291 -498z" />
    <glyph glyph-name="Lacute" unicode="&#x139;" horiz-adv-x="829" 
d="M123 0v1489h270v-1346h406v-143h-676zM641 1886l-266 -328h-187l203 328h250z" />
    <glyph glyph-name="lacute" unicode="&#x13a;" horiz-adv-x="504" 
d="M508 1886l-208 -234h-187l144 234h251zM117 0v1583h270v-1583h-270z" />
    <glyph glyph-name="Lcommaaccent" unicode="&#x13b;" horiz-adv-x="829" 
d="M123 0v1489h270v-1346h406v-143h-676zM563 -133q0 -81 -85 -121.5t-255 -40.5v105q72 0 115 12q-9 24 -9 45v41q0 27 13.5 40t40.5 13h127q26 0 39.5 -13t13.5 -40v-41z" />
    <glyph glyph-name="lcommaaccent" unicode="&#x13c;" horiz-adv-x="504" 
d="M117 0v1583h270v-1583h-270zM388 -133q0 -81 -85 -121.5t-255 -40.5v105q72 0 115 12q-9 24 -9 45v41q0 27 13.5 40t40.5 13h127q26 0 39.5 -13t13.5 -40v-41z" />
    <glyph glyph-name="Lcaron" unicode="&#x13d;" horiz-adv-x="829" 
d="M123 0v1489h270v-1346h406v-143h-676zM553 1307q-47 0 -47 47v182q0 47 47 47h178q47 0 47 -47v-115q0 -113 -48 -201t-144 -151l-72 72q53 32 83.5 73.5t37.5 92.5h-82z" />
    <glyph glyph-name="lcaron" unicode="&#x13e;" horiz-adv-x="776" 
d="M117 0v1583h270v-1583h-270zM541 1307q-47 0 -47 47v182q0 47 47 47h178q47 0 47 -47v-115q0 -113 -48 -201t-144 -151l-72 72q53 32 83.5 73.5t37.5 92.5h-82z" />
    <glyph glyph-name="Ldot" unicode="&#x13f;" horiz-adv-x="829" 
d="M123 0v1489h270v-1346h406v-143h-676zM762 736q0 -21 -16 -37t-37 -16h-164q-22 0 -37.5 15.5t-15.5 37.5v164q0 22 15 37.5t36 15.5h164q23 0 39 -16t16 -37v-164z" />
    <glyph glyph-name="ldot" unicode="&#x140;" horiz-adv-x="733" 
d="M117 0v1583h270v-1583h-270zM735 736q0 -21 -16 -37t-37 -16h-164q-22 0 -37.5 15.5t-15.5 37.5v164q0 22 15 37.5t36 15.5h164q23 0 39 -16t16 -37v-164z" />
    <glyph glyph-name="Lslash" unicode="&#x141;" horiz-adv-x="854" 
d="M147 0v594l-127 -96v164l127 92v735h271v-545l200 150v-166l-200 -144v-641h405v-143h-676z" />
    <glyph glyph-name="lslash" unicode="&#x142;" horiz-adv-x="582" 
d="M156 0v616l-136 -102v164l136 98v807h270v-612l135 102v-166l-135 -98v-809h-270z" />
    <glyph glyph-name="Nacute" unicode="&#x143;" horiz-adv-x="1171" 
d="M904 0l-515 911q4 -82 4 -194v-717h-270v1489h145l515 -911q-4 88 -4 190v721h270v-1489h-145zM887 1886l-266 -328h-187l203 328h250z" />
    <glyph glyph-name="nacute" unicode="&#x144;" horiz-adv-x="1038" 
d="M295 1067q94 162 295 162q169 0 253.5 -90t84.5 -269v-870h-271v889q0 103 -28.5 148.5t-89.5 45.5q-79 0 -115.5 -56t-36.5 -175v-852h-270v1219h135zM826 1620l-266 -328h-187l203 328h250z" />
    <glyph glyph-name="Ncommaaccent" unicode="&#x145;" horiz-adv-x="1171" 
d="M904 0l-515 911q4 -82 4 -194v-717h-270v1489h145l515 -911q-4 88 -4 190v721h270v-1489h-145zM727 -133q0 -81 -85 -121.5t-255 -40.5v105q72 0 115 12q-9 24 -9 45v41q0 27 13.5 40t40.5 13h127q26 0 39.5 -13t13.5 -40v-41z" />
    <glyph glyph-name="ncommaaccent" unicode="&#x146;" horiz-adv-x="1038" 
d="M295 1067q94 162 295 162q169 0 253.5 -90t84.5 -269v-870h-271v889q0 103 -28.5 148.5t-89.5 45.5q-79 0 -115.5 -56t-36.5 -175v-852h-270v1219h135zM642 -133q0 -81 -85 -121.5t-255 -40.5v105q72 0 115 12q-9 24 -9 45v41q0 27 13.5 40t40.5 13h127q26 0 39.5 -13
t13.5 -40v-41z" />
    <glyph glyph-name="Ncaron" unicode="&#x147;" horiz-adv-x="1171" 
d="M904 0l-515 911q4 -82 4 -194v-717h-270v1489h145l515 -911q-4 88 -4 190v721h270v-1489h-145zM912 1870l-200 -312h-250l-200 312h178l147 -189l147 189h178z" />
    <glyph glyph-name="ncaron" unicode="&#x148;" horiz-adv-x="1038" 
d="M295 1067q94 162 295 162q169 0 253.5 -90t84.5 -269v-870h-271v889q0 103 -28.5 148.5t-89.5 45.5q-79 0 -115.5 -56t-36.5 -175v-852h-270v1219h135zM845 1604l-200 -312h-250l-200 312h178l147 -189l147 189h178z" />
    <glyph glyph-name="napostrophe" unicode="&#x149;" horiz-adv-x="1311" 
d="M567 1067q94 162 295 162q169 0 253.5 -90t84.5 -269v-870h-271v889q0 103 -28.5 148.5t-89.5 45.5q-79 0 -115.5 -56t-36.5 -175v-852h-270v1219h135zM87 1276q-24 0 -38.5 14.5t-14.5 38.5v201q0 21 16 37t37 16h197q21 0 37 -16t16 -37v-137q0 -128 -54 -219.5
t-169 -161.5l-80 80q64 36 99 82t44 102h-90z" />
    <glyph glyph-name="Eng" unicode="&#x14a;" horiz-adv-x="1171" 
d="M778 221l-389 690q4 -69 4 -194v-717h-270v1489h145l514 -911q-4 81 -4 190v721h271v-1489q0 -135 -73 -208t-204 -73q-125 0 -227 21v162q86 -19 153 -19q80 0 80 121v217z" />
    <glyph glyph-name="eng" unicode="&#x14b;" horiz-adv-x="1038" 
d="M295 1067q93 162 295 162q169 0 253.5 -90t84.5 -269v-860q0 -145 -69 -218t-206 -73q-111 0 -227 21v162q92 -19 156 -19q37 0 56 29.5t19 87.5v889q0 97 -29.5 145.5t-88.5 48.5q-76 0 -114 -58t-38 -173v-852h-270v1219h135z" />
    <glyph glyph-name="Omacron" unicode="&#x14c;" horiz-adv-x="1094" 
d="M549 135q103 0 139.5 96t36.5 529q0 335 -29.5 464.5t-152.5 129.5q-117 0 -145.5 -122t-28.5 -472q0 -377 32 -501t148 -124zM541 -10q-203 0 -300.5 99.5t-123 254t-25.5 406.5q0 235 26.5 389.5t125 257t299.5 102.5q207 0 307 -97.5t125.5 -247t25.5 -390.5
q0 -262 -25.5 -418.5t-125.5 -256t-309 -99.5zM822 1614h-550v152h550v-152z" />
    <glyph glyph-name="omacron" unicode="&#x14d;" horiz-adv-x="1030" 
d="M514 1229q222 0 327 -147t105 -443q0 -340 -97.5 -494.5t-334.5 -154.5q-239 0 -334.5 154t-95.5 495q0 297 104 443.5t326 146.5zM514 135q87 0 121.5 93.5t34.5 410.5q0 250 -35 347t-121 97q-90 0 -122 -103t-32 -341q0 -323 34.5 -413.5t119.5 -90.5zM790 1370h-550
v152h550v-152z" />
    <glyph glyph-name="Obreve" unicode="&#x14e;" horiz-adv-x="1094" 
d="M549 135q103 0 139.5 96t36.5 529q0 335 -29.5 464.5t-152.5 129.5q-117 0 -145.5 -122t-28.5 -472q0 -377 32 -501t148 -124zM541 -10q-203 0 -300.5 99.5t-123 254t-25.5 406.5q0 235 26.5 389.5t125 257t299.5 102.5q207 0 307 -97.5t125.5 -247t25.5 -390.5
q0 -262 -25.5 -418.5t-125.5 -256t-309 -99.5zM870 1869q-31 -155 -112 -232.5t-212 -77.5q-134 0 -215 77.5t-109 232.5h152q15 -82 58 -123t114 -41t114 41t58 123h152z" />
    <glyph glyph-name="obreve" unicode="&#x14f;" horiz-adv-x="1030" 
d="M514 1229q222 0 327 -147t105 -443q0 -340 -97.5 -494.5t-334.5 -154.5q-239 0 -334.5 154t-95.5 495q0 297 104 443.5t326 146.5zM514 135q87 0 121.5 93.5t34.5 410.5q0 250 -35 347t-121 97q-90 0 -122 -103t-32 -341q0 -323 34.5 -413.5t119.5 -90.5zM829 1603
q-31 -155 -112 -232.5t-212 -77.5q-134 0 -215 77.5t-109 232.5h152q15 -82 58 -123t114 -41t114 41t58 123h152z" />
    <glyph glyph-name="Ohungarumlaut" unicode="&#x150;" horiz-adv-x="1094" 
d="M549 135q103 0 139.5 96t36.5 529q0 335 -29.5 464.5t-152.5 129.5q-117 0 -145.5 -122t-28.5 -472q0 -377 32 -501t148 -124zM541 -10q-203 0 -300.5 99.5t-123 254t-25.5 406.5q0 235 26.5 389.5t125 257t299.5 102.5q207 0 307 -97.5t125.5 -247t25.5 -390.5
q0 -262 -25.5 -418.5t-125.5 -256t-309 -99.5zM1018 1886l-244 -328h-186l225 328h205zM680 1886l-244 -328h-186l225 328h205z" />
    <glyph glyph-name="ohungarumlaut" unicode="&#x151;" horiz-adv-x="1030" 
d="M514 1229q222 0 327 -147t105 -443q0 -340 -97.5 -494.5t-334.5 -154.5q-239 0 -334.5 154t-95.5 495q0 297 104 443.5t326 146.5zM514 135q87 0 121.5 93.5t34.5 410.5q0 250 -35 347t-121 97q-90 0 -122 -103t-32 -341q0 -323 34.5 -413.5t119.5 -90.5zM991 1620
l-244 -328h-186l225 328h205zM653 1620l-244 -328h-186l225 328h205z" />
    <glyph glyph-name="OE" unicode="&#x152;" horiz-adv-x="1405" 
d="M543 135q98 0 134 92.5t36 532.5q0 360 -35 477t-141 117q-113 0 -140.5 -116.5t-27.5 -477.5q0 -380 30 -502.5t144 -122.5zM535 -10q-202 0 -298.5 99.5t-120.5 252.5t-24 408q0 236 25.5 390t122.5 256.5t297 102.5q114 0 196 -59v49h635v-135h-385v-473h299v-136
h-299v-610h385v-135h-635v45q-69 -55 -198 -55z" />
    <glyph glyph-name="oe" unicode="&#x153;" horiz-adv-x="1518" 
d="M1145 -10q-136 0 -210.5 36t-127.5 109q-56 -73 -129 -109t-164 -36q-239 0 -334.5 154t-95.5 495q0 297 104 443.5t326 146.5q91 0 164 -37t129 -111q52 74 120.5 111t153.5 37q194 0 276.5 -128t82.5 -470v-70h-506q4 -207 52.5 -311.5t164.5 -104.5q87 0 246 50v-154
q-114 -51 -252 -51zM514 135q87 0 121.5 93.5t34.5 410.5q0 250 -35 347t-121 97q-90 0 -122 -103t-32 -341q0 -323 34.5 -413.5t119.5 -90.5zM934 696h260q0 238 -21.5 318t-91.5 80q-78 0 -110.5 -96t-36.5 -302z" />
    <glyph glyph-name="Racute" unicode="&#x154;" horiz-adv-x="1024" 
d="M1012 0h-310l-251 629h-58v-629h-270v1489h377q248 0 346 -97.5t98 -324.5q0 -157 -57 -257.5t-170 -143.5zM393 764h96q93 0 139 64.5t46 238.5q0 163 -45.5 225t-139.5 62h-96v-590zM805 1886l-266 -328h-187l203 328h250z" />
    <glyph glyph-name="racute" unicode="&#x155;" horiz-adv-x="711" 
d="M117 0v1219h135l53 -195q44 102 112.5 151.5t190.5 49.5q29 0 76 -6v-224q-63 15 -145 15q-81 0 -116.5 -42.5t-35.5 -133.5v-834h-270zM664 1620l-266 -328h-187l203 328h250z" />
    <glyph glyph-name="Rcommaaccent" unicode="&#x156;" horiz-adv-x="1024" 
d="M1012 0h-310l-251 629h-58v-629h-270v1489h377q248 0 346 -97.5t98 -324.5q0 -157 -57 -257.5t-170 -143.5zM393 764h96q93 0 139 64.5t46 238.5q0 163 -45.5 225t-139.5 62h-96v-590zM668 -133q0 -81 -85 -121.5t-255 -40.5v105q72 0 115 12q-9 24 -9 45v41
q0 27 13.5 40t40.5 13h127q26 0 39.5 -13t13.5 -40v-41z" />
    <glyph glyph-name="rcommaaccent" unicode="&#x157;" horiz-adv-x="711" 
d="M117 0v1219h135l53 -195q44 102 112.5 151.5t190.5 49.5q29 0 76 -6v-224q-63 15 -145 15q-81 0 -116.5 -42.5t-35.5 -133.5v-834h-270zM399 -133q0 -81 -85 -121.5t-255 -40.5v105q72 0 115 12q-9 24 -9 45v41q0 27 13.5 40t40.5 13h127q26 0 39.5 -13t13.5 -40v-41z
" />
    <glyph glyph-name="Rcaron" unicode="&#x158;" horiz-adv-x="1024" 
d="M1012 0h-310l-251 629h-58v-629h-270v1489h377q248 0 346 -97.5t98 -324.5q0 -157 -57 -257.5t-170 -143.5zM393 764h96q93 0 139 64.5t46 238.5q0 163 -45.5 225t-139.5 62h-96v-590zM830 1870l-200 -312h-250l-200 312h178l147 -189l147 189h178z" />
    <glyph glyph-name="rcaron" unicode="&#x159;" horiz-adv-x="711" 
d="M117 0v1219h135l53 -195q44 102 112.5 151.5t190.5 49.5q29 0 76 -6v-224q-63 15 -145 15q-81 0 -116.5 -42.5t-35.5 -133.5v-834h-270zM693 1604l-200 -312h-250l-200 312h178l147 -189l147 189h178z" />
    <glyph glyph-name="Sacute" unicode="&#x15a;" horiz-adv-x="915" 
d="M360 -12q-128 0 -311 51v158q189 -54 289 -54q127 0 190.5 56t63.5 168q0 103 -48.5 168t-197.5 155q-161 100 -224 199t-63 225q0 202 127.5 293.5t335.5 91.5q140 0 283 -39v-155q-136 38 -238 38q-119 0 -178 -45t-59 -135q0 -72 37 -128t172 -142
q115 -75 179.5 -130.5t104 -135t39.5 -195.5q0 -222 -125.5 -333t-376.5 -111zM754 1886l-266 -328h-187l203 328h250z" />
    <glyph glyph-name="sacute" unicode="&#x15b;" horiz-adv-x="801" 
d="M330 -10q-68 0 -139.5 11t-147.5 34v153q81 -27 149 -40t123 -13q87 0 130.5 41t43.5 123q0 58 -35.5 110.5t-164.5 127.5q-134 76 -180 155t-46 180q0 182 116.5 269.5t293.5 87.5q142 0 248 -35v-150q-113 39 -213 39q-87 0 -130.5 -39.5t-43.5 -117.5q0 -73 41 -114.5
t137 -96.5q85 -50 133.5 -89t81.5 -103.5t33 -162.5q0 -203 -114.5 -286.5t-315.5 -83.5zM701 1620l-266 -328h-187l203 328h250z" />
    <glyph glyph-name="Scircumflex" unicode="&#x15c;" horiz-adv-x="915" 
d="M360 -12q-128 0 -311 51v158q189 -54 289 -54q127 0 190.5 56t63.5 168q0 103 -48.5 168t-197.5 155q-161 100 -224 199t-63 225q0 202 127.5 293.5t335.5 91.5q140 0 283 -39v-155q-136 38 -238 38q-119 0 -178 -45t-59 -135q0 -72 37 -128t172 -142
q115 -75 179.5 -130.5t104 -135t39.5 -195.5q0 -222 -125.5 -333t-376.5 -111zM792 1558h-178l-147 189l-147 -189h-178l200 312h250z" />
    <glyph glyph-name="scircumflex" unicode="&#x15d;" horiz-adv-x="801" 
d="M330 -10q-68 0 -139.5 11t-147.5 34v153q81 -27 149 -40t123 -13q87 0 130.5 41t43.5 123q0 58 -35.5 110.5t-164.5 127.5q-134 76 -180 155t-46 180q0 182 116.5 269.5t293.5 87.5q142 0 248 -35v-150q-113 39 -213 39q-87 0 -130.5 -39.5t-43.5 -117.5q0 -73 41 -114.5
t137 -96.5q85 -50 133.5 -89t81.5 -103.5t33 -162.5q0 -203 -114.5 -286.5t-315.5 -83.5zM728 1292h-178l-147 189l-147 -189h-178l200 312h250z" />
    <glyph glyph-name="Scedilla" unicode="&#x15e;" horiz-adv-x="915" 
d="M360 -12q-128 0 -311 51v158q189 -54 289 -54q127 0 190.5 56t63.5 168q0 103 -48.5 168t-197.5 155q-161 100 -224 199t-63 225q0 202 127.5 293.5t335.5 91.5q140 0 283 -39v-155q-136 38 -238 38q-119 0 -178 -45t-59 -135q0 -72 37 -128t172 -142
q115 -75 179.5 -130.5t104 -135t39.5 -195.5q0 -222 -125.5 -333t-376.5 -111zM595 -133q0 -81 -85 -121.5t-255 -40.5v105q72 0 115 12q-9 24 -9 45v41q0 27 13.5 40t40.5 13h127q26 0 39.5 -13t13.5 -40v-41z" />
    <glyph glyph-name="scedilla" unicode="&#x15f;" horiz-adv-x="801" 
d="M330 -10q-68 0 -139.5 11t-147.5 34v153q81 -27 149 -40t123 -13q87 0 130.5 41t43.5 123q0 58 -35.5 110.5t-164.5 127.5q-134 76 -180 155t-46 180q0 182 116.5 269.5t293.5 87.5q142 0 248 -35v-150q-113 39 -213 39q-87 0 -130.5 -39.5t-43.5 -117.5q0 -73 41 -114.5
t137 -96.5q85 -50 133.5 -89t81.5 -103.5t33 -162.5q0 -203 -114.5 -286.5t-315.5 -83.5zM540 -133q0 -81 -85 -121.5t-255 -40.5v105q72 0 115 12q-9 24 -9 45v41q0 27 13.5 40t40.5 13h127q26 0 39.5 -13t13.5 -40v-41z" />
    <glyph glyph-name="Scaron" unicode="&#x160;" horiz-adv-x="915" 
d="M360 -12q-128 0 -311 51v158q189 -54 289 -54q127 0 190.5 56t63.5 168q0 103 -48.5 168t-197.5 155q-161 100 -224 199t-63 225q0 202 127.5 293.5t335.5 91.5q140 0 283 -39v-155q-136 38 -238 38q-119 0 -178 -45t-59 -135q0 -72 37 -128t172 -142
q115 -75 179.5 -130.5t104 -135t39.5 -195.5q0 -222 -125.5 -333t-376.5 -111zM769 1870l-200 -312h-250l-200 312h178l147 -189l147 189h178z" />
    <glyph glyph-name="scaron" unicode="&#x161;" horiz-adv-x="801" 
d="M330 -10q-68 0 -139.5 11t-147.5 34v153q81 -27 149 -40t123 -13q87 0 130.5 41t43.5 123q0 58 -35.5 110.5t-164.5 127.5q-134 76 -180 155t-46 180q0 182 116.5 269.5t293.5 87.5q142 0 248 -35v-150q-113 39 -213 39q-87 0 -130.5 -39.5t-43.5 -117.5q0 -73 41 -114.5
t137 -96.5q85 -50 133.5 -89t81.5 -103.5t33 -162.5q0 -203 -114.5 -286.5t-315.5 -83.5zM726 1604l-200 -312h-250l-200 312h178l147 -189l147 189h178z" />
    <glyph glyph-name="Tcommaaccent" unicode="&#x162;" horiz-adv-x="969" 
d="M349 0v1337h-318v152h907v-152h-318v-1337h-271zM618 -133q0 -81 -85 -121.5t-255 -40.5v105q72 0 115 12q-9 24 -9 45v41q0 27 13.5 40t40.5 13h127q26 0 39.5 -13t13.5 -40v-41z" />
    <glyph glyph-name="tcommaaccent" unicode="&#x163;" horiz-adv-x="694" 
d="M424 -10q-146 0 -211.5 69.5t-65.5 214.5v809h-135v97l346 309h60v-270h252v-136h-252v-782q0 -80 24 -118t90 -38q59 0 156 23v-143q-141 -35 -264 -35zM520 -133q0 -81 -85 -121.5t-255 -40.5v105q72 0 115 12q-9 24 -9 45v41q0 27 13.5 40t40.5 13h127q26 0 39.5 -13
t13.5 -40v-41z" />
    <glyph glyph-name="Tcaron" unicode="&#x164;" horiz-adv-x="969" 
d="M349 0v1337h-318v152h907v-152h-318v-1337h-271zM810 1870l-200 -312h-250l-200 312h178l147 -189l147 189h178z" />
    <glyph glyph-name="tcaron" unicode="&#x165;" horiz-adv-x="938" 
d="M424 -10q-139 0 -208 71t-69 213v809h-135v97l346 309h60v-270h252v-136h-252v-782q0 -78 28.5 -117t85.5 -39q59 0 156 23v-143q-132 -35 -264 -35zM932 1421q0 -74 -38 -136t-151 -136l-57 76q99 59 100 112h-79q-50 0 -50 47v152q0 47 50 47h176q49 0 49 -47v-115z
" />
    <glyph glyph-name="Tbar" unicode="&#x166;" horiz-adv-x="969" 
d="M350 0v731h-223v150h223v456h-319v152h907v-152h-317v-456h223v-150h-223v-731h-271z" />
    <glyph glyph-name="tbar" unicode="&#x167;" horiz-adv-x="705" 
d="M424 -10q-139 0 -208 71t-69 213v367h-129v133h129v309h-135v97l346 309h60v-270h252v-136h-252v-309h250v-133h-250v-340q0 -78 28.5 -117t85.5 -39q59 0 156 23v-143q-132 -35 -264 -35z" />
    <glyph glyph-name="Utilde" unicode="&#x168;" horiz-adv-x="1069" 
d="M535 -10q-208 0 -312 100.5t-104 302.5v1096h270v-1149q0 -105 33.5 -155t112.5 -50q76 0 110.5 50t34.5 155v1149h270v-1096q0 -202 -104 -302.5t-311 -100.5zM872 1773q0 -93 -54 -153t-149 -60t-170 59q-60 57 -98 57q-39 0 -58.5 -21t-19.5 -67v-28h-127v63
q0 95 56.5 150t152.5 55q77 0 158 -59q66 -57 108 -57q37 0 55.5 18.5t18.5 58.5v39h127v-55z" />
    <glyph glyph-name="utilde" unicode="&#x169;" horiz-adv-x="1038" 
d="M743 152q-47 -81 -120.5 -121.5t-173.5 -40.5q-169 0 -253.5 89.5t-84.5 268.5v871h270v-889q0 -103 28.5 -149t90.5 -46q78 0 114.5 56t36.5 176v852h271v-1219h-136zM858 1528q0 -93 -54 -153t-149 -60t-170 59q-60 57 -98 57q-39 0 -58.5 -21t-19.5 -67v-28h-127v63
q0 95 56.5 150t152.5 55q77 0 158 -59q66 -57 108 -57q37 0 55.5 18.5t18.5 58.5v39h127v-55z" />
    <glyph glyph-name="Umacron" unicode="&#x16a;" horiz-adv-x="1069" 
d="M535 -10q-208 0 -312 100.5t-104 302.5v1096h270v-1149q0 -105 33.5 -155t112.5 -50q76 0 110.5 50t34.5 155v1149h270v-1096q0 -202 -104 -302.5t-311 -100.5zM810 1614h-550v152h550v-152z" />
    <glyph glyph-name="umacron" unicode="&#x16b;" horiz-adv-x="1038" 
d="M743 152q-47 -81 -120.5 -121.5t-173.5 -40.5q-169 0 -253.5 89.5t-84.5 268.5v871h270v-889q0 -103 28.5 -149t90.5 -46q78 0 114.5 56t36.5 176v852h271v-1219h-136zM794 1370h-550v152h550v-152z" />
    <glyph glyph-name="Ubreve" unicode="&#x16c;" horiz-adv-x="1069" 
d="M535 -10q-208 0 -312 100.5t-104 302.5v1096h270v-1149q0 -105 33.5 -155t112.5 -50q76 0 110.5 50t34.5 155v1149h270v-1096q0 -202 -104 -302.5t-311 -100.5zM858 1869q-31 -155 -112 -232.5t-212 -77.5q-134 0 -215 77.5t-109 232.5h152q15 -82 58 -123t114 -41
t114 41t58 123h152z" />
    <glyph glyph-name="ubreve" unicode="&#x16d;" horiz-adv-x="1038" 
d="M743 152q-47 -81 -120.5 -121.5t-173.5 -40.5q-169 0 -253.5 89.5t-84.5 268.5v871h270v-889q0 -103 28.5 -149t90.5 -46q78 0 114.5 56t36.5 176v852h271v-1219h-136zM844 1603q-31 -155 -112 -232.5t-212 -77.5q-134 0 -215 77.5t-109 232.5h152q15 -82 58 -123
t114 -41t114 41t58 123h152z" />
    <glyph glyph-name="Uring" unicode="&#x16e;" horiz-adv-x="1069" 
d="M535 -10q-208 0 -312 100.5t-104 302.5v1096h270v-1149q0 -105 33.5 -155t112.5 -50q76 0 110.5 50t34.5 155v1149h270v-1096q0 -202 -104 -302.5t-311 -100.5zM536 1886q89 0 144 -56.5t55 -140.5q0 -88 -56 -145.5t-143 -57.5q-82 0 -141.5 57.5t-59.5 145.5
q0 84 56.5 140.5t144.5 56.5zM536 1586q45 0 72 28.5t27 74.5q0 45 -27.5 71t-71.5 26q-45 0 -73 -26t-28 -71q0 -47 27.5 -75t73.5 -28z" />
    <glyph glyph-name="uring" unicode="&#x16f;" horiz-adv-x="1038" 
d="M743 152q-47 -81 -120.5 -121.5t-173.5 -40.5q-169 0 -253.5 89.5t-84.5 268.5v871h270v-889q0 -103 28.5 -149t90.5 -46q78 0 114.5 56t36.5 176v852h271v-1219h-136zM520 1682q89 0 144 -56.5t55 -140.5q0 -88 -56 -145.5t-143 -57.5q-82 0 -141.5 57.5t-59.5 145.5
q0 84 56.5 140.5t144.5 56.5zM520 1382q45 0 72 28.5t27 74.5q0 45 -27.5 71t-71.5 26q-45 0 -73 -26t-28 -71q0 -47 27.5 -75t73.5 -28z" />
    <glyph glyph-name="Uhungarumlaut" unicode="&#x170;" horiz-adv-x="1069" 
d="M535 -10q-208 0 -312 100.5t-104 302.5v1096h270v-1149q0 -105 33.5 -155t112.5 -50q76 0 110.5 50t34.5 155v1149h270v-1096q0 -202 -104 -302.5t-311 -100.5zM1006 1886l-244 -328h-186l225 328h205zM668 1886l-244 -328h-186l225 328h205z" />
    <glyph glyph-name="uhungarumlaut" unicode="&#x171;" horiz-adv-x="1038" 
d="M743 152q-47 -81 -120.5 -121.5t-173.5 -40.5q-169 0 -253.5 89.5t-84.5 268.5v871h270v-889q0 -103 28.5 -149t90.5 -46q78 0 114.5 56t36.5 176v852h271v-1219h-136zM971 1620l-244 -328h-186l225 328h205zM633 1620l-244 -328h-186l225 328h205z" />
    <glyph glyph-name="Uogonek" unicode="&#x172;" horiz-adv-x="1069" 
d="M535 -10q-208 0 -312 100.5t-104 302.5v1096h270v-1149q0 -103 36.5 -154t109.5 -51q72 0 108.5 51t36.5 154v1149h270v-1096q0 -250 -166 -346q-73 -60 -73 -145q0 -76 77 -76q38 0 68 8v-104q-41 -11 -127 -11q-75 0 -126.5 39.5t-51.5 100.5q0 92 84 137
q-41 -6 -100 -6z" />
    <glyph glyph-name="uogonek" unicode="&#x173;" horiz-adv-x="1038" 
d="M743 152q-47 -81 -120.5 -121.5t-173.5 -40.5q-169 0 -253.5 89.5t-84.5 268.5v871h270v-889q0 -98 29.5 -146.5t89.5 -48.5q75 0 113 58t38 174v852h271v-1219q-78 -39 -78 -104q0 -70 78 -70q37 0 67 8v-104q-41 -11 -127 -11q-75 0 -126.5 39.5t-51.5 100.5
q0 94 102 141z" />
    <glyph glyph-name="Wcircumflex" unicode="&#x174;" horiz-adv-x="1579" 
d="M262 0l-239 1489h286l146 -1075l227 1075h289l188 -1079l184 1079h220l-287 -1489h-285l-200 1104l-250 -1104h-279zM1138 1558h-178l-147 189l-147 -189h-178l200 312h250z" />
    <glyph glyph-name="wcircumflex" unicode="&#x175;" horiz-adv-x="1581" 
d="M279 0l-265 1219h283l164 -934l221 934h291l188 -930l195 930h217l-311 -1219h-271l-196 922l-236 -922h-280zM1146 1292h-178l-147 189l-147 -189h-178l200 312h250z" />
    <glyph glyph-name="Ycircumflex" unicode="&#x176;" horiz-adv-x="911" 
d="M305 0v461l-295 1028h297l174 -721l211 721h211l-328 -1022v-467h-270zM802 1558h-178l-147 189l-147 -189h-178l200 312h250z" />
    <glyph glyph-name="ycircumflex" unicode="&#x177;" horiz-adv-x="907" 
d="M270 78l-256 1141h283l176 -947l209 947h217l-326 -1252q-32 -124 -105 -186t-187 -62q-115 0 -207 23v162q94 -21 190 -21q55 0 87 33.5t52 161.5h-133zM806 1292h-178l-147 189l-147 -189h-178l200 312h250z" />
    <glyph glyph-name="Ydieresis" unicode="&#x178;" horiz-adv-x="911" 
d="M305 0v461l-295 1028h297l174 -721l211 721h211l-328 -1022v-467h-270zM748 1611q0 -21 -16 -37t-37 -16h-127q-23 0 -38.5 16t-15.5 37v127q0 22 15.5 38t36.5 16h127q22 0 38.5 -16t16.5 -38v-127zM374 1570q-16 -12 -36 -12h-127q-22 0 -38.5 16t-16.5 37v127
q0 22 16 38t37 16h127q23 0 38.5 -16t15.5 -38v-127q0 -29 -16 -41z" />
    <glyph glyph-name="Zacute" unicode="&#x179;" horiz-adv-x="831" 
d="M39 0v135l442 1202h-430v152h733v-135l-444 -1202h453v-152h-754zM707 1886l-266 -328h-187l203 328h250z" />
    <glyph glyph-name="zacute" unicode="&#x17a;" horiz-adv-x="844" 
d="M35 0v135l444 932h-405v152h714v-136l-444 -931h465v-152h-774zM721 1620l-266 -328h-187l203 328h250z" />
    <glyph glyph-name="Zdotaccent" unicode="&#x17b;" horiz-adv-x="831" 
d="M39 0v135l442 1202h-430v152h733v-135l-444 -1202h453v-152h-754zM551 1634q0 -21 -16 -37t-37 -16h-164q-22 0 -37.5 15.5t-15.5 37.5v164q0 22 15 37.5t36 15.5h164q23 0 39 -16t16 -37v-164z" />
    <glyph glyph-name="zdotaccent" unicode="&#x17c;" horiz-adv-x="844" 
d="M35 0v135l444 932h-405v152h714v-136l-444 -931h465v-152h-774zM557 1368q0 -21 -16 -37t-37 -16h-164q-22 0 -37.5 15.5t-15.5 37.5v164q0 22 15 37.5t36 15.5h164q23 0 39 -16t16 -37v-164z" />
    <glyph glyph-name="Zcaron" unicode="&#x17d;" horiz-adv-x="831" 
d="M39 0v135l442 1202h-430v152h733v-135l-444 -1202h453v-152h-754zM730 1870l-200 -312h-250l-200 312h178l147 -189l147 189h178z" />
    <glyph glyph-name="zcaron" unicode="&#x17e;" horiz-adv-x="844" 
d="M35 0v135l444 932h-405v152h714v-136l-444 -931h465v-152h-774zM744 1604l-200 -312h-250l-200 312h178l147 -189l147 189h178z" />
    <glyph glyph-name="longs" unicode="&#x17f;" horiz-adv-x="512" 
d="M657 1407q-95 33 -161 33q-55 0 -82 -36.5t-27 -109.5v-1294h-270v1235q0 179 78.5 268.5t236.5 89.5q111 0 225 -32v-154z" />
    <glyph glyph-name="florin" unicode="&#x192;" horiz-adv-x="1008" 
d="M997 1575l-24 -158q-76 21 -144 21q-57 0 -89 -26.5t-44.5 -67.5t-40.5 -181h217l-24 -141h-221l-176 -950q-35 -182 -118 -262t-341 -80v135q95 0 125.5 33t52.5 147l184 977h-184l25 141h186q30 152 51.5 213.5t66 112t116 77.5t176.5 27q91 0 206 -18z" />
    <glyph glyph-name="Ohorn" unicode="&#x1a0;" horiz-adv-x="1144" 
d="M919 1312q106 17 106 161v104h173v-80q0 -253 -233 -297q36 -137 36 -436q0 -337 -37.5 -472.5t-131 -218.5t-291.5 -83q-168 0 -262 66.5t-140.5 199.5t-46.5 494q0 311 39 447t133 219t279 83q271 0 376 -187zM725 760q0 339 -30.5 466.5t-151.5 127.5
q-112 0 -143 -110.5t-31 -483.5t31.5 -499t148.5 -126q105 0 140.5 100.5t35.5 524.5zM1094 0zM0 1489z" />
    <glyph glyph-name="ohorn" unicode="&#x1a1;" horiz-adv-x="1135" 
d="M871 1033q91 23 91 157v104h173v-80q0 -246 -221 -294q32 -120 32 -281q0 -338 -97 -493.5t-335 -155.5q-239 0 -334.5 153.5t-95.5 495.5q0 297 104 443.5t326 146.5q254 0 357 -196zM670 639q0 243 -34 343.5t-122 100.5q-93 0 -123.5 -107t-30.5 -337q0 -330 35 -417
t119 -87q89 0 122.5 98t33.5 406zM0 1219zM1030 0z" />
    <glyph glyph-name="Uhorn" unicode="&#x1af;" horiz-adv-x="1244" 
d="M119 1489h270v-1149q0 -106 33.5 -155.5t112.5 -49.5q145 0 145 205v1149h270v-179q121 11 121 163v104h173v-80q0 -282 -294 -305v-799q0 -403 -415 -403q-416 0 -416 403v1096zM1069 0z" />
    <glyph glyph-name="uhorn" unicode="&#x1b0;" horiz-adv-x="1211" 
d="M743 152q-94 -162 -294 -162q-338 0 -338 358v871h270v-889q0 -195 119 -195q151 0 151 232v852h271v-192q116 13 116 163v104h173v-80q0 -279 -289 -304v-910h-136zM1038 0z" />
    <glyph glyph-name="Aringacute" unicode="&#x1fa;" horiz-adv-x="905" 
d="M533 406l-99 610l-128 -610h227zM600 0l-45 271h-277l-57 -271h-207l308 1362q-25 25 -43 59t-18 78q0 84 56 142t144 58q89 0 144.5 -58t55.5 -142q0 -40 -12.5 -75.5t-44.5 -61.5l281 -1362h-285zM461 1399q49 0 74.5 27.5t25.5 72.5t-25.5 72.5t-74.5 27.5
q-45 0 -72.5 -27.5t-27.5 -72.5t27 -72.5t73 -27.5zM706 1886l-200 -149h-187l137 149h250zM464 1489z" />
    <glyph glyph-name="aringacute" unicode="&#x1fb;" horiz-adv-x="967" 
d="M586 612h-47q-106 0 -158.5 -63t-52.5 -189q0 -109 26 -167t92 -58q73 0 106.5 49.5t33.5 163.5v264zM676 154q-38 -82 -114 -123t-189 -41q-155 0 -232.5 92t-77.5 276q0 188 119.5 289t325.5 101h78v114q0 114 -37 162.5t-121 48.5q-135 0 -287 -51v154q155 53 332 53
q191 0 287 -92.5t96 -276.5v-860h-135zM477 1670q89 0 144 -56.5t55 -140.5q0 -88 -56 -145.5t-143 -57.5q-82 0 -141.5 57.5t-59.5 145.5q0 84 56.5 140.5t144.5 56.5zM477 1370q45 0 72 28.5t27 74.5q0 45 -27.5 71t-71.5 26q-45 0 -73 -26t-28 -71q0 -47 27.5 -75
t73.5 -28zM684 1886l-182 -176h-187l119 176h250z" />
    <glyph glyph-name="AEacute" unicode="&#x1fc;" horiz-adv-x="1225" 
d="M1188 0h-656v270h-241l-68 -270h-217l387 1489h795v-135h-385v-473h299v-136h-299v-610h385v-135zM532 406v839l-208 -839h208zM969 1886l-266 -328h-187l203 328h250z" />
    <glyph glyph-name="aeacute" unicode="&#x1fd;" horiz-adv-x="1440" 
d="M586 612h-47q-106 0 -158.5 -63t-52.5 -189q0 -109 26 -167t92 -58q73 0 106.5 49.5t33.5 163.5v264zM696 180q-51 -98 -126.5 -144t-196.5 -46q-155 0 -232.5 92t-77.5 276q0 188 119.5 289t325.5 101h78v114q0 114 -37 162.5t-121 48.5q-135 0 -287 -51v154
q155 53 332 53q102 0 163.5 -27t113.5 -96q39 61 102.5 92t151.5 31q193 0 275.5 -128t82.5 -470v-70h-506q4 -207 52.5 -311.5t164.5 -104.5q87 0 246 50v-154q-116 -51 -293 -51q-129 0 -207 46t-123 144zM856 696h260q0 238 -21 318t-91 80q-78 0 -111 -96t-37 -302z
M1049 1620l-266 -328h-187l203 328h250z" />
    <glyph glyph-name="Oslashacute" unicode="&#x1fe;" horiz-adv-x="1094" 
d="M1057 1581l-139 -266q36 -58 59.5 -173.5t23.5 -377.5t-25.5 -418.5t-125.5 -256t-309 -99.5q-87 0 -156 19.5t-119 58.5l-84 -160h-145l139 266q-36 60 -60 180t-24 396q0 235 26.5 389.5t125 257t299.5 102.5q91 0 162 -20t122 -60l84 162h146zM702 1184
q-14 87 -49.5 128.5t-109.5 41.5q-117 0 -145.5 -122t-28.5 -472q0 -162 2 -217zM391 305q15 -88 50.5 -129t107.5 -41q103 0 139.5 96t36.5 529q0 138 -2 186zM834 1886l-266 -328h-187l203 328h250z" />
    <glyph glyph-name="oslashacute" unicode="&#x1ff;" horiz-adv-x="1030" 
d="M993 1311l-141 -246q47 -73 70.5 -179.5t23.5 -246.5q0 -340 -97.5 -494.5t-334.5 -154.5q-77 0 -138.5 15t-107.5 46l-82 -143h-149l139 244q-46 74 -69 196t-23 291q0 297 104 443.5t326 146.5q75 0 136 -16.5t108 -49.5l86 148h149zM643 961q-16 61 -48.5 91.5
t-80.5 30.5q-90 0 -122 -103t-32 -341q0 -123 2 -170zM387 256q14 -61 46 -91t81 -30q87 0 121.5 93.5t34.5 410.5q0 81 -2 111zM791 1620l-266 -328h-187l203 328h250z" />
    <glyph glyph-name="circumflex" unicode="&#x2c6;" horiz-adv-x="682" 
d="M667 1292h-178l-147 189l-147 -189h-178l200 312h250z" />
    <glyph glyph-name="caron" unicode="&#x2c7;" horiz-adv-x="682" 
d="M667 1604l-200 -312h-250l-200 312h178l147 -189l147 189h178z" />
    <glyph glyph-name="macron" unicode="&#x2c9;" horiz-adv-x="682" 
d="M616 1370h-550v152h550v-152z" />
    <glyph glyph-name="breve" unicode="&#x2d8;" horiz-adv-x="682" 
d="M666 1602q-31 -155 -112 -232.5t-212 -77.5q-134 0 -215 77.5t-109 232.5h152q15 -82 58 -123t114 -41t114 41t58 123h152z" />
    <glyph glyph-name="dotaccent" unicode="&#x2d9;" horiz-adv-x="682" 
d="M477 1368q0 -21 -16 -37t-37 -16h-164q-22 0 -37.5 15.5t-15.5 37.5v164q0 22 15 37.5t36 15.5h164q23 0 39 -16t16 -37v-164z" />
    <glyph glyph-name="ring" unicode="&#x2da;" horiz-adv-x="682" 
d="M342 1692q89 0 144 -56.5t55 -140.5q0 -88 -56 -145.5t-143 -57.5q-82 0 -141.5 57.5t-59.5 145.5q0 84 56.5 140.5t144.5 56.5zM342 1392q45 0 72 28.5t27 74.5q0 45 -27.5 71t-71.5 26q-45 0 -73 -26t-28 -71q0 -47 27.5 -75t73.5 -28z" />
    <glyph glyph-name="ogonek" unicode="&#x2db;" horiz-adv-x="682" 
d="M426 0q-39 -18 -58.5 -44t-19.5 -60q0 -35 19.5 -52.5t58.5 -17.5q38 0 68 8v-104q-41 -11 -127 -11q-76 0 -127.5 40t-51.5 100q0 56 33 89t70 52h135z" />
    <glyph glyph-name="tilde" unicode="&#x2dc;" horiz-adv-x="682" 
d="M680 1528q0 -93 -54 -153t-149 -60t-170 59q-60 57 -98 57q-39 0 -58.5 -21t-19.5 -67v-28h-127v63q0 95 56.5 150t152.5 55q77 0 158 -59q66 -57 108 -57q37 0 55.5 18.5t18.5 58.5v39h127v-55z" />
    <glyph glyph-name="hungarumlaut" unicode="&#x2dd;" horiz-adv-x="682" 
d="M772 1620l-244 -328h-186l225 328h205zM434 1620l-244 -328h-186l225 328h205z" />
    <glyph glyph-name="gravecomb" unicode="&#x300;" horiz-adv-x="0" 
d="M-437 1292h-187l-266 328h250z" />
    <glyph glyph-name="acutecomb" unicode="&#x301;" horiz-adv-x="0" 
d="M-208 1620l-266 -328h-187l203 328h250z" />
    <glyph glyph-name="tildecomb" unicode="&#x303;" horiz-adv-x="0" 
d="M-208 1528q0 -93 -54 -153t-149 -60t-170 59q-60 57 -98 57q-39 0 -58.5 -21t-19.5 -67v-28h-127v63q0 95 56.5 150t152.5 55q77 0 158 -59q66 -57 108 -57q37 0 55.5 18.5t18.5 58.5v39h127v-55z" />
    <glyph glyph-name="hookabovecomb" unicode="&#x309;" horiz-adv-x="0" 
d="M-501 1301h-122v97q138 0 138 62q0 59 -120 59q-50 0 -96 -8v109q58 8 132 8q249 0 249 -145q0 -128 -181 -144v-38z" />
    <glyph glyph-name="dotbelowcomb" unicode="&#x323;" horiz-adv-x="0" 
d="M-442 -325q0 -21 -16 -37t-37 -16h-164q-22 0 -37.5 15.5t-15.5 37.5v164q0 22 15 37.5t36 15.5h164q23 0 39 -16t16 -37v-164z" />
    <glyph glyph-name="tonos" unicode="&#x384;" horiz-adv-x="682" 
d="M539 1663l-201 -369h-172l133 369h240z" />
    <glyph glyph-name="dieresistonos" unicode="&#x385;" horiz-adv-x="682" 
d="M557 1663l-201 -369h-172l133 369h240zM709 1389q0 -43 -43 -43h-103q-43 0 -43 43v102q0 43 41 43h105q43 0 43 -43v-102zM164 1389q0 -43 -43 -43h-103q-43 0 -43 43v102q0 43 43 43h103q43 0 43 -43v-102z" />
    <glyph glyph-name="Alphatonos" unicode="&#x386;" horiz-adv-x="905" 
d="M535 406l-101 700l-133 -700h234zM600 0l-47 270h-277l-55 -270h-207l316 1489h282l273 -1489h-285zM257 1500l-201 -369h-172l133 369h240z" />
    <glyph glyph-name="anoteleia" unicode="&#x387;" horiz-adv-x="471" 
d="M387 635q0 -53 -53 -53h-197q-53 0 -53 53v201q0 53 53 53h197q53 0 53 -53v-201z" />
    <glyph glyph-name="Epsilontonos" unicode="&#x388;" horiz-adv-x="1001" 
d="M291 0v1489h676v-135h-406v-473h309v-136h-309v-610h406v-135h-676zM251 1500l-201 -369h-172l133 369h240z" />
    <glyph glyph-name="Etatonos" unicode="&#x389;" horiz-adv-x="1243" 
d="M1122 0h-270v741h-291v-741h-270v1489h270v-612h291v612h270v-1489zM251 1500l-201 -369h-172l133 369h240z" />
    <glyph glyph-name="Iotatonos" unicode="&#x38a;" horiz-adv-x="840" 
d="M272 0v135h135v1219h-135v135h540v-135h-135v-1219h135v-135h-540zM251 1500l-201 -369h-172l133 369h240z" />
    <glyph glyph-name="Omicrontonos" unicode="&#x38c;" horiz-adv-x="1180" 
d="M638 135q103 0 139.5 96t36.5 529q0 335 -29.5 464.5t-152.5 129.5q-117 0 -145.5 -122t-28.5 -472q0 -377 32 -501t148 -124zM630 -10q-203 0 -300.5 99.5t-123 254t-25.5 406.5q0 235 26.5 389.5t125 257t299.5 102.5q207 0 307 -97.5t125.5 -247t25.5 -390.5
q0 -262 -25.5 -418.5t-125.5 -256t-309 -99.5zM251 1500l-201 -369h-172l133 369h240z" />
    <glyph glyph-name="Upsilontonos" unicode="&#x38e;" horiz-adv-x="1159" 
d="M555 0v461l-295 1028h297l174 -721l211 721h211l-328 -1022v-467h-270zM251 1500l-201 -369h-172l133 369h240z" />
    <glyph glyph-name="Omegatonos" unicode="&#x38f;" horiz-adv-x="1174" 
d="M1135 0h-428v213q113 181 113 635q0 349 -50.5 426.5t-132.5 77.5q-84 0 -130 -80t-46 -424q0 -438 113 -635v-213h-428v180h260q-221 308 -221 697q0 331 115.5 475.5t345.5 144.5q226 0 338 -144.5t112 -475.5q0 -381 -221 -697h260v-180zM251 1500l-201 -369h-172
l133 369h240z" />
    <glyph glyph-name="iotadieresistonos" unicode="&#x390;" horiz-adv-x="594" 
d="M573 2q-82 -12 -170 -12q-140 0 -193.5 63.5t-53.5 206.5v823h-138v136h408v-977q0 -63 14.5 -88t65.5 -25q33 0 67 6v-133zM513 1663l-201 -369h-172l133 369h240zM665 1389q0 -43 -43 -43h-103q-43 0 -43 43v102q0 43 41 43h105q43 0 43 -43v-102zM120 1389
q0 -43 -43 -43h-103q-43 0 -43 43v102q0 43 43 43h103q43 0 43 -43v-102z" />
    <glyph glyph-name="Alpha" unicode="&#x391;" horiz-adv-x="905" 
d="M535 406l-101 700l-133 -700h234zM600 0l-47 270h-277l-55 -270h-207l316 1489h282l273 -1489h-285z" />
    <glyph glyph-name="Beta" unicode="&#x392;" horiz-adv-x="1051" 
d="M754 784q119 -34 179 -122.5t60 -231.5q0 -215 -111.5 -322.5t-334.5 -107.5h-424v1489h409q220 0 321 -89t101 -276q0 -120 -50 -205t-150 -135zM393 842h109q98 0 140 62t42 210q0 126 -42.5 183t-135.5 57h-113v-512zM393 135h123q106 0 156.5 62.5t50.5 228.5
q0 161 -51.5 221t-171.5 60h-107v-572z" />
    <glyph glyph-name="Gamma" unicode="&#x393;" horiz-adv-x="819" 
d="M788 1337h-395v-1337h-270v1489h665v-152z" />
    <glyph glyph-name="Delta" unicode="&#x394;" horiz-adv-x="905" 
d="M870 0h-839v135l299 1354h280l260 -1354v-135zM582 180l-150 932l-186 -932h336z" />
    <glyph glyph-name="Epsilon" unicode="&#x395;" horiz-adv-x="836" 
d="M123 0v1489h676v-135h-406v-473h309v-136h-309v-610h406v-135h-676z" />
    <glyph glyph-name="Zeta" unicode="&#x396;" horiz-adv-x="831" 
d="M39 0v135l442 1202h-430v152h733v-135l-444 -1202h453v-152h-754z" />
    <glyph glyph-name="Eta" unicode="&#x397;" horiz-adv-x="1077" 
d="M954 0h-270v741h-291v-741h-270v1489h270v-612h291v612h270v-1489z" />
    <glyph glyph-name="Theta" unicode="&#x398;" horiz-adv-x="1094" 
d="M549 135q103 0 139.5 96t36.5 529q0 335 -29.5 464.5t-152.5 129.5q-117 0 -145.5 -122t-28.5 -472q0 -377 32 -501t148 -124zM541 -10q-203 0 -300.5 99.5t-123 254t-25.5 406.5q0 235 26.5 389.5t125 257t299.5 102.5q207 0 307 -97.5t125.5 -247t25.5 -390.5
q0 -262 -25.5 -418.5t-125.5 -256t-309 -99.5zM675 657h-256v181h256v-181z" />
    <glyph glyph-name="Theta" unicode="&#x472;" horiz-adv-x="1094" 
d="M549 135q103 0 139.5 96t36.5 529q0 335 -29.5 464.5t-152.5 129.5q-117 0 -145.5 -122t-28.5 -472q0 -377 32 -501t148 -124zM541 -10q-203 0 -300.5 99.5t-123 254t-25.5 406.5q0 235 26.5 389.5t125 257t299.5 102.5q207 0 307 -97.5t125.5 -247t25.5 -390.5
q0 -262 -25.5 -418.5t-125.5 -256t-309 -99.5zM675 657h-256v181h256v-181z" />
    <glyph glyph-name="Iota" unicode="&#x399;" horiz-adv-x="598" 
d="M29 0v135h135v1219h-135v135h540v-135h-135v-1219h135v-135h-540z" />
    <glyph glyph-name="Kappa" unicode="&#x39a;" horiz-adv-x="1014" 
d="M1010 0h-305l-312 735v-735h-270v1489h270v-748l359 748h243l-344 -682z" />
    <glyph glyph-name="Lambda" unicode="&#x39b;" horiz-adv-x="909" 
d="M883 0h-287l-177 1077l-196 -1077h-211l301 1489h288z" />
    <glyph glyph-name="Mu" unicode="&#x39c;" horiz-adv-x="1327" 
d="M1203 0h-270v645q0 126 4 260l-209 -381h-130l-209 381q4 -122 4 -260v-645h-270v1489h135l405 -729l405 729h135v-1489z" />
    <glyph glyph-name="Nu" unicode="&#x39d;" horiz-adv-x="1171" 
d="M904 0l-515 911q4 -82 4 -194v-717h-270v1489h145l515 -911q-4 88 -4 190v721h270v-1489h-145z" />
    <glyph glyph-name="Xi" unicode="&#x39e;" horiz-adv-x="813" 
d="M764 1247h-715v242h715v-242zM680 686h-547v219h547v-219zM764 0h-715v242h715v-242z" />
    <glyph glyph-name="Omicron" unicode="&#x39f;" horiz-adv-x="1094" 
d="M549 135q103 0 139.5 96t36.5 529q0 335 -29.5 464.5t-152.5 129.5q-117 0 -145.5 -122t-28.5 -472q0 -377 32 -501t148 -124zM541 -10q-203 0 -300.5 99.5t-123 254t-25.5 406.5q0 235 26.5 389.5t125 257t299.5 102.5q207 0 307 -97.5t125.5 -247t25.5 -390.5
q0 -262 -25.5 -418.5t-125.5 -256t-309 -99.5z" />
    <glyph glyph-name="Pi" unicode="&#x3a0;" horiz-adv-x="1077" 
d="M954 0h-270v1354h-291v-1354h-270v1489h831v-1489z" />
    <glyph glyph-name="Rho" unicode="&#x3a1;" horiz-adv-x="1001" 
d="M393 1354v-697h68q107 0 160 79t53 280q0 212 -53.5 275t-159.5 63h-68zM123 1489h356q252 0 358.5 -108t106.5 -365q0 -259 -111.5 -376.5t-353.5 -117.5h-86v-522h-270v1489z" />
    <glyph glyph-name="Sigma" unicode="&#x3a3;" horiz-adv-x="877" 
d="M836 0h-805v135l407 613l-379 608v133h764v-135h-434l320 -510v-123l-365 -541h492v-180z" />
    <glyph glyph-name="Tau" unicode="&#x3a4;" horiz-adv-x="969" 
d="M349 0v1337h-318v152h907v-152h-318v-1337h-271z" />
    <glyph glyph-name="Upsilon" unicode="&#x3a5;" horiz-adv-x="911" 
d="M305 0v461l-295 1028h297l174 -721l211 721h211l-328 -1022v-467h-270z" />
    <glyph glyph-name="Phi" unicode="&#x3a6;" horiz-adv-x="1458" 
d="M864 205v-205h-270v205q-275 11 -392.5 138.5t-117.5 397.5q0 271 121.5 403t388.5 142v203h270v-203q271 -8 390.5 -137.5t119.5 -398.5q0 -273 -121 -405t-389 -140zM864 1141v-791q132 7 183 95t51 282q0 231 -52.5 318.5t-181.5 95.5zM594 350v791
q-131 -5 -182.5 -95.5t-51.5 -289.5q0 -221 51.5 -310t182.5 -96z" />
    <glyph glyph-name="Chi" unicode="&#x3a7;" horiz-adv-x="1006" 
d="M8 0l352 764l-313 725h311l189 -461l194 461h217l-307 -680l346 -809h-311l-221 547l-240 -547h-217z" />
    <glyph glyph-name="Psi" unicode="&#x3a8;" horiz-adv-x="1397" 
d="M1311 932q0 -244 -112 -352t-365 -111v-469h-271v469q-253 3 -365 111t-112 352v557h270v-594q0 -177 47.5 -228.5t159.5 -52.5v875h271v-875q111 1 158.5 53t47.5 228v594h271v-557z" />
    <glyph glyph-name="Psi" unicode="&#x470;" horiz-adv-x="1397" 
d="M1311 932q0 -244 -112 -352t-365 -111v-469h-271v469q-253 3 -365 111t-112 352v557h270v-594q0 -177 47.5 -228.5t159.5 -52.5v875h271v-875q111 1 158.5 53t47.5 228v594h271v-557z" />
    <glyph glyph-name="Omega" unicode="&#x3a9;" horiz-adv-x="1071" 
d="M1030 0h-428v213q113 181 113 635q0 349 -50.5 426.5t-132.5 77.5q-84 0 -130 -80t-46 -424q0 -438 113 -635v-213h-428v180h260q-221 308 -221 697q0 331 115.5 475.5t345.5 144.5q226 0 338 -144.5t112 -475.5q0 -381 -221 -697h260v-180z" />
    <glyph glyph-name="Iotadieresis" unicode="&#x3aa;" horiz-adv-x="598" 
d="M29 0v135h135v1219h-135v135h540v-135h-135v-1219h135v-135h-540zM598 1631q0 -21 -16 -37t-37 -16h-127q-23 0 -38.5 16t-15.5 37v127q0 22 15.5 38t36.5 16h127q22 0 38.5 -16t16.5 -38v-127zM224 1590q-16 -12 -36 -12h-127q-22 0 -38.5 16t-16.5 37v127q0 22 16 38
t37 16h127q23 0 38.5 -16t15.5 -38v-127q0 -29 -16 -41z" />
    <glyph glyph-name="Upsilondieresis" unicode="&#x3ab;" horiz-adv-x="911" 
d="M305 0v461l-295 1028h297l174 -721l211 721h211l-328 -1022v-467h-270zM749 1631q0 -21 -16 -37t-37 -16h-127q-23 0 -38.5 16t-15.5 37v127q0 22 15.5 38t36.5 16h127q22 0 38.5 -16t16.5 -38v-127zM375 1590q-16 -12 -36 -12h-127q-22 0 -38.5 16t-16.5 37v127
q0 22 16 38t37 16h127q23 0 38.5 -16t15.5 -38v-127q0 -29 -16 -41z" />
    <glyph glyph-name="alphatonos" unicode="&#x3ac;" horiz-adv-x="1075" 
d="M1034 0h-229q-37 99 -51 156q-78 -109 -147 -137.5t-152 -28.5q-189 0 -280 144.5t-91 469.5q0 326 96 475.5t295 149.5q165 0 279 -166q8 31 51 156h229q-64 -142 -95.5 -284t-31.5 -284v-92q0 -136 31.5 -275.5t95.5 -283.5zM498 1083q-76 0 -110 -92.5t-34 -394.5
q0 -240 29.5 -350.5t120.5 -110.5q83 0 116 97t33 348q0 321 -34.5 412t-120.5 91zM770 1663l-201 -369h-172l133 369h240z" />
    <glyph glyph-name="epsilontonos" unicode="&#x3ad;" horiz-adv-x="805" 
d="M776 43q-170 -53 -336 -53q-178 0 -274 90.5t-96 255.5q0 106 53.5 181t161.5 120q-87 40 -130.5 109.5t-43.5 168.5q0 149 99 231.5t275 82.5q144 0 269 -33v-149q-125 36 -199 36q-91 0 -129.5 -47.5t-38.5 -140.5q0 -101 37 -147t125 -46h143v-139h-151
q-98 0 -146.5 -51.5t-48.5 -153.5q0 -113 41.5 -162t138.5 -49q103 0 250 56v-160zM690 1663l-201 -369h-172l133 369h240z" />
    <glyph glyph-name="etatonos" unicode="&#x3ae;" horiz-adv-x="1038" 
d="M295 1067q94 162 295 162q169 0 253.5 -90t84.5 -269v-1140h-271v1159q0 103 -28.5 148.5t-89.5 45.5q-79 0 -115.5 -56t-36.5 -175v-852h-270v1219h135zM752 1663l-201 -369h-172l133 369h240z" />
    <glyph glyph-name="iotatonos" unicode="&#x3af;" horiz-adv-x="594" 
d="M573 2q-82 -12 -170 -12q-140 0 -193.5 63.5t-53.5 206.5v823h-138v136h408v-977q0 -63 14.5 -88t65.5 -25q33 0 67 6v-133zM528 1663l-201 -369h-172l133 369h240z" />
    <glyph glyph-name="upsilondieresistonos" unicode="&#x3b0;" horiz-adv-x="1042" 
d="M111 1219h270v-852q0 -126 29.5 -179t103.5 -53q98 0 129 104.5t31 366.5q0 158 -25.5 311t-75.5 302h275q48 -126 72 -274t24 -318q0 -336 -105 -486.5t-343 -150.5q-201 0 -293 98.5t-92 317.5v813zM735 1663l-201 -369h-172l133 369h240zM887 1389q0 -43 -43 -43h-103
q-43 0 -43 43v102q0 43 41 43h105q43 0 43 -43v-102zM342 1389q0 -43 -43 -43h-103q-43 0 -43 43v102q0 43 43 43h103q43 0 43 -43v-102z" />
    <glyph glyph-name="alpha" unicode="&#x3b1;" horiz-adv-x="1075" 
d="M1034 0h-229q-37 99 -51 156q-78 -109 -147 -137.5t-152 -28.5q-189 0 -280 144.5t-91 469.5q0 326 96 475.5t295 149.5q165 0 279 -166q8 31 51 156h229q-64 -142 -95.5 -284t-31.5 -284v-92q0 -136 31.5 -275.5t95.5 -283.5zM498 1083q-76 0 -110 -92.5t-34 -394.5
q0 -240 29.5 -350.5t120.5 -110.5q83 0 116 97t33 348q0 321 -34.5 412t-120.5 91z" />
    <glyph glyph-name="beta" unicode="&#x3b2;" horiz-adv-x="1047" 
d="M387 12v-282h-270v1409q0 229 111 343.5t333 114.5q194 0 291.5 -93.5t97.5 -280.5q0 -154 -44 -239t-165 -148q116 -35 174 -135t58 -265q0 -221 -103 -331.5t-309 -110.5q-94 0 -174 18zM502 764v135q88 2 130 54.5t42 240.5q0 139 -31.5 198.5t-107.5 59.5
q-70 0 -109 -56.5t-39 -303.5v-932q63 -21 123 -21q111 0 149.5 69.5t38.5 240.5q0 151 -39.5 223.5t-156.5 91.5z" />
    <glyph glyph-name="gamma" unicode="&#x3b3;" horiz-adv-x="956" 
d="M938 1219q-41 -238 -129 -536t-223 -656q6 -71 6 -113v-184h-270v264q0 131 -78 437.5t-234 787.5h281q50 -155 121 -435t104 -456q69 231 111 453.5t57 437.5h254z" />
    <glyph glyph-name="delta" unicode="&#x3b4;" horiz-adv-x="1024" 
d="M354 1094q-72 71 -107.5 137.5t-35.5 128.5q0 107 83 172t222 65q131 0 313 -63v-160q-168 78 -245 78q-55 0 -82 -22t-27 -66q0 -49 38 -97t159 -153q135 -117 202.5 -262.5t67.5 -319.5q0 -271 -108 -406.5t-324 -135.5q-214 0 -321 132t-107 396q0 177 68 321t204 255
zM494 971q-71 -79 -106.5 -193.5t-35.5 -263.5q0 -209 37.5 -294t124.5 -85q84 0 121 76.5t37 265.5q0 146 -44.5 269.5t-133.5 224.5z" />
    <glyph glyph-name="epsilon" unicode="&#x3b5;" horiz-adv-x="805" 
d="M776 43q-170 -53 -336 -53q-178 0 -274 90.5t-96 255.5q0 106 53.5 181t161.5 120q-87 40 -130.5 109.5t-43.5 168.5q0 149 99 231.5t275 82.5q144 0 269 -33v-149q-125 36 -199 36q-91 0 -129.5 -47.5t-38.5 -140.5q0 -101 37 -147t125 -46h143v-139h-151
q-98 0 -146.5 -51.5t-48.5 -153.5q0 -113 41.5 -162t138.5 -49q103 0 250 56v-160z" />
    <glyph glyph-name="zeta" unicode="&#x3b6;" horiz-adv-x="778" 
d="M711 -270h-199q27 91 27 141q0 38 -11 63.5t-33.5 38.5t-103.5 39q-163 52 -232 172t-69 381q0 258 99.5 473.5t299.5 388.5h-344v156h592v-123q-185 -185 -277.5 -410t-92.5 -491q0 -188 38 -265.5t158 -113.5q128 -38 160.5 -90t32.5 -149q0 -80 -45 -211z" />
    <glyph glyph-name="eta" unicode="&#x3b7;" horiz-adv-x="1038" 
d="M295 1067q94 162 295 162q169 0 253.5 -90t84.5 -269v-1140h-271v1159q0 103 -28.5 148.5t-89.5 45.5q-79 0 -115.5 -56t-36.5 -175v-852h-270v1219h135z" />
    <glyph glyph-name="theta" unicode="&#x3b8;" horiz-adv-x="1032" 
d="M512 -10q-226 0 -324 184t-98 621q0 425 101.5 613.5t334.5 188.5q229 0 323.5 -181t94.5 -621q0 -433 -100.5 -619t-331.5 -186zM674 870q0 345 -36.5 463.5t-119.5 118.5q-91 0 -124.5 -121t-33.5 -461h314zM674 735h-314q0 -362 36.5 -481t121.5 -119q80 0 118 124
t38 476z" />
    <glyph glyph-name="theta" unicode="&#x473;" horiz-adv-x="1032" 
d="M512 -10q-226 0 -324 184t-98 621q0 425 101.5 613.5t334.5 188.5q229 0 323.5 -181t94.5 -621q0 -433 -100.5 -619t-331.5 -186zM674 870q0 345 -36.5 463.5t-119.5 118.5q-91 0 -124.5 -121t-33.5 -461h314zM674 735h-314q0 -362 36.5 -481t121.5 -119q80 0 118 124
t38 476z" />
    <glyph glyph-name="iota" unicode="&#x3b9;" horiz-adv-x="594" 
d="M573 2q-82 -12 -170 -12q-140 0 -193.5 63.5t-53.5 206.5v823h-138v136h408v-977q0 -63 14.5 -88t65.5 -25q33 0 67 6v-133z" />
    <glyph glyph-name="kappa" unicode="&#x3ba;" horiz-adv-x="948" 
d="M948 0h-297l-264 649v-649h-270v1219h270v-562l315 562h238l-291 -498z" />
    <glyph glyph-name="lambda" unicode="&#x3bb;" horiz-adv-x="924" 
d="M895 0h-277l-169 838l-224 -838h-219l363 1235q-26 127 -63 167t-105 40q-60 0 -138 -17v152q132 22 228 22q131 0 205 -69.5t114 -251.5z" />
    <glyph glyph-name="mu" unicode="&#x3bc;" horiz-adv-x="1044" 
d="M750 152q-49 -81 -118 -121.5t-157 -40.5q-58 0 -88 14v-274h-270v1489h270v-889q0 -98 29.5 -146.5t89.5 -48.5q75 0 113 58t38 174v852h271v-1219h-135z" />
    <glyph glyph-name="nu" unicode="&#x3bd;" horiz-adv-x="928" 
d="M561 0h-268l-279 1219h281l184 -988q75 215 112.5 393t37.5 320q0 154 -31 275h260q16 -75 16 -177q0 -161 -81.5 -417.5t-231.5 -624.5z" />
    <glyph glyph-name="xi" unicode="&#x3be;" horiz-adv-x="776" 
d="M700 -270h-198q26 91 26 141q0 63 -22.5 86t-108.5 49q-174 54 -251.5 152.5t-77.5 263.5q0 136 70.5 241.5t191.5 153.5q-113 42 -169.5 126t-56.5 210q0 90 29.5 163t89.5 128q-135 50 -172 194h201q18 -100 115 -100q26 0 74.5 5t70.5 5q110 0 240 -32v-152
q-122 39 -195 39q-86 0 -134 -62t-48 -192q0 -142 49.5 -198t163.5 -56h94v-145q-169 0 -253.5 -75.5t-84.5 -225.5q0 -124 45.5 -179t163.5 -90q128 -38 160 -90t32 -149q0 -80 -45 -211z" />
    <glyph glyph-name="omicron" unicode="&#x3bf;" horiz-adv-x="1030" 
d="M514 1229q222 0 327 -147t105 -443q0 -340 -97.5 -494.5t-334.5 -154.5q-239 0 -334.5 154t-95.5 495q0 297 104 443.5t326 146.5zM514 135q87 0 121.5 93.5t34.5 410.5q0 250 -35 347t-121 97q-90 0 -122 -103t-32 -341q0 -323 34.5 -413.5t119.5 -90.5z" />
    <glyph glyph-name="pi" unicode="&#x3c0;" horiz-adv-x="1165" 
d="M1112 2q-84 -12 -168 -12q-134 0 -192 60t-58 206v807h-243v-1063h-271v1063h-147v156h1093v-156h-161v-830q0 -66 19 -85t67 -19q32 0 61 4v-131z" />
    <glyph glyph-name="rho" unicode="&#x3c1;" horiz-adv-x="1040" 
d="M375 4v-274h-271v1063q0 204 107.5 320t306.5 116q223 0 330.5 -141.5t107.5 -466.5q0 -364 -113 -496.5t-339 -132.5q-69 0 -129 12zM375 150q40 -13 96 -13q107 0 159 81t52 394q0 247 -41.5 359t-132.5 112q-67 0 -100 -55t-33 -164v-714z" />
    <glyph glyph-name="sigma1" unicode="&#x3c2;" horiz-adv-x="772" 
d="M705 -270h-199q26 91 26 141q0 64 -24.5 88t-114.5 49q-170 49 -239.5 182t-69.5 418q0 310 111 465.5t333 155.5q114 0 195 -25v-149q-98 28 -166 28q-108 0 -155.5 -113t-47.5 -352q0 -189 14 -253t61 -112.5t128 -72.5q128 -38 160.5 -90t32.5 -149q0 -80 -45 -211z
" />
    <glyph glyph-name="sigma" unicode="&#x3c3;" horiz-adv-x="1106" 
d="M1073 1063h-227q63 -98 95 -222.5t32 -275.5q0 -288 -108 -431.5t-324 -143.5q-229 0 -343 151t-114 453q0 276 149 450.5t490 174.5h350v-156zM598 1059q-105 -14 -171.5 -149.5t-66.5 -319.5q0 -250 42.5 -352.5t134.5 -102.5q68 0 113.5 73t45.5 359q0 159 -24.5 282
t-73.5 210z" />
    <glyph glyph-name="tau" unicode="&#x3c4;" horiz-adv-x="819" 
d="M532 -10q-135 0 -202.5 70.5t-67.5 211.5v791h-229v156h753v-156h-254v-782q0 -97 29 -124.5t80 -27.5q48 0 115 14v-129q-119 -24 -224 -24z" />
    <glyph glyph-name="upsilon" unicode="&#x3c5;" horiz-adv-x="1042" 
d="M111 1219h270v-852q0 -126 29.5 -179t103.5 -53q98 0 129 104.5t31 366.5q0 158 -25.5 311t-75.5 302h275q48 -126 72 -274t24 -318q0 -336 -105 -486.5t-343 -150.5q-201 0 -293 98.5t-92 317.5v813z" />
    <glyph glyph-name="phi" unicode="&#x3c6;" horiz-adv-x="1458" 
d="M858 -6v-264h-270v264q-252 5 -378 157.5t-126 454.5q0 210 95.5 375t248.5 248l96 -129q-85 -64 -127.5 -192.5t-42.5 -321.5q0 -212 58.5 -324t175.5 -123v752q0 159 94.5 248.5t267.5 89.5q229 0 337 -144.5t108 -453.5q0 -322 -119 -473.5t-418 -163.5zM858 139
q152 11 206 126t54 362q0 244 -34.5 350t-122.5 106q-59 0 -81 -33.5t-22 -115.5v-795z" />
    <glyph glyph-name="chi" unicode="&#x3c7;" horiz-adv-x="903" 
d="M934 -270h-285l-215 546l-244 -546h-221l357 757l-318 732h289l186 -467l195 467h217l-307 -680z" />
    <glyph glyph-name="psi" unicode="&#x3c8;" horiz-adv-x="1438" 
d="M1331 457q0 -247 -113 -353.5t-364 -109.5v-264h-270v264q-251 3 -364.5 109.5t-113.5 353.5v762h271v-799q0 -176 48 -228t159 -53v1350h270v-1350q109 1 158 52t49 229v799h270v-762z" />
    <glyph glyph-name="psi" unicode="&#x471;" horiz-adv-x="1438" 
d="M1331 457q0 -247 -113 -353.5t-364 -109.5v-264h-270v264q-251 3 -364.5 109.5t-113.5 353.5v762h271v-799q0 -176 48 -228t159 -53v1350h270v-1350q109 1 158 52t49 229v799h270v-762z" />
    <glyph glyph-name="omega" unicode="&#x3c9;" horiz-adv-x="1466" 
d="M733 125q-56 -68 -127.5 -101.5t-159.5 -33.5q-190 0 -277 132.5t-87 436.5q0 233 93 400.5t280 269.5l94 -129q-99 -72 -148 -211.5t-49 -345.5q0 -238 28 -321t107 -83q59 0 85 49.5t26 208.5v402h270v-402q0 -153 23.5 -205.5t89.5 -52.5q73 0 103 76.5t30 327.5
q0 207 -49 346.5t-147 210.5l94 129q186 -100 279 -267.5t93 -402.5q0 -307 -88 -438t-278 -131q-89 0 -160 33.5t-125 101.5z" />
    <glyph glyph-name="iotadieresis" unicode="&#x3ca;" horiz-adv-x="594" 
d="M573 2q-82 -12 -170 -12q-140 0 -193.5 63.5t-53.5 206.5v823h-138v136h408v-977q0 -63 14.5 -88t65.5 -25q33 0 67 6v-133zM575 1386q0 -21 -16 -37t-37 -16h-127q-23 0 -38.5 16t-15.5 37v127q0 22 15.5 38t36.5 16h127q22 0 38.5 -16t16.5 -38v-127zM201 1345
q-16 -12 -36 -12h-127q-22 0 -38.5 16t-16.5 37v127q0 22 16 38t37 16h127q23 0 38.5 -16t15.5 -38v-127q0 -29 -16 -41z" />
    <glyph glyph-name="upsilondieresis" unicode="&#x3cb;" horiz-adv-x="1042" 
d="M111 1219h270v-852q0 -126 29.5 -179t103.5 -53q98 0 129 104.5t31 366.5q0 158 -25.5 311t-75.5 302h275q48 -126 72 -274t24 -318q0 -336 -105 -486.5t-343 -150.5q-201 0 -293 98.5t-92 317.5v813zM820 1386q0 -21 -16 -37t-37 -16h-127q-23 0 -38.5 16t-15.5 37v127
q0 22 15.5 38t36.5 16h127q22 0 38.5 -16t16.5 -38v-127zM446 1345q-16 -12 -36 -12h-127q-22 0 -38.5 16t-16.5 37v127q0 22 16 38t37 16h127q23 0 38.5 -16t15.5 -38v-127q0 -29 -16 -41z" />
    <glyph glyph-name="omicrontonos" unicode="&#x3cc;" horiz-adv-x="1030" 
d="M514 1229q222 0 327 -147t105 -443q0 -340 -97.5 -494.5t-334.5 -154.5q-239 0 -334.5 154t-95.5 495q0 297 104 443.5t326 146.5zM514 135q87 0 121.5 93.5t34.5 410.5q0 250 -35 347t-121 97q-90 0 -122 -103t-32 -341q0 -323 34.5 -413.5t119.5 -90.5zM758 1663
l-201 -369h-172l133 369h240z" />
    <glyph glyph-name="upsilontonos" unicode="&#x3cd;" horiz-adv-x="1042" 
d="M111 1219h270v-852q0 -126 29.5 -179t103.5 -53q98 0 129 104.5t31 366.5q0 158 -25.5 311t-75.5 302h275q48 -126 72 -274t24 -318q0 -336 -105 -486.5t-343 -150.5q-201 0 -293 98.5t-92 317.5v813zM723 1663l-201 -369h-172l133 369h240z" />
    <glyph glyph-name="omegatonos" unicode="&#x3ce;" horiz-adv-x="1466" 
d="M733 125q-56 -68 -127.5 -101.5t-159.5 -33.5q-190 0 -277 132.5t-87 436.5q0 233 93 400.5t280 269.5l94 -129q-99 -72 -148 -211.5t-49 -345.5q0 -238 28 -321t107 -83q59 0 85 49.5t26 208.5v402h270v-402q0 -153 23.5 -205.5t89.5 -52.5q73 0 103 76.5t30 327.5
q0 207 -49 346.5t-147 210.5l94 129q186 -100 279 -267.5t93 -402.5q0 -307 -88 -438t-278 -131q-89 0 -160 33.5t-125 101.5zM977 1663l-201 -369h-172l133 369h240z" />
    <glyph glyph-name="afii10023" unicode="&#x401;" horiz-adv-x="836" 
d="M123 0v1489h676v-135h-406v-473h309v-136h-309v-610h406v-135h-676zM761 1627q0 -21 -16 -37t-37 -16h-127q-23 0 -38.5 16t-15.5 37v127q0 22 15.5 38t36.5 16h127q22 0 38.5 -16t16.5 -38v-127zM387 1586q-16 -12 -36 -12h-127q-22 0 -38.5 16t-16.5 37v127q0 22 16 38
t37 16h127q23 0 38.5 -16t15.5 -38v-127q0 -29 -16 -41z" />
    <glyph glyph-name="afii10051" unicode="&#x402;" horiz-adv-x="1262" 
d="M621 928q85 71 198 71q178 0 259 -92t81 -284v-613q0 -145 -68.5 -218t-205.5 -73q-112 0 -228 21v162q93 -19 156 -19q38 0 57 30.5t19 90.5v655q0 97 -31 146t-92 49q-73 0 -109 -53.5t-36 -159.5v-641h-271v1337h-319v152h907v-152h-317v-409z" />
    <glyph glyph-name="afii10052" unicode="&#x403;" horiz-adv-x="819" 
d="M788 1337h-395v-1337h-270v1489h665v-152zM752 1876l-266 -328h-187l203 328h250z" />
    <glyph glyph-name="afii10053" unicode="&#x404;" horiz-adv-x="776" 
d="M532 -12q-231 0 -335.5 165t-104.5 619q0 424 114.5 574.5t338.5 150.5q113 0 194 -22v-156q-101 27 -176 27q-101 0 -145.5 -100.5t-48.5 -364.5h290v-136h-290q0 -428 51.5 -516t148.5 -88q74 0 170 29v-152q-98 -30 -207 -30z" />
    <glyph glyph-name="afii10054" unicode="&#x405;" horiz-adv-x="915" 
d="M360 -12q-128 0 -311 51v158q189 -54 289 -54q127 0 190.5 56t63.5 168q0 103 -48.5 168t-197.5 155q-161 100 -224 199t-63 225q0 202 127.5 293.5t335.5 91.5q140 0 283 -39v-155q-136 38 -238 38q-119 0 -178 -45t-59 -135q0 -72 37 -128t172 -142
q115 -75 179.5 -130.5t104 -135t39.5 -195.5q0 -222 -125.5 -333t-376.5 -111z" />
    <glyph glyph-name="afii10055" unicode="&#x406;" horiz-adv-x="598" 
d="M29 0v135h135v1219h-135v135h540v-135h-135v-1219h135v-135h-540z" />
    <glyph glyph-name="afii10056" unicode="&#x407;" horiz-adv-x="598" 
d="M29 0v135h135v1219h-135v135h540v-135h-135v-1219h135v-135h-540zM592 1611q0 -21 -16 -37t-37 -16h-127q-23 0 -38.5 16t-15.5 37v127q0 22 15.5 38t36.5 16h127q22 0 38.5 -16t16.5 -38v-127zM218 1570q-16 -12 -36 -12h-127q-22 0 -38.5 16t-16.5 37v127q0 22 16 38
t37 16h127q23 0 38.5 -16t15.5 -38v-127q0 -29 -16 -41z" />
    <glyph glyph-name="afii10057" unicode="&#x408;" horiz-adv-x="598" 
d="M569 1354h-135v-1344q0 -140 -71.5 -215.5t-204.5 -75.5q-129 0 -228 21v162q81 -19 154 -19q45 0 62.5 29t17.5 92v1350h-135v135h540v-135z" />
    <glyph glyph-name="afii10058" unicode="&#x409;" horiz-adv-x="1724" 
d="M1100 707v-572h94q105 0 156 62t51 229q0 159 -52 220t-171 61h-78zM1100 842h127q222 0 333 -101.5t111 -304.5q0 -226 -114.5 -331t-356.5 -105h-371v1354h-208q-33 -518 -70.5 -782t-78 -379.5t-107.5 -160t-197 -44.5q-59 0 -137 12v176q32 -10 63 -10
q59 0 97.5 37.5t84 266t101.5 888.5l127 131h596v-647z" />
    <glyph glyph-name="afii10059" unicode="&#x40a;" horiz-adv-x="1579" 
d="M954 707v-572h95q106 0 156 63t50 228q0 162 -52 221.5t-171 59.5h-78zM954 842h125q223 0 335 -101.5t112 -304.5q0 -226 -114.5 -331t-356.5 -105h-371v707h-291v-707h-270v1489h270v-647h291v647h270v-647z" />
    <glyph glyph-name="afii10060" unicode="&#x40b;" horiz-adv-x="1262" 
d="M621 926q43 36 92.5 54.5t105.5 18.5q178 0 259 -92t81 -284v-623h-270v659q0 97 -31 146t-92 49q-73 0 -109 -53.5t-36 -159.5v-641h-271v1337h-319v152h907v-152h-317v-411z" />
    <glyph glyph-name="afii10061" unicode="&#x40c;" horiz-adv-x="1090" 
d="M123 1489h270v-645h33q96 0 129 55t57 242q30 238 87 297t184 59q71 0 157 -10v-139q-36 8 -71 8q-48 0 -69 -50t-44 -225q-19 -142 -69 -211t-162 -90q116 -22 173 -104t83 -252q31 -209 47 -254t59 -45q30 0 72 6v-131q-83 -12 -185 -12q-127 0 -174 77t-86 332
q-30 198 -64.5 255t-119.5 57h-37v-709h-270v1489zM897 1882l-266 -328h-187l203 328h250z" />
    <glyph glyph-name="afii10062" unicode="&#x40e;" horiz-adv-x="918" 
d="M913 1489l-383 -1245q-47 -154 -112 -205t-180 -51q-77 0 -146 12v180q58 -14 107 -14q51 0 86 31t53 94l31 106l-351 1092h293l193 -705l192 705h217zM791 1844q-31 -155 -112 -232.5t-212 -77.5q-134 0 -215 77.5t-109 232.5h152q15 -82 58 -123t114 -41t114 41t58 123
h152z" />
    <glyph glyph-name="afii10145" unicode="&#x40f;" horiz-adv-x="1077" 
d="M422 0h-299v1489h270v-1354h291v1354h270v-1489h-297l-20 -268h-197z" />
    <glyph glyph-name="afii10017" unicode="&#x410;" horiz-adv-x="905" 
d="M535 406l-101 700l-133 -700h234zM600 0l-47 270h-277l-55 -270h-207l316 1489h282l273 -1489h-285z" />
    <glyph glyph-name="afii10018" unicode="&#x411;" horiz-adv-x="1018" 
d="M393 707v-572h94q107 0 157 63t50 228q0 159 -52 220t-171 61h-78zM393 842h127q222 0 333.5 -101.5t111.5 -304.5q0 -225 -114.5 -330.5t-356.5 -105.5h-371v1489h702v-152h-432v-495z" />
    <glyph glyph-name="afii10019" unicode="&#x412;" horiz-adv-x="1051" 
d="M754 784q119 -34 179 -122.5t60 -231.5q0 -215 -111.5 -322.5t-334.5 -107.5h-424v1489h409q220 0 321 -89t101 -276q0 -120 -50 -205t-150 -135zM393 842h109q98 0 140 62t42 210q0 126 -42.5 183t-135.5 57h-113v-512zM393 135h123q106 0 156.5 62.5t50.5 228.5
q0 161 -51.5 221t-171.5 60h-107v-572z" />
    <glyph glyph-name="afii10020" unicode="&#x413;" horiz-adv-x="819" 
d="M788 1337h-395v-1337h-270v1489h665v-152z" />
    <glyph glyph-name="afii10021" unicode="&#x414;" horiz-adv-x="1157" 
d="M1120 135l-24 -403h-197l-22 268h-615l-22 -268h-197l-25 403h80q52 152 102.5 442t92.5 781l127 131h610v-1354h90zM760 135v1219h-223q-25 -424 -66.5 -728.5t-97.5 -490.5h387z" />
    <glyph glyph-name="afii10022" unicode="&#x415;" horiz-adv-x="836" 
d="M123 0v1489h676v-135h-406v-473h309v-136h-309v-610h406v-135h-676z" />
    <glyph glyph-name="afii10024" unicode="&#x416;" horiz-adv-x="1651" 
d="M690 1489h271v-645h26q98 0 131 57.5t56 239.5q30 242 88 299t182 57q72 0 158 -10v-139q-37 8 -72 8q-48 0 -69 -50t-44 -225q-19 -142 -69 -211t-162 -90q117 -22 173.5 -103.5t82.5 -252.5q31 -209 47.5 -254t58.5 -45q30 0 72 6v-131q-83 -12 -184 -12
q-128 0 -182.5 94t-77.5 315q-31 198 -65.5 255t-119.5 57h-30v-709h-271v709h-31q-84 0 -119 -57t-65 -255q-23 -211 -74 -310t-186 -99q-102 0 -184 12v131q41 -6 71 -6q43 0 59.5 45t47.5 254q26 171 82.5 252.5t173.5 103.5q-112 21 -162.5 90.5t-69.5 210.5
q-25 196 -47.5 235.5t-64.5 39.5q-35 0 -72 -8v139q86 10 158 10q126 0 183 -59.5t87 -296.5q27 -210 66.5 -253.5t120.5 -43.5h26v645z" />
    <glyph glyph-name="afii10025" unicode="&#x417;" horiz-adv-x="850" 
d="M37 27v149q141 -37 239 -37q119 0 169.5 66t50.5 229q0 153 -55 222t-181 69h-110v135h110q113 0 164 58t51 198q0 126 -41 180t-141 54q-73 0 -221 -39v149q156 39 282 39q199 0 298.5 -92.5t99.5 -276.5q0 -128 -49.5 -213.5t-147.5 -128.5q108 -35 162.5 -123.5
t54.5 -230.5q0 -231 -112 -338.5t-349 -107.5q-108 0 -274 39z" />
    <glyph glyph-name="afii10026" unicode="&#x418;" horiz-adv-x="1171" 
d="M1049 0h-271v715q0 125 4 194l-514 -909h-145v1489h270v-721q0 -109 -4 -190l514 911h146v-1489z" />
    <glyph glyph-name="afii10027" unicode="&#x419;" horiz-adv-x="1171" 
d="M1049 0h-271v715q0 125 4 194l-514 -909h-145v1489h270v-721q0 -109 -4 -190l514 911h146v-1489zM922 1850q-31 -155 -112 -232.5t-212 -77.5q-134 0 -215 77.5t-109 232.5h152q15 -82 58 -123t114 -41t114 41t58 123h152z" />
    <glyph glyph-name="afii10028" unicode="&#x41a;" horiz-adv-x="1090" 
d="M123 1489h270v-645h33q96 0 129 55t57 242q30 238 87 297t184 59q71 0 157 -10v-139q-36 8 -71 8q-48 0 -69 -50t-44 -225q-19 -142 -69 -211t-162 -90q116 -22 173 -104t83 -252q31 -209 47 -254t59 -45q30 0 72 6v-131q-83 -12 -185 -12q-127 0 -174 77t-86 332
q-30 198 -64.5 255t-119.5 57h-37v-709h-270v1489z" />
    <glyph glyph-name="afii10029" unicode="&#x41b;" horiz-adv-x="1229" 
d="M1106 0h-272v1354h-213q-33 -518 -70.5 -782t-78 -379.5t-107.5 -160t-197 -44.5q-59 0 -137 12v176q32 -10 63 -10q59 0 97 37.5t83.5 266t102.5 888.5l127 131h602v-1489z" />
    <glyph glyph-name="afii10030" unicode="&#x41c;" horiz-adv-x="1327" 
d="M1203 0h-270v645q0 126 4 260l-209 -381h-130l-209 381q4 -122 4 -260v-645h-270v1489h135l405 -729l405 729h135v-1489z" />
    <glyph glyph-name="afii10031" unicode="&#x41d;" horiz-adv-x="1077" 
d="M954 0h-270v741h-291v-741h-270v1489h270v-612h291v612h270v-1489z" />
    <glyph glyph-name="afii10032" unicode="&#x41e;" horiz-adv-x="1094" 
d="M549 135q103 0 139.5 96t36.5 529q0 335 -29.5 464.5t-152.5 129.5q-117 0 -145.5 -122t-28.5 -472q0 -377 32 -501t148 -124zM541 -10q-203 0 -300.5 99.5t-123 254t-25.5 406.5q0 235 26.5 389.5t125 257t299.5 102.5q207 0 307 -97.5t125.5 -247t25.5 -390.5
q0 -262 -25.5 -418.5t-125.5 -256t-309 -99.5z" />
    <glyph glyph-name="afii10033" unicode="&#x41f;" horiz-adv-x="1077" 
d="M954 0h-270v1354h-291v-1354h-270v1489h831v-1489z" />
    <glyph glyph-name="afii10034" unicode="&#x420;" horiz-adv-x="1001" 
d="M393 1354v-697h68q107 0 160 79t53 280q0 212 -53.5 275t-159.5 63h-68zM123 1489h356q252 0 358.5 -108t106.5 -365q0 -259 -111.5 -376.5t-353.5 -117.5h-86v-522h-270v1489z" />
    <glyph glyph-name="afii10035" unicode="&#x421;" horiz-adv-x="776" 
d="M532 -8q-225 0 -331.5 162t-106.5 618q0 428 114.5 577.5t336.5 149.5q93 0 194 -24v-151q-95 24 -176 24q-105 0 -148.5 -107.5t-43.5 -469.5q0 -407 43.5 -518t154.5 -111q71 0 170 33v-157q-106 -26 -207 -26z" />
    <glyph glyph-name="afii10036" unicode="&#x422;" horiz-adv-x="969" 
d="M349 0v1337h-318v152h907v-152h-318v-1337h-271z" />
    <glyph glyph-name="afii10037" unicode="&#x423;" horiz-adv-x="918" 
d="M913 1489l-383 -1245q-47 -154 -112 -205t-180 -51q-77 0 -146 12v180q58 -14 107 -14q51 0 86 31t53 94l31 106l-351 1092h293l193 -705l192 705h217z" />
    <glyph glyph-name="afii10038" unicode="&#x424;" horiz-adv-x="1458" 
d="M864 205v-205h-270v205q-275 11 -392.5 138.5t-117.5 397.5q0 271 121.5 403t388.5 142v203h270v-203q271 -8 390.5 -137.5t119.5 -398.5q0 -273 -121 -405t-389 -140zM864 1141v-791q132 7 183 95t51 282q0 231 -52.5 318.5t-181.5 95.5zM594 350v791
q-131 -5 -182.5 -95.5t-51.5 -289.5q0 -221 51.5 -310t182.5 -96z" />
    <glyph glyph-name="afii10039" unicode="&#x425;" horiz-adv-x="1006" 
d="M8 0l352 764l-313 725h311l189 -461l194 461h217l-307 -680l346 -809h-311l-221 547l-240 -547h-217z" />
    <glyph glyph-name="afii10040" unicode="&#x426;" horiz-adv-x="1081" 
d="M801 0h-678v1489h270v-1354h291v1354h270v-1354h90l-24 -403h-197z" />
    <glyph glyph-name="afii10041" unicode="&#x427;" horiz-adv-x="1016" 
d="M893 0h-270v623h-109q-216 0 -324 98.5t-108 296.5v471h270v-475q0 -145 46.5 -200.5t162.5 -55.5h62v731h270v-1489z" />
    <glyph glyph-name="afii10042" unicode="&#x428;" horiz-adv-x="1583" 
d="M1460 0h-1337v1489h270v-1354h262v1354h271v-1354h264v1354h270v-1489z" />
    <glyph glyph-name="afii10043" unicode="&#x429;" horiz-adv-x="1587" 
d="M1307 0h-1184v1489h270v-1354h262v1354h271v-1354h264v1354h270v-1354h90l-26 -403h-197z" />
    <glyph glyph-name="afii10044" unicode="&#x42a;" horiz-adv-x="1206" 
d="M573 707v-572h103q105 0 156 62t51 229q0 159 -52 220t-172 61h-86zM573 842h125q227 0 341 -101.5t114 -304.5q0 -226 -114.5 -331t-356.5 -105h-379v1337h-272v152h542v-647z" />
    <glyph glyph-name="afii10045" unicode="&#x42b;" horiz-adv-x="1464" 
d="M393 707v-572h92q107 0 157 63t50 228q0 159 -52 220t-171 61h-76zM393 842h125q222 0 333.5 -101.5t111.5 -304.5q0 -225 -114.5 -330.5t-356.5 -105.5h-369v1489h270v-647zM1341 0h-270v1489h270v-1489z" />
    <glyph glyph-name="afii10046" unicode="&#x42c;" horiz-adv-x="1018" 
d="M393 707v-572h94q107 0 157 63t50 228q0 159 -52 220t-171 61h-78zM393 842h127q222 0 333.5 -101.5t111.5 -304.5q0 -225 -114.5 -330.5t-356.5 -105.5h-371v1489h270v-647z" />
    <glyph glyph-name="afii10047" unicode="&#x42d;" horiz-adv-x="776" 
d="M238 1497q220 0 333 -146.5t113 -578.5q0 -487 -114 -635.5t-330 -148.5q-105 0 -203 30v152q96 -29 170 -29q101 0 151 93t50 511h-291v136h291q-5 264 -49.5 364.5t-145.5 100.5q-67 0 -176 -29v156q88 24 201 24z" />
    </font>
</defs>
</svg>
