<?xml version="1.0" standalone="no"?><!DOCTYPE svg PUBLIC "-//W3C//DTD SVG 1.1//EN" "http://www.w3.org/Graphics/SVG/1.1/DTD/svg11.dtd"><svg class="icon" height="512" viewBox="0 0 1024 1024" version="1.1" xmlns="http://www.w3.org/2000/svg"><path d="M533.876364 870.446545h16.709818c22.248727-5.585455 41.704727-22.248727 47.290182-41.704727 5.585455-11.170909 5.585455-16.709818 5.585454-27.834182H464.290909c0 38.958545 33.373091 69.538909 69.538909 69.538909z m211.409454-386.65309c0-105.658182-58.414545-197.492364-158.533818-222.487273v-22.295273c0-27.787636-22.295273-52.829091-52.875636-52.829091-30.580364 0-52.829091 22.248727-52.829091 52.829091v22.295273c-100.165818 22.248727-158.580364 111.243636-158.580364 222.487273v175.243636l-69.538909 69.538909v36.165818h561.896727v-36.165818l-69.538909-69.538909v-175.243636z m69.538909-16.663273H884.363636c-5.585455-111.243636-58.414545-211.409455-144.663272-275.362909l-47.290182 47.243636c69.585455 52.875636 116.829091 139.124364 122.414545 228.072727z m-433.943272-228.072727L330.845091 191.767273C244.596364 255.720727 191.767273 355.84 186.181818 467.130182h69.538909c2.792727-88.994909 50.082909-175.243636 125.207273-228.072727z" fill="#7F7F7F" /></svg>