<svg xmlns="http://www.w3.org/2000/svg" width="36.161" height="36.16" viewBox="0 0 36.161 36.16">
  <path id="ic_bank" d="M75.068,55.971a8.287,8.287,0,0,0-1.921-10.487V40.573H73.9a.753.753,0,0,0,.753-.753v-2.26h.753a.753.753,0,0,0,.429-1.371L58.51,24.134a.753.753,0,0,0-.859,0L40.324,36.188a.753.753,0,0,0,.429,1.371h.753v2.26a.753.753,0,0,0,.753.753h.753V52.626H42.26a.753.753,0,0,0-.753.753v2.4A2.26,2.26,0,0,0,40,57.9v1.507a.753.753,0,0,0,.753.753H75.408a.753.753,0,0,0,.753-.753V57.9A2.26,2.26,0,0,0,75.068,55.971ZM73.147,39.066H67.121V37.559h6.027Zm-1.507,1.507V44.5a8.211,8.211,0,0,0-3.013-.874V40.573Zm-13.56-14.9L73,36.052H43.157ZM49.794,52.626H49.04V40.573h.753a.753.753,0,0,0,.753-.753v-2.26H53.56v2.26a.753.753,0,0,0,.753.753h.753V52.626h-.753a.753.753,0,0,0-.753.753v2.26H50.547V53.38A.753.753,0,0,0,49.794,52.626Zm5.273,1.507h4.844a8.219,8.219,0,0,0,.6,1.507H55.067V54.133Zm1.507-1.507V40.573h3.013V52.626Zm3.767-13.56H55.067V37.559h6.027v1.507Zm.753,1.507h.753a.753.753,0,0,0,.753-.753v-2.26h3.013v2.26a.753.753,0,0,0,.753.753h.753v3.051a8.287,8.287,0,0,0-6.027,3.5Zm-18.08-3.013H49.04v1.507H43.013Zm4.52,3.013V52.626H44.52V40.573Zm-4.52,13.56H49.04V55.64H43.013Zm-1.507,4.52V57.9a.753.753,0,0,1,.753-.753H61.486a8.355,8.355,0,0,0,1.635,1.507H41.507Zm33.147,0H72.62A8.349,8.349,0,0,0,74.2,57.214a.753.753,0,0,1,.452.686Zm-6.78,0a6.78,6.78,0,1,1,6.78-6.78A6.78,6.78,0,0,1,67.874,58.653Zm1.507-10.547h-.753V46.6H67.121v1.507h-.753a1.507,1.507,0,0,0-1.507,1.507v1.507a1.507,1.507,0,0,0,1.507,1.507h3.013v1.507H66.367v-.753H64.861v.753a1.507,1.507,0,0,0,1.507,1.507h.753v1.507h1.507V55.639h.753a1.507,1.507,0,0,0,1.507-1.507V52.626a1.507,1.507,0,0,0-1.507-1.507H66.367V49.613h3.013v.753h1.507v-.753A1.507,1.507,0,0,0,69.381,48.106Z" transform="translate(-40 -24)" fill="#bebebe"/>
</svg>
