<svg xmlns="http://www.w3.org/2000/svg" width="32" height="26" viewBox="0 0 32 26">
  <path id="ic_debit_card" d="M35.061,45.041h8.531a.5.5,0,0,0,.533-.531V39.735a.5.5,0,0,0-.533-.531H35.061a.5.5,0,0,0-.533.531V44.51A.5.5,0,0,0,35.061,45.041Zm.533-4.776h7.464V43.98H35.595ZM49.51,32.624a1.989,1.989,0,0,0-1.44-.8l-1.28-.154V29.122A2.134,2.134,0,0,0,44.658,27H20.133A2.134,2.134,0,0,0,18,29.122V46.1a2.132,2.132,0,0,0,1.528,2.034,2.069,2.069,0,0,0,1.884,2.1L46.045,53h.213a2.132,2.132,0,0,0,2.133-1.8l1.6-17.033A2.056,2.056,0,0,0,49.51,32.624Zm-30.444-1.91H45.725V33.9H19.066Zm1.066-2.653H44.658a1.067,1.067,0,0,1,1.066,1.061v.531H19.066v-.531A1.067,1.067,0,0,1,20.133,28.061ZM19.066,46.1V34.959H45.725V46.1a1.067,1.067,0,0,1-1.066,1.061H20.133A1.067,1.067,0,0,1,19.066,46.1ZM48.924,33.951l-1.6,17.033a1.074,1.074,0,0,1-1.173.955L21.572,49.18a1.075,1.075,0,0,1-.96-.955H44.658A2.134,2.134,0,0,0,46.791,46.1V32.678l1.226.106a.913.913,0,0,1,.693.371A1.071,1.071,0,0,1,48.924,33.951ZM20.666,38.143a.531.531,0,1,1,0-1.061h4.265a.531.531,0,1,1,0,1.061Zm6.4,0a.531.531,0,1,1,0-1.061h4.265a.531.531,0,1,1,0,1.061Zm-6.4,2.122a.531.531,0,1,1,0-1.061H27.6a.531.531,0,1,1,0,1.061ZM31.329,39.2a.531.531,0,1,1,0,1.061h-1.6a.531.531,0,1,1,0-1.061Z" transform="translate(-18 -27)" fill="#696969"/>
</svg>
