<svg xmlns="http://www.w3.org/2000/svg" width="12" height="16" viewBox="0 0 12 16">
  <path id="path" d="M9.493,2.5c3.244,0,6.136,2.764,6,5.818-.141,3.345-4.373,10.182-6,10.182s-5.854-6.764-6-10.182C3.357,5.264,6.249,2.5,9.493,2.5Zm0,14.473.635-.655a24.1,24.1,0,0,0,1.693-2.327,13.55,13.55,0,0,0,2.257-5.673,4.59,4.59,0,0,0-9.169,0,13.2,13.2,0,0,0,2.257,5.673,16.1,16.1,0,0,0,1.693,2.327,2.736,2.736,0,0,0,.635.655Zm0-5.745a2.547,2.547,0,0,1,0-5.091,2.547,2.547,0,0,1,0,5.091Zm0-1.455A1.091,1.091,0,1,0,8.435,8.682,1.1,1.1,0,0,0,9.493,9.773Z" transform="translate(-3.493 -2.5)" fill="#f79a1d"/>
</svg>
