<svg xmlns="http://www.w3.org/2000/svg" width="25" height="21.875" viewBox="0 0 25 21.875">
  <path id="Fill_149" data-name="Fill 149" d="M21.875,21.875H3.125A3.128,3.128,0,0,1,0,18.75V6.25A3.129,3.129,0,0,1,3.125,3.125H5.469L6.25,1.562l.108-.217C6.717.623,7.027,0,7.812,0h9.375c.785,0,1.061.555,1.443,1.323.039.078.078.158.12.24l.781,1.562h2.343A3.129,3.129,0,0,1,25,6.25v12.5A3.129,3.129,0,0,1,21.875,21.875ZM3.125,4.688A1.564,1.564,0,0,0,1.562,6.25v12.5a1.564,1.564,0,0,0,1.562,1.562h18.75a1.564,1.564,0,0,0,1.562-1.562V6.25a1.564,1.564,0,0,0-1.562-1.562H18.75l-.781-1.563c-.109-.18-.2-.352-.288-.5-.351-.637-.582-1.058-1.275-1.058H8.593c-.692,0-.923.42-1.273,1.055-.093.168-.185.334-.289.507L6.25,4.688ZM12.5,18.75a6.25,6.25,0,1,1,6.25-6.25A6.257,6.257,0,0,1,12.5,18.75Zm0-10.938A4.687,4.687,0,1,0,17.187,12.5,4.693,4.693,0,0,0,12.5,7.812Z" fill="#bebebe"/>
</svg>
