<svg xmlns="http://www.w3.org/2000/svg" width="9.949" height="7.047" viewBox="0 0 9.949 7.047">
  <path id="ic_back" d="M23.15-30.864A.442.442,0,0,1,23.473-31a.442.442,0,0,1,.323.136L26.8-27.795a.3.3,0,0,1,.056.068.04.04,0,0,1,.011.023.249.249,0,0,0,.033.057c0,.011,0,.023.011.023.011.023.011.034.022.057a.255.255,0,0,1,.011.091.255.255,0,0,1-.011.091.088.088,0,0,1-.022.057c0,.011,0,.023-.011.023l-.033.068a.011.011,0,0,1-.011.011.3.3,0,0,1-.056.068L23.8-24.089a.451.451,0,0,1-.646,0,.473.473,0,0,1,0-.659l2.228-2.273H17.457A.456.456,0,0,1,17-27.488a.456.456,0,0,1,.457-.466h7.921L23.15-30.227A.445.445,0,0,1,23.15-30.864Z" transform="translate(-17 31)" fill="#333"/>
</svg>
