<svg xmlns="http://www.w3.org/2000/svg" xmlns:xlink="http://www.w3.org/1999/xlink" width="107" height="100.955" viewBox="0 0 107 100.955">
  <defs>
    <clipPath id="clip-path">
      <path id="Path_3781" data-name="Path 3781" d="M0-25.886H107V-9.257H0Z" transform="translate(0 25.886)" fill="none" clip-rule="evenodd"/>
    </clipPath>
    <clipPath id="clip-path-2">
      <rect id="Rectangle_1152" data-name="Rectangle 1152" width="107.165" height="16.85" fill="none"/>
    </clipPath>
    <clipPath id="clip-path-3">
      <path id="Path_3780" data-name="Path 3780" d="M107-17.571c0,4.592-23.953,8.315-53.5,8.315S0-12.979,0-17.571s23.953-8.315,53.5-8.315S107-22.163,107-17.571" transform="translate(0 25.886)" fill="none" clip-rule="evenodd"/>
    </clipPath>
    <clipPath id="clip-path-4">
      <path id="Path_3779" data-name="Path 3779" d="M0-9.15H107.165V-26H0Z" transform="translate(0 26)" fill="none"/>
    </clipPath>
    <clipPath id="clip-path-5">
      <path id="Path_3783" data-name="Path 3783" d="M91.6-87.687l14.138,50.08-24.8-8.909-21.96,8.247-21.96-8.247-24.8,8.909,14.138-50.08L45.2-93.771l13.776,6.352,13.776-6.352Z" transform="translate(-12.221 93.771)" fill="none" clip-rule="evenodd"/>
    </clipPath>
    <clipPath id="clip-path-6">
      <path id="Path_3785" data-name="Path 3785" d="M74.284-110.23l7.433,44.382L59.757-57.6V-84.888L45.231-110.23,37.8-65.847,13-56.938l14.138-50.08,16.892-5.306-1.47-2.564L40.6-118.311a21.878,21.878,0,0,1-2.771-11.871,22.031,22.031,0,0,1,20.93-20.795A21.961,21.961,0,0,1,81.717-129.04a21.855,21.855,0,0,1-2.8,10.729l-1.167,2.035Z" transform="translate(-13 151)" fill="none" clip-rule="evenodd"/>
    </clipPath>
    <clipPath id="clip-path-7">
      <path id="Path_3787" data-name="Path 3787" d="M75.182-111.7l16.943,6.858a.674.674,0,0,1,.4.442l.991,3.511a.674.674,0,0,1-.466.832.674.674,0,0,1-.832-.465l-.9-3.194-16.807-6.8L59.236-83.879a.674.674,0,0,1-1.169,0L42.34-111.314l-.012-.022-15.742,5.513L12.9-57.341l23.565-8.467a.674.674,0,0,1,.465,0l21.723,8.158,5.483-2.059,16.24-6.1a.674.674,0,0,1,.465,0L104.4-57.341,92.811-98.406a.674.674,0,0,1,.466-.832.674.674,0,0,1,.832.466l11.949,42.325a.674.674,0,0,1-.877.817L80.616-64.455,64.608-58.443,58.888-56.3a.674.674,0,0,1-.474,0l-21.728-8.16L12.122-55.629a.674.674,0,0,1-.877-.817l14.138-50.08a.674.674,0,0,1,.426-.453l16.619-5.82a.674.674,0,0,1,.859.413.674.674,0,0,1,.037.194.672.672,0,0,1,.185.207L58.652-85.569l17.408-30.368,1.164-2.03a21.175,21.175,0,0,0,2.714-10.4,21.286,21.286,0,0,0-21.286-21.286,21.286,21.286,0,0,0-21.286,21.286,21.212,21.212,0,0,0,1.084,6.716.674.674,0,0,1-.426.852.674.674,0,0,1-.852-.427,22.559,22.559,0,0,1-1.154-7.142A22.634,22.634,0,0,1,58.652-151a22.634,22.634,0,0,1,22.634,22.634A22.528,22.528,0,0,1,78.4-117.3l-1.167,2.035ZM71.109-96.169l-3.154,1.346a.674.674,0,0,1-.884-.355.674.674,0,0,1,.355-.884l3.745-1.6a.674.674,0,0,1,.884.355.674.674,0,0,1-.355.884l-.123.052a.674.674,0,0,1,.681.6l2.017,17.79a.674.674,0,0,1-.594.746.674.674,0,0,1-.746-.594l-2.017-17.79A.673.673,0,0,1,71.109-96.169Zm3.837,24.544a.674.674,0,0,1-.574.489.674.674,0,0,1-.746-.594L73.2-75.486a.674.674,0,0,1,.594-.746.674.674,0,0,1,.746.594l.314,2.767,4.166-2.238L90.834-70.7a.674.674,0,0,1,.4.867.674.674,0,0,1-.867.4L79.121-73.632l-3.648,1.96A.672.672,0,0,1,74.946-71.625Zm17.2,2.85a.674.674,0,0,1-.4-.867.674.674,0,0,1,.867-.4l1.346.5a.674.674,0,0,1,.4.867.674.674,0,0,1-.867.4Zm-40.5-21.532a.674.674,0,0,1-.72.625.674.674,0,0,1-.625-.72L50.482-93a.674.674,0,0,1,.72-.625.674.674,0,0,1,.625.72Zm-.627,8.938a.674.674,0,0,1-.72.625.674.674,0,0,1-.625-.72l.505-7.2a.674.674,0,0,1,.72-.625.674.674,0,0,1,.625.72Zm-.394,5.615a.674.674,0,0,1-.719.625.674.674,0,0,1-.625-.719l.3-4.206a.674.674,0,0,1,.719-.625.674.674,0,0,1,.625.719Zm-4.536.767a.674.674,0,0,1-.223-.927.674.674,0,0,1,.927-.223l3.351,2.051a.674.674,0,0,1,.223.927.674.674,0,0,1-.927.223Zm-10.252-3.4a.674.674,0,0,1-.828-.471.674.674,0,0,1,.471-.828l3.8-1.045,4.735,2.9a.674.674,0,0,1,.223.927.674.674,0,0,1-.927.223L39.074-79.28ZM24.051-75.152a.674.674,0,0,1-.829-.471.674.674,0,0,1,.471-.829l7.9-2.171a.674.674,0,0,1,.829.471.674.674,0,0,1-.471.829Zm53.175-6.154a.674.674,0,0,1,.553-.776.674.674,0,0,1,.776.553l.7,4.155a.674.674,0,0,1-.553.776.674.674,0,0,1-.776-.553Zm-3.594-21.458a.674.674,0,0,1,.553-.776.674.674,0,0,1,.776.553l2.991,17.86a.674.674,0,0,1-.553.776.674.674,0,0,1-.776-.553ZM40.324-82.779a.674.674,0,0,1-.776.553A.674.674,0,0,1,38.994-83l4-23.9a.674.674,0,0,1,.776-.553.674.674,0,0,1,.553.776Zm1.716-31.77a.674.674,0,0,1-.25.92.674.674,0,0,1-.92-.25L38.9-117.308q-.256-.456-.5-.933a.674.674,0,0,1,.3-.9.674.674,0,0,1,.9.3c.151.3.306.593.464.873Zm27.066-18.233a.674.674,0,0,1-.358.883.674.674,0,0,1-.883-.358,10,10,0,0,0-9.213-6.106,10,10,0,0,0-10,10,10,10,0,0,0,10,10,10,10,0,0,0,10-10,.674.674,0,0,1,.674-.674.674.674,0,0,1,.674.674A11.345,11.345,0,0,1,58.651-117.02a11.346,11.346,0,0,1-11.346-11.346,11.345,11.345,0,0,1,11.346-11.346A11.348,11.348,0,0,1,69.105-132.782Zm-27.3-1.389a.674.674,0,0,1,.857-.418.674.674,0,0,1,.418.857,16.44,16.44,0,0,0-.894,5.366.674.674,0,0,1-.674.674.674.674,0,0,1-.674-.674A17.788,17.788,0,0,1,41.8-134.172Zm26.809-8.967a.674.674,0,0,1,.181.936.674.674,0,0,1-.936.181,16.388,16.388,0,0,0-9.207-2.812,16.456,16.456,0,0,0-14.089,7.938.674.674,0,0,1-.926.227.674.674,0,0,1-.227-.926,17.8,17.8,0,0,1,15.242-8.587A17.736,17.736,0,0,1,68.613-143.138Z" transform="translate(-11.219 151)" fill="none" clip-rule="evenodd"/>
    </clipPath>
    <clipPath id="clip-path-8">
      <path id="Path_3789" data-name="Path 3789" d="M87.1-122.58a10.672,10.672,0,0,0-10.672-10.672A10.672,10.672,0,0,0,65.761-122.58a10.672,10.672,0,0,0,10.672,10.672A10.672,10.672,0,0,0,87.1-122.58" transform="translate(-65.761 133.252)" fill="none" clip-rule="evenodd"/>
    </clipPath>
  </defs>
  <g id="Group_6345" data-name="Group 6345" transform="translate(0 151)">
    <g id="Group_6340" data-name="Group 6340" transform="translate(0 -66.674)" opacity="0.612" clip-path="url(#clip-path)">
      <g id="Group_6339" data-name="Group 6339" transform="translate(0 -0.077)" clip-path="url(#clip-path-2)">
        <g id="Group_6338" data-name="Group 6338" transform="translate(0 0.077)" clip-path="url(#clip-path-3)">
          <g id="Group_6337" data-name="Group 6337" transform="translate(0 -0.077)" clip-path="url(#clip-path-4)">
            <path id="Path_3778" data-name="Path 3778" d="M-5-30.886H108.74V-7.517H-5Z" transform="translate(1.63 27.593)" fill="#dedede"/>
          </g>
        </g>
      </g>
    </g>
    <g id="Group_6341" data-name="Group 6341" transform="translate(8.237 -112.428)" clip-path="url(#clip-path-5)">
      <path id="Path_3782" data-name="Path 3782" d="M7.221-98.771H107.475v62.9H7.221Z" transform="translate(-10.591 95.401)" fill="#fff"/>
    </g>
    <g id="Group_6342" data-name="Group 6342" transform="translate(8.762 -151)" clip-path="url(#clip-path-6)">
      <path id="Path_3784" data-name="Path 3784" d="M8-156H83.457V-55.2H8Z" transform="translate(-11.37 152.63)" fill="#f79a1d"/>
    </g>
    <g id="Group_6343" data-name="Group 6343" transform="translate(7.562 -151)" clip-path="url(#clip-path-7)">
      <path id="Path_3786" data-name="Path 3786" d="M6.219-156h101.6V-53.849H6.219Z" transform="translate(-9.589 152.63)" fill="#747680"/>
    </g>
    <g id="Group_6344" data-name="Group 6344" transform="translate(44.322 -139.038)" clip-path="url(#clip-path-8)">
      <path id="Path_3788" data-name="Path 3788" d="M60.761-138.252H88.844v28.083H60.761Z" transform="translate(-64.131 134.882)" fill="#fff"/>
    </g>
  </g>
</svg>
