<svg xmlns="http://www.w3.org/2000/svg" width="24" height="24" viewBox="0 0 24 24">
  <path id="QR_code" data-name="QR code" d="M310,2760.88h-9a1,1,0,0,1,0-2h9a1,1,0,0,0,1-1v-9a1,1,0,0,1,2,0v9A3,3,0,0,1,310,2760.88Zm-1-5v-6a2,2,0,0,0-2-2h-5a2,2,0,0,0-2,2v5a2,2,0,0,0,2,2h2a1,1,0,0,0,0-2h-2v-5h5v6a1,1,0,0,0,2,0Zm15-1v-5a2,2,0,0,0-2-2h-5a2,2,0,0,0-2,2v2a1,1,0,0,0,2,0v-2h5v5h-6a1,1,0,0,0,0,2h6A2,2,0,0,0,324,2754.88Zm-15,15v-2a1,1,0,0,0-2,0v2h-5v-5h6a1,1,0,0,0,0-2h-6a2,2,0,0,0-2,2v5a2,2,0,0,0,2,2h5A2,2,0,0,0,309,2769.88Zm15,0v-5a2,2,0,0,0-2-2h-2a1,1,0,0,0,0,2h2v5h-5v-6a1,1,0,0,0-2,0v6a2,2,0,0,0,2,2h5A2,2,0,0,0,324,2769.88Zm-11,1v-7a1,1,0,0,0-2,0v7a1,1,0,0,0,2,0Zm11-11a1,1,0,0,0-1-1h-7a1,1,0,0,0,0,2h7A1,1,0,0,0,324,2759.88Z" transform="translate(-300 -2747.88)" fill="#888"/>
</svg>
